M48
;Layer_Color=9474304
;FILE_FORMAT=4:4
METRIC,LZ
;TYPE=PLATED
T1F00S00C0.3000
T2F00S00C0.5000
T3F00S00C0.7010
T4F00S00C0.7600
T5F00S00C0.7620
T6F00S00C0.9144
T7F00S00C1.0000
T9F00S00C1.0160
T10F00S00C1.3000
T11F00S00C1.6510
T12F00S00C3.5560
%
T01
X0164338Y0118999
X0180975Y0118745
X01875284Y01183651
Y01174651
X020193Y013081
X0202565Y0131191
X0202982Y0131826
X020447Y013462
X02032Y0136069
Y0139573
X020066Y0140589
X0198999Y0138166
X0207645Y0139446
X0215822Y0139649
Y0138849
Y0138049
Y0137249
X0214884Y0138176
X0217346Y0138049
X02144644Y01359054
X02138987Y01353397
X0213333Y0134774
X02138103Y01331653
X0212471Y013335
X02117503Y01325023
X02099705Y01315355
X02094048Y01309698
X02087122Y01305311
X02105806Y0129794
X0207899Y01284586
X0215392Y0125349
X0214518Y0123713
X0218394Y0123144
X02184205Y0127508
X0219837Y0132461
Y013335
Y0134112
X0221869
Y013335
Y0132461
X02242995Y01332475
X02242475Y01340995
X0222504Y0141224
X0222758Y0146304
X0220091Y0150876
X0227203Y015367
X0209804Y0149606
X0210185Y0148336
X0210693Y0146558
X0211074Y0145161
X02149417Y01342967
X0224299Y0123755
X0206248Y0155067
X0192806Y0155057
X0191897Y0157734
X018796Y0157226
X0185039Y0152781
X0190881Y0151765
X0191643Y0151257
X0197358Y014986
Y0149098
Y0148336
Y0147574
Y0146685
Y0145923
Y0145161
X01941195Y0142621
X0195961Y0138938
X0197231Y0137922
X0197739Y013716
X0198374Y0138557
X0194437Y0135636
X0193294Y0131318
X0193802Y0124968
X0193753Y012406
X0196723Y0123698
X01967458Y01245232
X0192024Y0120777
X01875284Y01200651
Y01191651
X0188468Y0124079
X018923Y0125857
X018288Y0125095
X0183642Y0122174
X0182118Y01214651
X0174498Y0152908
X0179705Y0163703
X0182372Y01651
X0175514Y0169164
X0173355
X0182233Y0177879
X019298Y0163147
X019558Y0163322
X0194691Y0159512
X0191897
X0204343Y0160655
X0204216Y0162941
X0208534Y0162052
X0213487Y0165767
X0215773Y0165608
X0208026Y0170815
X0201676Y0168783
X0215011Y0178943
X0218186Y018542
X0223901Y0185262
T02
X02064385Y0130048
X0213487Y0141478
X0200152Y0151638
X019939Y0163703
T03
X0215646Y0142621
X0216646Y0144321
X0214646
X0223139Y0155321
Y0157861
X016637Y0156464
Y0153924
Y0151384
Y0148844
Y0143764
Y0141224
Y0138684
X017453Y0161036
X017653
X0214646Y0161212
X0216646
X0215646Y0159512
X0223139Y0160401
Y0162941
T04
X0166243Y012954
Y013304
T05
X0185928Y0139192
Y0143992
X0191389
Y0139192
T06
X01888236Y0190066
X0191367
X01995424
X0202073
T07
X0177165Y0140081
Y0142621
Y0145161
X0179705
Y0142621
Y0140081
Y0147701
X0177165
Y0150241
X0179705
X0172974Y0180848
Y018288
X0170434
Y0180848
T09
X0191008Y0176276
X0193548
X0196088
X0197358Y0178816
X0194818
X0192278
X0199898
X0198628Y0176276
T10
X016638Y0113538
X017018
X017398
X0192131Y0108717
X0195931
X0199731
X0203536Y0108712
X0207336
X0211136
X0214936
X0218736
X0222536
X0220661Y0120137
X0224461
X0216861
X0213061
X0209261
X0205461
X0201656Y0120142
X0197856
X0194056
X0216301Y0187452
X0220101
X0223901
T11
X0187448Y0182116
X0203448
T12
X0189738Y018542
X0201168
M30
