G04*
G04 #@! TF.GenerationSoftware,Altium Limited,Altium Designer,19.1.5 (86)*
G04*
G04 Layer_Physical_Order=2*
G04 Layer_Color=16711680*
%FSLAX44Y44*%
%MOMM*%
G71*
G01*
G75*
%ADD12C,0.6000*%
%ADD18C,0.3000*%
%ADD20R,1.8000X2.4000*%
G04:AMPARAMS|DCode=21|XSize=1.8mm|YSize=2.4mm|CornerRadius=0.45mm|HoleSize=0mm|Usage=FLASHONLY|Rotation=0.000|XOffset=0mm|YOffset=0mm|HoleType=Round|Shape=RoundedRectangle|*
%AMROUNDEDRECTD21*
21,1,1.8000,1.5000,0,0,0.0*
21,1,0.9000,2.4000,0,0,0.0*
1,1,0.9000,0.4500,-0.7500*
1,1,0.9000,-0.4500,-0.7500*
1,1,0.9000,-0.4500,0.7500*
1,1,0.9000,0.4500,0.7500*
%
%ADD21ROUNDEDRECTD21*%
%ADD22R,2.4000X1.8000*%
G04:AMPARAMS|DCode=23|XSize=1.8mm|YSize=2.4mm|CornerRadius=0.45mm|HoleSize=0mm|Usage=FLASHONLY|Rotation=90.000|XOffset=0mm|YOffset=0mm|HoleType=Round|Shape=RoundedRectangle|*
%AMROUNDEDRECTD23*
21,1,1.8000,1.5000,0,0,90.0*
21,1,0.9000,2.4000,0,0,90.0*
1,1,0.9000,0.7500,0.4500*
1,1,0.9000,0.7500,-0.4500*
1,1,0.9000,-0.7500,-0.4500*
1,1,0.9000,-0.7500,0.4500*
%
%ADD23ROUNDEDRECTD23*%
%ADD24R,0.6000X0.5500*%
%ADD25R,0.6000X0.6500*%
%ADD26R,1.3000X1.0000*%
%ADD29R,1.0000X1.3000*%
%ADD30R,1.6000X1.2000*%
G04:AMPARAMS|DCode=31|XSize=1.6mm|YSize=1.2mm|CornerRadius=0.3mm|HoleSize=0mm|Usage=FLASHONLY|Rotation=0.000|XOffset=0mm|YOffset=0mm|HoleType=Round|Shape=RoundedRectangle|*
%AMROUNDEDRECTD31*
21,1,1.6000,0.6000,0,0,0.0*
21,1,1.0000,1.2000,0,0,0.0*
1,1,0.6000,0.5000,-0.3000*
1,1,0.6000,-0.5000,-0.3000*
1,1,0.6000,-0.5000,0.3000*
1,1,0.6000,0.5000,0.3000*
%
%ADD31ROUNDEDRECTD31*%
%ADD40R,2.0000X2.0000*%
%ADD44R,0.5000X0.5000*%
%ADD46R,1.0000X1.0000*%
%ADD101C,0.1270*%
%ADD102C,1.4000*%
%ADD103C,2.0000*%
%ADD104O,1.5748X2.0320*%
%ADD105R,1.5748X2.0320*%
%ADD106C,1.8288*%
%ADD107C,2.2860*%
%ADD108C,1.5240*%
%ADD109C,1.5000*%
%ADD110R,1.5000X1.5000*%
G04:AMPARAMS|DCode=111|XSize=1.7mm|YSize=3mm|CornerRadius=0.425mm|HoleSize=0mm|Usage=FLASHONLY|Rotation=180.000|XOffset=0mm|YOffset=0mm|HoleType=Round|Shape=RoundedRectangle|*
%AMROUNDEDRECTD111*
21,1,1.7000,2.1500,0,0,180.0*
21,1,0.8500,3.0000,0,0,180.0*
1,1,0.8500,-0.4250,1.0750*
1,1,0.8500,0.4250,1.0750*
1,1,0.8500,0.4250,-1.0750*
1,1,0.8500,-0.4250,-1.0750*
%
%ADD111ROUNDEDRECTD111*%
%ADD112C,1.6000*%
%ADD113R,1.6000X1.6000*%
%ADD114C,0.5000*%
%ADD115C,3.5560*%
%ADD116P,0.7071X4X90.0*%
G04:AMPARAMS|DCode=117|XSize=0.6mm|YSize=0.35mm|CornerRadius=0mm|HoleSize=0mm|Usage=FLASHONLY|Rotation=135.000|XOffset=0mm|YOffset=0mm|HoleType=Round|Shape=Rectangle|*
%AMROTATEDRECTD117*
4,1,4,0.3359,-0.0884,0.0884,-0.3359,-0.3359,0.0884,-0.0884,0.3359,0.3359,-0.0884,0.0*
%
%ADD117ROTATEDRECTD117*%

%ADD118R,0.6000X0.3500*%
G04:AMPARAMS|DCode=119|XSize=0.6mm|YSize=0.55mm|CornerRadius=0mm|HoleSize=0mm|Usage=FLASHONLY|Rotation=225.000|XOffset=0mm|YOffset=0mm|HoleType=Round|Shape=Rectangle|*
%AMROTATEDRECTD119*
4,1,4,0.0177,0.4066,0.4066,0.0177,-0.0177,-0.4066,-0.4066,-0.0177,0.0177,0.4066,0.0*
%
%ADD119ROTATEDRECTD119*%

%ADD120R,0.5500X0.6000*%
%ADD121R,0.6500X0.6000*%
%ADD122R,1.3000X1.8000*%
G04:AMPARAMS|DCode=123|XSize=1.6mm|YSize=1.2mm|CornerRadius=0.3mm|HoleSize=0mm|Usage=FLASHONLY|Rotation=90.000|XOffset=0mm|YOffset=0mm|HoleType=Round|Shape=RoundedRectangle|*
%AMROUNDEDRECTD123*
21,1,1.6000,0.6000,0,0,90.0*
21,1,1.0000,1.2000,0,0,90.0*
1,1,0.6000,0.3000,0.5000*
1,1,0.6000,0.3000,-0.5000*
1,1,0.6000,-0.3000,-0.5000*
1,1,0.6000,-0.3000,0.5000*
%
%ADD123ROUNDEDRECTD123*%
%ADD124R,1.2000X1.6000*%
G04:AMPARAMS|DCode=125|XSize=1.3mm|YSize=1mm|CornerRadius=0mm|HoleSize=0mm|Usage=FLASHONLY|Rotation=45.000|XOffset=0mm|YOffset=0mm|HoleType=Round|Shape=Rectangle|*
%AMROTATEDRECTD125*
4,1,4,-0.1061,-0.8132,-0.8132,-0.1061,0.1061,0.8132,0.8132,0.1061,-0.1061,-0.8132,0.0*
%
%ADD125ROTATEDRECTD125*%

%ADD126R,2.4500X3.7000*%
%ADD127R,2.4000X3.0000*%
G36*
X1861875Y1813883D02*
X1864188Y1810868D01*
X1867203Y1808555D01*
X1870713Y1807101D01*
X1874480Y1806605D01*
X1878247Y1807101D01*
X1881757Y1808555D01*
X1884772Y1810868D01*
X1887084Y1813883D01*
X1887565Y1815042D01*
X2021395D01*
X2021875Y1813883D01*
X2024189Y1810868D01*
X2027203Y1808555D01*
X2030713Y1807101D01*
X2034480Y1806605D01*
X2038247Y1807101D01*
X2041757Y1808555D01*
X2044772Y1810868D01*
X2046542Y1813175D01*
X2047812Y1812744D01*
Y1756572D01*
X2021216Y1729975D01*
X2020221Y1728487D01*
X2019872Y1726731D01*
Y1694378D01*
X2018602Y1693581D01*
X2016760Y1693947D01*
X2014419Y1693482D01*
X2012434Y1692156D01*
X2011108Y1690171D01*
X2010643Y1687830D01*
Y1616704D01*
X2004066Y1610128D01*
X1988160D01*
Y1612010D01*
X1969160D01*
Y1609335D01*
X1941678D01*
X1941592Y1609766D01*
X1940266Y1611751D01*
X1938281Y1613077D01*
X1935940Y1613543D01*
X1929940D01*
X1927599Y1613077D01*
X1925614Y1611751D01*
X1924288Y1609766D01*
X1923822Y1607425D01*
Y1601237D01*
X1914270D01*
Y1605890D01*
X1898270D01*
Y1586890D01*
Y1569110D01*
X1914270D01*
Y1571223D01*
X1918970D01*
X1921311Y1571688D01*
X1923296Y1573014D01*
X1924622Y1574999D01*
X1925087Y1577340D01*
X1924622Y1579681D01*
X1923296Y1581666D01*
X1921311Y1582992D01*
X1918970Y1583457D01*
X1914270D01*
Y1589003D01*
X1927635D01*
X1929976Y1589468D01*
X1931961Y1590794D01*
X1932474Y1591308D01*
X1935940D01*
X1938281Y1591773D01*
X1939942Y1592883D01*
X1940860Y1592811D01*
X1941419Y1592539D01*
X1942584Y1590794D01*
X1944569Y1589468D01*
X1946168Y1589150D01*
X1946043Y1587880D01*
X1942630D01*
Y1581630D01*
X1947380D01*
Y1587801D01*
X1947380Y1587880D01*
X1947468Y1589113D01*
X1949251Y1589468D01*
X1951236Y1590794D01*
X1952562Y1592779D01*
X1953027Y1595120D01*
Y1597100D01*
X1969160D01*
Y1596010D01*
X1988160D01*
Y1597892D01*
X2006600D01*
X2008941Y1598358D01*
X2010926Y1599684D01*
X2018698Y1607457D01*
X2019872Y1606971D01*
Y1600910D01*
X1942119Y1523158D01*
X1921146D01*
X1920845Y1524428D01*
X1922546Y1525564D01*
X1923872Y1527549D01*
X1924337Y1529890D01*
Y1535890D01*
X1923872Y1538231D01*
X1922546Y1540216D01*
X1920561Y1541542D01*
X1919723Y1541709D01*
Y1543610D01*
X1921990D01*
Y1544453D01*
X1950370D01*
X1952711Y1544918D01*
X1954696Y1546244D01*
X1961532Y1553080D01*
X1968880D01*
Y1570380D01*
Y1575892D01*
X1976660D01*
X1977251Y1576010D01*
X1988160D01*
Y1592010D01*
X1969160D01*
Y1590534D01*
X1968880Y1589380D01*
X1952880D01*
Y1570380D01*
Y1561732D01*
X1948650Y1557502D01*
X1947380Y1558027D01*
Y1560830D01*
X1940880D01*
X1934380D01*
Y1556687D01*
X1921990D01*
Y1562610D01*
X1905990D01*
Y1543610D01*
X1907487D01*
Y1541862D01*
X1905879Y1541542D01*
X1903894Y1540216D01*
X1902568Y1538231D01*
X1902103Y1535890D01*
Y1530201D01*
X1897990Y1526088D01*
X1896720Y1526614D01*
Y1531140D01*
X1888970D01*
Y1525390D01*
X1895496D01*
X1896022Y1524120D01*
X1894324Y1522422D01*
X1892998Y1520438D01*
X1892903Y1519957D01*
X1877054D01*
X1873017Y1523994D01*
Y1607820D01*
X1872552Y1610161D01*
X1871226Y1612146D01*
X1828046Y1655326D01*
X1828046Y1655326D01*
X1768356Y1715016D01*
X1766371Y1716342D01*
X1764030Y1716808D01*
X1711960Y1716808D01*
X1709619Y1716342D01*
X1707634Y1715016D01*
X1692394Y1699776D01*
X1691068Y1697791D01*
X1690603Y1695450D01*
Y1439885D01*
X1691068Y1437544D01*
X1692394Y1435559D01*
X1695909Y1432044D01*
X1697894Y1430718D01*
X1700235Y1430253D01*
X1725297D01*
Y1424510D01*
X1725555Y1422552D01*
X1726310Y1420728D01*
X1727513Y1419161D01*
X1729079Y1417959D01*
X1730904Y1417203D01*
X1731243Y1417158D01*
Y1333500D01*
X1731708Y1331159D01*
X1733034Y1329174D01*
X1753354Y1308854D01*
X1755339Y1307528D01*
X1757680Y1307063D01*
X1969770D01*
X1972111Y1307528D01*
X1974096Y1308854D01*
X1990398Y1325157D01*
X1991397Y1324158D01*
X2004832Y1337593D01*
X2003948Y1338477D01*
X2020761Y1355289D01*
X2021460Y1355000D01*
Y1355000D01*
X2037460D01*
Y1359947D01*
X2037608Y1360690D01*
X2037460Y1361433D01*
Y1372260D01*
Y1391260D01*
X2037155D01*
X2036477Y1392530D01*
X2037181Y1393584D01*
X2037608Y1395730D01*
X2037181Y1397876D01*
X2035965Y1399695D01*
X2035870Y1399759D01*
Y1409040D01*
X2019870D01*
Y1390040D01*
X2021460D01*
Y1373291D01*
X1995297Y1347128D01*
X1993519Y1348907D01*
X1980083Y1335471D01*
X1981747Y1333808D01*
X1967236Y1319297D01*
X1760214D01*
X1743477Y1336034D01*
Y1417158D01*
X1743819Y1417203D01*
X1745644Y1417959D01*
X1747211Y1419161D01*
X1748413Y1420728D01*
X1749169Y1422552D01*
X1749426Y1424510D01*
Y1439510D01*
X1749169Y1441468D01*
X1748413Y1443292D01*
X1747211Y1444859D01*
X1745644Y1446061D01*
X1743819Y1446817D01*
X1741862Y1447075D01*
X1732862D01*
X1730904Y1446817D01*
X1729079Y1446061D01*
X1727513Y1444859D01*
X1726310Y1443292D01*
X1725977Y1442487D01*
X1702838D01*
Y1464707D01*
X1703920Y1465160D01*
X1704108Y1465160D01*
X1706852D01*
X1707079Y1465008D01*
X1709420Y1464543D01*
X1711761Y1465008D01*
X1711988Y1465160D01*
X1714920D01*
Y1468092D01*
X1715072Y1468319D01*
X1715538Y1470660D01*
Y1512316D01*
X1726586Y1523365D01*
X1740501D01*
X1742366Y1523610D01*
X1742639Y1523428D01*
X1744980Y1522962D01*
X1747321Y1523428D01*
X1749306Y1524754D01*
X1750632Y1526739D01*
X1751098Y1529080D01*
X1750632Y1531421D01*
X1749306Y1533406D01*
X1748065Y1534646D01*
Y1539929D01*
X1747843Y1541621D01*
X1749626Y1543404D01*
X1750952Y1545389D01*
X1751418Y1547730D01*
Y1602449D01*
X1752432Y1603228D01*
X1754035Y1605317D01*
X1754613Y1606712D01*
X1755987D01*
X1756565Y1605317D01*
X1758168Y1603228D01*
X1760257Y1601625D01*
X1762690Y1600617D01*
X1765300Y1600274D01*
X1767910Y1600617D01*
X1770343Y1601625D01*
X1772432Y1603228D01*
X1774035Y1605317D01*
X1775043Y1607749D01*
X1775386Y1610360D01*
X1775043Y1612970D01*
X1774035Y1615403D01*
X1772432Y1617492D01*
X1770343Y1619095D01*
X1767910Y1620103D01*
X1765300Y1620446D01*
X1762690Y1620103D01*
X1760257Y1619095D01*
X1758168Y1617492D01*
X1756565Y1615403D01*
X1755987Y1614008D01*
X1754613D01*
X1754035Y1615403D01*
X1752432Y1617492D01*
X1750343Y1619095D01*
X1747910Y1620103D01*
X1745300Y1620446D01*
X1742690Y1620103D01*
X1740257Y1619095D01*
X1738168Y1617492D01*
X1736565Y1615403D01*
X1735557Y1612970D01*
X1735214Y1610360D01*
X1735557Y1607749D01*
X1736565Y1605317D01*
X1738168Y1603228D01*
X1739182Y1602449D01*
Y1550264D01*
X1736748Y1547830D01*
X1736524Y1547494D01*
X1725501D01*
X1723543Y1547236D01*
X1721718Y1546480D01*
X1720152Y1545278D01*
X1718950Y1543712D01*
X1718194Y1541887D01*
X1717936Y1539929D01*
Y1532018D01*
X1705094Y1519176D01*
X1704108Y1517699D01*
X1702838Y1518084D01*
Y1692916D01*
X1714494Y1704572D01*
X1761496Y1704572D01*
X1819394Y1646674D01*
X1819394Y1646674D01*
X1860782Y1605286D01*
Y1521460D01*
X1861248Y1519119D01*
X1862574Y1517134D01*
X1870194Y1509514D01*
X1872179Y1508188D01*
X1874520Y1507722D01*
X1896116D01*
X1903534Y1500304D01*
X1905519Y1498978D01*
X1907860Y1498513D01*
X1948840D01*
Y1496630D01*
X1967840D01*
X1968793Y1495865D01*
X1969511Y1494790D01*
X1968683Y1493551D01*
X1967840Y1492630D01*
X1948840D01*
Y1476630D01*
X1961351D01*
X1965103Y1472878D01*
X1965358Y1472708D01*
X1964973Y1471438D01*
X1886581D01*
X1844818Y1513201D01*
Y1593850D01*
X1844469Y1595606D01*
X1843474Y1597094D01*
X1802439Y1638130D01*
X1802231Y1639176D01*
X1801015Y1640995D01*
X1799196Y1642211D01*
X1797050Y1642638D01*
X1794904Y1642211D01*
X1793085Y1640995D01*
X1792334Y1639871D01*
X1790766Y1639643D01*
X1759728Y1670681D01*
Y1688607D01*
X1760321Y1689494D01*
X1760748Y1691640D01*
X1760321Y1693786D01*
X1759105Y1695605D01*
X1757286Y1696821D01*
X1755140Y1697248D01*
X1752994Y1696821D01*
X1751175Y1695605D01*
X1749959Y1693786D01*
X1749532Y1691640D01*
X1749959Y1689494D01*
X1750552Y1688607D01*
Y1670223D01*
X1749282Y1669697D01*
X1738138Y1680840D01*
Y1688607D01*
X1738731Y1689494D01*
X1739158Y1691640D01*
X1738731Y1693786D01*
X1737515Y1695605D01*
X1735696Y1696821D01*
X1733550Y1697248D01*
X1731404Y1696821D01*
X1729585Y1695605D01*
X1728369Y1693786D01*
X1727942Y1691640D01*
X1728369Y1689494D01*
X1728962Y1688607D01*
Y1678940D01*
X1729311Y1677184D01*
X1730306Y1675696D01*
X1820402Y1585600D01*
Y1506220D01*
X1820751Y1504464D01*
X1821746Y1502976D01*
X1875271Y1449450D01*
X1874745Y1448180D01*
X1867560D01*
X1867560Y1448180D01*
Y1448180D01*
X1866290Y1447927D01*
X1864636Y1449197D01*
X1862052Y1450267D01*
X1859280Y1450632D01*
X1856508Y1450267D01*
X1853924Y1449197D01*
X1851706Y1447494D01*
X1850003Y1445276D01*
X1848933Y1442692D01*
X1848568Y1439920D01*
X1848933Y1437148D01*
X1850003Y1434564D01*
X1851706Y1432346D01*
X1853924Y1430643D01*
X1856508Y1429573D01*
X1859280Y1429208D01*
X1862052Y1429573D01*
X1864636Y1430643D01*
X1866374Y1431977D01*
X1867560Y1432180D01*
X1867560Y1432180D01*
X1867560Y1432180D01*
X1904340D01*
Y1432834D01*
X1905610Y1433266D01*
X1906316Y1432346D01*
X1908534Y1430643D01*
X1911118Y1429573D01*
X1913890Y1429208D01*
X1916662Y1429573D01*
X1919246Y1430643D01*
X1921464Y1432346D01*
X1923167Y1434564D01*
X1924237Y1437148D01*
X1924602Y1439920D01*
X1924237Y1442692D01*
X1923167Y1445276D01*
X1922701Y1445883D01*
X1923262Y1447022D01*
X1970547D01*
X1971434Y1446429D01*
X1973580Y1446002D01*
X1974850Y1446255D01*
X1976120Y1445281D01*
X1976120Y1439770D01*
X1963066Y1426715D01*
X1962071Y1425227D01*
X1961722Y1423471D01*
Y1395569D01*
X1960740Y1394763D01*
X1959610Y1394988D01*
X1957464Y1394561D01*
X1956577Y1393968D01*
X1936750D01*
X1934994Y1393619D01*
X1933506Y1392624D01*
X1922150Y1381268D01*
X1919244D01*
X1918992Y1382538D01*
X1919246Y1382643D01*
X1921464Y1384346D01*
X1923167Y1386564D01*
X1924237Y1389148D01*
X1924602Y1391920D01*
X1924237Y1394692D01*
X1923167Y1397276D01*
X1921464Y1399494D01*
X1919246Y1401197D01*
X1916662Y1402267D01*
X1913890Y1402632D01*
X1911118Y1402267D01*
X1908534Y1401197D01*
X1906316Y1399494D01*
X1904613Y1397276D01*
X1904296Y1396508D01*
X1898330D01*
X1897937Y1396430D01*
X1868907D01*
X1868557Y1397276D01*
X1866854Y1399494D01*
X1864636Y1401197D01*
X1862052Y1402267D01*
X1859280Y1402632D01*
X1856508Y1402267D01*
X1853924Y1401197D01*
X1851706Y1399494D01*
X1850003Y1397276D01*
X1848933Y1394692D01*
X1848568Y1391920D01*
X1848933Y1389148D01*
X1850003Y1386564D01*
X1851706Y1384346D01*
X1853924Y1382643D01*
X1854178Y1382538D01*
X1853926Y1381268D01*
X1797681D01*
X1781969Y1396979D01*
X1782367Y1397938D01*
X1782745Y1400810D01*
X1782367Y1403682D01*
X1781259Y1406358D01*
X1779495Y1408655D01*
X1777198Y1410419D01*
X1774522Y1411527D01*
X1771650Y1411905D01*
X1768778Y1411527D01*
X1766102Y1410419D01*
X1763805Y1408655D01*
X1762041Y1406358D01*
X1760933Y1403682D01*
X1760555Y1400810D01*
X1760933Y1397938D01*
X1762041Y1395262D01*
X1763805Y1392965D01*
X1766102Y1391201D01*
X1768778Y1390093D01*
X1771650Y1389715D01*
X1774522Y1390093D01*
X1775481Y1390491D01*
X1792536Y1373436D01*
X1794024Y1372441D01*
X1795780Y1372092D01*
X1924050D01*
X1925806Y1372441D01*
X1927294Y1373436D01*
X1938651Y1384792D01*
X1956577D01*
X1957464Y1384199D01*
X1959610Y1383772D01*
X1960740Y1383997D01*
X1961722Y1383191D01*
Y1376735D01*
X1962071Y1374979D01*
X1963066Y1373490D01*
X1968200Y1368356D01*
X1969689Y1367361D01*
X1971445Y1367012D01*
X1974357D01*
X1975244Y1366419D01*
X1977390Y1365992D01*
X1979536Y1366419D01*
X1981355Y1367635D01*
X1982571Y1369454D01*
X1982998Y1371600D01*
X1982578Y1373712D01*
X1982541Y1373940D01*
X1983265Y1374982D01*
X1987359D01*
X1989115Y1375331D01*
X1990280Y1376110D01*
X1992136Y1376479D01*
X1993955Y1377695D01*
X1995171Y1379514D01*
X1995598Y1381660D01*
X1995171Y1383806D01*
X1993955Y1385625D01*
X1992136Y1386841D01*
X1989990Y1387268D01*
X1989047Y1387080D01*
X1988921Y1387716D01*
X1987705Y1389535D01*
X1987699Y1389539D01*
Y1416689D01*
X1991362Y1420352D01*
X2128370D01*
Y1416530D01*
X2141370D01*
Y1418303D01*
X2142543Y1418789D01*
X2152336Y1408996D01*
X2153825Y1408001D01*
X2155581Y1407652D01*
X2222007D01*
X2222894Y1407059D01*
X2225040Y1406632D01*
X2227186Y1407059D01*
X2229005Y1408275D01*
X2230221Y1410094D01*
X2230648Y1412240D01*
X2230221Y1414386D01*
X2229005Y1416205D01*
X2227186Y1417421D01*
X2225040Y1417848D01*
X2222894Y1417421D01*
X2222007Y1416828D01*
X2162746D01*
X2162315Y1418098D01*
X2163592Y1419078D01*
X2165195Y1421167D01*
X2166203Y1423600D01*
X2166546Y1426210D01*
X2166203Y1428820D01*
X2165195Y1431253D01*
X2164550Y1432094D01*
X2165237Y1433285D01*
X2166460Y1433124D01*
X2169070Y1433467D01*
X2171503Y1434475D01*
X2173592Y1436078D01*
X2175195Y1438167D01*
X2176203Y1440600D01*
X2176546Y1443210D01*
X2176203Y1445820D01*
X2175195Y1448253D01*
X2173592Y1450342D01*
X2171503Y1451945D01*
X2169070Y1452953D01*
X2166460Y1453296D01*
X2163849Y1452953D01*
X2161417Y1451945D01*
X2159328Y1450342D01*
X2157725Y1448253D01*
X2157147Y1446858D01*
X2155773D01*
X2155195Y1448253D01*
X2153592Y1450342D01*
X2151503Y1451945D01*
X2149070Y1452953D01*
X2146460Y1453296D01*
X2143849Y1452953D01*
X2142787Y1452513D01*
X2142068Y1453589D01*
X2146931Y1458452D01*
X2224547D01*
X2225434Y1457859D01*
X2227580Y1457432D01*
X2229726Y1457859D01*
X2231545Y1459075D01*
X2232761Y1460894D01*
X2233188Y1463040D01*
X2232761Y1465186D01*
X2231545Y1467005D01*
X2229726Y1468221D01*
X2227580Y1468648D01*
X2225434Y1468221D01*
X2224547Y1467628D01*
X2145030D01*
X2143274Y1467279D01*
X2141786Y1466284D01*
X2135551Y1460050D01*
X2134378Y1460536D01*
Y1577340D01*
X2221471D01*
X2221647Y1575999D01*
X2222655Y1573567D01*
X2224258Y1571478D01*
X2226347Y1569875D01*
X2228779Y1568867D01*
X2231390Y1568524D01*
X2234001Y1568867D01*
X2236433Y1569875D01*
X2238522Y1571478D01*
X2240125Y1573567D01*
X2241133Y1575999D01*
X2241309Y1577340D01*
X2265912D01*
Y1536700D01*
X2266378Y1534359D01*
X2267704Y1532374D01*
X2269689Y1531048D01*
X2272030Y1530582D01*
X2274371Y1531048D01*
X2274720Y1531281D01*
X2275840Y1530683D01*
X2275840Y1339108D01*
X2274667Y1338622D01*
X2269104Y1344184D01*
X2267616Y1345179D01*
X2265860Y1345528D01*
X2263280D01*
Y1356190D01*
X2251280D01*
Y1343690D01*
Y1335190D01*
Y1327190D01*
Y1317690D01*
X2262301D01*
X2263632Y1316360D01*
Y1297940D01*
X2262020D01*
Y1303810D01*
X2255520D01*
X2249020D01*
Y1298718D01*
X2243520D01*
Y1308571D01*
X2245774Y1310826D01*
X2246769Y1312314D01*
X2247118Y1314070D01*
Y1317690D01*
X2248530D01*
Y1327190D01*
Y1332109D01*
X2248603Y1332475D01*
X2248530Y1332841D01*
Y1343690D01*
Y1356190D01*
X2236530D01*
Y1345583D01*
X2228254D01*
Y1356370D01*
X2216254D01*
Y1346107D01*
X2214774Y1345118D01*
X2214485Y1345175D01*
X2213504Y1345544D01*
Y1356370D01*
X2201504D01*
Y1347052D01*
X2200234Y1346357D01*
X2198370Y1346728D01*
X2196224Y1346301D01*
X2194405Y1345085D01*
X2193244Y1343347D01*
X2147836Y1297940D01*
X2133739Y1297940D01*
X2123191Y1308487D01*
X2121703Y1309482D01*
X2119947Y1309831D01*
X2111718D01*
X2105094Y1316454D01*
X2104886Y1317501D01*
X2103671Y1319320D01*
X2101851Y1320536D01*
X2099705Y1320963D01*
X2098862Y1320795D01*
X2097761Y1321895D01*
X2093165Y1317299D01*
X2086700Y1310835D01*
X2084976Y1310492D01*
X2083156Y1309276D01*
X2081941Y1307457D01*
X2081514Y1305311D01*
X2081941Y1303165D01*
X2083156Y1301346D01*
X2084976Y1300130D01*
X2085987Y1299929D01*
X2086550Y1299125D01*
X2086003Y1297940D01*
X2072385D01*
Y1308480D01*
X2057159D01*
X2056232Y1309407D01*
X2056718Y1310580D01*
X2070710D01*
Y1316212D01*
X2075780D01*
X2077536Y1316561D01*
X2079024Y1317556D01*
X2085239Y1323770D01*
X2091800D01*
Y1328714D01*
X2102310D01*
X2105500Y1325524D01*
X2113279Y1333303D01*
X2112437Y1334144D01*
X2115632Y1337339D01*
X2116080Y1336891D01*
X2119270Y1340081D01*
X2121717D01*
X2122243Y1338811D01*
X2121204Y1337772D01*
X2120745Y1337465D01*
X2120438Y1337006D01*
X2118202Y1334770D01*
X2119164Y1333808D01*
X2119102Y1333500D01*
X2119494Y1331529D01*
X2119091Y1330889D01*
X2118636Y1330405D01*
X2117503Y1330630D01*
X2116208Y1330373D01*
X2115400Y1331181D01*
X2107622Y1323403D01*
X2115400Y1315625D01*
X2119609Y1319834D01*
X2119649Y1319842D01*
X2121468Y1321057D01*
X2122684Y1322877D01*
X2122691Y1322916D01*
X2123178Y1323403D01*
X2122853Y1323728D01*
X2123110Y1325023D01*
X2122718Y1326994D01*
X2123121Y1327634D01*
X2123577Y1328118D01*
X2124710Y1327892D01*
X2125018Y1327954D01*
X2125980Y1326992D01*
X2128216Y1329228D01*
X2128675Y1329535D01*
X2128982Y1329994D01*
X2131128Y1332140D01*
X2132714Y1330553D01*
X2132922Y1329507D01*
X2134138Y1327688D01*
X2135957Y1326472D01*
X2138103Y1326045D01*
X2140249Y1326472D01*
X2142068Y1327688D01*
X2143284Y1329507D01*
X2143562Y1330904D01*
X2144940Y1331322D01*
X2150987Y1325275D01*
X2157704Y1331992D01*
X2156643Y1333053D01*
X2156644Y1333053D01*
X2153462Y1336236D01*
X2150280Y1339418D01*
X2150280Y1339417D01*
X2149219Y1340478D01*
X2143694Y1334953D01*
X2142430Y1335077D01*
X2142068Y1335618D01*
X2140249Y1336834D01*
X2139203Y1337042D01*
X2135963Y1340282D01*
X2135077Y1341185D01*
X2139673Y1345781D01*
X2144269Y1350377D01*
X2150987Y1357095D01*
X2150049Y1358033D01*
X2150252Y1359054D01*
X2149825Y1361200D01*
X2148609Y1363019D01*
X2146790Y1364234D01*
X2144644Y1364661D01*
X2143623Y1364458D01*
X2142501Y1365580D01*
X2137905Y1360984D01*
X2131188Y1354266D01*
X2126591Y1349670D01*
X2125529Y1349170D01*
X2125087Y1349258D01*
X2119270D01*
X2116080Y1352448D01*
X2108302Y1344669D01*
X2109144Y1343828D01*
X2105948Y1340633D01*
X2105500Y1341081D01*
X2102310Y1337891D01*
X2091800D01*
Y1345770D01*
X2078048D01*
X2077562Y1346943D01*
X2080271Y1349653D01*
X2085800D01*
X2088141Y1350118D01*
X2090126Y1351444D01*
X2091452Y1353429D01*
X2091918Y1355770D01*
Y1365770D01*
X2091452Y1368111D01*
X2090126Y1370096D01*
X2088141Y1371422D01*
X2085800Y1371888D01*
X2079800D01*
X2077459Y1371422D01*
X2075474Y1370096D01*
X2074148Y1368111D01*
X2073683Y1365770D01*
Y1356041D01*
X2064221Y1346580D01*
X2050232D01*
X2049881Y1348346D01*
X2048665Y1350165D01*
X2046846Y1351381D01*
X2044700Y1351808D01*
X2042554Y1351381D01*
X2040735Y1350165D01*
X2039519Y1348346D01*
X2039168Y1346580D01*
X2033930D01*
Y1343168D01*
X2022790D01*
X2021034Y1342819D01*
X2019546Y1341824D01*
X2010073Y1332352D01*
X2007661Y1334764D01*
X1994226Y1321329D01*
X2002012Y1313543D01*
Y1303651D01*
X1996409Y1298048D01*
X1932098D01*
X1930342Y1297699D01*
X1928853Y1296704D01*
X1898399Y1266250D01*
X1884070D01*
Y1255538D01*
X1831833D01*
X1830946Y1256131D01*
X1828800Y1256558D01*
X1826654Y1256131D01*
X1824835Y1254915D01*
X1823619Y1253096D01*
X1823192Y1250950D01*
X1823619Y1248804D01*
X1824038Y1248177D01*
X1823359Y1246908D01*
X1666234D01*
X1646958Y1266184D01*
X1646958Y1698880D01*
X1651610D01*
Y1714880D01*
X1635760D01*
Y1720380D01*
X1640360D01*
Y1726880D01*
Y1733380D01*
X1635760D01*
Y1794912D01*
X1656514Y1815666D01*
X1693340D01*
Y1797480D01*
X1715340D01*
Y1815666D01*
X1719953D01*
X1720515Y1814527D01*
X1720132Y1814028D01*
X1719023Y1811352D01*
X1718645Y1808480D01*
X1719023Y1805608D01*
X1720132Y1802932D01*
X1721895Y1800635D01*
X1724193Y1798871D01*
X1726868Y1797763D01*
X1729740Y1797385D01*
X1732612Y1797763D01*
X1735287Y1798871D01*
X1737585Y1800635D01*
X1739348Y1802932D01*
X1740457Y1805608D01*
X1740835Y1808480D01*
X1740457Y1811352D01*
X1739348Y1814028D01*
X1738965Y1814527D01*
X1739527Y1815666D01*
X1815063D01*
Y1778000D01*
X1815528Y1775659D01*
X1816854Y1773674D01*
X1818839Y1772348D01*
X1821180Y1771882D01*
X1823521Y1772348D01*
X1825506Y1773674D01*
X1826258Y1774800D01*
X1826295Y1774825D01*
X1827511Y1776644D01*
X1827938Y1778790D01*
X1827511Y1780936D01*
X1827298Y1781255D01*
Y1815666D01*
X1861137D01*
X1861875Y1813883D01*
D02*
G37*
G36*
X2169398Y1783080D02*
X2222733Y1729746D01*
Y1658620D01*
X2202180D01*
X2195830Y1652270D01*
Y1648221D01*
X2194044Y1646436D01*
X2192718Y1644451D01*
X2192253Y1642110D01*
Y1612065D01*
X2192718Y1609724D01*
X2194044Y1607739D01*
X2195830Y1605953D01*
X2195830Y1587500D01*
X2188729Y1580399D01*
X2140701D01*
X2134378Y1586722D01*
Y1650953D01*
X2134870Y1652062D01*
X2137016Y1652489D01*
X2138589Y1653540D01*
X2152812D01*
X2153765Y1652115D01*
X2155584Y1650899D01*
X2157730Y1650472D01*
X2159876Y1650899D01*
X2161695Y1652115D01*
X2162911Y1653934D01*
X2163338Y1656080D01*
X2162911Y1658226D01*
X2162713Y1658523D01*
X2162810Y1658620D01*
X2162321Y1659109D01*
X2161695Y1660045D01*
X2160759Y1660671D01*
X2153920Y1667510D01*
X2152508D01*
X2151866Y1667939D01*
X2150110Y1668288D01*
X2125980D01*
X2124224Y1667939D01*
X2123582Y1667510D01*
X2120900D01*
X2117090Y1663700D01*
Y1512570D01*
X2109470Y1504950D01*
X1966340D01*
Y1511130D01*
X1960090D01*
Y1504630D01*
X1956590D01*
Y1511130D01*
X1953260D01*
Y1514250D01*
X2032704Y1593695D01*
X2033699Y1595183D01*
X2034048Y1596939D01*
Y1722760D01*
X2060644Y1749356D01*
X2060923Y1749774D01*
X2094230Y1783080D01*
X2169398Y1783080D01*
D02*
G37*
G36*
X2209254Y1319370D02*
X2212004D01*
Y1323523D01*
X2213274Y1323648D01*
X2213509Y1322464D01*
X2214725Y1320645D01*
X2216254Y1319623D01*
Y1317870D01*
X2228254D01*
Y1319442D01*
X2236530D01*
Y1317690D01*
X2237942D01*
Y1315970D01*
X2237031Y1315060D01*
X2227520D01*
Y1302338D01*
X2226347Y1301852D01*
X2217564Y1310634D01*
X2216076Y1311629D01*
X2214320Y1311978D01*
X2195120D01*
X2193364Y1311629D01*
X2191876Y1310634D01*
X2188946Y1307704D01*
X2188874Y1307719D01*
X2188456Y1309097D01*
X2198363Y1319004D01*
X2198370Y1319002D01*
X2200516Y1319429D01*
X2201734Y1320243D01*
X2203004Y1319564D01*
Y1319370D01*
X2205754D01*
Y1324120D01*
X2209254D01*
Y1319370D01*
D02*
G37*
%LPC*%
G36*
X2009854Y1801320D02*
X1988106D01*
Y1776736D01*
X1987151Y1775899D01*
X1986280Y1776014D01*
X1983441Y1775640D01*
X1980796Y1774544D01*
X1978525Y1772801D01*
X1976782Y1770530D01*
X1975686Y1767885D01*
X1975312Y1765046D01*
Y1760474D01*
X1975686Y1757635D01*
X1976782Y1754990D01*
X1978525Y1752719D01*
X1980796Y1750976D01*
X1983441Y1749880D01*
X1986280Y1749506D01*
X1989119Y1749880D01*
X1991764Y1750976D01*
X1994035Y1752719D01*
X1995778Y1754990D01*
X1996874Y1757635D01*
X1997248Y1760474D01*
Y1765046D01*
X1996874Y1767885D01*
X1995778Y1770530D01*
X1994035Y1772801D01*
X1992825Y1773730D01*
X1993256Y1775000D01*
X2009854D01*
Y1801320D01*
D02*
G37*
G36*
X1973580Y1801414D02*
X1970741Y1801040D01*
X1968096Y1799944D01*
X1965825Y1798201D01*
X1964082Y1795930D01*
X1962986Y1793285D01*
X1962612Y1790446D01*
Y1785874D01*
X1962986Y1783035D01*
X1964082Y1780390D01*
X1965825Y1778119D01*
X1968096Y1776376D01*
X1970741Y1775280D01*
X1973580Y1774906D01*
X1976419Y1775280D01*
X1979064Y1776376D01*
X1981335Y1778119D01*
X1983078Y1780390D01*
X1984174Y1783035D01*
X1984548Y1785874D01*
Y1790446D01*
X1984174Y1793285D01*
X1983078Y1795930D01*
X1981335Y1798201D01*
X1979064Y1799944D01*
X1976419Y1801040D01*
X1973580Y1801414D01*
D02*
G37*
G36*
X1948180D02*
X1945341Y1801040D01*
X1942696Y1799944D01*
X1940425Y1798201D01*
X1938682Y1795930D01*
X1937586Y1793285D01*
X1937212Y1790446D01*
Y1785874D01*
X1937586Y1783035D01*
X1938682Y1780390D01*
X1940425Y1778119D01*
X1942696Y1776376D01*
X1945341Y1775280D01*
X1948180Y1774906D01*
X1951019Y1775280D01*
X1953664Y1776376D01*
X1955935Y1778119D01*
X1957678Y1780390D01*
X1958774Y1783035D01*
X1959148Y1785874D01*
Y1790446D01*
X1958774Y1793285D01*
X1957678Y1795930D01*
X1955935Y1798201D01*
X1953664Y1799944D01*
X1951019Y1801040D01*
X1948180Y1801414D01*
D02*
G37*
G36*
X1922780D02*
X1919941Y1801040D01*
X1917296Y1799944D01*
X1915025Y1798201D01*
X1913282Y1795930D01*
X1912186Y1793285D01*
X1911812Y1790446D01*
Y1785874D01*
X1912186Y1783035D01*
X1913282Y1780390D01*
X1915025Y1778119D01*
X1917296Y1776376D01*
X1919941Y1775280D01*
X1922780Y1774906D01*
X1925619Y1775280D01*
X1928264Y1776376D01*
X1930535Y1778119D01*
X1932278Y1780390D01*
X1933374Y1783035D01*
X1933748Y1785874D01*
Y1790446D01*
X1933374Y1793285D01*
X1932278Y1795930D01*
X1930535Y1798201D01*
X1928264Y1799944D01*
X1925619Y1801040D01*
X1922780Y1801414D01*
D02*
G37*
G36*
X1960880Y1776014D02*
X1958041Y1775640D01*
X1955396Y1774544D01*
X1953125Y1772801D01*
X1951382Y1770530D01*
X1950286Y1767885D01*
X1949912Y1765046D01*
Y1760474D01*
X1950286Y1757635D01*
X1951382Y1754990D01*
X1953125Y1752719D01*
X1955396Y1750976D01*
X1958041Y1749880D01*
X1960880Y1749506D01*
X1963719Y1749880D01*
X1966364Y1750976D01*
X1968635Y1752719D01*
X1970378Y1754990D01*
X1971474Y1757635D01*
X1971848Y1760474D01*
Y1765046D01*
X1971474Y1767885D01*
X1970378Y1770530D01*
X1968635Y1772801D01*
X1966364Y1774544D01*
X1963719Y1775640D01*
X1960880Y1776014D01*
D02*
G37*
G36*
X1935480D02*
X1932641Y1775640D01*
X1929996Y1774544D01*
X1927725Y1772801D01*
X1925982Y1770530D01*
X1924886Y1767885D01*
X1924512Y1765046D01*
Y1760474D01*
X1924886Y1757635D01*
X1925982Y1754990D01*
X1927725Y1752719D01*
X1929996Y1750976D01*
X1932641Y1749880D01*
X1935480Y1749506D01*
X1938319Y1749880D01*
X1940964Y1750976D01*
X1943235Y1752719D01*
X1944978Y1754990D01*
X1946074Y1757635D01*
X1946448Y1760474D01*
Y1765046D01*
X1946074Y1767885D01*
X1944978Y1770530D01*
X1943235Y1772801D01*
X1940964Y1774544D01*
X1938319Y1775640D01*
X1935480Y1776014D01*
D02*
G37*
G36*
X1910080D02*
X1907241Y1775640D01*
X1904596Y1774544D01*
X1902325Y1772801D01*
X1900582Y1770530D01*
X1899486Y1767885D01*
X1899112Y1765046D01*
Y1760474D01*
X1899486Y1757635D01*
X1900582Y1754990D01*
X1902325Y1752719D01*
X1904596Y1750976D01*
X1907241Y1749880D01*
X1910080Y1749506D01*
X1912919Y1749880D01*
X1915564Y1750976D01*
X1917835Y1752719D01*
X1919578Y1754990D01*
X1920674Y1757635D01*
X1921048Y1760474D01*
Y1765046D01*
X1920674Y1767885D01*
X1919578Y1770530D01*
X1917835Y1772801D01*
X1915564Y1774544D01*
X1912919Y1775640D01*
X1910080Y1776014D01*
D02*
G37*
G36*
X1650110Y1733380D02*
X1643860D01*
Y1728630D01*
X1650110D01*
Y1733380D01*
D02*
G37*
G36*
Y1725130D02*
X1643860D01*
Y1720380D01*
X1650110D01*
Y1725130D01*
D02*
G37*
G36*
X2000400Y1643530D02*
X1995650D01*
Y1638780D01*
X2000400D01*
Y1643530D01*
D02*
G37*
G36*
X1992150D02*
X1987400D01*
Y1638780D01*
X1992150D01*
Y1643530D01*
D02*
G37*
G36*
X2000400Y1635280D02*
X1995650D01*
Y1630530D01*
X2000400D01*
Y1635280D01*
D02*
G37*
G36*
X1992150D02*
X1987400D01*
Y1630530D01*
X1992150D01*
Y1635280D01*
D02*
G37*
G36*
X1940440Y1637925D02*
X1934690D01*
Y1630175D01*
X1940440D01*
Y1637925D01*
D02*
G37*
G36*
X1931190D02*
X1925440D01*
Y1630175D01*
X1931190D01*
Y1637925D01*
D02*
G37*
G36*
X1940440Y1626675D02*
X1934690D01*
Y1618925D01*
X1940440D01*
Y1626675D01*
D02*
G37*
G36*
X1931190D02*
X1925440D01*
Y1618925D01*
X1931190D01*
Y1626675D01*
D02*
G37*
G36*
X1892770Y1604390D02*
X1888020D01*
Y1598140D01*
X1892770D01*
Y1604390D01*
D02*
G37*
G36*
X1884520D02*
X1879770D01*
Y1598140D01*
X1884520D01*
Y1604390D01*
D02*
G37*
G36*
X1892770Y1594640D02*
X1888020D01*
Y1588390D01*
X1892770D01*
Y1594640D01*
D02*
G37*
G36*
X1884520D02*
X1879770D01*
Y1588390D01*
X1884520D01*
Y1594640D01*
D02*
G37*
G36*
X1939130Y1587880D02*
X1934380D01*
Y1581630D01*
X1939130D01*
Y1587880D01*
D02*
G37*
G36*
X1892770Y1586610D02*
X1888020D01*
Y1580360D01*
X1892770D01*
Y1586610D01*
D02*
G37*
G36*
X1884520D02*
X1879770D01*
Y1580360D01*
X1884520D01*
Y1586610D01*
D02*
G37*
G36*
X1947380Y1578130D02*
X1942630D01*
Y1571880D01*
X1947380D01*
Y1578130D01*
D02*
G37*
G36*
X1939130D02*
X1934380D01*
Y1571880D01*
X1939130D01*
Y1578130D01*
D02*
G37*
G36*
X1892770Y1576860D02*
X1888020D01*
Y1570610D01*
X1892770D01*
Y1576860D01*
D02*
G37*
G36*
X1884520D02*
X1879770D01*
Y1570610D01*
X1884520D01*
Y1576860D01*
D02*
G37*
G36*
X1947380Y1570580D02*
X1942630D01*
Y1564330D01*
X1947380D01*
Y1570580D01*
D02*
G37*
G36*
X1939130D02*
X1934380D01*
Y1564330D01*
X1939130D01*
Y1570580D01*
D02*
G37*
G36*
X2233140Y1561553D02*
Y1554960D01*
X2239733D01*
X2239671Y1555429D01*
X2238815Y1557497D01*
X2237452Y1559272D01*
X2235677Y1560635D01*
X2233609Y1561491D01*
X2233140Y1561553D01*
D02*
G37*
G36*
X2229640D02*
X2229171Y1561491D01*
X2227103Y1560635D01*
X2225328Y1559272D01*
X2223965Y1557497D01*
X2223109Y1555429D01*
X2223047Y1554960D01*
X2229640D01*
Y1561553D01*
D02*
G37*
G36*
X1900490Y1561110D02*
X1895740D01*
Y1554860D01*
X1900490D01*
Y1561110D01*
D02*
G37*
G36*
X1892240D02*
X1887490D01*
Y1554860D01*
X1892240D01*
Y1561110D01*
D02*
G37*
G36*
X1663700Y1574726D02*
X1661089Y1574383D01*
X1658657Y1573375D01*
X1656568Y1571772D01*
X1654965Y1569683D01*
X1653957Y1567251D01*
X1653614Y1564640D01*
X1653957Y1562030D01*
X1654965Y1559597D01*
X1656568Y1557508D01*
X1658657Y1555905D01*
X1661089Y1554897D01*
X1663700Y1554554D01*
X1666310Y1554897D01*
X1668743Y1555905D01*
X1670832Y1557508D01*
X1672435Y1559597D01*
X1673443Y1562030D01*
X1673786Y1564640D01*
X1673443Y1567251D01*
X1672435Y1569683D01*
X1670832Y1571772D01*
X1668743Y1573375D01*
X1666310Y1574383D01*
X1663700Y1574726D01*
D02*
G37*
G36*
X1900490Y1551360D02*
X1895740D01*
Y1545110D01*
X1900490D01*
Y1551360D01*
D02*
G37*
G36*
X1892240D02*
X1887490D01*
Y1545110D01*
X1892240D01*
Y1551360D01*
D02*
G37*
G36*
X2239733Y1551460D02*
X2233140D01*
Y1544867D01*
X2233609Y1544929D01*
X2235677Y1545785D01*
X2237452Y1547148D01*
X2238815Y1548923D01*
X2239671Y1550991D01*
X2239733Y1551460D01*
D02*
G37*
G36*
X2229640D02*
X2223047D01*
X2223109Y1550991D01*
X2223965Y1548923D01*
X2225328Y1547148D01*
X2227103Y1545785D01*
X2229171Y1544929D01*
X2229640Y1544867D01*
Y1551460D01*
D02*
G37*
G36*
X1665450Y1547583D02*
Y1540990D01*
X1672043D01*
X1671981Y1541459D01*
X1671125Y1543527D01*
X1669762Y1545302D01*
X1667987Y1546665D01*
X1665919Y1547521D01*
X1665450Y1547583D01*
D02*
G37*
G36*
X1661950D02*
X1661481Y1547521D01*
X1659413Y1546665D01*
X1657638Y1545302D01*
X1656275Y1543527D01*
X1655419Y1541459D01*
X1655357Y1540990D01*
X1661950D01*
Y1547583D01*
D02*
G37*
G36*
X1896720Y1540390D02*
X1888970D01*
Y1534640D01*
X1896720D01*
Y1540390D01*
D02*
G37*
G36*
X1885470D02*
X1877720D01*
Y1534640D01*
X1885470D01*
Y1540390D01*
D02*
G37*
G36*
X1672043Y1537490D02*
X1665450D01*
Y1530897D01*
X1665919Y1530959D01*
X1667987Y1531815D01*
X1669762Y1533178D01*
X1671125Y1534953D01*
X1671981Y1537021D01*
X1672043Y1537490D01*
D02*
G37*
G36*
X1661950D02*
X1655357D01*
X1655419Y1537021D01*
X1656275Y1534953D01*
X1657638Y1533178D01*
X1659413Y1531815D01*
X1661481Y1530959D01*
X1661950Y1530897D01*
Y1537490D01*
D02*
G37*
G36*
X1885470Y1531140D02*
X1877720D01*
Y1525390D01*
X1885470D01*
Y1531140D01*
D02*
G37*
G36*
X1663700Y1523926D02*
X1661089Y1523583D01*
X1658657Y1522575D01*
X1656568Y1520972D01*
X1654965Y1518883D01*
X1653957Y1516451D01*
X1653614Y1513840D01*
X1653957Y1511230D01*
X1654965Y1508797D01*
X1656568Y1506708D01*
X1658657Y1505105D01*
X1661089Y1504097D01*
X1663700Y1503754D01*
X1666310Y1504097D01*
X1668743Y1505105D01*
X1670832Y1506708D01*
X1672435Y1508797D01*
X1673443Y1511230D01*
X1673786Y1513840D01*
X1673443Y1516451D01*
X1672435Y1518883D01*
X1670832Y1520972D01*
X1668743Y1522575D01*
X1666310Y1523583D01*
X1663700Y1523926D01*
D02*
G37*
G36*
X1797050Y1513505D02*
X1794178Y1513127D01*
X1791503Y1512018D01*
X1789205Y1510255D01*
X1787442Y1507957D01*
X1786333Y1505282D01*
X1785955Y1502410D01*
X1786333Y1499538D01*
X1787442Y1496862D01*
X1789205Y1494565D01*
X1791503Y1492802D01*
X1794178Y1491693D01*
X1797050Y1491315D01*
X1799922Y1491693D01*
X1802598Y1492802D01*
X1804895Y1494565D01*
X1806658Y1496862D01*
X1807767Y1499538D01*
X1808145Y1502410D01*
X1807767Y1505282D01*
X1806658Y1507957D01*
X1804895Y1510255D01*
X1802598Y1512018D01*
X1799922Y1513127D01*
X1797050Y1513505D01*
D02*
G37*
G36*
X1793002Y1547428D02*
X1763002D01*
Y1523428D01*
X1765533D01*
Y1511581D01*
X1763805Y1510255D01*
X1762041Y1507957D01*
X1760933Y1505282D01*
X1760555Y1502410D01*
X1760933Y1499538D01*
X1762041Y1496862D01*
X1763805Y1494565D01*
X1766102Y1492802D01*
X1768778Y1491693D01*
X1771650Y1491315D01*
X1774522Y1491693D01*
X1777198Y1492802D01*
X1779495Y1494565D01*
X1781259Y1496862D01*
X1782367Y1499538D01*
X1782745Y1502410D01*
X1782367Y1505282D01*
X1781259Y1507957D01*
X1779495Y1510255D01*
X1777767Y1511581D01*
Y1523428D01*
X1793002D01*
Y1547428D01*
D02*
G37*
G36*
X1663700Y1498526D02*
X1661089Y1498183D01*
X1658657Y1497175D01*
X1656568Y1495572D01*
X1654965Y1493483D01*
X1653957Y1491051D01*
X1653614Y1488440D01*
X1653957Y1485829D01*
X1654965Y1483397D01*
X1656568Y1481308D01*
X1658657Y1479705D01*
X1661089Y1478697D01*
X1663700Y1478354D01*
X1666310Y1478697D01*
X1668743Y1479705D01*
X1670832Y1481308D01*
X1672435Y1483397D01*
X1673443Y1485829D01*
X1673786Y1488440D01*
X1673443Y1491051D01*
X1672435Y1493483D01*
X1670832Y1495572D01*
X1668743Y1497175D01*
X1666310Y1498183D01*
X1663700Y1498526D01*
D02*
G37*
G36*
X1749362Y1492011D02*
X1725363D01*
Y1462011D01*
X1749362D01*
Y1470892D01*
X1762479D01*
X1763805Y1469165D01*
X1766102Y1467401D01*
X1768778Y1466293D01*
X1771650Y1465915D01*
X1774522Y1466293D01*
X1777198Y1467401D01*
X1779495Y1469165D01*
X1780821Y1470892D01*
X1787879D01*
X1789205Y1469165D01*
X1791503Y1467401D01*
X1794178Y1466293D01*
X1797050Y1465915D01*
X1799922Y1466293D01*
X1802598Y1467401D01*
X1804895Y1469165D01*
X1806658Y1471463D01*
X1807767Y1474138D01*
X1808145Y1477010D01*
X1807767Y1479882D01*
X1806658Y1482558D01*
X1804895Y1484855D01*
X1802598Y1486618D01*
X1799922Y1487727D01*
X1797050Y1488105D01*
X1794178Y1487727D01*
X1791503Y1486618D01*
X1789205Y1484855D01*
X1787879Y1483127D01*
X1780821D01*
X1779495Y1484855D01*
X1777198Y1486618D01*
X1774522Y1487727D01*
X1771650Y1488105D01*
X1768778Y1487727D01*
X1766102Y1486618D01*
X1763805Y1484855D01*
X1762479Y1483127D01*
X1749362D01*
Y1492011D01*
D02*
G37*
G36*
X1713420Y1460660D02*
X1711170D01*
Y1458410D01*
X1713420D01*
Y1460660D01*
D02*
G37*
G36*
X1707670D02*
X1705420D01*
Y1458410D01*
X1707670D01*
Y1460660D01*
D02*
G37*
G36*
X1798800Y1460962D02*
Y1453360D01*
X1806402D01*
X1806306Y1454090D01*
X1805348Y1456401D01*
X1803825Y1458385D01*
X1801841Y1459908D01*
X1799530Y1460865D01*
X1798800Y1460962D01*
D02*
G37*
G36*
X1773400D02*
Y1453360D01*
X1781002D01*
X1780905Y1454090D01*
X1779948Y1456401D01*
X1778425Y1458385D01*
X1776441Y1459908D01*
X1774130Y1460865D01*
X1773400Y1460962D01*
D02*
G37*
G36*
X1795300D02*
X1794570Y1460865D01*
X1792259Y1459908D01*
X1790275Y1458385D01*
X1788752Y1456401D01*
X1787794Y1454090D01*
X1787698Y1453360D01*
X1795300D01*
Y1460962D01*
D02*
G37*
G36*
X1769900D02*
X1769170Y1460865D01*
X1766859Y1459908D01*
X1764875Y1458385D01*
X1763352Y1456401D01*
X1762395Y1454090D01*
X1762298Y1453360D01*
X1769900D01*
Y1460962D01*
D02*
G37*
G36*
X1713420Y1454910D02*
X1705420D01*
Y1452660D01*
Y1452120D01*
X1709420D01*
X1713420D01*
Y1452660D01*
Y1454910D01*
D02*
G37*
G36*
Y1448620D02*
X1711170D01*
Y1446370D01*
X1713420D01*
Y1448620D01*
D02*
G37*
G36*
X1707670D02*
X1705420D01*
Y1446370D01*
X1707670D01*
Y1448620D01*
D02*
G37*
G36*
X1806402Y1449860D02*
X1798800D01*
Y1442258D01*
X1799530Y1442354D01*
X1801841Y1443312D01*
X1803825Y1444834D01*
X1805348Y1446819D01*
X1806306Y1449130D01*
X1806402Y1449860D01*
D02*
G37*
G36*
X1781002D02*
X1773400D01*
Y1442258D01*
X1774130Y1442354D01*
X1776441Y1443312D01*
X1778425Y1444834D01*
X1779948Y1446819D01*
X1780905Y1449130D01*
X1781002Y1449860D01*
D02*
G37*
G36*
X1795300D02*
X1787698D01*
X1787794Y1449130D01*
X1788752Y1446819D01*
X1790275Y1444834D01*
X1792259Y1443312D01*
X1794570Y1442354D01*
X1795300Y1442258D01*
Y1449860D01*
D02*
G37*
G36*
X1769900D02*
X1762298D01*
X1762395Y1449130D01*
X1763352Y1446819D01*
X1764875Y1444834D01*
X1766859Y1443312D01*
X1769170Y1442354D01*
X1769900Y1442258D01*
Y1449860D01*
D02*
G37*
G36*
X1663700Y1447726D02*
X1661089Y1447383D01*
X1658657Y1446375D01*
X1656568Y1444772D01*
X1654965Y1442683D01*
X1653957Y1440251D01*
X1653614Y1437640D01*
X1653957Y1435029D01*
X1654965Y1432597D01*
X1656568Y1430508D01*
X1658657Y1428905D01*
X1661089Y1427897D01*
X1663700Y1427554D01*
X1666310Y1427897D01*
X1668743Y1428905D01*
X1670832Y1430508D01*
X1672435Y1432597D01*
X1673443Y1435029D01*
X1673786Y1437640D01*
X1673443Y1440251D01*
X1672435Y1442683D01*
X1670832Y1444772D01*
X1668743Y1446375D01*
X1666310Y1447383D01*
X1663700Y1447726D01*
D02*
G37*
G36*
X1902840Y1426680D02*
X1896590D01*
Y1421930D01*
X1902840D01*
Y1426680D01*
D02*
G37*
G36*
X1893090D02*
X1886840D01*
Y1421930D01*
X1893090D01*
Y1426680D01*
D02*
G37*
G36*
X1885060D02*
X1878810D01*
Y1421930D01*
X1885060D01*
Y1426680D01*
D02*
G37*
G36*
X1875310D02*
X1869060D01*
Y1421930D01*
X1875310D01*
Y1426680D01*
D02*
G37*
G36*
X1797050Y1437305D02*
X1794178Y1436927D01*
X1791503Y1435818D01*
X1789205Y1434055D01*
X1787442Y1431758D01*
X1786333Y1429082D01*
X1785955Y1426210D01*
X1786333Y1423338D01*
X1787442Y1420663D01*
X1789205Y1418365D01*
X1791503Y1416602D01*
X1794178Y1415493D01*
X1797050Y1415115D01*
X1799922Y1415493D01*
X1802598Y1416602D01*
X1804895Y1418365D01*
X1806658Y1420663D01*
X1807767Y1423338D01*
X1808145Y1426210D01*
X1807767Y1429082D01*
X1806658Y1431758D01*
X1804895Y1434055D01*
X1802598Y1435818D01*
X1799922Y1436927D01*
X1797050Y1437305D01*
D02*
G37*
G36*
X1771650D02*
X1768778Y1436927D01*
X1766102Y1435818D01*
X1763805Y1434055D01*
X1762041Y1431758D01*
X1760933Y1429082D01*
X1760555Y1426210D01*
X1760933Y1423338D01*
X1762041Y1420663D01*
X1763805Y1418365D01*
X1766102Y1416602D01*
X1768778Y1415493D01*
X1771650Y1415115D01*
X1774522Y1415493D01*
X1777198Y1416602D01*
X1779495Y1418365D01*
X1781259Y1420663D01*
X1782367Y1423338D01*
X1782745Y1426210D01*
X1782367Y1429082D01*
X1781259Y1431758D01*
X1779495Y1434055D01*
X1777198Y1435818D01*
X1774522Y1436927D01*
X1771650Y1437305D01*
D02*
G37*
G36*
X1902840Y1418430D02*
X1886840D01*
Y1413680D01*
Y1410180D01*
X1902840D01*
Y1413680D01*
Y1418430D01*
D02*
G37*
G36*
X1885060D02*
X1869060D01*
Y1413680D01*
Y1410180D01*
X1877060D01*
X1885060D01*
Y1413680D01*
Y1418430D01*
D02*
G37*
G36*
X2141370Y1413030D02*
X2136620D01*
Y1408280D01*
X2141370D01*
Y1413030D01*
D02*
G37*
G36*
X2133120D02*
X2128370D01*
Y1408280D01*
X2133120D01*
Y1413030D01*
D02*
G37*
G36*
X1663700Y1422326D02*
X1661089Y1421983D01*
X1658657Y1420975D01*
X1656568Y1419372D01*
X1654965Y1417283D01*
X1653957Y1414850D01*
X1653614Y1412240D01*
X1653957Y1409630D01*
X1654965Y1407197D01*
X1656568Y1405108D01*
X1658657Y1403505D01*
X1661089Y1402497D01*
X1663700Y1402154D01*
X1666310Y1402497D01*
X1668743Y1403505D01*
X1670832Y1405108D01*
X1672435Y1407197D01*
X1673443Y1409630D01*
X1673786Y1412240D01*
X1673443Y1414850D01*
X1672435Y1417283D01*
X1670832Y1419372D01*
X1668743Y1420975D01*
X1666310Y1421983D01*
X1663700Y1422326D01*
D02*
G37*
G36*
X1902840Y1406680D02*
X1896590D01*
Y1401930D01*
X1902840D01*
Y1406680D01*
D02*
G37*
G36*
X1893090D02*
X1886840D01*
Y1401930D01*
X1893090D01*
Y1406680D01*
D02*
G37*
G36*
X1885060D02*
X1878810D01*
Y1401930D01*
X1885060D01*
Y1406680D01*
D02*
G37*
G36*
X1875310D02*
X1869060D01*
Y1401930D01*
X1875310D01*
Y1406680D01*
D02*
G37*
G36*
X2014370Y1407540D02*
X2009620D01*
Y1401290D01*
X2014370D01*
Y1407540D01*
D02*
G37*
G36*
X2006120D02*
X2001370D01*
Y1401290D01*
X2006120D01*
Y1407540D01*
D02*
G37*
G36*
X2120840Y1404500D02*
X2113090D01*
Y1398750D01*
X2120840D01*
Y1404500D01*
D02*
G37*
G36*
X2109590D02*
X2101840D01*
Y1398750D01*
X2109590D01*
Y1404500D01*
D02*
G37*
G36*
X2014370Y1397790D02*
X2009620D01*
Y1391540D01*
X2014370D01*
Y1397790D01*
D02*
G37*
G36*
X2006120D02*
X2001370D01*
Y1391540D01*
X2006120D01*
Y1397790D01*
D02*
G37*
G36*
X1797050Y1411905D02*
X1794178Y1411527D01*
X1791503Y1410419D01*
X1789205Y1408655D01*
X1787442Y1406358D01*
X1786333Y1403682D01*
X1785955Y1400810D01*
X1786333Y1397938D01*
X1787442Y1395262D01*
X1789205Y1392965D01*
X1791503Y1391201D01*
X1794178Y1390093D01*
X1797050Y1389715D01*
X1799922Y1390093D01*
X1802598Y1391201D01*
X1804895Y1392965D01*
X1806658Y1395262D01*
X1807767Y1397938D01*
X1808145Y1400810D01*
X1807767Y1403682D01*
X1806658Y1406358D01*
X1804895Y1408655D01*
X1802598Y1410419D01*
X1799922Y1411527D01*
X1797050Y1411905D01*
D02*
G37*
G36*
X2120840Y1395250D02*
X2113090D01*
Y1389500D01*
X2120840D01*
Y1395250D01*
D02*
G37*
G36*
X2109590D02*
X2101840D01*
Y1389500D01*
X2109590D01*
Y1395250D01*
D02*
G37*
G36*
X2090340Y1406118D02*
X2080340D01*
X2077999Y1405652D01*
X2076014Y1404326D01*
X2074688Y1402341D01*
X2074223Y1400000D01*
Y1399586D01*
X2072485Y1398425D01*
X2071269Y1396606D01*
X2070842Y1394460D01*
X2071269Y1392314D01*
X2072485Y1390495D01*
X2074304Y1389279D01*
X2076450Y1388852D01*
X2077062Y1388974D01*
X2077999Y1388348D01*
X2080340Y1387883D01*
X2090340D01*
X2092681Y1388348D01*
X2094666Y1389674D01*
X2095992Y1391659D01*
X2096458Y1394000D01*
Y1400000D01*
X2095992Y1402341D01*
X2094666Y1404326D01*
X2092681Y1405652D01*
X2090340Y1406118D01*
D02*
G37*
G36*
X2055960Y1389760D02*
X2051210D01*
Y1383510D01*
X2055960D01*
Y1389760D01*
D02*
G37*
G36*
X2047710D02*
X2042960D01*
Y1383510D01*
X2047710D01*
Y1389760D01*
D02*
G37*
G36*
X2158220Y1402098D02*
X2156074Y1401671D01*
X2154255Y1400455D01*
X2153039Y1398636D01*
X2152612Y1396490D01*
X2153039Y1394344D01*
X2153830Y1393160D01*
X2153151Y1391890D01*
X2152580D01*
Y1387450D01*
X2137030D01*
Y1368450D01*
X2153030D01*
Y1368450D01*
X2154255Y1368525D01*
X2156074Y1367309D01*
X2158220Y1366882D01*
X2160366Y1367309D01*
X2162185Y1368525D01*
X2162763Y1369390D01*
X2164580D01*
Y1375890D01*
Y1382390D01*
X2164580D01*
Y1391890D01*
X2165845Y1391902D01*
X2168580D01*
X2175080Y1385401D01*
Y1382390D01*
X2176580D01*
Y1382389D01*
X2181080D01*
X2185580D01*
Y1382390D01*
X2187080D01*
Y1391890D01*
X2181569D01*
X2173724Y1399734D01*
X2172236Y1400729D01*
X2170480Y1401078D01*
X2161253D01*
X2160366Y1401671D01*
X2158220Y1402098D01*
D02*
G37*
G36*
X2131530Y1385950D02*
X2126780D01*
Y1379700D01*
X2131530D01*
Y1385950D01*
D02*
G37*
G36*
X2123280D02*
X2118530D01*
Y1379700D01*
X2123280D01*
Y1385950D01*
D02*
G37*
G36*
X1663700Y1396926D02*
X1661089Y1396583D01*
X1658657Y1395575D01*
X1656568Y1393972D01*
X1654965Y1391883D01*
X1653957Y1389451D01*
X1653614Y1386840D01*
X1653957Y1384229D01*
X1654965Y1381797D01*
X1656568Y1379708D01*
X1658657Y1378105D01*
X1661089Y1377097D01*
X1663700Y1376754D01*
X1666310Y1377097D01*
X1668743Y1378105D01*
X1670832Y1379708D01*
X1672435Y1381797D01*
X1673443Y1384229D01*
X1673786Y1386840D01*
X1673443Y1389451D01*
X1672435Y1391883D01*
X1670832Y1393972D01*
X1668743Y1395575D01*
X1666310Y1396583D01*
X1663700Y1396926D01*
D02*
G37*
G36*
X2131530Y1376200D02*
X2126780D01*
Y1369950D01*
X2131530D01*
Y1376200D01*
D02*
G37*
G36*
X2123280D02*
X2118530D01*
Y1369950D01*
X2123280D01*
Y1376200D01*
D02*
G37*
G36*
X2185580Y1378890D02*
X2181080D01*
X2176580D01*
Y1378890D01*
X2175080D01*
Y1369390D01*
X2187080D01*
Y1378890D01*
X2185580D01*
Y1378890D01*
D02*
G37*
G36*
X2055960Y1380010D02*
X2049460D01*
X2042960D01*
Y1373770D01*
X2042960Y1373760D01*
Y1372500D01*
X2042960Y1372490D01*
Y1366250D01*
X2049460D01*
X2055960D01*
Y1372490D01*
X2055960Y1372500D01*
Y1373760D01*
X2055960Y1373770D01*
Y1380010D01*
D02*
G37*
G36*
Y1362750D02*
X2051210D01*
Y1356500D01*
X2055960D01*
Y1362750D01*
D02*
G37*
G36*
X2047710D02*
X2042960D01*
Y1356500D01*
X2047710D01*
Y1362750D01*
D02*
G37*
G36*
X2158411Y1349670D02*
X2151694Y1342953D01*
X2152754Y1341892D01*
X2152754Y1341892D01*
X2155936Y1338710D01*
X2159118Y1335528D01*
X2159118Y1335528D01*
X2160179Y1334467D01*
X2166897Y1341185D01*
X2158411Y1349670D01*
D02*
G37*
G36*
X1662430Y1340991D02*
X1659689Y1340630D01*
X1657135Y1339572D01*
X1654941Y1337889D01*
X1653258Y1335695D01*
X1652200Y1333141D01*
X1651839Y1330400D01*
X1652200Y1327659D01*
X1653258Y1325105D01*
X1654941Y1322911D01*
X1657135Y1321228D01*
X1659689Y1320170D01*
X1662430Y1319809D01*
X1665171Y1320170D01*
X1667725Y1321228D01*
X1669919Y1322911D01*
X1671602Y1325105D01*
X1672660Y1327659D01*
X1673021Y1330400D01*
X1672660Y1333141D01*
X1671602Y1335695D01*
X1669919Y1337889D01*
X1667725Y1339572D01*
X1665171Y1340630D01*
X1662430Y1340991D01*
D02*
G37*
G36*
X2262020Y1313560D02*
X2257270D01*
Y1307310D01*
X2262020D01*
Y1313560D01*
D02*
G37*
G36*
X2253770D02*
X2249020D01*
Y1307310D01*
X2253770D01*
Y1313560D01*
D02*
G37*
G36*
X1672930Y1305900D02*
X1651930D01*
Y1284900D01*
X1672930D01*
Y1305900D01*
D02*
G37*
G36*
X2071520Y1642490D02*
X2066770D01*
Y1636240D01*
X2071520D01*
Y1642490D01*
D02*
G37*
G36*
X2063270D02*
X2058520D01*
Y1636240D01*
X2063270D01*
Y1642490D01*
D02*
G37*
G36*
X2053020Y1643990D02*
X2037020D01*
Y1631617D01*
X2036979Y1631556D01*
X2036552Y1629410D01*
X2036979Y1627264D01*
X2037020Y1627203D01*
Y1624990D01*
X2038875D01*
X2040014Y1624229D01*
X2042160Y1623802D01*
X2044306Y1624229D01*
X2045445Y1624990D01*
X2053020D01*
Y1643990D01*
D02*
G37*
G36*
X2071520Y1632740D02*
X2065020D01*
X2058520D01*
Y1626490D01*
Y1621000D01*
X2065020D01*
X2071520D01*
Y1626490D01*
Y1632740D01*
D02*
G37*
G36*
X2166460Y1622206D02*
X2163849Y1621863D01*
X2161417Y1620855D01*
X2159328Y1619252D01*
X2157725Y1617163D01*
X2157147Y1615768D01*
X2155773D01*
X2155195Y1617163D01*
X2153592Y1619252D01*
X2151503Y1620855D01*
X2149070Y1621863D01*
X2146460Y1622206D01*
X2143849Y1621863D01*
X2141417Y1620855D01*
X2139328Y1619252D01*
X2137725Y1617163D01*
X2136717Y1614731D01*
X2136374Y1612120D01*
X2136717Y1609509D01*
X2137725Y1607077D01*
X2139328Y1604988D01*
X2141417Y1603385D01*
X2143849Y1602377D01*
X2146460Y1602034D01*
X2149070Y1602377D01*
X2150806Y1603096D01*
X2151446Y1601987D01*
X2150398Y1601182D01*
X2149035Y1599407D01*
X2148179Y1597339D01*
X2148117Y1596870D01*
X2164803D01*
X2164741Y1597339D01*
X2163885Y1599407D01*
X2162522Y1601182D01*
X2161474Y1601987D01*
X2162114Y1603096D01*
X2163849Y1602377D01*
X2166460Y1602034D01*
X2169070Y1602377D01*
X2171503Y1603385D01*
X2173592Y1604988D01*
X2175195Y1607077D01*
X2176203Y1609509D01*
X2176546Y1612120D01*
X2176203Y1614731D01*
X2175195Y1617163D01*
X2173592Y1619252D01*
X2171503Y1620855D01*
X2169070Y1621863D01*
X2166460Y1622206D01*
D02*
G37*
G36*
X2093020Y1628750D02*
X2077020D01*
Y1609750D01*
X2093020D01*
Y1628750D01*
D02*
G37*
G36*
X2071520Y1617500D02*
X2065020D01*
X2058520D01*
Y1611250D01*
Y1605760D01*
X2065020D01*
X2071520D01*
Y1611250D01*
Y1617500D01*
D02*
G37*
G36*
Y1602260D02*
X2066770D01*
Y1596010D01*
X2071520D01*
Y1602260D01*
D02*
G37*
G36*
X2063270D02*
X2058520D01*
Y1596010D01*
X2063270D01*
Y1602260D01*
D02*
G37*
G36*
X2053020Y1613510D02*
X2037020D01*
Y1594510D01*
X2053020D01*
Y1613510D01*
D02*
G37*
G36*
X2164803Y1593370D02*
X2158210D01*
Y1586777D01*
X2158679Y1586839D01*
X2160747Y1587695D01*
X2162522Y1589058D01*
X2163885Y1590833D01*
X2164741Y1592901D01*
X2164803Y1593370D01*
D02*
G37*
G36*
X2154710D02*
X2148117D01*
X2148179Y1592901D01*
X2149035Y1590833D01*
X2150398Y1589058D01*
X2152173Y1587695D01*
X2154241Y1586839D01*
X2154710Y1586777D01*
Y1593370D01*
D02*
G37*
G36*
X2008020Y1522880D02*
X2003270D01*
Y1518130D01*
X2008020D01*
Y1522880D01*
D02*
G37*
G36*
X1999770D02*
X1995020D01*
Y1518130D01*
X1999770D01*
Y1522880D01*
D02*
G37*
G36*
X2008020Y1514630D02*
X2003270D01*
Y1509880D01*
X2008020D01*
Y1514630D01*
D02*
G37*
G36*
X1999770D02*
X1995020D01*
Y1509880D01*
X1999770D01*
Y1514630D01*
D02*
G37*
%LPD*%
D12*
X1913605Y1550570D02*
Y1552725D01*
X1737361Y1477011D02*
X1737362Y1477010D01*
X1771650D01*
X1821180Y1778000D02*
Y1863090D01*
X1875790Y1917700D02*
X2054744D01*
X1821180Y1863090D02*
X1875790Y1917700D01*
X2054744D02*
X2272030Y1700414D01*
X1874480Y1821160D02*
X2034480D01*
X1884680Y1240790D02*
X1896110D01*
X1841500D02*
X1884680D01*
X1663700D02*
X1841500D01*
X1836420Y1235710D02*
X1841500Y1240790D01*
X1640840Y1263650D02*
X1663700Y1240790D01*
X1830451Y1208151D02*
X1880489D01*
X2029460Y1381760D02*
Y1397950D01*
X1913605Y1535890D02*
Y1550570D01*
X1994850Y1201420D02*
X2017710Y1224280D01*
X1978560Y1201420D02*
X1994850D01*
X2029460Y1372640D02*
Y1374140D01*
X1969770Y1313180D02*
X1992790Y1336200D01*
X1993352Y1336532D02*
X2029460Y1372640D01*
X1992458Y1336532D02*
X1993352D01*
X1898650Y1518097D02*
X1915160Y1534607D01*
X1932940Y1313180D02*
X1969770D01*
X1757680D02*
X1932940D01*
X1737360Y1333500D02*
X1757680Y1313180D01*
X1914888Y1534607D02*
X1915160D01*
X1913605Y1535890D02*
X1914888Y1534607D01*
X1913605Y1552725D02*
X1913990Y1553110D01*
X1836420Y1221740D02*
Y1235710D01*
X1902220Y1186420D02*
X1971280D01*
X1880489Y1208151D02*
X1902220Y1186420D01*
X1971280D02*
X1978560Y1193700D01*
X1809750Y1187450D02*
X1830451Y1208151D01*
X2018030Y1240790D02*
X2018665Y1240155D01*
X2017710Y1224280D02*
X2018345Y1223645D01*
X2031365D01*
X2032000Y1223010D01*
X1978560Y1193700D02*
Y1201420D01*
X1981200Y1252710D02*
X2007610D01*
X2018030Y1242290D01*
Y1240790D02*
Y1242290D01*
X2017870Y1240630D02*
X2018030Y1240790D01*
X2017870Y1224440D02*
Y1240630D01*
X2017710Y1224280D02*
X2017870Y1224440D01*
X1774190Y1187450D02*
X1809750D01*
X1663700Y1138120D02*
X1668980D01*
X2044020Y1605550D02*
X2045020Y1604550D01*
Y1604010D02*
Y1604550D01*
X1668980Y1138120D02*
X1699811Y1168951D01*
X1653540Y1189990D02*
X1654810Y1191260D01*
X1743704Y1530356D02*
X1744980Y1529080D01*
X1738074Y1530356D02*
X1743704D01*
X1733000Y1535430D02*
X1738074Y1530356D01*
X1946910Y1595120D02*
Y1602740D01*
X1906590Y1577340D02*
X1918970D01*
X1905320Y1578610D02*
X1906590Y1577340D01*
X1907540Y1595120D02*
X1918970D01*
X1927635D01*
X1874520Y1513840D02*
X1898650D01*
X1866900Y1521460D02*
X1874520Y1513840D01*
X1866900Y1521460D02*
Y1607820D01*
X1823720Y1651000D02*
X1866900Y1607820D01*
X2272030Y1536700D02*
Y1700414D01*
X2232325Y1630345D02*
X2250775D01*
X2231390Y1629410D02*
X2232325Y1630345D01*
X2228850Y1645920D02*
Y1732280D01*
X2171700Y1789430D02*
X2228850Y1732280D01*
X2150110Y1789430D02*
X2171700D01*
X2228850Y1645920D02*
X2230120Y1644650D01*
Y1630680D02*
Y1644650D01*
Y1630680D02*
X2231390Y1629410D01*
X2211070Y1626550D02*
X2212500Y1627980D01*
X2229960D01*
X2231390Y1629410D01*
X2250775Y1630345D02*
X2251710Y1631280D01*
X2202180Y1645920D02*
X2208850D01*
X2198370Y1642110D02*
X2202180Y1645920D01*
X2198370Y1612065D02*
Y1642110D01*
Y1612065D02*
X2201885Y1608550D01*
X2209070D01*
X2211070Y1606550D01*
X2212340Y1605280D01*
X2230120D01*
X2231390Y1604010D01*
X2232025Y1604645D01*
X2251075D01*
X2251710Y1605280D01*
X1699811Y1168951D02*
Y1191259D01*
X1640840Y1704340D02*
X1640840Y1263650D01*
X1696720Y1439885D02*
Y1695450D01*
X1709420Y1514850D02*
X1730000Y1535430D01*
X1709420Y1470660D02*
Y1514850D01*
X1696720Y1695450D02*
X1711960Y1710690D01*
X1700235Y1436370D02*
X1709420D01*
X1696720Y1439885D02*
X1700235Y1436370D01*
X1907860Y1504630D02*
X1958340D01*
X1898650Y1513840D02*
X1907860Y1504630D01*
X1898650Y1513840D02*
Y1518097D01*
X1960880Y1579880D02*
Y1580010D01*
X1962880Y1582010D01*
X1976660D01*
X1978660Y1584010D01*
X1932940Y1600425D02*
X1935255Y1602740D01*
X1927635Y1595120D02*
X1932940Y1600425D01*
X1935255Y1602740D02*
X1946910D01*
X1978660Y1604010D02*
X2006600D01*
X2016760Y1614170D01*
Y1687830D01*
X1977867Y1603217D02*
X1978660Y1604010D01*
X1933732Y1603217D02*
X1977867D01*
X1932940Y1602425D02*
X1933732Y1603217D01*
X1960880Y1562580D02*
Y1579880D01*
X1928060Y1550570D02*
X1950370D01*
X1960880Y1561080D01*
Y1562580D01*
X1915990Y1550570D02*
X1928060D01*
X1913990Y1552570D02*
X1915990Y1550570D01*
X1740853Y1189672D02*
X1741170Y1189990D01*
X1740535Y1189355D02*
X1740853Y1189672D01*
X1932940Y1600425D02*
Y1602425D01*
X1906270Y1596390D02*
X1907540Y1595120D01*
X1906270Y1578610D02*
Y1593850D01*
X1733000Y1436370D02*
X1737360Y1432010D01*
X1709420Y1436370D02*
X1733000D01*
X1764030Y1710690D02*
X1823720Y1651000D01*
X1711960Y1710690D02*
X1764030Y1710690D01*
X1777650Y1535429D02*
X1778001D01*
X1771650Y1529429D02*
X1777650Y1535429D01*
X1771650Y1502410D02*
Y1529429D01*
Y1477010D02*
X1797050D01*
X1733000Y1535430D02*
X1735188D01*
X1741074Y1543504D02*
X1745300Y1547730D01*
X1741074Y1541316D02*
Y1543504D01*
X1735188Y1535430D02*
X1741074Y1541316D01*
X1745300Y1547730D02*
Y1610360D01*
X1730000Y1535430D02*
X1731624D01*
X1739900Y1137920D02*
X1740535Y1138555D01*
Y1189355D01*
X1663700Y1138120D02*
X1663900Y1137920D01*
X1737360Y1333500D02*
Y1432010D01*
D18*
X2250540Y1201370D02*
Y1205330D01*
X2268220Y1223010D01*
X2251740Y1229390D02*
Y1237550D01*
X2187360Y1087120D02*
X2199640D01*
X2278380Y1165860D01*
X2155190Y1109980D02*
X2214880D01*
X2148840Y1103630D02*
X2155190Y1109980D01*
X2148840Y1093471D02*
Y1103630D01*
Y1093471D02*
X2150842Y1091468D01*
X2206610Y1201370D02*
X2223720D01*
X2110740Y1090680D02*
X2114250Y1087170D01*
X2054860Y1204060D02*
X2057500Y1201420D01*
X2028410Y1273460D02*
X2054860Y1247010D01*
Y1204060D02*
Y1247010D01*
X2095500Y1201420D02*
Y1209040D01*
X2092960Y1211580D02*
X2095500Y1209040D01*
X2092960Y1211580D02*
Y1215981D01*
X2030481Y1278460D02*
X2092960Y1215981D01*
X2110740Y1102360D02*
X2193290Y1184910D01*
X2110740Y1090680D02*
Y1102360D01*
X2072640Y1090780D02*
X2076250Y1087170D01*
X2072640Y1106170D02*
X2148840Y1182370D01*
X2072640Y1090780D02*
Y1106170D01*
X1913670Y1900660D02*
X1932190Y1882140D01*
X2039620D01*
X2052400Y1869360D01*
X1995424Y1900660D02*
X2008864Y1887220D01*
X2042160D01*
X2057400Y1871980D01*
Y1752600D02*
Y1871980D01*
X2234990Y1235500D02*
Y1237550D01*
X2214880Y1215390D02*
X2234990Y1235500D01*
X2200910Y1215390D02*
X2214880D01*
X2169160Y1244600D02*
X2249170D01*
X2223720Y1201370D02*
X2251740Y1229390D01*
X2268220Y1223010D02*
Y1318260D01*
X2262540Y1323940D02*
X2268220Y1318260D01*
X2257280Y1323940D02*
X2262540D01*
X2256790Y1294130D02*
X2260600Y1290320D01*
X2227580Y1294130D02*
X2256790D01*
X2263700Y1332940D02*
X2273300Y1323340D01*
Y1168400D02*
Y1323340D01*
X2214880Y1109980D02*
X2273300Y1168400D01*
X2265860Y1340940D02*
X2278380Y1328420D01*
Y1165860D02*
Y1328420D01*
X2208850Y1220410D02*
X2225990Y1237550D01*
X2158940Y1220410D02*
X2208850D01*
X2148840Y1210310D02*
X2158940Y1220410D01*
X2193290Y1207770D02*
X2200910Y1215390D01*
X2193290Y1184910D02*
Y1207770D01*
X2148840Y1182370D02*
Y1210310D01*
X2251740Y1237550D02*
X2251990D01*
X2257280Y1332940D02*
X2263700D01*
X2257280Y1340940D02*
X2265860D01*
X2117261Y1325023D02*
X2117503D01*
X2115642Y1323403D02*
X2117261Y1325023D01*
X2115400Y1323403D02*
X2115642D01*
X2105500Y1333696D02*
X2116474Y1344669D01*
X2125087D02*
X2138103Y1331653D01*
X2116474Y1344669D02*
X2125087D01*
X2082800Y1334770D02*
X2084267Y1333303D01*
X2105500D01*
Y1333696D01*
X2057400Y1320800D02*
X2075780D01*
X2043430Y1318260D02*
X2054860D01*
X2154699Y1337473D02*
Y1337685D01*
X2149417Y1342967D02*
X2154699Y1337685D01*
X2105806Y1297940D02*
X2109958Y1293788D01*
X1937530Y1240600D02*
X1945297D01*
X1931030Y1235503D02*
X1936829Y1241301D01*
X1937530Y1240600D01*
X1931030Y1218965D02*
Y1235503D01*
X1945297Y1240600D02*
X1957407Y1252710D01*
X1938020Y1249680D02*
Y1251730D01*
X1948000Y1261710D01*
X2218690Y1341120D02*
X2222254D01*
X2218690Y1333500D02*
X2218880Y1333310D01*
X2222064D01*
X2222254Y1333120D01*
X2218690Y1324610D02*
X2218935Y1324365D01*
X2222009D01*
X2222254Y1324120D01*
X2197480Y1324610D02*
X2198370D01*
X2152650Y1287780D02*
X2198370Y1333500D01*
X2149245Y1292860D02*
X2197505Y1341120D01*
X2198370D01*
X2088392Y1304041D02*
X2093504Y1298929D01*
X2155570Y1282700D02*
X2197480Y1324610D01*
X2099705Y1315355D02*
X2109817Y1305243D01*
X2242350Y1333120D02*
X2242995Y1332475D01*
X2222254Y1333120D02*
X2242350D01*
X2058670Y1300480D02*
X2064385D01*
X2043430Y1315720D02*
X2058670Y1300480D01*
X2082800Y1327820D02*
Y1334770D01*
X2054860Y1318260D02*
X2057400Y1320800D01*
X2222254Y1324120D02*
X2222344Y1324030D01*
X2242440D01*
X2222254Y1341120D02*
X2222379Y1340995D01*
X2242475D01*
X2078990Y1284586D02*
X2078990D01*
X2080616Y1292152D02*
X2086273Y1286495D01*
X2077717Y1292152D02*
X2080616D01*
X2068737Y1283172D02*
X2077717Y1292152D01*
X2098503Y1288626D02*
Y1305127D01*
X2093504Y1286555D02*
Y1298929D01*
X2207504Y1338920D02*
X2214880Y1346297D01*
X2207990Y1295390D02*
X2211810Y1299210D01*
X2204720Y1296670D02*
X2205990D01*
X1980955Y1235710D02*
Y1261710D01*
X1874520Y1410970D02*
Y1420180D01*
X1991520Y1234280D02*
X1998030Y1240790D01*
X1991260Y1234280D02*
X1991520D01*
X1976750Y1228960D02*
X1985940D01*
X1991260Y1234280D01*
X2066453Y1266591D02*
X2070540D01*
X1981200Y1107440D02*
X1997310Y1091330D01*
X1946910Y1107440D02*
X1981200D01*
X1879699Y1174651D02*
X1946910Y1107440D01*
X2027870Y1399540D02*
X2029460Y1397950D01*
X2155581Y1412240D02*
X2225040D01*
X2142881Y1424940D02*
X2155581Y1412240D01*
X2135591Y1282700D02*
X2155570D01*
X2122971Y1270080D02*
X2135591Y1282700D01*
X2133600Y1287780D02*
X2152650D01*
X2109978Y1270080D02*
X2122971D01*
X2093504Y1286555D02*
X2109978Y1270080D01*
X2121372Y1261410D02*
X2137312Y1277350D01*
X2116180Y1261410D02*
X2121372D01*
X2132330Y1292860D02*
X2149245D01*
X2137312Y1277350D02*
X2158860D01*
X2207504Y1333120D02*
Y1338920D01*
Y1324120D02*
Y1333120D01*
X2214880Y1346297D02*
Y1381760D01*
X2235520Y1305560D02*
Y1307060D01*
X2242530Y1314070D01*
Y1323940D01*
X2242440Y1324030D02*
X2242530Y1323940D01*
X2242475Y1332995D02*
X2242530Y1332940D01*
X2187980Y1299210D02*
X2189480D01*
X2169160Y1280390D02*
X2187980Y1299210D01*
X2214320Y1307390D02*
X2227580Y1294130D01*
X2195120Y1307390D02*
X2214320D01*
X2189480Y1301750D02*
X2195120Y1307390D01*
X2259020Y1380180D02*
X2259330Y1380490D01*
X2255520Y1305560D02*
X2259020Y1309060D01*
X2260600Y1283710D02*
Y1290320D01*
X2235200Y1286510D02*
X2243200D01*
X2173460Y1380490D02*
X2180930D01*
X2181080Y1380640D01*
X2158220Y1396490D02*
X2170480D01*
X2179830Y1387140D01*
X2181080D01*
X2119947Y1305243D02*
X2132330Y1292860D01*
X2109817Y1305243D02*
X2119947D01*
X2094048Y1309582D02*
X2098503Y1305127D01*
X2094048Y1309582D02*
Y1309698D01*
X2098503Y1288626D02*
X2112049Y1275080D01*
X2120900D02*
X2133600Y1287780D01*
X2112049Y1275080D02*
X2120900D01*
X2082800Y1358670D02*
Y1360770D01*
X2062710Y1338580D02*
X2082800Y1358670D01*
X2061210Y1338580D02*
X2062710D01*
X2044700Y1341120D02*
X2047240Y1338580D01*
X2042160D02*
X2044700Y1341120D01*
X2075780Y1320800D02*
X2082800Y1327820D01*
X2111359Y1261410D02*
X2116180D01*
X2086273Y1286495D02*
X2086273D01*
X2111359Y1261410D01*
X2078990Y1284586D02*
X2084647Y1278930D01*
X2043430Y1315720D02*
Y1318260D01*
X2040570Y1318580D02*
X2043430D01*
X2034540Y1324610D02*
X2040570Y1318580D01*
X2021840Y1324610D02*
X2034540D01*
X2043430Y1318260D02*
Y1318580D01*
X2022790Y1338580D02*
X2042160D01*
X2047240D02*
X2061210D01*
X2044700Y1341120D02*
Y1346200D01*
X2006600Y1322390D02*
X2022790Y1338580D01*
X2029820Y1318260D02*
X2033270Y1314810D01*
Y1309447D02*
Y1314810D01*
Y1309447D02*
X2068560Y1274156D01*
X2012950Y1315720D02*
X2021840Y1324610D01*
X2012950Y1300480D02*
Y1315720D01*
X2000930Y1288460D02*
X2012950Y1300480D01*
X2019300Y1303783D02*
Y1308100D01*
X2116180Y1248410D02*
X2133460Y1231130D01*
X2084070Y1248410D02*
X2116180D01*
X2154410Y1244600D02*
X2155190D01*
X2133460Y1231130D02*
X2148070D01*
X2025932Y1307112D02*
Y1311628D01*
X2025650Y1311910D02*
X2025932Y1311628D01*
Y1307112D02*
X2066453Y1266591D01*
X2019300Y1303783D02*
X2062149Y1260934D01*
X2076197D01*
X2145180Y1237130D02*
Y1251610D01*
X2148070Y1231130D02*
X2154410Y1237470D01*
X2142130Y1254660D02*
X2145180Y1251610D01*
X2138930Y1254660D02*
X2142130D01*
X2138680Y1254910D02*
X2138930Y1254660D01*
X2154410Y1237470D02*
Y1244600D01*
X2189480Y1228410D02*
X2190980D01*
X2195100Y1232530D01*
X2202490D01*
X2205990Y1236030D01*
X2251740Y1247170D02*
Y1252300D01*
X2249170Y1244600D02*
X2251740Y1247170D01*
X2169160Y1253600D02*
X2178540D01*
X2179480Y1254540D01*
X2205110Y1256910D02*
X2205990Y1256030D01*
X2181530Y1256910D02*
X2205110D01*
X2179480Y1254860D02*
X2181530Y1256910D01*
X2205990Y1278260D02*
X2233290D01*
X2204090D02*
X2205990D01*
X2189640Y1261910D02*
X2205990Y1278260D01*
X2169470Y1261910D02*
X2189640D01*
X2169160Y1261600D02*
X2169470Y1261910D01*
X2179480Y1254540D02*
Y1254860D01*
X2077965Y1254515D02*
X2084070Y1248410D01*
X2097890Y1254910D02*
X2116180D01*
X2068737Y1274333D02*
Y1283172D01*
X2068560Y1274156D02*
X2068737Y1274333D01*
X2082391Y1270409D02*
X2097890Y1254910D01*
X2076126Y1270409D02*
X2082391D01*
X2074217Y1268500D02*
X2076126Y1270409D01*
X2070540Y1266591D02*
X2072449Y1268500D01*
X2077965Y1254515D02*
Y1258459D01*
X2077965Y1258459D01*
Y1259166D01*
X2079874Y1261075D01*
Y1262843D01*
X2076197Y1260934D02*
X2078106Y1262843D01*
X2079874D01*
X2158860Y1277350D02*
X2160910Y1275300D01*
X2138170Y1270600D02*
X2154410D01*
X2122730Y1255160D02*
X2138170Y1270600D01*
X2116430Y1255160D02*
X2122730D01*
X2116180Y1254910D02*
X2116430Y1255160D01*
X2160910Y1265900D02*
Y1275300D01*
X2157860Y1262850D02*
X2160910Y1265900D01*
X2155660Y1262850D02*
X2157860D01*
X2154410Y1261600D02*
X2155660Y1262850D01*
X2084647Y1278930D02*
X2090304Y1273273D01*
X2072449Y1268500D02*
X2074217D01*
X2152910Y1272350D02*
X2154410Y1270850D01*
Y1270600D02*
Y1270850D01*
X2205990Y1296670D02*
Y1298890D01*
X2189480Y1281430D02*
X2204720Y1296670D01*
X2189480Y1279210D02*
Y1281430D01*
X2213250Y1299210D02*
X2225950Y1286510D01*
X2211810Y1299210D02*
X2213250D01*
X2189480D02*
Y1301750D01*
X2169160Y1270600D02*
Y1280390D01*
X2225950Y1286510D02*
X2226200D01*
X2235200D01*
X2243200D02*
X2252200D01*
X2205990Y1278260D02*
Y1278890D01*
X2255525Y1278635D02*
X2260600Y1283710D01*
X2247875Y1278635D02*
X2255525D01*
X2244450Y1275210D02*
X2247875Y1278635D01*
X2244450Y1273010D02*
Y1275210D01*
X2243200Y1271760D02*
X2244450Y1273010D01*
X2233290Y1278260D02*
X2235200Y1276350D01*
Y1271760D02*
Y1276350D01*
X2251740Y1252300D02*
X2251990D01*
X2205990Y1256030D02*
X2209490Y1252530D01*
X2225760D01*
X2225990Y1252300D01*
X2234990D02*
Y1271550D01*
X2235200Y1271760D01*
X2243095Y1271655D02*
X2243200Y1271760D01*
X2243095Y1252405D02*
Y1271655D01*
X2242990Y1252300D02*
X2243095Y1252405D01*
X1982542Y1179920D02*
X2004042Y1201420D01*
X1896015Y1179920D02*
X1982542D01*
X2004042Y1201420D02*
X2016560D01*
X2226095Y1271655D02*
X2226200Y1271760D01*
X2226095Y1252405D02*
Y1271655D01*
X2225990Y1252300D02*
X2226095Y1252405D01*
X2252095Y1271655D02*
X2252200Y1271760D01*
X2252095Y1252405D02*
Y1271655D01*
X2251990Y1252300D02*
X2252095Y1252405D01*
X1940931Y1273460D02*
X2028410D01*
X1938860Y1278460D02*
X2030481D01*
X2032552Y1283460D02*
X2114592Y1201420D01*
X1936240Y1283460D02*
X2032552D01*
X2114592Y1201420D02*
X2133500D01*
X1934169Y1288460D02*
X2000930D01*
X1905000Y1259291D02*
X1934169Y1288460D01*
X1923141Y1255669D02*
X1940931Y1273460D01*
X1923141Y1251860D02*
Y1255669D01*
X1905000Y1249680D02*
Y1259291D01*
X1897380Y1242060D02*
X1905000Y1249680D01*
X1893570Y1254760D02*
Y1258250D01*
X1889760Y1250950D02*
X1893570Y1254760D01*
X1828800Y1250950D02*
X1889760D01*
X1896888Y1258250D02*
X1932098Y1293460D01*
X1893570Y1258250D02*
X1896888D01*
X1932098Y1293460D02*
X1998310D01*
X2006600Y1301750D01*
Y1322390D01*
X1971040Y1223010D02*
X1997710D01*
X1967230Y1226820D02*
Y1236980D01*
X1963420Y1223010D02*
X1967230Y1226820D01*
X1971040Y1223010D01*
X1937530D02*
X1963420D01*
X1948000Y1261710D02*
X1966450D01*
X1957407Y1252710D02*
X1966450D01*
X1884141Y1221730D02*
X1907911Y1197960D01*
X1858970Y1221730D02*
X1884141D01*
X1855470Y1225230D02*
X1858970Y1221730D01*
X1958465Y1244710D02*
X1966450D01*
X1945765Y1232010D02*
X1958465Y1244710D01*
X1937530Y1232010D02*
X1945765D01*
X1920240Y1207770D02*
Y1216660D01*
X1926510Y1214445D02*
X1931030Y1218965D01*
X1926510Y1201340D02*
Y1214445D01*
X1920240Y1216660D02*
X1922780Y1219200D01*
X1923130Y1197960D02*
X1926510Y1201340D01*
X1907911Y1197960D02*
X1923130D01*
X1932100Y1192960D02*
X1940560Y1201420D01*
X1905840Y1192960D02*
X1932100D01*
X1884149Y1214651D02*
X1905840Y1192960D01*
X1875284Y1200651D02*
X1896015Y1179920D01*
X1821180Y1214651D02*
X1884149D01*
X1922780Y1219200D02*
Y1223010D01*
X1981200Y1252710D02*
X1981690Y1252220D01*
X1918860Y1232010D02*
X1922780D01*
X1910080Y1240790D02*
X1918860Y1232010D01*
X1910080Y1240790D02*
Y1257300D01*
X1915160Y1244600D02*
X1920240Y1239520D01*
X1915160Y1244600D02*
Y1254760D01*
X1938860Y1278460D01*
X1910080Y1257300D02*
X1936240Y1283460D01*
X2032000Y1243330D02*
Y1252220D01*
X2015760Y1268460D02*
X2032000Y1252220D01*
X1951690Y1085900D02*
Y1089960D01*
X1869284Y1172166D02*
Y1177651D01*
X1872999Y1168651D02*
X1951690Y1089960D01*
X1872798Y1168651D02*
X1872999D01*
X1869284Y1172166D02*
X1872798Y1168651D01*
X1997310Y1087170D02*
Y1091330D01*
X1972950Y1268460D02*
X2015760D01*
X1966450Y1261960D02*
X1972950Y1268460D01*
X1966450Y1261710D02*
Y1261960D01*
X1875284Y1174651D02*
X1879699D01*
X1863090Y1179943D02*
X1874520Y1191373D01*
X1863090Y1167130D02*
Y1179943D01*
X1973230Y1232480D02*
X1976750Y1228960D01*
X1973230Y1232480D02*
Y1240130D01*
X1967900Y1245460D02*
X1973230Y1240130D01*
X1921310Y1087170D02*
Y1108910D01*
X1863090Y1167130D02*
X1921310Y1108910D01*
X1869284Y1177651D02*
X1875284Y1183651D01*
X2006600Y1400810D02*
Y1405890D01*
Y1400810D02*
X2007870Y1399540D01*
X2028190D02*
X2032000Y1395730D01*
X2027870Y1399540D02*
X2028190D01*
X2076450Y1394460D02*
X2076833Y1394843D01*
X2083183D01*
X2085340Y1397000D01*
X2129790Y1455104D02*
Y1653540D01*
X2123790Y1456175D02*
Y1661510D01*
X2107715Y1440100D02*
X2123790Y1456175D01*
X2109786Y1435100D02*
X2129790Y1455104D01*
Y1653540D02*
X2134870Y1658620D01*
X2123790Y1661510D02*
X2125980Y1663700D01*
X1689100Y1470690D02*
Y1531620D01*
X1681480Y1539240D02*
X1689100Y1531620D01*
X1663700Y1539240D02*
X1681480D01*
X1916430Y1512570D02*
X1945091D01*
X1909730Y1518570D02*
X1944020D01*
X2024460Y1599010D01*
Y1726731D01*
X1908810Y1517650D02*
X1909730Y1518570D01*
X1945091Y1512570D02*
X2029460Y1596939D01*
X1905320Y1577340D02*
Y1578610D01*
X2024460Y1726731D02*
X2052400Y1754671D01*
X2029460Y1596939D02*
Y1724660D01*
X2057400Y1752600D01*
X1905320Y1577340D02*
X1906590Y1576070D01*
X1938975Y1423990D02*
X1941195Y1426210D01*
X1886270Y1573530D02*
Y1578610D01*
X1898650Y1423990D02*
X1938975D01*
X1884840Y1593690D02*
Y1595190D01*
Y1593690D02*
X1885000Y1593530D01*
X1940880Y1562735D02*
Y1579880D01*
X2052400Y1754671D02*
Y1869360D01*
X1733550Y1678940D02*
X1824990Y1587500D01*
Y1506220D02*
Y1587500D01*
Y1506220D02*
X1879600Y1451610D01*
X1973580D01*
X1797050Y1637030D02*
X1840230Y1593850D01*
Y1511300D02*
Y1593850D01*
Y1511300D02*
X1884680Y1466850D01*
X1973580D01*
X1755140Y1668780D02*
X1832610Y1591310D01*
X1755140Y1668780D02*
Y1691640D01*
X1832610Y1508039D02*
Y1591310D01*
Y1508039D02*
X1881419Y1459230D01*
X1973580D01*
Y1475740D02*
X2086610D01*
X1973197Y1476123D02*
X1973580Y1475740D01*
Y1483360D02*
X2089150D01*
X1973580Y1490980D02*
X2094230D01*
X1973580Y1498600D02*
X2094959D01*
X1733550Y1678940D02*
Y1691640D01*
X1797050Y1451610D02*
X1815839D01*
X1855519Y1411930D01*
X1894840Y1420180D02*
X1898650Y1423990D01*
X2125980Y1663700D02*
X2150110D01*
X2157730Y1656080D01*
X1874520Y1410970D02*
X1877060Y1408430D01*
X1873560Y1411930D02*
X1874520Y1410970D01*
X1855519Y1411930D02*
X1873560D01*
X1731624Y1535430D02*
X1733000D01*
X1709420Y1450370D02*
X1710040Y1450990D01*
X1771030D01*
X1771650Y1451610D01*
X1797050D01*
X1771650Y1400810D02*
X1795780Y1376680D01*
X1972310Y1422400D02*
X1985010Y1435100D01*
X1972310Y1379220D02*
Y1422400D01*
X1968347Y1476123D02*
X1973197D01*
X1959840Y1484630D02*
X1968347Y1476123D01*
X1958340Y1484630D02*
X1959840D01*
X2251710Y1630276D02*
Y1631280D01*
X1966310Y1423471D02*
X1982939Y1440100D01*
X1966310Y1376735D02*
Y1423471D01*
X1924050Y1376680D02*
X1936750Y1389380D01*
X1959610D01*
X1989449Y1381660D02*
X1989990D01*
X1987359Y1379570D02*
X1989449Y1381660D01*
X1983111Y1386199D02*
X1983740Y1385570D01*
X1981255Y1379570D02*
X1987359D01*
X1983111Y1386199D02*
Y1418590D01*
X1977740Y1383085D02*
Y1420290D01*
Y1383085D02*
X1981255Y1379570D01*
X1977740Y1420290D02*
X1987550Y1430100D01*
X1966310Y1376735D02*
X1971445Y1371600D01*
X1977390D01*
X1877060Y1420180D02*
X1894840D01*
X1874520D02*
X1877060D01*
X1859280Y1391920D02*
X1859590Y1391610D01*
X1871020D01*
X1874520Y1388110D01*
X1898330Y1391920D02*
X1913890D01*
X1894840Y1388430D02*
X1898330Y1391920D01*
X1895100Y1439920D02*
X1913890D01*
X1894840Y1440180D02*
X1895100Y1439920D01*
X1859280D02*
X1874260D01*
X1874520Y1440180D01*
X1894840Y1408430D02*
Y1420180D01*
X1795780Y1376680D02*
X1924050D01*
X1989461Y1424940D02*
X2142881D01*
X2112090Y1430100D02*
X2145030Y1463040D01*
X1987550Y1430100D02*
X2112090D01*
X1985010Y1435100D02*
X2109786D01*
X1982939Y1440100D02*
X2107715D01*
X2145030Y1463040D02*
X2227580D01*
X1983740Y1419219D02*
X1989461Y1424940D01*
X2094959Y1498600D02*
X2097499Y1496060D01*
X2094230Y1490980D02*
X2101850Y1483360D01*
X2089150D02*
X2106930Y1465580D01*
X2065020Y1604010D02*
Y1619250D01*
Y1634490D01*
X2086610Y1475740D02*
X2110740Y1451610D01*
X2097499Y1496060D02*
X2098040D01*
D20*
X1737362Y1477011D02*
D03*
D21*
X1737362Y1432010D02*
D03*
D22*
X1778002Y1535428D02*
D03*
D23*
X1733001Y1535429D02*
D03*
D24*
X2257280Y1340940D02*
D03*
X2242530Y1332940D02*
D03*
Y1340940D02*
D03*
X2257280Y1332940D02*
D03*
X2222254Y1333120D02*
D03*
X2207504Y1341120D02*
D03*
Y1333120D02*
D03*
X2222254Y1341120D02*
D03*
X2154410Y1253600D02*
D03*
X2169160Y1261600D02*
D03*
Y1253600D02*
D03*
X2154410Y1261600D02*
D03*
X1922780Y1240010D02*
D03*
X1937530Y1232010D02*
D03*
Y1240010D02*
D03*
X1922780Y1232010D02*
D03*
X1966450Y1252710D02*
D03*
X1981200Y1244710D02*
D03*
Y1252710D02*
D03*
X1966450Y1244710D02*
D03*
D25*
X2257280Y1349940D02*
D03*
X2242530Y1323940D02*
D03*
Y1349940D02*
D03*
X2257280Y1323940D02*
D03*
X2222254Y1324120D02*
D03*
X2207504Y1350120D02*
D03*
Y1324120D02*
D03*
X2222254Y1350120D02*
D03*
X2154410Y1244600D02*
D03*
X2169160Y1270600D02*
D03*
Y1244600D02*
D03*
X2154410Y1270600D02*
D03*
X1922780Y1249010D02*
D03*
X1937530Y1223010D02*
D03*
Y1249010D02*
D03*
X1922780Y1223010D02*
D03*
X1966450Y1261710D02*
D03*
X1981200Y1235710D02*
D03*
Y1261710D02*
D03*
X1966450Y1235710D02*
D03*
D26*
X2188210Y1298890D02*
D03*
Y1278890D02*
D03*
X2189480Y1248410D02*
D03*
Y1228410D02*
D03*
X2205990Y1278890D02*
D03*
Y1298890D02*
D03*
Y1236030D02*
D03*
Y1256030D02*
D03*
X1855470Y1205230D02*
D03*
Y1225230D02*
D03*
X2032000Y1223010D02*
D03*
Y1243010D02*
D03*
X1893570Y1238250D02*
D03*
Y1258250D02*
D03*
X1642110Y1726880D02*
D03*
Y1706880D02*
D03*
X1978660Y1584010D02*
D03*
Y1604010D02*
D03*
X2211070Y1606550D02*
D03*
Y1626550D02*
D03*
X2061210Y1318580D02*
D03*
Y1338580D02*
D03*
X2043430Y1318580D02*
D03*
Y1338580D02*
D03*
X1958340Y1504630D02*
D03*
Y1484630D02*
D03*
X1877060Y1408430D02*
D03*
Y1388430D02*
D03*
Y1420180D02*
D03*
Y1440180D02*
D03*
X1894840D02*
D03*
Y1420180D02*
D03*
Y1408430D02*
D03*
Y1388430D02*
D03*
D29*
X2235520Y1305560D02*
D03*
X2255520D02*
D03*
X2145030Y1377950D02*
D03*
X2125030D02*
D03*
X2017710Y1224280D02*
D03*
X1997710D02*
D03*
X2018030Y1240790D02*
D03*
X1998030D02*
D03*
X1940880Y1562580D02*
D03*
X1960880D02*
D03*
X1940880Y1579880D02*
D03*
X1960880D02*
D03*
X1886270Y1578610D02*
D03*
X1906270D02*
D03*
X1893990Y1553110D02*
D03*
X1913990D02*
D03*
X1886270Y1596390D02*
D03*
X1906270D02*
D03*
X2208850Y1645920D02*
D03*
X2228850D02*
D03*
X2049460Y1364500D02*
D03*
X2029460D02*
D03*
X2007870Y1399540D02*
D03*
X2027870D02*
D03*
X2049460Y1381760D02*
D03*
X2029460D02*
D03*
X2065020Y1634490D02*
D03*
X2045020D02*
D03*
X2065020Y1619250D02*
D03*
X2085020D02*
D03*
X2065020Y1604010D02*
D03*
X2045020D02*
D03*
D30*
X1887220Y1532890D02*
D03*
X2111340Y1397000D02*
D03*
D31*
X1913220Y1532890D02*
D03*
X2085340Y1397000D02*
D03*
D40*
X2149360Y1087120D02*
D03*
X2168610Y1201370D02*
D03*
X2035360Y1087120D02*
D03*
X2054610Y1201370D02*
D03*
X1921310Y1087170D02*
D03*
X1940560Y1201420D02*
D03*
X1663800Y1135380D02*
D03*
X2239010Y1874520D02*
D03*
D44*
X1709420Y1470660D02*
D03*
Y1456660D02*
D03*
Y1436370D02*
D03*
Y1450370D02*
D03*
D46*
X2064385Y1300480D02*
D03*
X2001520Y1516380D02*
D03*
X2134870Y1414780D02*
D03*
X1993900Y1637030D02*
D03*
D101*
X1915363Y1854200D02*
G03*
X1915363Y1854200I-17983J0D01*
G01*
X2029663D02*
G03*
X2029663Y1854200I-17983J0D01*
G01*
D102*
X2166460Y1612120D02*
D03*
X2156460Y1595120D02*
D03*
X2146460Y1612120D02*
D03*
X2166460Y1443210D02*
D03*
X2156460Y1426210D02*
D03*
X2146460Y1443210D02*
D03*
X1663700Y1412240D02*
D03*
Y1386840D02*
D03*
Y1488440D02*
D03*
Y1513840D02*
D03*
Y1437640D02*
D03*
Y1539240D02*
D03*
Y1564640D02*
D03*
X1765300Y1610360D02*
D03*
X1745300D02*
D03*
X2231390Y1578610D02*
D03*
Y1553210D02*
D03*
Y1604010D02*
D03*
Y1629410D02*
D03*
D103*
X2225360Y1087120D02*
D03*
X2187360D02*
D03*
X2244610Y1201370D02*
D03*
X2206610D02*
D03*
X2111360Y1087120D02*
D03*
X2073360D02*
D03*
X2130610Y1201370D02*
D03*
X2092610D02*
D03*
X1997310Y1087170D02*
D03*
X1959310D02*
D03*
X2016560Y1201420D02*
D03*
X1978560D02*
D03*
X1701800Y1135380D02*
D03*
X1739800D02*
D03*
X2201010Y1874520D02*
D03*
X2163010D02*
D03*
D104*
X1986280Y1762760D02*
D03*
X1910080D02*
D03*
X1922780Y1788160D02*
D03*
X1935480Y1762760D02*
D03*
X1973580Y1788160D02*
D03*
X1948180D02*
D03*
X1960880Y1762760D02*
D03*
D105*
X1998980Y1788160D02*
D03*
D106*
X1995424Y1900660D02*
D03*
X1913670D02*
D03*
X1888236D02*
D03*
X2020730D02*
D03*
D107*
X1874480Y1821160D02*
D03*
X2034480D02*
D03*
D108*
X1913890Y1439920D02*
D03*
Y1391920D02*
D03*
X1859280Y1439920D02*
D03*
Y1391920D02*
D03*
D109*
X1662430Y1330400D02*
D03*
D110*
Y1295400D02*
D03*
D111*
X1780540Y1854200D02*
D03*
X1654810D02*
D03*
D112*
X1729740Y1828800D02*
D03*
X1704340D02*
D03*
X1729740Y1808480D02*
D03*
X1771650Y1451610D02*
D03*
X1797050D02*
D03*
X1771650Y1426210D02*
D03*
X1797050D02*
D03*
X1771650Y1400810D02*
D03*
X1797050D02*
D03*
Y1477010D02*
D03*
X1771650D02*
D03*
X1797050Y1502410D02*
D03*
X1771650D02*
D03*
D113*
X1704340Y1808480D02*
D03*
D114*
X2242990Y1237550D02*
D03*
X2138103Y1331653D02*
D03*
X2124710Y1333500D02*
D03*
X2117503Y1325023D02*
D03*
X1937530Y1240600D02*
D03*
X1938020Y1249680D02*
D03*
X2105806Y1297940D02*
D03*
X2148840Y1381760D02*
D03*
X2149417Y1342967D02*
D03*
X1884680Y1240790D02*
D03*
X2198370Y1324610D02*
D03*
Y1333500D02*
D03*
X2218690Y1341120D02*
D03*
Y1324610D02*
D03*
Y1333500D02*
D03*
X2198370Y1341120D02*
D03*
X1892300Y1258570D02*
D03*
X2078990Y1284586D02*
D03*
X2225040Y1412240D02*
D03*
X2242995Y1332475D02*
D03*
X2242475Y1340995D02*
D03*
X2184205Y1275080D02*
D03*
X2153920Y1253490D02*
D03*
X2158220Y1372490D02*
D03*
X2173460Y1380490D02*
D03*
X2158220Y1396490D02*
D03*
Y1380490D02*
D03*
Y1388490D02*
D03*
X2138987Y1353397D02*
D03*
X2087122Y1305311D02*
D03*
X2044700Y1346200D02*
D03*
X2133330Y1347740D02*
D03*
X2099705Y1315355D02*
D03*
X2094048Y1309698D02*
D03*
X2144644Y1359054D02*
D03*
X2019300Y1308100D02*
D03*
X2025650Y1311910D02*
D03*
X2029820Y1318260D02*
D03*
X2183940Y1231440D02*
D03*
X2145180Y1237130D02*
D03*
X2032000Y1360690D02*
D03*
X1932940Y1313180D02*
D03*
X1828800Y1250950D02*
D03*
X1836420Y1221740D02*
D03*
X1967458Y1245232D02*
D03*
X1920240Y1207770D02*
D03*
X1821180Y1214651D02*
D03*
X1875284Y1200651D02*
D03*
X1809750Y1187450D02*
D03*
X1967230Y1236980D02*
D03*
X1875284Y1183651D02*
D03*
Y1191651D02*
D03*
Y1174651D02*
D03*
X2043430Y1606550D02*
D03*
X1643380Y1189990D02*
D03*
X2080260Y1708150D02*
D03*
X2076450Y1394460D02*
D03*
X2062480Y1550670D02*
D03*
X1879600Y1572260D02*
D03*
X1989990Y1381660D02*
D03*
X1977390Y1371600D02*
D03*
X1973580Y1459230D02*
D03*
X1972310Y1379220D02*
D03*
X1983740Y1385570D02*
D03*
X1959610Y1389380D02*
D03*
X1973580Y1451610D02*
D03*
Y1466850D02*
D03*
X1946910Y1595120D02*
D03*
X1918970Y1577340D02*
D03*
Y1595120D02*
D03*
X1822330Y1778790D02*
D03*
X1823720Y1651000D02*
D03*
X2272030Y1536700D02*
D03*
X1916430Y1512570D02*
D03*
X1908810Y1517650D02*
D03*
X1850390Y1527810D02*
D03*
X2016760Y1687830D02*
D03*
X1928060Y1550570D02*
D03*
X1973580Y1490980D02*
D03*
Y1475740D02*
D03*
Y1483360D02*
D03*
Y1498600D02*
D03*
X1929800Y1631470D02*
D03*
X1955800Y1633220D02*
D03*
X2181860Y1854200D02*
D03*
X2239010Y1852620D02*
D03*
X2150110Y1789430D02*
D03*
X2200910Y1508760D02*
D03*
X2032000Y1395730D02*
D03*
X1941195Y1426210D02*
D03*
X1744980Y1529080D02*
D03*
X1755140Y1691640D02*
D03*
X1797050Y1637030D02*
D03*
X2134870Y1657670D02*
D03*
X1733550Y1691640D02*
D03*
X2006600Y1405890D02*
D03*
X1944370Y1356360D02*
D03*
X2085340Y1620520D02*
D03*
X2042160Y1629410D02*
D03*
X2157730Y1656080D02*
D03*
X2227580Y1463040D02*
D03*
X2101850Y1483360D02*
D03*
X2110740Y1451610D02*
D03*
X2106930Y1465580D02*
D03*
X2098040Y1496060D02*
D03*
D115*
X1897380Y1854200D02*
D03*
X2011680D02*
D03*
D116*
X2125980Y1334770D02*
D03*
X2116080Y1344669D02*
D03*
X2115400Y1323403D02*
D03*
X2105500Y1333303D02*
D03*
D117*
X2109958Y1293788D02*
D03*
X2114555Y1298384D02*
D03*
X2105362Y1289192D02*
D03*
X2089452Y1305102D02*
D03*
X2098645Y1314294D02*
D03*
X2094048Y1309698D02*
D03*
X2154699Y1337473D02*
D03*
X2159295Y1342069D02*
D03*
X2150103Y1332876D02*
D03*
X2134193Y1348786D02*
D03*
X2143385Y1357979D02*
D03*
X2138789Y1353383D02*
D03*
D118*
X2158580Y1380640D02*
D03*
X2158580Y1387140D02*
D03*
X2158580Y1374140D02*
D03*
X2181080D02*
D03*
X2181080Y1387140D02*
D03*
X2181080Y1380640D02*
D03*
X2116180Y1254910D02*
D03*
X2116180Y1261410D02*
D03*
X2116180Y1248410D02*
D03*
X2138680D02*
D03*
X2138680Y1261410D02*
D03*
X2138680Y1254910D02*
D03*
D119*
X2074217Y1268500D02*
D03*
X2068560Y1274156D02*
D03*
X2095961Y1267616D02*
D03*
X2090304Y1273273D02*
D03*
X2078990Y1284586D02*
D03*
X2084647Y1278930D02*
D03*
X2079874Y1262843D02*
D03*
X2085531Y1257186D02*
D03*
D120*
X2234990Y1237550D02*
D03*
X2242990Y1252300D02*
D03*
X2234990D02*
D03*
X2242990Y1237550D02*
D03*
X2235200Y1271760D02*
D03*
X2243200Y1286510D02*
D03*
X2235200D02*
D03*
X2243200Y1271760D02*
D03*
D121*
X2225990Y1237550D02*
D03*
X2251990Y1252300D02*
D03*
X2225990D02*
D03*
X2251990Y1237550D02*
D03*
X2226200Y1271760D02*
D03*
X2252200Y1286510D02*
D03*
X2226200D02*
D03*
X2252200Y1271760D02*
D03*
D122*
X1740940Y1187450D02*
D03*
X1774190D02*
D03*
D123*
X1932940Y1602425D02*
D03*
X2251710Y1631280D02*
D03*
X2082800Y1360770D02*
D03*
D124*
X1932940Y1628425D02*
D03*
X2251710Y1605280D02*
D03*
X2082800Y1334770D02*
D03*
D125*
X1992458Y1336532D02*
D03*
X2006600Y1322390D02*
D03*
D126*
X2240280Y1841500D02*
D03*
X2188780D02*
D03*
D127*
X1654810Y1191260D02*
D03*
X1699811Y1191259D02*
D03*
M02*
