G04*
G04 #@! TF.GenerationSoftware,Altium Limited,Altium Designer,19.1.5 (86)*
G04*
G04 Layer_Color=65535*
%FSLAX44Y44*%
%MOMM*%
G71*
G01*
G75*
%ADD10C,0.2540*%
%ADD11C,0.2500*%
%ADD12C,0.6000*%
%ADD13C,0.1000*%
%ADD14C,0.2000*%
%ADD15C,1.0000*%
%ADD16C,0.1500*%
%ADD17C,0.0500*%
%ADD18C,0.3000*%
%ADD19R,9.0170X1.8830*%
G36*
X2246978Y1277046D02*
X2246367Y1273492D01*
X2243647D01*
X2242980Y1277046D01*
Y1280322D01*
X2246978D01*
Y1277046D01*
D02*
G37*
G36*
X2241065D02*
X2240454Y1273492D01*
X2237733D01*
X2237067Y1277046D01*
Y1280322D01*
X2241065D01*
Y1277046D01*
D02*
G37*
G36*
X2176462Y1277046D02*
X2175851Y1273492D01*
X2173131D01*
X2172464Y1277046D01*
Y1280322D01*
X2176462D01*
Y1277046D01*
D02*
G37*
G36*
X2170549D02*
X2169938Y1273492D01*
X2167218D01*
X2166551Y1277046D01*
Y1280322D01*
X2170549D01*
Y1277046D01*
D02*
G37*
G36*
X2024131Y1277046D02*
X2023520Y1273492D01*
X2020800D01*
X2020133Y1277046D01*
Y1280321D01*
X2024131D01*
Y1277046D01*
D02*
G37*
G36*
X2018218D02*
X2017607Y1273492D01*
X2014886D01*
X2014220Y1277046D01*
Y1280321D01*
X2018218D01*
Y1277046D01*
D02*
G37*
G36*
X2041427Y1277601D02*
X2040677D01*
X2040455Y1277573D01*
X2040205D01*
X2039622Y1277462D01*
X2039345Y1277406D01*
X2039123Y1277295D01*
X2039095D01*
X2039039Y1277240D01*
X2038928Y1277184D01*
X2038790Y1277073D01*
X2038651Y1276962D01*
X2038512Y1276796D01*
X2038345Y1276629D01*
X2038206Y1276407D01*
X2038179Y1276379D01*
X2038151Y1276296D01*
X2038068Y1276102D01*
X2037957Y1275880D01*
X2037818Y1275519D01*
X2037651Y1275102D01*
X2037540Y1274852D01*
X2037429Y1274547D01*
X2037318Y1274241D01*
X2037207Y1273908D01*
X2037179Y1273853D01*
X2037152Y1273742D01*
X2037068Y1273548D01*
X2036985Y1273325D01*
X2036846Y1273075D01*
X2036735Y1272798D01*
X2036596Y1272520D01*
X2036430Y1272243D01*
X2036402Y1272215D01*
X2036346Y1272132D01*
X2036263Y1271993D01*
X2036097Y1271826D01*
X2035902Y1271632D01*
X2035652Y1271438D01*
X2035347Y1271215D01*
X2034986Y1270993D01*
X2035014D01*
X2035042Y1270966D01*
X2035208Y1270910D01*
X2035430Y1270799D01*
X2035736Y1270660D01*
X2036069Y1270466D01*
X2036430Y1270188D01*
X2036791Y1269883D01*
X2037124Y1269494D01*
X2037152Y1269439D01*
X2037263Y1269300D01*
X2037457Y1269050D01*
X2037679Y1268689D01*
X2037957Y1268245D01*
X2038262Y1267690D01*
X2038623Y1267079D01*
X2038984Y1266357D01*
X2041621Y1261110D01*
X2037041D01*
X2034736Y1266052D01*
Y1266079D01*
X2034681Y1266135D01*
X2034625Y1266274D01*
X2034514Y1266468D01*
X2034486Y1266496D01*
X2034459Y1266551D01*
X2034431Y1266635D01*
X2034348Y1266746D01*
X2034264Y1266885D01*
X2034153Y1267107D01*
X2034014Y1267356D01*
Y1267384D01*
X2033987Y1267412D01*
X2033903Y1267579D01*
X2033765Y1267829D01*
X2033598Y1268106D01*
X2033404Y1268411D01*
X2033209Y1268717D01*
X2033015Y1268967D01*
X2032821Y1269133D01*
X2032793Y1269161D01*
X2032737Y1269189D01*
X2032626Y1269244D01*
X2032460Y1269328D01*
X2032265Y1269383D01*
X2032016Y1269439D01*
X2031710Y1269494D01*
X2031377Y1269522D01*
Y1261110D01*
X2027490D01*
Y1280321D01*
X2031377D01*
Y1272132D01*
X2031433D01*
X2031571Y1272159D01*
X2031794Y1272187D01*
X2032071Y1272243D01*
X2032349Y1272326D01*
X2032654Y1272437D01*
X2032904Y1272604D01*
X2033098Y1272770D01*
X2033126Y1272798D01*
X2033182Y1272909D01*
X2033293Y1273075D01*
X2033376Y1273214D01*
X2033459Y1273353D01*
X2033542Y1273548D01*
X2033654Y1273742D01*
X2033765Y1273992D01*
X2033903Y1274269D01*
X2034042Y1274602D01*
X2034209Y1274963D01*
X2034375Y1275352D01*
X2034542Y1275796D01*
X2034570Y1275824D01*
X2034597Y1275935D01*
X2034653Y1276102D01*
X2034736Y1276296D01*
X2034847Y1276546D01*
X2034986Y1276823D01*
X2035291Y1277462D01*
X2035652Y1278101D01*
X2036069Y1278739D01*
X2036291Y1279044D01*
X2036513Y1279294D01*
X2036735Y1279516D01*
X2036957Y1279683D01*
X2036985D01*
X2037013Y1279711D01*
X2037096Y1279766D01*
X2037179Y1279794D01*
X2037318Y1279849D01*
X2037485Y1279933D01*
X2037679Y1279988D01*
X2037901Y1280072D01*
X2038151Y1280127D01*
X2038429Y1280183D01*
X2038762Y1280266D01*
X2039095Y1280321D01*
X2039484Y1280377D01*
X2039900Y1280405D01*
X2040344Y1280432D01*
X2041149D01*
X2041288Y1280460D01*
X2041427D01*
Y1277601D01*
D02*
G37*
G36*
X2123686Y1261110D02*
X2119994D01*
Y1266968D01*
X2114719D01*
Y1261110D01*
X2111027D01*
Y1275047D01*
X2114719D01*
Y1269938D01*
X2119994D01*
Y1275047D01*
X2123686D01*
Y1261110D01*
D02*
G37*
G36*
X2214496D02*
X2210860D01*
Y1273686D01*
X2203031Y1261110D01*
X2199144D01*
Y1280322D01*
X2202781D01*
Y1267440D01*
X2210638Y1280322D01*
X2214496D01*
Y1261110D01*
D02*
G37*
G36*
X2140094D02*
X2136568D01*
Y1269994D01*
X2130821Y1261110D01*
X2127295D01*
Y1275047D01*
X2130821D01*
Y1266274D01*
X2136485Y1275047D01*
X2140094D01*
Y1261110D01*
D02*
G37*
G36*
X2076324Y1261110D02*
X2073187D01*
Y1270272D01*
X2069800Y1261110D01*
X2066635D01*
X2063415Y1270272D01*
Y1261110D01*
X2060278D01*
Y1275047D01*
X2064858D01*
X2068273Y1265330D01*
X2071771Y1275047D01*
X2076324D01*
Y1261110D01*
D02*
G37*
G36*
X2188705Y1280294D02*
X2189261Y1280266D01*
X2189816Y1280238D01*
X2190343Y1280183D01*
X2190815Y1280127D01*
X2190871D01*
X2191010Y1280099D01*
X2191204Y1280044D01*
X2191482Y1279961D01*
X2191787Y1279849D01*
X2192120Y1279711D01*
X2192481Y1279544D01*
X2192814Y1279322D01*
X2192842Y1279294D01*
X2192953Y1279211D01*
X2193120Y1279072D01*
X2193342Y1278906D01*
X2193564Y1278656D01*
X2193814Y1278378D01*
X2194064Y1278073D01*
X2194286Y1277712D01*
X2194313Y1277656D01*
X2194369Y1277545D01*
X2194480Y1277323D01*
X2194591Y1277046D01*
X2194702Y1276712D01*
X2194813Y1276351D01*
X2194869Y1275907D01*
X2194896Y1275463D01*
Y1275435D01*
Y1275408D01*
Y1275241D01*
X2194869Y1274991D01*
X2194813Y1274658D01*
X2194702Y1274269D01*
X2194591Y1273853D01*
X2194397Y1273436D01*
X2194147Y1272992D01*
X2194119Y1272937D01*
X2194008Y1272798D01*
X2193841Y1272604D01*
X2193647Y1272354D01*
X2193369Y1272104D01*
X2193036Y1271798D01*
X2192648Y1271549D01*
X2192204Y1271299D01*
X2192231D01*
X2192287Y1271271D01*
X2192370Y1271243D01*
X2192481Y1271216D01*
X2192814Y1271077D01*
X2193203Y1270882D01*
X2193619Y1270660D01*
X2194091Y1270355D01*
X2194508Y1269994D01*
X2194896Y1269550D01*
X2194924Y1269494D01*
X2195035Y1269328D01*
X2195202Y1269078D01*
X2195368Y1268745D01*
X2195535Y1268300D01*
X2195701Y1267829D01*
X2195813Y1267273D01*
X2195840Y1266663D01*
Y1266635D01*
Y1266607D01*
Y1266440D01*
X2195813Y1266190D01*
X2195757Y1265857D01*
X2195701Y1265469D01*
X2195591Y1265024D01*
X2195424Y1264580D01*
X2195229Y1264108D01*
X2195202Y1264053D01*
X2195119Y1263914D01*
X2194980Y1263692D01*
X2194785Y1263414D01*
X2194563Y1263081D01*
X2194258Y1262776D01*
X2193952Y1262443D01*
X2193564Y1262137D01*
X2193508Y1262110D01*
X2193369Y1262026D01*
X2193147Y1261887D01*
X2192842Y1261749D01*
X2192453Y1261582D01*
X2192009Y1261443D01*
X2191509Y1261304D01*
X2190954Y1261221D01*
X2190843D01*
X2190732Y1261193D01*
X2190454D01*
X2190260Y1261165D01*
X2189733D01*
X2189400Y1261138D01*
X2188567D01*
X2188095Y1261110D01*
X2179766D01*
Y1280322D01*
X2188206D01*
X2188705Y1280294D01*
D02*
G37*
G36*
X2155807Y1261110D02*
X2152115D01*
Y1266885D01*
X2151560D01*
X2151365Y1266857D01*
X2151115D01*
X2150532Y1266746D01*
X2150255Y1266663D01*
X2150033Y1266551D01*
X2150005Y1266524D01*
X2149949Y1266496D01*
X2149811Y1266413D01*
X2149672Y1266274D01*
X2149477Y1266107D01*
X2149283Y1265885D01*
X2149033Y1265580D01*
X2148783Y1265247D01*
X2148561Y1264997D01*
X2146174Y1261110D01*
X2141898D01*
X2144508Y1265135D01*
Y1265163D01*
X2144563Y1265219D01*
X2144619Y1265302D01*
X2144702Y1265413D01*
X2144924Y1265691D01*
X2145202Y1266024D01*
X2145507Y1266385D01*
X2145868Y1266690D01*
X2146201Y1266940D01*
X2146396Y1267051D01*
X2146562Y1267107D01*
X2146507D01*
X2146424Y1267134D01*
X2146313D01*
X2146007Y1267190D01*
X2145674Y1267301D01*
X2145258Y1267440D01*
X2144841Y1267662D01*
X2144425Y1267940D01*
X2144036Y1268300D01*
X2144008Y1268356D01*
X2143897Y1268495D01*
X2143731Y1268745D01*
X2143564Y1269050D01*
X2143398Y1269466D01*
X2143231Y1269938D01*
X2143120Y1270466D01*
X2143092Y1271077D01*
Y1271104D01*
Y1271132D01*
Y1271299D01*
X2143120Y1271549D01*
X2143175Y1271854D01*
X2143231Y1272215D01*
X2143342Y1272604D01*
X2143509Y1272992D01*
X2143703Y1273353D01*
X2143731Y1273409D01*
X2143814Y1273520D01*
X2143953Y1273686D01*
X2144147Y1273881D01*
X2144397Y1274103D01*
X2144675Y1274325D01*
X2145036Y1274519D01*
X2145396Y1274686D01*
X2145452Y1274714D01*
X2145591Y1274741D01*
X2145841Y1274797D01*
X2146174Y1274880D01*
X2146618Y1274936D01*
X2147173Y1274991D01*
X2147812Y1275019D01*
X2148533Y1275047D01*
X2155807D01*
Y1261110D01*
D02*
G37*
G36*
X2102282Y1275324D02*
X2102504D01*
X2103059Y1275269D01*
X2103642Y1275213D01*
X2104253Y1275102D01*
X2104836Y1274936D01*
X2105086Y1274852D01*
X2105336Y1274741D01*
X2105363D01*
X2105391Y1274714D01*
X2105530Y1274630D01*
X2105752Y1274519D01*
X2106002Y1274353D01*
X2106307Y1274130D01*
X2106585Y1273881D01*
X2106835Y1273575D01*
X2107057Y1273270D01*
X2107085Y1273214D01*
X2107140Y1273103D01*
X2107223Y1272853D01*
X2107251Y1272715D01*
X2107307Y1272520D01*
X2107362Y1272326D01*
X2107390Y1272076D01*
X2107446Y1271798D01*
X2107473Y1271493D01*
X2107501Y1271160D01*
X2107529Y1270799D01*
X2107556Y1270410D01*
Y1269966D01*
X2107501Y1265663D01*
Y1265635D01*
Y1265580D01*
Y1265497D01*
Y1265358D01*
Y1265024D01*
X2107529Y1264636D01*
Y1264192D01*
X2107584Y1263747D01*
X2107612Y1263303D01*
X2107668Y1262942D01*
Y1262915D01*
X2107695Y1262803D01*
X2107751Y1262609D01*
X2107806Y1262387D01*
X2107917Y1262110D01*
X2108029Y1261804D01*
X2108167Y1261471D01*
X2108334Y1261110D01*
X2104697D01*
Y1261138D01*
X2104669Y1261165D01*
X2104642Y1261277D01*
X2104586Y1261388D01*
X2104530Y1261526D01*
X2104475Y1261721D01*
X2104419Y1261943D01*
X2104336Y1262193D01*
Y1262221D01*
X2104308Y1262248D01*
X2104281Y1262359D01*
X2104225Y1262498D01*
X2104197Y1262609D01*
X2104142Y1262581D01*
X2104031Y1262470D01*
X2103836Y1262304D01*
X2103586Y1262110D01*
X2103281Y1261887D01*
X2102948Y1261637D01*
X2102559Y1261443D01*
X2102171Y1261249D01*
X2102115Y1261221D01*
X2101976Y1261193D01*
X2101754Y1261110D01*
X2101477Y1261027D01*
X2101143Y1260944D01*
X2100755Y1260888D01*
X2100311Y1260832D01*
X2099866Y1260805D01*
X2099672D01*
X2099505Y1260832D01*
X2099339D01*
X2099117Y1260860D01*
X2098645Y1260944D01*
X2098090Y1261082D01*
X2097534Y1261277D01*
X2096979Y1261554D01*
X2096479Y1261943D01*
Y1261971D01*
X2096424Y1261998D01*
X2096285Y1262165D01*
X2096091Y1262415D01*
X2095869Y1262748D01*
X2095647Y1263164D01*
X2095452Y1263664D01*
X2095313Y1264247D01*
X2095286Y1264553D01*
X2095258Y1264886D01*
Y1264941D01*
Y1265080D01*
X2095286Y1265302D01*
X2095341Y1265580D01*
X2095397Y1265913D01*
X2095480Y1266246D01*
X2095619Y1266607D01*
X2095813Y1266968D01*
X2095841Y1267023D01*
X2095924Y1267134D01*
X2096035Y1267301D01*
X2096230Y1267495D01*
X2096424Y1267717D01*
X2096702Y1267967D01*
X2097007Y1268189D01*
X2097368Y1268384D01*
X2097423Y1268411D01*
X2097562Y1268467D01*
X2097784Y1268550D01*
X2098117Y1268689D01*
X2098534Y1268828D01*
X2099034Y1268967D01*
X2099644Y1269106D01*
X2100311Y1269244D01*
X2100338D01*
X2100422Y1269272D01*
X2100560Y1269300D01*
X2100727Y1269328D01*
X2100949Y1269355D01*
X2101199Y1269411D01*
X2101754Y1269550D01*
X2102337Y1269688D01*
X2102948Y1269827D01*
X2103475Y1269994D01*
X2103725Y1270077D01*
X2103920Y1270161D01*
Y1270521D01*
Y1270577D01*
Y1270688D01*
X2103892Y1270882D01*
X2103864Y1271132D01*
X2103781Y1271382D01*
X2103698Y1271632D01*
X2103559Y1271854D01*
X2103364Y1272048D01*
X2103337Y1272076D01*
X2103253Y1272132D01*
X2103115Y1272187D01*
X2102920Y1272298D01*
X2102643Y1272382D01*
X2102310Y1272437D01*
X2101893Y1272493D01*
X2101393Y1272520D01*
X2101227D01*
X2101060Y1272493D01*
X2100838Y1272465D01*
X2100588Y1272409D01*
X2100311Y1272354D01*
X2100061Y1272243D01*
X2099839Y1272104D01*
X2099811Y1272076D01*
X2099755Y1272021D01*
X2099644Y1271937D01*
X2099533Y1271798D01*
X2099367Y1271604D01*
X2099228Y1271354D01*
X2099089Y1271077D01*
X2098950Y1270743D01*
X2095647Y1271354D01*
Y1271382D01*
X2095674Y1271438D01*
X2095702Y1271549D01*
X2095758Y1271687D01*
X2095813Y1271854D01*
X2095896Y1272048D01*
X2096091Y1272493D01*
X2096368Y1272964D01*
X2096702Y1273464D01*
X2097090Y1273936D01*
X2097562Y1274353D01*
X2097590D01*
X2097618Y1274408D01*
X2097701Y1274436D01*
X2097812Y1274519D01*
X2097979Y1274575D01*
X2098145Y1274658D01*
X2098367Y1274769D01*
X2098589Y1274852D01*
X2098867Y1274936D01*
X2099172Y1275047D01*
X2099505Y1275130D01*
X2099894Y1275185D01*
X2100283Y1275269D01*
X2100727Y1275296D01*
X2101171Y1275352D01*
X2102087D01*
X2102282Y1275324D01*
D02*
G37*
G36*
X2092232Y1261110D02*
X2088539D01*
Y1272076D01*
X2083570Y1272076D01*
Y1261110D01*
X2079878D01*
Y1275047D01*
X2092232Y1275047D01*
Y1261110D01*
D02*
G37*
G36*
X2050616Y1275324D02*
X2050894Y1275296D01*
X2051199Y1275241D01*
X2051560Y1275185D01*
X2051921Y1275102D01*
X2052337Y1274991D01*
X2052754Y1274852D01*
X2053170Y1274686D01*
X2053615Y1274491D01*
X2054059Y1274241D01*
X2054475Y1273964D01*
X2054892Y1273659D01*
X2055280Y1273298D01*
X2055308Y1273270D01*
X2055364Y1273214D01*
X2055475Y1273075D01*
X2055586Y1272937D01*
X2055752Y1272715D01*
X2055919Y1272493D01*
X2056113Y1272187D01*
X2056308Y1271882D01*
X2056474Y1271521D01*
X2056668Y1271132D01*
X2056835Y1270688D01*
X2057002Y1270244D01*
X2057113Y1269744D01*
X2057224Y1269244D01*
X2057279Y1268689D01*
X2057307Y1268106D01*
Y1268078D01*
Y1267967D01*
Y1267801D01*
X2057279Y1267579D01*
X2057251Y1267301D01*
X2057196Y1266996D01*
X2057140Y1266635D01*
X2057057Y1266274D01*
X2056946Y1265857D01*
X2056807Y1265441D01*
X2056641Y1264997D01*
X2056446Y1264553D01*
X2056196Y1264108D01*
X2055919Y1263692D01*
X2055613Y1263276D01*
X2055253Y1262859D01*
X2055225Y1262831D01*
X2055169Y1262776D01*
X2055058Y1262665D01*
X2054892Y1262526D01*
X2054697Y1262387D01*
X2054447Y1262221D01*
X2054170Y1262026D01*
X2053864Y1261832D01*
X2053504Y1261637D01*
X2053115Y1261443D01*
X2052698Y1261277D01*
X2052227Y1261138D01*
X2051754Y1260999D01*
X2051227Y1260888D01*
X2050699Y1260832D01*
X2050116Y1260805D01*
X2049922D01*
X2049783Y1260832D01*
X2049617D01*
X2049422Y1260860D01*
X2048951Y1260916D01*
X2048367Y1261027D01*
X2047757Y1261165D01*
X2047118Y1261388D01*
X2046452Y1261665D01*
X2046424D01*
X2046369Y1261693D01*
X2046285Y1261749D01*
X2046174Y1261832D01*
X2045869Y1262026D01*
X2045480Y1262304D01*
X2045064Y1262665D01*
X2044620Y1263109D01*
X2044203Y1263609D01*
X2043815Y1264192D01*
Y1264219D01*
X2043787Y1264275D01*
X2043731Y1264358D01*
X2043676Y1264497D01*
X2043620Y1264664D01*
X2043537Y1264858D01*
X2043454Y1265080D01*
X2043370Y1265330D01*
X2043287Y1265608D01*
X2043204Y1265913D01*
X2043065Y1266607D01*
X2042954Y1267412D01*
X2042926Y1268273D01*
Y1268300D01*
Y1268356D01*
Y1268467D01*
X2042954Y1268578D01*
Y1268745D01*
X2042982Y1268939D01*
X2043037Y1269411D01*
X2043148Y1269938D01*
X2043315Y1270521D01*
X2043509Y1271160D01*
X2043815Y1271798D01*
Y1271826D01*
X2043870Y1271882D01*
X2043898Y1271965D01*
X2043981Y1272076D01*
X2044203Y1272382D01*
X2044481Y1272770D01*
X2044842Y1273187D01*
X2045286Y1273631D01*
X2045786Y1274047D01*
X2046369Y1274436D01*
X2046396D01*
X2046452Y1274464D01*
X2046535Y1274519D01*
X2046674Y1274575D01*
X2046813Y1274658D01*
X2047007Y1274714D01*
X2047229Y1274797D01*
X2047451Y1274908D01*
X2048007Y1275074D01*
X2048645Y1275213D01*
X2049339Y1275324D01*
X2050089Y1275352D01*
X2050394D01*
X2050616Y1275324D01*
D02*
G37*
G36*
X2233236Y1264358D02*
X2234930D01*
Y1256918D01*
X2231681Y1256918D01*
Y1261110D01*
X2219633D01*
Y1256918D01*
X2216384D01*
Y1264358D01*
X2218022D01*
X2218050Y1264386D01*
X2218078Y1264469D01*
X2218133Y1264608D01*
X2218217Y1264802D01*
X2218300Y1265024D01*
X2218411Y1265302D01*
X2218522Y1265635D01*
X2218661Y1265996D01*
X2218772Y1266385D01*
X2218911Y1266829D01*
X2219050Y1267301D01*
X2219161Y1267801D01*
X2219299Y1268328D01*
X2219410Y1268883D01*
X2219577Y1270050D01*
Y1270077D01*
X2219605Y1270188D01*
Y1270383D01*
X2219633Y1270632D01*
X2219660Y1270966D01*
X2219688Y1271327D01*
X2219744Y1271798D01*
X2219771Y1272298D01*
X2219799Y1272853D01*
X2219855Y1273492D01*
X2219882Y1274158D01*
X2219910Y1274880D01*
X2219938Y1275657D01*
Y1276490D01*
X2219966Y1277351D01*
Y1278267D01*
Y1280322D01*
X2233236Y1280322D01*
Y1264358D01*
D02*
G37*
G36*
X1868418Y1134467D02*
X1868585Y1134449D01*
X1868789Y1134430D01*
X1869011Y1134412D01*
X1869455Y1134338D01*
X1869937Y1134245D01*
X1870381Y1134097D01*
X1870603Y1134005D01*
X1870788Y1133893D01*
X1870807D01*
X1870844Y1133856D01*
X1870955Y1133764D01*
X1871048Y1133616D01*
X1871085Y1133523D01*
X1871103Y1133430D01*
Y1133412D01*
Y1133393D01*
X1871085Y1133301D01*
X1871029Y1133171D01*
X1870936Y1133042D01*
X1870918Y1133023D01*
X1870844Y1132968D01*
X1870733Y1132912D01*
X1870585Y1132894D01*
X1870529D01*
X1870437Y1132912D01*
X1870344Y1132949D01*
X1870325D01*
X1870288Y1132968D01*
X1870233Y1132986D01*
X1870140Y1133023D01*
X1870029Y1133060D01*
X1869900Y1133097D01*
X1869603Y1133190D01*
X1869233Y1133282D01*
X1868826Y1133356D01*
X1868400Y1133412D01*
X1867955Y1133430D01*
X1867844D01*
X1867715Y1133412D01*
X1867567Y1133375D01*
X1867381Y1133319D01*
X1867196Y1133227D01*
X1867011Y1133116D01*
X1866826Y1132968D01*
X1866807Y1132949D01*
X1866752Y1132894D01*
X1866678Y1132782D01*
X1866604Y1132653D01*
X1866530Y1132486D01*
X1866456Y1132301D01*
X1866400Y1132079D01*
X1866381Y1131838D01*
Y1131820D01*
Y1131801D01*
X1866400Y1131690D01*
X1866418Y1131505D01*
X1866492Y1131301D01*
X1866585Y1131079D01*
X1866733Y1130838D01*
X1866955Y1130616D01*
X1867085Y1130523D01*
X1867233Y1130431D01*
X1870196Y1128912D01*
X1870214D01*
X1870251Y1128875D01*
X1870325Y1128838D01*
X1870418Y1128764D01*
X1870659Y1128598D01*
X1870788Y1128487D01*
X1870918Y1128338D01*
X1871048Y1128190D01*
X1871177Y1128024D01*
X1871307Y1127820D01*
X1871418Y1127616D01*
X1871510Y1127394D01*
X1871585Y1127135D01*
X1871622Y1126876D01*
X1871640Y1126579D01*
Y1126561D01*
Y1126524D01*
Y1126468D01*
X1871622Y1126394D01*
X1871603Y1126190D01*
X1871548Y1125931D01*
X1871455Y1125635D01*
X1871307Y1125339D01*
X1871122Y1125005D01*
X1870862Y1124709D01*
X1870825Y1124672D01*
X1870733Y1124598D01*
X1870566Y1124469D01*
X1870344Y1124339D01*
X1870066Y1124191D01*
X1869751Y1124061D01*
X1869381Y1123987D01*
X1868992Y1123950D01*
X1868807D01*
X1868659Y1123969D01*
X1868492Y1123987D01*
X1868307Y1124006D01*
X1868085Y1124043D01*
X1867826Y1124098D01*
X1867289Y1124228D01*
X1867011Y1124320D01*
X1866715Y1124431D01*
X1866418Y1124561D01*
X1866122Y1124728D01*
X1865826Y1124894D01*
X1865548Y1125098D01*
X1865511Y1125135D01*
X1865437Y1125209D01*
X1865363Y1125357D01*
X1865345Y1125431D01*
X1865326Y1125524D01*
Y1125542D01*
Y1125561D01*
X1865345Y1125654D01*
X1865381Y1125783D01*
X1865474Y1125894D01*
X1865493Y1125913D01*
X1865585Y1125968D01*
X1865696Y1126024D01*
X1865844Y1126042D01*
X1865863D01*
X1865937Y1126024D01*
X1866030Y1126005D01*
X1866141Y1125950D01*
X1866159Y1125931D01*
X1866233Y1125894D01*
X1866344Y1125839D01*
X1866492Y1125765D01*
X1866696Y1125654D01*
X1866955Y1125524D01*
X1867252Y1125394D01*
X1867603Y1125228D01*
X1867641D01*
X1867715Y1125191D01*
X1867844Y1125154D01*
X1868011Y1125117D01*
X1868215Y1125079D01*
X1868455Y1125042D01*
X1868714Y1125024D01*
X1868992Y1125005D01*
X1869103D01*
X1869233Y1125024D01*
X1869381Y1125061D01*
X1869566Y1125117D01*
X1869751Y1125209D01*
X1869937Y1125320D01*
X1870122Y1125468D01*
X1870140Y1125487D01*
X1870196Y1125542D01*
X1870270Y1125654D01*
X1870363Y1125783D01*
X1870437Y1125950D01*
X1870511Y1126135D01*
X1870566Y1126339D01*
X1870585Y1126579D01*
Y1126598D01*
Y1126616D01*
X1870566Y1126746D01*
X1870548Y1126913D01*
X1870474Y1127116D01*
X1870363Y1127338D01*
X1870214Y1127579D01*
X1869992Y1127802D01*
X1869844Y1127894D01*
X1869696Y1127987D01*
X1866752Y1129505D01*
X1866733Y1129523D01*
X1866696Y1129542D01*
X1866622Y1129579D01*
X1866530Y1129653D01*
X1866307Y1129820D01*
X1866178Y1129949D01*
X1866048Y1130079D01*
X1865900Y1130227D01*
X1865770Y1130394D01*
X1865659Y1130598D01*
X1865548Y1130801D01*
X1865456Y1131023D01*
X1865381Y1131283D01*
X1865345Y1131542D01*
X1865326Y1131838D01*
Y1131857D01*
Y1131894D01*
Y1131949D01*
X1865345Y1132023D01*
X1865363Y1132227D01*
X1865419Y1132486D01*
X1865511Y1132782D01*
X1865641Y1133097D01*
X1865826Y1133412D01*
X1866085Y1133708D01*
X1866122Y1133745D01*
X1866233Y1133838D01*
X1866381Y1133949D01*
X1866604Y1134097D01*
X1866881Y1134245D01*
X1867196Y1134356D01*
X1867567Y1134449D01*
X1867955Y1134486D01*
X1868252D01*
X1868418Y1134467D01*
D02*
G37*
G36*
X1814424Y1134449D02*
X1814535Y1134393D01*
X1814628Y1134338D01*
X1814720Y1134245D01*
X1814776Y1134116D01*
X1814794Y1133930D01*
Y1124469D01*
Y1124450D01*
Y1124394D01*
X1814776Y1124302D01*
X1814720Y1124209D01*
X1814664Y1124117D01*
X1814572Y1124024D01*
X1814442Y1123969D01*
X1814257Y1123950D01*
X1814183D01*
X1814091Y1123987D01*
X1813998Y1124024D01*
X1813905Y1124080D01*
X1813813Y1124172D01*
X1813757Y1124302D01*
X1813739Y1124469D01*
Y1129209D01*
X1809535D01*
Y1124469D01*
Y1124450D01*
Y1124394D01*
X1809517Y1124302D01*
X1809461Y1124209D01*
X1809406Y1124117D01*
X1809313Y1124024D01*
X1809184Y1123969D01*
X1808999Y1123950D01*
X1808924D01*
X1808832Y1123987D01*
X1808739Y1124024D01*
X1808647Y1124080D01*
X1808554Y1124172D01*
X1808499Y1124302D01*
X1808480Y1124469D01*
Y1133930D01*
Y1133949D01*
Y1134023D01*
X1808517Y1134097D01*
X1808554Y1134208D01*
X1808610Y1134301D01*
X1808702Y1134393D01*
X1808832Y1134449D01*
X1808999Y1134467D01*
X1809091D01*
X1809165Y1134449D01*
X1809276Y1134393D01*
X1809369Y1134338D01*
X1809461Y1134245D01*
X1809517Y1134116D01*
X1809535Y1133930D01*
Y1130264D01*
X1813739D01*
Y1133930D01*
Y1133949D01*
Y1134023D01*
X1813776Y1134097D01*
X1813813Y1134208D01*
X1813868Y1134301D01*
X1813961Y1134393D01*
X1814091Y1134449D01*
X1814257Y1134467D01*
X1814350D01*
X1814424Y1134449D01*
D02*
G37*
G36*
X1886009Y1130246D02*
X1886120Y1130190D01*
X1886213Y1130135D01*
X1886305Y1130042D01*
X1886361Y1129912D01*
X1886379Y1129727D01*
Y1129209D01*
Y1129190D01*
Y1129135D01*
X1886361Y1129042D01*
X1886305Y1128950D01*
X1886250Y1128838D01*
X1886157Y1128764D01*
X1886028Y1128690D01*
X1885842Y1128672D01*
X1885768D01*
X1885676Y1128709D01*
X1885583Y1128746D01*
X1885491Y1128801D01*
X1885398Y1128894D01*
X1885342Y1129024D01*
X1885324Y1129209D01*
Y1129727D01*
Y1129746D01*
Y1129820D01*
X1885361Y1129894D01*
X1885398Y1130005D01*
X1885453Y1130098D01*
X1885546Y1130190D01*
X1885676Y1130246D01*
X1885842Y1130264D01*
X1885935D01*
X1886009Y1130246D01*
D02*
G37*
G36*
X1829163Y1130246D02*
X1829274Y1130190D01*
X1829367Y1130135D01*
X1829459Y1130042D01*
X1829515Y1129912D01*
X1829533Y1129727D01*
Y1129209D01*
Y1129190D01*
Y1129135D01*
X1829515Y1129042D01*
X1829459Y1128950D01*
X1829404Y1128838D01*
X1829311Y1128764D01*
X1829182Y1128690D01*
X1828996Y1128672D01*
X1828922D01*
X1828830Y1128709D01*
X1828737Y1128746D01*
X1828645Y1128801D01*
X1828552Y1128894D01*
X1828496Y1129024D01*
X1828478Y1129209D01*
Y1129727D01*
Y1129746D01*
Y1129820D01*
X1828515Y1129894D01*
X1828552Y1130005D01*
X1828607Y1130098D01*
X1828700Y1130190D01*
X1828830Y1130246D01*
X1828996Y1130264D01*
X1829089D01*
X1829163Y1130246D01*
D02*
G37*
G36*
X1882861Y1134449D02*
X1882954Y1134393D01*
X1883046Y1134338D01*
X1883139Y1134245D01*
X1883194Y1134116D01*
X1883213Y1133931D01*
Y1133912D01*
X1883194Y1133819D01*
X1881102Y1124376D01*
Y1124357D01*
X1881084Y1124302D01*
X1881047Y1124246D01*
X1881010Y1124172D01*
X1880936Y1124080D01*
X1880843Y1124024D01*
X1880732Y1123969D01*
X1880584Y1123950D01*
X1880528D01*
X1880454Y1123969D01*
X1880380Y1124006D01*
X1880287Y1124061D01*
X1880195Y1124135D01*
X1880121Y1124246D01*
X1880047Y1124394D01*
X1878473Y1129116D01*
X1876899Y1124394D01*
Y1124376D01*
X1876862Y1124320D01*
X1876825Y1124246D01*
X1876769Y1124172D01*
X1876695Y1124098D01*
X1876603Y1124024D01*
X1876492Y1123969D01*
X1876362Y1123950D01*
X1876306D01*
X1876232Y1123969D01*
X1876140Y1124006D01*
X1876066Y1124061D01*
X1875973Y1124135D01*
X1875899Y1124246D01*
X1875843Y1124394D01*
X1873751Y1133819D01*
Y1133838D01*
Y1133856D01*
X1873732Y1133930D01*
Y1133949D01*
Y1134023D01*
X1873770Y1134097D01*
X1873807Y1134208D01*
X1873862Y1134301D01*
X1873955Y1134393D01*
X1874084Y1134449D01*
X1874270Y1134467D01*
X1874344D01*
X1874418Y1134449D01*
X1874492Y1134412D01*
X1874584Y1134356D01*
X1874677Y1134282D01*
X1874732Y1134190D01*
X1874788Y1134042D01*
X1876473Y1126431D01*
X1877954Y1130875D01*
Y1130894D01*
X1877991Y1130949D01*
X1878028Y1131005D01*
X1878084Y1131097D01*
X1878139Y1131171D01*
X1878232Y1131227D01*
X1878343Y1131283D01*
X1878473Y1131301D01*
X1878528D01*
X1878602Y1131283D01*
X1878695Y1131245D01*
X1878769Y1131190D01*
X1878862Y1131116D01*
X1878936Y1131023D01*
X1879010Y1130875D01*
X1880473Y1126450D01*
X1882176Y1134042D01*
Y1134060D01*
X1882195Y1134116D01*
X1882232Y1134171D01*
X1882269Y1134264D01*
X1882343Y1134338D01*
X1882435Y1134393D01*
X1882546Y1134449D01*
X1882695Y1134467D01*
X1882769D01*
X1882861Y1134449D01*
D02*
G37*
G36*
X1826015Y1134449D02*
X1826108Y1134393D01*
X1826200Y1134338D01*
X1826293Y1134245D01*
X1826349Y1134116D01*
X1826367Y1133930D01*
Y1133912D01*
X1826349Y1133819D01*
X1824256Y1124376D01*
Y1124357D01*
X1824238Y1124302D01*
X1824201Y1124246D01*
X1824164Y1124172D01*
X1824090Y1124080D01*
X1823997Y1124024D01*
X1823886Y1123969D01*
X1823738Y1123950D01*
X1823682D01*
X1823608Y1123969D01*
X1823534Y1124006D01*
X1823441Y1124061D01*
X1823349Y1124135D01*
X1823275Y1124246D01*
X1823201Y1124394D01*
X1821627Y1129116D01*
X1820053Y1124394D01*
Y1124376D01*
X1820016Y1124320D01*
X1819979Y1124246D01*
X1819923Y1124172D01*
X1819849Y1124098D01*
X1819757Y1124024D01*
X1819646Y1123969D01*
X1819516Y1123950D01*
X1819460D01*
X1819386Y1123969D01*
X1819294Y1124006D01*
X1819220Y1124061D01*
X1819127Y1124135D01*
X1819053Y1124246D01*
X1818997Y1124394D01*
X1816905Y1133819D01*
Y1133838D01*
Y1133856D01*
X1816886Y1133930D01*
Y1133949D01*
Y1134023D01*
X1816924Y1134097D01*
X1816961Y1134208D01*
X1817016Y1134301D01*
X1817109Y1134393D01*
X1817238Y1134449D01*
X1817424Y1134467D01*
X1817498D01*
X1817572Y1134449D01*
X1817646Y1134412D01*
X1817738Y1134356D01*
X1817831Y1134282D01*
X1817886Y1134190D01*
X1817942Y1134042D01*
X1819627Y1126431D01*
X1821108Y1130875D01*
Y1130894D01*
X1821145Y1130949D01*
X1821182Y1131005D01*
X1821238Y1131097D01*
X1821293Y1131171D01*
X1821386Y1131227D01*
X1821497Y1131283D01*
X1821627Y1131301D01*
X1821682D01*
X1821756Y1131283D01*
X1821849Y1131245D01*
X1821923Y1131190D01*
X1822016Y1131116D01*
X1822090Y1131023D01*
X1822164Y1130875D01*
X1823627Y1126450D01*
X1825330Y1134042D01*
Y1134060D01*
X1825349Y1134116D01*
X1825386Y1134171D01*
X1825423Y1134264D01*
X1825497Y1134338D01*
X1825589Y1134393D01*
X1825700Y1134449D01*
X1825849Y1134467D01*
X1825923D01*
X1826015Y1134449D01*
D02*
G37*
G36*
X1842847Y1131301D02*
X1842958Y1131264D01*
X1843051Y1131190D01*
X1843143Y1131097D01*
X1843199Y1130968D01*
X1843217Y1130801D01*
Y1130783D01*
Y1130746D01*
X1843180Y1130616D01*
X1841106Y1124376D01*
Y1124357D01*
X1841069Y1124302D01*
X1841032Y1124246D01*
X1840977Y1124172D01*
X1840903Y1124080D01*
X1840810Y1124024D01*
X1840699Y1123969D01*
X1840569Y1123950D01*
X1840514D01*
X1840440Y1123969D01*
X1840366Y1124006D01*
X1840273Y1124061D01*
X1840199Y1124135D01*
X1840125Y1124228D01*
X1840051Y1124376D01*
X1837977Y1130616D01*
Y1130635D01*
X1837958Y1130671D01*
X1837940Y1130801D01*
Y1130820D01*
Y1130838D01*
X1837958Y1130931D01*
X1837995Y1131042D01*
X1838088Y1131153D01*
X1838125Y1131171D01*
X1838199Y1131245D01*
X1838329Y1131301D01*
X1838477Y1131320D01*
X1838532D01*
X1838607Y1131301D01*
X1838681Y1131283D01*
X1838755Y1131227D01*
X1838847Y1131171D01*
X1838921Y1131079D01*
X1838977Y1130949D01*
X1840569Y1126135D01*
X1842180Y1130949D01*
Y1130968D01*
X1842199Y1131005D01*
X1842291Y1131134D01*
X1842347Y1131208D01*
X1842439Y1131264D01*
X1842551Y1131301D01*
X1842680Y1131320D01*
X1842773D01*
X1842847Y1131301D01*
D02*
G37*
G36*
X1886009Y1126024D02*
X1886120Y1125968D01*
X1886213Y1125913D01*
X1886305Y1125820D01*
X1886361Y1125691D01*
X1886379Y1125505D01*
Y1124987D01*
Y1124968D01*
Y1124913D01*
X1886361Y1124820D01*
X1886305Y1124728D01*
X1886250Y1124635D01*
X1886157Y1124543D01*
X1886028Y1124487D01*
X1885842Y1124469D01*
X1885768D01*
X1885676Y1124505D01*
X1885583Y1124543D01*
X1885491Y1124598D01*
X1885398Y1124691D01*
X1885342Y1124820D01*
X1885324Y1124987D01*
Y1125505D01*
Y1125524D01*
Y1125598D01*
X1885361Y1125672D01*
X1885398Y1125783D01*
X1885453Y1125876D01*
X1885546Y1125968D01*
X1885676Y1126024D01*
X1885842Y1126042D01*
X1885935D01*
X1886009Y1126024D01*
D02*
G37*
G36*
X1829163Y1126024D02*
X1829274Y1125968D01*
X1829367Y1125913D01*
X1829459Y1125820D01*
X1829515Y1125691D01*
X1829533Y1125505D01*
Y1124987D01*
Y1124968D01*
Y1124913D01*
X1829515Y1124820D01*
X1829459Y1124728D01*
X1829404Y1124635D01*
X1829311Y1124542D01*
X1829182Y1124487D01*
X1828996Y1124469D01*
X1828922D01*
X1828830Y1124505D01*
X1828737Y1124542D01*
X1828645Y1124598D01*
X1828552Y1124691D01*
X1828496Y1124820D01*
X1828478Y1124987D01*
Y1125505D01*
Y1125524D01*
Y1125598D01*
X1828515Y1125672D01*
X1828552Y1125783D01*
X1828607Y1125876D01*
X1828700Y1125968D01*
X1828830Y1126024D01*
X1828996Y1126042D01*
X1829089D01*
X1829163Y1126024D01*
D02*
G37*
G36*
X1856531Y1134449D02*
X1856642Y1134393D01*
X1856734Y1134338D01*
X1856827Y1134245D01*
X1856882Y1134116D01*
X1856901Y1133930D01*
Y1124469D01*
Y1124450D01*
Y1124394D01*
X1856882Y1124302D01*
X1856827Y1124209D01*
X1856771Y1124117D01*
X1856679Y1124024D01*
X1856549Y1123969D01*
X1856364Y1123950D01*
X1856290D01*
X1856197Y1123987D01*
X1856105Y1124024D01*
X1856012Y1124080D01*
X1855919Y1124172D01*
X1855864Y1124302D01*
X1855845Y1124469D01*
Y1132671D01*
X1854623Y1131449D01*
X1854605Y1131431D01*
X1854531Y1131375D01*
X1854401Y1131320D01*
X1854253Y1131301D01*
X1854179D01*
X1854086Y1131338D01*
X1853994Y1131375D01*
X1853901Y1131431D01*
X1853809Y1131523D01*
X1853753Y1131653D01*
X1853735Y1131820D01*
Y1131838D01*
Y1131857D01*
X1853753Y1131949D01*
X1853790Y1132079D01*
X1853883Y1132190D01*
X1855938Y1134245D01*
X1855957Y1134264D01*
X1855975Y1134282D01*
X1856068Y1134356D01*
X1856197Y1134430D01*
X1856290Y1134467D01*
X1856456D01*
X1856531Y1134449D01*
D02*
G37*
G36*
X1851272Y1125505D02*
X1851383Y1125450D01*
X1851476Y1125394D01*
X1851568Y1125302D01*
X1851624Y1125172D01*
X1851642Y1124987D01*
Y1124469D01*
Y1124450D01*
Y1124394D01*
X1851624Y1124302D01*
X1851568Y1124209D01*
X1851513Y1124117D01*
X1851420Y1124024D01*
X1851290Y1123969D01*
X1851105Y1123950D01*
X1851031D01*
X1850939Y1123987D01*
X1850846Y1124024D01*
X1850753Y1124080D01*
X1850661Y1124172D01*
X1850605Y1124302D01*
X1850587Y1124469D01*
Y1124987D01*
Y1125005D01*
Y1125079D01*
X1850624Y1125154D01*
X1850661Y1125265D01*
X1850716Y1125357D01*
X1850809Y1125450D01*
X1850939Y1125505D01*
X1851105Y1125524D01*
X1851198D01*
X1851272Y1125505D01*
D02*
G37*
G36*
X1848105Y1134449D02*
X1848217Y1134393D01*
X1848309Y1134338D01*
X1848402Y1134245D01*
X1848457Y1134116D01*
X1848476Y1133930D01*
Y1124469D01*
Y1124450D01*
Y1124394D01*
X1848457Y1124302D01*
X1848402Y1124209D01*
X1848346Y1124117D01*
X1848254Y1124024D01*
X1848124Y1123969D01*
X1847939Y1123950D01*
X1847865D01*
X1847772Y1123987D01*
X1847680Y1124024D01*
X1847587Y1124080D01*
X1847495Y1124172D01*
X1847439Y1124302D01*
X1847420Y1124469D01*
Y1132671D01*
X1846198Y1131449D01*
X1846180Y1131431D01*
X1846106Y1131375D01*
X1845976Y1131320D01*
X1845828Y1131301D01*
X1845754D01*
X1845661Y1131338D01*
X1845569Y1131375D01*
X1845476Y1131431D01*
X1845384Y1131523D01*
X1845328Y1131653D01*
X1845309Y1131820D01*
Y1131838D01*
Y1131857D01*
X1845328Y1131949D01*
X1845365Y1132079D01*
X1845458Y1132190D01*
X1847513Y1134245D01*
X1847531Y1134264D01*
X1847550Y1134282D01*
X1847643Y1134356D01*
X1847772Y1134430D01*
X1847865Y1134467D01*
X1848031D01*
X1848105Y1134449D01*
D02*
G37*
%LPC*%
G36*
X2187512Y1277129D02*
X2183653D01*
Y1272687D01*
X2187373D01*
X2187845Y1272715D01*
X2188705D01*
X2188872Y1272742D01*
X2189039D01*
X2189150Y1272770D01*
X2189316Y1272798D01*
X2189566Y1272881D01*
X2189816Y1272964D01*
X2190066Y1273075D01*
X2190316Y1273214D01*
X2190538Y1273409D01*
X2190565Y1273436D01*
X2190621Y1273520D01*
X2190732Y1273631D01*
X2190843Y1273825D01*
X2190926Y1274047D01*
X2191037Y1274297D01*
X2191093Y1274603D01*
X2191121Y1274936D01*
Y1274963D01*
Y1275074D01*
X2191093Y1275241D01*
X2191065Y1275463D01*
X2191010Y1275685D01*
X2190899Y1275907D01*
X2190788Y1276157D01*
X2190621Y1276379D01*
X2190593Y1276407D01*
X2190538Y1276462D01*
X2190399Y1276574D01*
X2190260Y1276685D01*
X2190038Y1276796D01*
X2189788Y1276907D01*
X2189483Y1276990D01*
X2189150Y1277046D01*
X2189122D01*
X2189011Y1277073D01*
X2188705D01*
X2188539Y1277101D01*
X2187817D01*
X2187512Y1277129D01*
D02*
G37*
G36*
X2187678Y1269494D02*
X2183653D01*
Y1264358D01*
X2187928D01*
X2188345Y1264386D01*
X2188789D01*
X2189233Y1264414D01*
X2189594Y1264442D01*
X2189760D01*
X2189871Y1264469D01*
X2189899D01*
X2190010Y1264497D01*
X2190177Y1264553D01*
X2190371Y1264608D01*
X2190593Y1264719D01*
X2190843Y1264858D01*
X2191065Y1265024D01*
X2191287Y1265219D01*
X2191315Y1265247D01*
X2191371Y1265330D01*
X2191454Y1265469D01*
X2191565Y1265663D01*
X2191676Y1265885D01*
X2191759Y1266163D01*
X2191815Y1266496D01*
X2191843Y1266857D01*
Y1266885D01*
Y1266996D01*
X2191815Y1267162D01*
X2191787Y1267356D01*
X2191732Y1267606D01*
X2191648Y1267829D01*
X2191537Y1268078D01*
X2191398Y1268328D01*
X2191371Y1268356D01*
X2191315Y1268439D01*
X2191232Y1268550D01*
X2191093Y1268661D01*
X2190926Y1268828D01*
X2190704Y1268967D01*
X2190454Y1269106D01*
X2190177Y1269217D01*
X2190149D01*
X2190010Y1269272D01*
X2189788Y1269300D01*
X2189649Y1269328D01*
X2189455Y1269355D01*
X2189261Y1269383D01*
X2189011Y1269411D01*
X2188733Y1269439D01*
X2188400D01*
X2188067Y1269466D01*
X2187678Y1269494D01*
D02*
G37*
G36*
X2152115Y1272687D02*
X2149255D01*
X2148978Y1272659D01*
X2148672Y1272631D01*
X2148339Y1272576D01*
X2148006Y1272520D01*
X2147701Y1272409D01*
X2147451Y1272270D01*
X2147423Y1272243D01*
X2147368Y1272187D01*
X2147256Y1272076D01*
X2147173Y1271937D01*
X2147062Y1271743D01*
X2146951Y1271521D01*
X2146896Y1271216D01*
X2146868Y1270882D01*
Y1270827D01*
Y1270716D01*
X2146896Y1270549D01*
X2146951Y1270355D01*
X2147034Y1270105D01*
X2147145Y1269883D01*
X2147284Y1269661D01*
X2147506Y1269494D01*
X2147534Y1269466D01*
X2147645Y1269439D01*
X2147812Y1269355D01*
X2148034Y1269300D01*
X2148339Y1269217D01*
X2148700Y1269133D01*
X2149172Y1269106D01*
X2149700Y1269078D01*
X2152115D01*
Y1272687D01*
D02*
G37*
G36*
X2103920Y1267773D02*
X2103892D01*
X2103781Y1267717D01*
X2103614Y1267690D01*
X2103364Y1267606D01*
X2103059Y1267523D01*
X2102643Y1267412D01*
X2102198Y1267301D01*
X2101643Y1267190D01*
X2101588D01*
X2101504Y1267162D01*
X2101393Y1267134D01*
X2101143Y1267079D01*
X2100810Y1266996D01*
X2100477Y1266912D01*
X2100144Y1266801D01*
X2099866Y1266663D01*
X2099644Y1266551D01*
X2099617Y1266524D01*
X2099533Y1266468D01*
X2099422Y1266357D01*
X2099311Y1266218D01*
X2099172Y1266024D01*
X2099061Y1265802D01*
X2098978Y1265552D01*
X2098950Y1265274D01*
Y1265247D01*
Y1265135D01*
X2098978Y1264997D01*
X2099034Y1264830D01*
X2099089Y1264608D01*
X2099172Y1264386D01*
X2099311Y1264164D01*
X2099505Y1263942D01*
X2099533Y1263914D01*
X2099617Y1263858D01*
X2099728Y1263775D01*
X2099922Y1263664D01*
X2100116Y1263553D01*
X2100366Y1263470D01*
X2100672Y1263414D01*
X2100977Y1263387D01*
X2101143D01*
X2101338Y1263414D01*
X2101588Y1263470D01*
X2101893Y1263553D01*
X2102198Y1263664D01*
X2102559Y1263803D01*
X2102892Y1264025D01*
X2102920Y1264053D01*
X2103004Y1264108D01*
X2103115Y1264219D01*
X2103253Y1264358D01*
X2103392Y1264553D01*
X2103531Y1264747D01*
X2103670Y1264997D01*
X2103753Y1265247D01*
Y1265274D01*
X2103781Y1265330D01*
X2103809Y1265469D01*
X2103836Y1265635D01*
X2103864Y1265885D01*
X2103892Y1266190D01*
X2103920Y1266579D01*
Y1267023D01*
Y1267773D01*
D02*
G37*
G36*
X2050116Y1272354D02*
X2049978D01*
X2049867Y1272326D01*
X2049617Y1272298D01*
X2049284Y1272215D01*
X2048895Y1272076D01*
X2048479Y1271882D01*
X2048062Y1271604D01*
X2047673Y1271243D01*
X2047646Y1271188D01*
X2047535Y1271049D01*
X2047368Y1270771D01*
X2047202Y1270438D01*
X2047007Y1269994D01*
X2046868Y1269439D01*
X2046757Y1268800D01*
X2046702Y1268078D01*
Y1268051D01*
Y1267995D01*
Y1267884D01*
X2046729Y1267745D01*
Y1267551D01*
X2046757Y1267356D01*
X2046813Y1266912D01*
X2046952Y1266385D01*
X2047118Y1265857D01*
X2047340Y1265330D01*
X2047673Y1264886D01*
X2047729Y1264830D01*
X2047840Y1264719D01*
X2048062Y1264553D01*
X2048367Y1264358D01*
X2048701Y1264136D01*
X2049117Y1263969D01*
X2049589Y1263858D01*
X2050116Y1263803D01*
X2050255D01*
X2050366Y1263831D01*
X2050616Y1263858D01*
X2050949Y1263942D01*
X2051338Y1264081D01*
X2051754Y1264247D01*
X2052143Y1264525D01*
X2052532Y1264886D01*
X2052587Y1264941D01*
X2052698Y1265080D01*
X2052837Y1265358D01*
X2053032Y1265691D01*
X2053226Y1266163D01*
X2053365Y1266690D01*
X2053476Y1267356D01*
X2053531Y1268078D01*
Y1268106D01*
Y1268162D01*
Y1268273D01*
X2053504Y1268411D01*
Y1268578D01*
X2053476Y1268800D01*
X2053420Y1269244D01*
X2053281Y1269744D01*
X2053115Y1270272D01*
X2052865Y1270799D01*
X2052532Y1271243D01*
X2052476Y1271299D01*
X2052365Y1271410D01*
X2052143Y1271604D01*
X2051866Y1271798D01*
X2051505Y1271993D01*
X2051116Y1272187D01*
X2050644Y1272298D01*
X2050116Y1272354D01*
D02*
G37*
G36*
X2229349Y1277073D02*
X2223658D01*
Y1277046D01*
Y1276962D01*
Y1276851D01*
Y1276685D01*
Y1276490D01*
Y1276240D01*
X2223630Y1275963D01*
Y1275657D01*
Y1275296D01*
X2223602Y1274936D01*
X2223575Y1274103D01*
X2223519Y1273187D01*
X2223464Y1272215D01*
X2223380Y1271188D01*
X2223269Y1270133D01*
X2223158Y1269078D01*
X2222992Y1268023D01*
X2222797Y1266996D01*
X2222603Y1266052D01*
X2222353Y1265163D01*
X2222214Y1264747D01*
X2222076Y1264358D01*
X2229349D01*
Y1277073D01*
D02*
G37*
%LPD*%
D10*
X1785100Y1610610D02*
G03*
X1785100Y1610610I-20000J0D01*
G01*
X2173970Y1604840D02*
G03*
X2173970Y1604840I-20000J0D01*
G01*
X2174170Y1436940D02*
G03*
X2174170Y1436940I-20000J0D01*
G01*
X2210080Y1789740D02*
X2245080D01*
X2210080Y1708740D02*
Y1789740D01*
Y1708740D02*
X2245080D01*
Y1789740D01*
X1651280Y1760530D02*
X1686280D01*
X1651280Y1679530D02*
Y1760530D01*
Y1679530D02*
X1686280D01*
Y1760530D01*
X1620800Y1595360D02*
X1655800D01*
Y1676360D01*
X1620800D02*
X1655800D01*
X1620800Y1595360D02*
Y1676360D01*
X1659580Y1591590D02*
Y1626590D01*
Y1591590D02*
X1740580D01*
Y1626590D01*
X1659580D02*
X1740580D01*
X2246909Y1580121D02*
X2281909D01*
Y1661121D01*
X2246909D02*
X2281909D01*
X2246909Y1580121D02*
Y1661121D01*
X2194160Y1316110D02*
X2224910D01*
Y1358110D01*
X2194160D02*
X2224910D01*
X2194160Y1316110D02*
Y1358110D01*
X2152220Y1364740D02*
Y1402490D01*
X2180220D01*
Y1364740D02*
Y1402490D01*
X2152220Y1364740D02*
X2180220D01*
X2117951Y1340846D02*
X2137750Y1321047D01*
X2164443Y1347740D01*
X2144644Y1367539D02*
X2164443Y1347740D01*
X2117951Y1340846D02*
X2144644Y1367539D01*
X2078669Y1302804D02*
X2098468Y1283005D01*
X2125161Y1309698D01*
X2105362Y1329497D02*
X2125161Y1309698D01*
X2078669Y1302804D02*
X2105362Y1329497D01*
X1926720Y1274800D02*
X1957470D01*
X1926720Y1232800D02*
Y1274800D01*
Y1232800D02*
X1957470D01*
Y1274800D01*
X1882034Y1167151D02*
Y1209151D01*
X1851284Y1167151D02*
X1882034D01*
X1851284D02*
Y1209151D01*
X1882034D01*
X1848234Y1167041D02*
Y1209041D01*
X1817484Y1167041D02*
X1848234D01*
X1817484D02*
Y1209041D01*
X1848234D01*
X1991270Y1212860D02*
Y1254860D01*
X1960520Y1212860D02*
X1991270D01*
X1960520D02*
Y1254860D01*
X1991270D01*
X2034460Y1742800D02*
X2034480Y1742820D01*
X1874480Y1742800D02*
X2034460D01*
X1874520Y1962760D02*
X2034540D01*
X2034480Y1742820D02*
X2034540Y1742760D01*
X2034480Y1742820D02*
Y1821160D01*
X1874480Y1742800D02*
X1874520Y1742760D01*
X1874480Y1742800D02*
Y1821160D01*
Y1962720D02*
X1874520Y1962760D01*
X1874480Y1821160D02*
Y1962720D01*
X2034480Y1962700D02*
X2034540Y1962760D01*
X2034480Y1821160D02*
Y1962700D01*
X1628394Y1361440D02*
X1733700D01*
Y1585214D01*
X1628394D02*
X1733700D01*
X1628394Y1361440D02*
Y1585214D01*
X1764980Y1691720D02*
Y1731720D01*
X1724980D02*
X1764980D01*
X1724980Y1691720D02*
Y1731720D01*
Y1691720D02*
X1764980D01*
X1679420Y1640090D02*
X1719420D01*
X1679420D02*
Y1680090D01*
X1719420D01*
Y1640090D02*
Y1680090D01*
X2180190Y1528210D02*
X2245190D01*
Y1654810D01*
X2180190D02*
X2245190D01*
X2180190Y1528210D02*
Y1654810D01*
X2257569Y1805179D02*
Y1837180D01*
X2197569D02*
X2257569D01*
X2197569Y1805179D02*
Y1837180D01*
Y1805179D02*
X2257569D01*
X2154400Y1797910D02*
X2194400D01*
X2154400D02*
Y1837910D01*
X2194400D01*
Y1797910D02*
Y1837910D01*
X2090911Y1805181D02*
Y1837180D01*
Y1805181D02*
X2150911D01*
Y1837180D01*
X2090911D02*
X2150911D01*
X2209880Y1672250D02*
Y1712250D01*
X2249880D01*
Y1672250D02*
Y1712250D01*
X2209880Y1672250D02*
X2249880D01*
X1963770Y1296510D02*
X1975770D01*
X1963770Y1281510D02*
X1975770D01*
Y1306510D01*
X1963770D02*
X1975770D01*
X1963770Y1281510D02*
Y1306510D01*
X2176130Y1478600D02*
Y1518600D01*
X2216130D01*
Y1478600D02*
Y1518600D01*
X2176130Y1478600D02*
X2216130D01*
X2178570Y1417480D02*
Y1457480D01*
X2218570D01*
Y1417480D02*
Y1457480D01*
X2178570Y1417480D02*
X2218570D01*
X1917620Y1219100D02*
Y1259100D01*
X1877620Y1219100D02*
X1917620D01*
X1877620D02*
Y1259100D01*
X1917620D01*
X1833800Y1229020D02*
Y1269020D01*
X1793800Y1229020D02*
X1833800D01*
X1793800D02*
Y1269020D01*
X1833800D01*
X2151400Y1741510D02*
X2204400D01*
X2151400D02*
Y1771510D01*
X2204400D01*
Y1741510D02*
Y1771510D01*
X2156720Y1578592D02*
X2150056D01*
X2153388Y1575259D02*
Y1581924D01*
X2156920Y1410692D02*
X2150255D01*
X2153588Y1407359D02*
Y1414024D01*
X1677081Y1384300D02*
Y1389632D01*
Y1409700D02*
Y1415032D01*
X1674415Y1412366D02*
X1679747D01*
X1676211Y1536700D02*
Y1542032D01*
X1696720Y1511299D02*
Y1516378D01*
X1694181Y1518917D01*
X1689102D01*
X1686563Y1516378D01*
Y1511299D01*
X1689102Y1508760D01*
X1694181D01*
X1696720Y1511299D01*
X1686563Y1523995D02*
X1694181D01*
X1696720Y1526534D01*
Y1534152D01*
X1686563D01*
X1684024Y1541769D02*
X1686563D01*
Y1539230D01*
Y1544308D01*
Y1541769D01*
X1694181D01*
X1696720Y1544308D01*
X1697500Y1386840D02*
Y1391918D01*
Y1389379D01*
X1687343D01*
Y1386840D01*
X1697500Y1399536D02*
X1687343D01*
Y1407153D01*
X1689883Y1409693D01*
X1697500D01*
X1676211Y1511300D02*
Y1516632D01*
X1673546Y1513966D02*
X1678877D01*
X1646938Y1567432D02*
Y1563433D01*
X1648271Y1562100D01*
X1650937D01*
X1652270Y1563433D01*
Y1567432D01*
X1673970Y1436622D02*
Y1432623D01*
X1675303Y1431290D01*
X1677969D01*
X1679302Y1432623D01*
Y1436622D01*
X1672637Y1440620D02*
X1673970D01*
Y1439287D01*
Y1441953D01*
Y1440620D01*
X1677969D01*
X1679302Y1441953D01*
X1673970Y1445952D02*
X1679302D01*
X1676636D01*
X1675303Y1447285D01*
X1673970Y1448618D01*
X1673970Y1449951D01*
X1679302Y1453949D02*
Y1456615D01*
Y1455282D01*
X1671305D01*
Y1453949D01*
X2211070Y1553210D02*
Y1558288D01*
Y1555749D01*
X2200913D01*
Y1553210D01*
X2211070Y1565906D02*
X2200913D01*
Y1573523D01*
X2203452Y1576063D01*
X2211070D01*
Y1601469D02*
Y1606548D01*
X2208531Y1609087D01*
X2203452D01*
X2200913Y1606548D01*
Y1601469D01*
X2203452Y1598930D01*
X2208531D01*
X2211070Y1601469D01*
X2200913Y1614165D02*
X2208531D01*
X2211070Y1616704D01*
Y1624322D01*
X2200913D01*
X2198374Y1631939D02*
X2200913D01*
Y1629400D01*
Y1634478D01*
Y1631939D01*
X2208531D01*
X2211070Y1634478D01*
X2219771Y1550670D02*
Y1556002D01*
Y1576070D02*
Y1581402D01*
X2217106Y1578736D02*
X2222437D01*
X2219771Y1626870D02*
Y1632202D01*
X2217106Y1629536D02*
X2222437D01*
X2219771Y1601470D02*
Y1606802D01*
X1772252Y1199642D02*
X1777250D01*
Y1202974D01*
X1635842Y1198692D02*
X1640840D01*
Y1202024D01*
X1809562Y1220388D02*
Y1215390D01*
X1812894D01*
X2270678Y1416238D02*
X2265680D01*
Y1412906D01*
X1752600Y1524000D02*
X1757598D01*
X1755099D01*
Y1538995D01*
X1752600Y1536496D01*
X1765096D02*
X1767595Y1538995D01*
X1772594D01*
X1775093Y1536496D01*
Y1526499D01*
X1772594Y1524000D01*
X1767595D01*
X1765096Y1526499D01*
Y1536496D01*
X1798320Y1365250D02*
X1803398D01*
X1800859D01*
Y1380485D01*
X1798320Y1377946D01*
X1778622Y1629410D02*
X1783287D01*
X1785620Y1631743D01*
X1783287Y1634075D01*
X1778622D01*
Y1636408D02*
X1785620D01*
Y1639907D01*
X1784454Y1641073D01*
X1779789D01*
X1778622Y1639907D01*
Y1636408D01*
X1785620Y1643405D02*
Y1645738D01*
Y1644572D01*
X1778622D01*
X1779789Y1643405D01*
X1778622Y1653902D02*
X1779789Y1651570D01*
X1782121Y1649237D01*
X1784454D01*
X1785620Y1650403D01*
Y1652736D01*
X1784454Y1653902D01*
X1783287D01*
X1782121Y1652736D01*
Y1649237D01*
X2137410Y1571638D02*
Y1566973D01*
X2139743Y1564640D01*
X2142075Y1566973D01*
Y1571638D01*
X2144408D02*
Y1564640D01*
X2147907D01*
X2149073Y1565806D01*
Y1570471D01*
X2147907Y1571638D01*
X2144408D01*
X2156071D02*
X2151405D01*
Y1568139D01*
X2153738Y1569305D01*
X2154904D01*
X2156071Y1568139D01*
Y1565806D01*
X2154904Y1564640D01*
X2152572D01*
X2151405Y1565806D01*
X2110740Y1433208D02*
Y1428543D01*
X2113073Y1426210D01*
X2115405Y1428543D01*
Y1433208D01*
X2117738D02*
Y1426210D01*
X2121237D01*
X2122403Y1427376D01*
Y1432041D01*
X2121237Y1433208D01*
X2117738D01*
X2124736Y1426210D02*
X2127068D01*
X2125902D01*
Y1433208D01*
X2124736Y1432041D01*
X2130567Y1426210D02*
X2132899D01*
X2131733D01*
Y1433208D01*
X2130567Y1432041D01*
X2269653Y1668780D02*
X2276318D01*
X2279650Y1672112D01*
X2276318Y1675444D01*
X2269653D01*
Y1678777D02*
X2279650D01*
Y1683775D01*
X2277984Y1685441D01*
X2271319D01*
X2269653Y1683775D01*
Y1678777D01*
X2279650Y1695438D02*
Y1688774D01*
X2272986Y1695438D01*
X2271319D01*
X2269653Y1693772D01*
Y1690440D01*
X2271319Y1688774D01*
Y1698770D02*
X2269653Y1700437D01*
Y1703769D01*
X2271319Y1705435D01*
X2277984D01*
X2279650Y1703769D01*
Y1700437D01*
X2277984Y1698770D01*
X2271319D01*
X1686560Y1637678D02*
Y1633013D01*
X1688893Y1630680D01*
X1691225Y1633013D01*
Y1637678D01*
X1693558D02*
Y1630680D01*
X1697057D01*
X1698223Y1631846D01*
Y1636512D01*
X1697057Y1637678D01*
X1693558D01*
X1700556Y1630680D02*
X1702888D01*
X1701722D01*
Y1637678D01*
X1700556Y1636512D01*
X1706387Y1631846D02*
X1707553Y1630680D01*
X1709886D01*
X1711052Y1631846D01*
Y1636512D01*
X1709886Y1637678D01*
X1707553D01*
X1706387Y1636512D01*
Y1635345D01*
X1707553Y1634179D01*
X1711052D01*
X1620683Y1681480D02*
X1627348D01*
X1630680Y1684812D01*
X1627348Y1688145D01*
X1620683D01*
Y1691477D02*
X1630680D01*
Y1696475D01*
X1629014Y1698141D01*
X1622349D01*
X1620683Y1696475D01*
Y1691477D01*
X1630680Y1701474D02*
Y1704806D01*
Y1703140D01*
X1620683D01*
X1622349Y1701474D01*
Y1709804D02*
X1620683Y1711470D01*
Y1714803D01*
X1622349Y1716469D01*
X1624016D01*
X1625682Y1714803D01*
X1627348Y1716469D01*
X1629014D01*
X1630680Y1714803D01*
Y1711470D01*
X1629014Y1709804D01*
X1627348D01*
X1625682Y1711470D01*
X1624016Y1709804D01*
X1622349D01*
X1625682Y1711470D02*
Y1714803D01*
X1635923Y1737360D02*
X1642588D01*
X1645920Y1740692D01*
X1642588Y1744025D01*
X1635923D01*
Y1747357D02*
X1645920D01*
Y1752355D01*
X1644254Y1754021D01*
X1637589D01*
X1635923Y1752355D01*
Y1747357D01*
X1645920Y1757354D02*
Y1760686D01*
Y1759020D01*
X1635923D01*
X1637589Y1757354D01*
X1645920Y1772349D02*
Y1765684D01*
X1639256Y1772349D01*
X1637589D01*
X1635923Y1770683D01*
Y1767350D01*
X1637589Y1765684D01*
X2277273Y1741170D02*
X2283938D01*
X2287270Y1744502D01*
X2283938Y1747834D01*
X2277273D01*
Y1751167D02*
X2287270D01*
Y1756165D01*
X2285604Y1757831D01*
X2278939D01*
X2277273Y1756165D01*
Y1751167D01*
Y1767828D02*
X2278939Y1764496D01*
X2282272Y1761164D01*
X2285604D01*
X2287270Y1762830D01*
Y1766162D01*
X2285604Y1767828D01*
X2283938D01*
X2282272Y1766162D01*
Y1761164D01*
X1787512Y1088390D02*
X1792177D01*
X1794510Y1090723D01*
X1792177Y1093055D01*
X1787512D01*
Y1095388D02*
X1794510D01*
Y1098887D01*
X1793344Y1100053D01*
X1788678D01*
X1787512Y1098887D01*
Y1095388D01*
X1794510Y1107051D02*
Y1102385D01*
X1789845Y1107051D01*
X1788678D01*
X1787512Y1105884D01*
Y1103552D01*
X1788678Y1102385D01*
X1794510Y1114048D02*
Y1109383D01*
X1789845Y1114048D01*
X1788678D01*
X1787512Y1112882D01*
Y1110549D01*
X1788678Y1109383D01*
X1794510Y1127760D02*
X1787512D01*
Y1131259D01*
X1788678Y1132425D01*
X1791011D01*
X1792177Y1131259D01*
Y1127760D01*
Y1130093D02*
X1794510Y1132425D01*
X1787512Y1139423D02*
X1788678Y1137090D01*
X1791011Y1134758D01*
X1793344D01*
X1794510Y1135924D01*
Y1138257D01*
X1793344Y1139423D01*
X1792177D01*
X1791011Y1138257D01*
Y1134758D01*
X1787512Y1146421D02*
Y1141756D01*
X1791011D01*
X1789845Y1144088D01*
Y1145254D01*
X1791011Y1146421D01*
X1793344D01*
X1794510Y1145254D01*
Y1142922D01*
X1793344Y1141756D01*
X2106580Y1235655D02*
X2116737Y1220420D01*
Y1235655D02*
X2106580Y1220420D01*
X2131972Y1233116D02*
X2129433Y1235655D01*
X2124354D01*
X2121815Y1233116D01*
Y1230577D01*
X2124354Y1228037D01*
X2129433D01*
X2131972Y1225498D01*
Y1222959D01*
X2129433Y1220420D01*
X2124354D01*
X2121815Y1222959D01*
X2147207Y1220420D02*
X2137050D01*
X2147207Y1230577D01*
Y1233116D01*
X2144668Y1235655D01*
X2139589D01*
X2137050Y1233116D01*
X1967720Y1266970D02*
X1960722D01*
Y1270469D01*
X1961888Y1271635D01*
X1964221D01*
X1965387Y1270469D01*
Y1266970D01*
Y1269303D02*
X1967720Y1271635D01*
Y1273968D02*
Y1276300D01*
Y1275134D01*
X1960722D01*
X1961888Y1273968D01*
X1887220Y1189990D02*
Y1196988D01*
X1890719D01*
X1891885Y1195822D01*
Y1193489D01*
X1890719Y1192323D01*
X1887220D01*
X1889553D02*
X1891885Y1189990D01*
X1898883D02*
X1894218D01*
X1898883Y1194655D01*
Y1195822D01*
X1897717Y1196988D01*
X1895384D01*
X1894218Y1195822D01*
X2221650Y1234435D02*
X2231807Y1219200D01*
Y1234435D02*
X2221650Y1219200D01*
X2247042Y1231896D02*
X2244503Y1234435D01*
X2239424D01*
X2236885Y1231896D01*
Y1229357D01*
X2239424Y1226817D01*
X2244503D01*
X2247042Y1224278D01*
Y1221739D01*
X2244503Y1219200D01*
X2239424D01*
X2236885Y1221739D01*
X2252120Y1231896D02*
X2254659Y1234435D01*
X2259738D01*
X2262277Y1231896D01*
Y1229357D01*
X2259738Y1226817D01*
X2257198D01*
X2259738D01*
X2262277Y1224278D01*
Y1221739D01*
X2259738Y1219200D01*
X2254659D01*
X2252120Y1221739D01*
X1997710Y1233165D02*
X2007867Y1217930D01*
Y1233165D02*
X1997710Y1217930D01*
X2023102Y1230626D02*
X2020563Y1233165D01*
X2015484D01*
X2012945Y1230626D01*
Y1228087D01*
X2015484Y1225547D01*
X2020563D01*
X2023102Y1223008D01*
Y1220469D01*
X2020563Y1217930D01*
X2015484D01*
X2012945Y1220469D01*
X2028180Y1217930D02*
X2033259D01*
X2030719D01*
Y1233165D01*
X2028180Y1230626D01*
X2101850Y1490980D02*
Y1497978D01*
X2105349D01*
X2106515Y1496812D01*
Y1494479D01*
X2105349Y1493313D01*
X2101850D01*
X2104183D02*
X2106515Y1490980D01*
X2113513Y1497978D02*
X2108848D01*
Y1494479D01*
X2111180Y1495645D01*
X2112347D01*
X2113513Y1494479D01*
Y1492146D01*
X2112347Y1490980D01*
X2110014D01*
X2108848Y1492146D01*
X2115845Y1490980D02*
X2118178D01*
X2117012D01*
Y1497978D01*
X2115845Y1496812D01*
X2104390Y1473200D02*
Y1480198D01*
X2107889D01*
X2109055Y1479032D01*
Y1476699D01*
X2107889Y1475533D01*
X2104390D01*
X2106723D02*
X2109055Y1473200D01*
X2116053Y1480198D02*
X2111388D01*
Y1476699D01*
X2113720Y1477865D01*
X2114887D01*
X2116053Y1476699D01*
Y1474366D01*
X2114887Y1473200D01*
X2112554D01*
X2111388Y1474366D01*
X2118385Y1479032D02*
X2119552Y1480198D01*
X2121884D01*
X2123051Y1479032D01*
Y1474366D01*
X2121884Y1473200D01*
X2119552D01*
X2118385Y1474366D01*
Y1479032D01*
X2112010Y1459230D02*
Y1466228D01*
X2115509D01*
X2116675Y1465061D01*
Y1462729D01*
X2115509Y1461563D01*
X2112010D01*
X2114343D02*
X2116675Y1459230D01*
X2122507D02*
Y1466228D01*
X2119008Y1462729D01*
X2123673D01*
X2126006Y1460396D02*
X2127172Y1459230D01*
X2129504D01*
X2130671Y1460396D01*
Y1465061D01*
X2129504Y1466228D01*
X2127172D01*
X2126006Y1465061D01*
Y1463895D01*
X2127172Y1462729D01*
X2130671D01*
X2085340Y1428750D02*
Y1435748D01*
X2088839D01*
X2090005Y1434581D01*
Y1432249D01*
X2088839Y1431083D01*
X2085340D01*
X2087673D02*
X2090005Y1428750D01*
X2095837D02*
Y1435748D01*
X2092338Y1432249D01*
X2097003D01*
X2099335Y1434581D02*
X2100502Y1435748D01*
X2102834D01*
X2104001Y1434581D01*
Y1433415D01*
X2102834Y1432249D01*
X2104001Y1431083D01*
Y1429916D01*
X2102834Y1428750D01*
X2100502D01*
X2099335Y1429916D01*
Y1431083D01*
X2100502Y1432249D01*
X2099335Y1433415D01*
Y1434581D01*
X2100502Y1432249D02*
X2102834D01*
X2044700Y1463040D02*
X2037702D01*
Y1466539D01*
X2038869Y1467705D01*
X2041201D01*
X2042367Y1466539D01*
Y1463040D01*
Y1465373D02*
X2044700Y1467705D01*
Y1473537D02*
X2037702D01*
X2041201Y1470038D01*
Y1474703D01*
X2037702Y1477036D02*
Y1481701D01*
X2038869D01*
X2043534Y1477036D01*
X2044700D01*
X2063750Y1452880D02*
X2056752D01*
Y1456379D01*
X2057919Y1457545D01*
X2060251D01*
X2061417Y1456379D01*
Y1452880D01*
Y1455213D02*
X2063750Y1457545D01*
Y1463377D02*
X2056752D01*
X2060251Y1459878D01*
Y1464543D01*
X2056752Y1471541D02*
X2057919Y1469208D01*
X2060251Y1466875D01*
X2062584D01*
X2063750Y1468042D01*
Y1470374D01*
X2062584Y1471541D01*
X2061417D01*
X2060251Y1470374D01*
Y1466875D01*
X1836938Y1855055D02*
X1835772Y1853889D01*
Y1851556D01*
X1836938Y1850390D01*
X1841604D01*
X1842770Y1851556D01*
Y1853889D01*
X1841604Y1855055D01*
X1842770Y1860887D02*
X1835772D01*
X1839271Y1857388D01*
Y1862053D01*
X1835772Y1869051D02*
Y1864386D01*
X1839271D01*
X1838105Y1866718D01*
Y1867884D01*
X1839271Y1869051D01*
X1841604D01*
X1842770Y1867884D01*
Y1865552D01*
X1841604Y1864386D01*
X2064309Y1749104D02*
X2062643Y1747438D01*
Y1744106D01*
X2064309Y1742440D01*
X2070974D01*
X2072640Y1744106D01*
Y1747438D01*
X2070974Y1749104D01*
X2064309Y1752437D02*
X2062643Y1754103D01*
Y1757435D01*
X2064309Y1759101D01*
X2065975D01*
X2067642Y1757435D01*
Y1755769D01*
Y1757435D01*
X2069308Y1759101D01*
X2070974D01*
X2072640Y1757435D01*
Y1754103D01*
X2070974Y1752437D01*
X2072640Y1767432D02*
X2062643D01*
X2067642Y1762434D01*
Y1769098D01*
X1725830Y1170695D02*
X1735827Y1155700D01*
Y1170695D02*
X1725830Y1155700D01*
X1750822Y1168196D02*
X1748323Y1170695D01*
X1743324D01*
X1740825Y1168196D01*
Y1165697D01*
X1743324Y1163198D01*
X1748323D01*
X1750822Y1160698D01*
Y1158199D01*
X1748323Y1155700D01*
X1743324D01*
X1740825Y1158199D01*
X1755820Y1170695D02*
X1765817D01*
Y1168196D01*
X1755820Y1158199D01*
Y1155700D01*
X1845310Y1916675D02*
X1835313Y1931670D01*
Y1916675D02*
X1845310Y1931670D01*
X1820318Y1919174D02*
X1822817Y1916675D01*
X1827816D01*
X1830315Y1919174D01*
Y1921673D01*
X1827816Y1924172D01*
X1822817D01*
X1820318Y1926672D01*
Y1929171D01*
X1822817Y1931670D01*
X1827816D01*
X1830315Y1929171D01*
X1805323Y1916675D02*
X1810321Y1919174D01*
X1815320Y1924172D01*
Y1929171D01*
X1812820Y1931670D01*
X1807822D01*
X1805323Y1929171D01*
Y1926672D01*
X1807822Y1924172D01*
X1815320D01*
X2136140Y1921755D02*
X2126143Y1936750D01*
Y1921755D02*
X2136140Y1936750D01*
X2111148Y1924254D02*
X2113647Y1921755D01*
X2118646D01*
X2121145Y1924254D01*
Y1926753D01*
X2118646Y1929252D01*
X2113647D01*
X2111148Y1931752D01*
Y1934251D01*
X2113647Y1936750D01*
X2118646D01*
X2121145Y1934251D01*
X2096153Y1921755D02*
X2106150D01*
Y1929252D01*
X2101151Y1926753D01*
X2098652D01*
X2096153Y1929252D01*
Y1934251D01*
X2098652Y1936750D01*
X2103651D01*
X2106150Y1934251D01*
X2077720Y1921755D02*
X2067723Y1936750D01*
Y1921755D02*
X2077720Y1936750D01*
X2052728Y1924254D02*
X2055227Y1921755D01*
X2060226D01*
X2062725Y1924254D01*
Y1926753D01*
X2060226Y1929252D01*
X2055227D01*
X2052728Y1931752D01*
Y1934251D01*
X2055227Y1936750D01*
X2060226D01*
X2062725Y1934251D01*
X2040232Y1936750D02*
Y1921755D01*
X2047730Y1929252D01*
X2037733D01*
X1840475Y1515110D02*
X1855470Y1525107D01*
X1840475D02*
X1855470Y1515110D01*
Y1530105D02*
X1840475D01*
Y1537603D01*
X1842974Y1540102D01*
X1847972D01*
X1850472Y1537603D01*
Y1530105D01*
X1855470Y1545100D02*
Y1550099D01*
Y1547599D01*
X1840475D01*
X1842974Y1545100D01*
X2221393Y1483360D02*
X2228058D01*
X2231390Y1486692D01*
X2228058Y1490025D01*
X2221393D01*
Y1493357D02*
Y1500021D01*
Y1496689D01*
X2231390D01*
X2223059Y1503354D02*
X2221393Y1505020D01*
Y1508352D01*
X2223059Y1510018D01*
X2224725D01*
X2226392Y1508352D01*
Y1506686D01*
Y1508352D01*
X2228058Y1510018D01*
X2229724D01*
X2231390Y1508352D01*
Y1505020D01*
X2229724Y1503354D01*
X2189480Y1412888D02*
Y1408223D01*
X2191813Y1405890D01*
X2194145Y1408223D01*
Y1412888D01*
X2196478D02*
X2201143D01*
X2198810D01*
Y1405890D01*
X2208141D02*
X2203475D01*
X2208141Y1410555D01*
Y1411721D01*
X2206974Y1412888D01*
X2204642D01*
X2203475Y1411721D01*
X1691640Y1691018D02*
Y1686353D01*
X1693973Y1684020D01*
X1696305Y1686353D01*
Y1691018D01*
X1698638D02*
X1703303D01*
X1700970D01*
Y1684020D01*
X1705636D02*
X1707968D01*
X1706802D01*
Y1691018D01*
X1705636Y1689852D01*
X1635923Y1221740D02*
X1642588D01*
X1645920Y1225072D01*
X1642588Y1228404D01*
X1635923D01*
Y1231737D02*
X1645920D01*
Y1236735D01*
X1644254Y1238401D01*
X1637589D01*
X1635923Y1236735D01*
Y1231737D01*
X1645920Y1241734D02*
Y1245066D01*
Y1243400D01*
X1635923D01*
X1637589Y1241734D01*
X1635923Y1250064D02*
Y1256729D01*
X1637589D01*
X1644254Y1250064D01*
X1645920D01*
X1957692Y1375410D02*
X1962357D01*
X1964690Y1377743D01*
X1962357Y1380075D01*
X1957692D01*
Y1382408D02*
X1964690D01*
Y1385907D01*
X1963524Y1387073D01*
X1958858D01*
X1957692Y1385907D01*
Y1382408D01*
X1964690Y1389406D02*
Y1391738D01*
Y1390572D01*
X1957692D01*
X1958858Y1389406D01*
Y1395237D02*
X1957692Y1396403D01*
Y1398736D01*
X1958858Y1399902D01*
X1960025D01*
X1961191Y1398736D01*
Y1397569D01*
Y1398736D01*
X1962357Y1399902D01*
X1963524D01*
X1964690Y1398736D01*
Y1396403D01*
X1963524Y1395237D01*
X2166620Y1851497D02*
Y1844832D01*
X2169952Y1841500D01*
X2173284Y1844832D01*
Y1851497D01*
X2176617D02*
Y1841500D01*
X2181615D01*
X2183281Y1843166D01*
Y1849831D01*
X2181615Y1851497D01*
X2176617D01*
X2193278Y1841500D02*
X2186614D01*
X2193278Y1848165D01*
Y1849831D01*
X2191612Y1851497D01*
X2188280D01*
X2186614Y1849831D01*
X2196610Y1841500D02*
X2199943D01*
X2198277D01*
Y1851497D01*
X2196610Y1849831D01*
X1816659Y1310954D02*
X1814993Y1309288D01*
Y1305956D01*
X1816659Y1304290D01*
X1818326D01*
X1819992Y1305956D01*
Y1309288D01*
X1821658Y1310954D01*
X1823324D01*
X1824990Y1309288D01*
Y1305956D01*
X1823324Y1304290D01*
X1814993Y1314287D02*
X1824990D01*
Y1319285D01*
X1823324Y1320951D01*
X1821658D01*
X1819992Y1319285D01*
Y1314287D01*
Y1319285D01*
X1818326Y1320951D01*
X1816659D01*
X1814993Y1319285D01*
Y1314287D01*
X1824990Y1324284D02*
Y1327616D01*
Y1325950D01*
X1814993D01*
X1816659Y1324284D01*
X1822770Y1616710D02*
Y1623708D01*
X1826269D01*
X1827435Y1622542D01*
Y1620209D01*
X1826269Y1619043D01*
X1822770D01*
X1825103D02*
X1827435Y1616710D01*
X1834433Y1623708D02*
X1832100Y1622542D01*
X1829768Y1620209D01*
Y1617876D01*
X1830934Y1616710D01*
X1833267D01*
X1834433Y1617876D01*
Y1619043D01*
X1833267Y1620209D01*
X1829768D01*
X1836765Y1622542D02*
X1837932Y1623708D01*
X1840264D01*
X1841431Y1622542D01*
Y1621375D01*
X1840264Y1620209D01*
X1839098D01*
X1840264D01*
X1841431Y1619043D01*
Y1617876D01*
X1840264Y1616710D01*
X1837932D01*
X1836765Y1617876D01*
X2232660Y1464310D02*
Y1471308D01*
X2236159D01*
X2237325Y1470141D01*
Y1467809D01*
X2236159Y1466643D01*
X2232660D01*
X2234993D02*
X2237325Y1464310D01*
X2244323Y1471308D02*
X2241990Y1470141D01*
X2239658Y1467809D01*
Y1465476D01*
X2240824Y1464310D01*
X2243157D01*
X2244323Y1465476D01*
Y1466643D01*
X2243157Y1467809D01*
X2239658D01*
X2251321Y1464310D02*
X2246655D01*
X2251321Y1468975D01*
Y1470141D01*
X2250154Y1471308D01*
X2247822D01*
X2246655Y1470141D01*
X2233930Y1436370D02*
X2226932D01*
Y1439869D01*
X2228098Y1441035D01*
X2230431D01*
X2231597Y1439869D01*
Y1436370D01*
Y1438703D02*
X2233930Y1441035D01*
X2226932Y1448033D02*
X2228098Y1445700D01*
X2230431Y1443368D01*
X2232764D01*
X2233930Y1444534D01*
Y1446867D01*
X2232764Y1448033D01*
X2231597D01*
X2230431Y1446867D01*
Y1443368D01*
X2233930Y1450365D02*
Y1452698D01*
Y1451532D01*
X2226932D01*
X2228098Y1450365D01*
X1964690Y1409700D02*
X1957692D01*
Y1413199D01*
X1958858Y1414365D01*
X1961191D01*
X1962357Y1413199D01*
Y1409700D01*
Y1412033D02*
X1964690Y1414365D01*
X1957692Y1421363D02*
X1958858Y1419030D01*
X1961191Y1416698D01*
X1963524D01*
X1964690Y1417864D01*
Y1420197D01*
X1963524Y1421363D01*
X1962357D01*
X1961191Y1420197D01*
Y1416698D01*
X1958858Y1423696D02*
X1957692Y1424862D01*
Y1427194D01*
X1958858Y1428361D01*
X1963524D01*
X1964690Y1427194D01*
Y1424862D01*
X1963524Y1423696D01*
X1958858D01*
X1939290Y1333500D02*
X1932292D01*
Y1336999D01*
X1933459Y1338165D01*
X1935791D01*
X1936957Y1336999D01*
Y1333500D01*
Y1335833D02*
X1939290Y1338165D01*
X1932292Y1345163D02*
Y1340498D01*
X1935791D01*
X1934625Y1342830D01*
Y1343997D01*
X1935791Y1345163D01*
X1938124D01*
X1939290Y1343997D01*
Y1341664D01*
X1938124Y1340498D01*
Y1347496D02*
X1939290Y1348662D01*
Y1350994D01*
X1938124Y1352161D01*
X1933459D01*
X1932292Y1350994D01*
Y1348662D01*
X1933459Y1347496D01*
X1934625D01*
X1935791Y1348662D01*
Y1352161D01*
X2148840Y1497330D02*
Y1504328D01*
X2152339D01*
X2153505Y1503161D01*
Y1500829D01*
X2152339Y1499663D01*
X2148840D01*
X2151173D02*
X2153505Y1497330D01*
X2160503Y1504328D02*
X2155838D01*
Y1500829D01*
X2158170Y1501995D01*
X2159337D01*
X2160503Y1500829D01*
Y1498496D01*
X2159337Y1497330D01*
X2157004D01*
X2155838Y1498496D01*
X2162836Y1503161D02*
X2164002Y1504328D01*
X2166334D01*
X2167501Y1503161D01*
Y1501995D01*
X2166334Y1500829D01*
X2167501Y1499663D01*
Y1498496D01*
X2166334Y1497330D01*
X2164002D01*
X2162836Y1498496D01*
Y1499663D01*
X2164002Y1500829D01*
X2162836Y1501995D01*
Y1503161D01*
X2164002Y1500829D02*
X2166334D01*
X2139950Y1465580D02*
Y1472578D01*
X2143449D01*
X2144615Y1471411D01*
Y1469079D01*
X2143449Y1467913D01*
X2139950D01*
X2142283D02*
X2144615Y1465580D01*
X2151613Y1472578D02*
X2146948D01*
Y1469079D01*
X2149280Y1470245D01*
X2150447D01*
X2151613Y1469079D01*
Y1466746D01*
X2150447Y1465580D01*
X2148114D01*
X2146948Y1466746D01*
X2153945Y1472578D02*
X2158611D01*
Y1471411D01*
X2153945Y1466746D01*
Y1465580D01*
X1706880Y1732280D02*
X1699882D01*
Y1735779D01*
X1701048Y1736945D01*
X1703381D01*
X1704547Y1735779D01*
Y1732280D01*
Y1734613D02*
X1706880Y1736945D01*
X1699882Y1743943D02*
Y1739278D01*
X1703381D01*
X1702215Y1741610D01*
Y1742777D01*
X1703381Y1743943D01*
X1705714D01*
X1706880Y1742777D01*
Y1740444D01*
X1705714Y1739278D01*
X1699882Y1750941D02*
X1701048Y1748608D01*
X1703381Y1746275D01*
X1705714D01*
X1706880Y1747442D01*
Y1749774D01*
X1705714Y1750941D01*
X1704547D01*
X1703381Y1749774D01*
Y1746275D01*
X1783080Y1676400D02*
X1776082D01*
Y1679899D01*
X1777249Y1681065D01*
X1779581D01*
X1780747Y1679899D01*
Y1676400D01*
Y1678733D02*
X1783080Y1681065D01*
X1776082Y1688063D02*
Y1683398D01*
X1779581D01*
X1778415Y1685730D01*
Y1686897D01*
X1779581Y1688063D01*
X1781914D01*
X1783080Y1686897D01*
Y1684564D01*
X1781914Y1683398D01*
X1776082Y1695061D02*
Y1690396D01*
X1779581D01*
X1778415Y1692728D01*
Y1693894D01*
X1779581Y1695061D01*
X1781914D01*
X1783080Y1693894D01*
Y1691562D01*
X1781914Y1690396D01*
X1761490Y1664970D02*
X1754492D01*
Y1668469D01*
X1755659Y1669635D01*
X1757991D01*
X1759157Y1668469D01*
Y1664970D01*
Y1667303D02*
X1761490Y1669635D01*
X1754492Y1676633D02*
Y1671968D01*
X1757991D01*
X1756825Y1674300D01*
Y1675467D01*
X1757991Y1676633D01*
X1760324D01*
X1761490Y1675467D01*
Y1673134D01*
X1760324Y1671968D01*
X1761490Y1682464D02*
X1754492D01*
X1757991Y1678965D01*
Y1683631D01*
X1737360Y1666240D02*
X1730362D01*
Y1669739D01*
X1731528Y1670905D01*
X1733861D01*
X1735027Y1669739D01*
Y1666240D01*
Y1668573D02*
X1737360Y1670905D01*
X1730362Y1677903D02*
Y1673238D01*
X1733861D01*
X1732695Y1675570D01*
Y1676737D01*
X1733861Y1677903D01*
X1736194D01*
X1737360Y1676737D01*
Y1674404D01*
X1736194Y1673238D01*
X1731528Y1680235D02*
X1730362Y1681402D01*
Y1683734D01*
X1731528Y1684901D01*
X1732695D01*
X1733861Y1683734D01*
Y1682568D01*
Y1683734D01*
X1735027Y1684901D01*
X1736194D01*
X1737360Y1683734D01*
Y1681402D01*
X1736194Y1680235D01*
X1948180Y1346200D02*
Y1353198D01*
X1951679D01*
X1952845Y1352032D01*
Y1349699D01*
X1951679Y1348533D01*
X1948180D01*
X1950513D02*
X1952845Y1346200D01*
X1959843Y1353198D02*
X1955178D01*
Y1349699D01*
X1957510Y1350865D01*
X1958677D01*
X1959843Y1349699D01*
Y1347366D01*
X1958677Y1346200D01*
X1956344D01*
X1955178Y1347366D01*
X1966841Y1346200D02*
X1962175D01*
X1966841Y1350865D01*
Y1352032D01*
X1965674Y1353198D01*
X1963342D01*
X1962175Y1352032D01*
X1964690Y1443990D02*
X1957692D01*
Y1447489D01*
X1958858Y1448655D01*
X1961191D01*
X1962357Y1447489D01*
Y1443990D01*
Y1446323D02*
X1964690Y1448655D01*
Y1454487D02*
X1957692D01*
X1961191Y1450988D01*
Y1455653D01*
X1957692Y1462651D02*
Y1457986D01*
X1961191D01*
X1960025Y1460318D01*
Y1461484D01*
X1961191Y1462651D01*
X1963524D01*
X1964690Y1461484D01*
Y1459152D01*
X1963524Y1457986D01*
X2272030Y1732280D02*
X2265032D01*
Y1735779D01*
X2266198Y1736945D01*
X2268531D01*
X2269697Y1735779D01*
Y1732280D01*
Y1734613D02*
X2272030Y1736945D01*
Y1742777D02*
X2265032D01*
X2268531Y1739278D01*
Y1743943D01*
X2266198Y1746275D02*
X2265032Y1747442D01*
Y1749774D01*
X2266198Y1750941D01*
X2267365D01*
X2268531Y1749774D01*
Y1748608D01*
Y1749774D01*
X2269697Y1750941D01*
X2270864D01*
X2272030Y1749774D01*
Y1747442D01*
X2270864Y1746275D01*
X2127250Y1634490D02*
X2120252D01*
Y1637989D01*
X2121418Y1639155D01*
X2123751D01*
X2124917Y1637989D01*
Y1634490D01*
Y1636823D02*
X2127250Y1639155D01*
Y1644987D02*
X2120252D01*
X2123751Y1641488D01*
Y1646153D01*
X2127250Y1653151D02*
Y1648486D01*
X2122585Y1653151D01*
X2121418D01*
X2120252Y1651984D01*
Y1649652D01*
X2121418Y1648486D01*
X2156460Y1633220D02*
X2149462D01*
Y1636719D01*
X2150629Y1637885D01*
X2152961D01*
X2154127Y1636719D01*
Y1633220D01*
Y1635553D02*
X2156460Y1637885D01*
Y1643717D02*
X2149462D01*
X2152961Y1640218D01*
Y1644883D01*
X2156460Y1647216D02*
Y1649548D01*
Y1648382D01*
X2149462D01*
X2150629Y1647216D01*
X2106930Y1841500D02*
Y1851497D01*
X2111928D01*
X2113595Y1849831D01*
Y1846498D01*
X2111928Y1844832D01*
X2106930D01*
X2110262D02*
X2113595Y1841500D01*
X2121925D02*
Y1851497D01*
X2116927Y1846498D01*
X2123591D01*
X2126924Y1849831D02*
X2128590Y1851497D01*
X2131922D01*
X2133588Y1849831D01*
Y1843166D01*
X2131922Y1841500D01*
X2128590D01*
X2126924Y1843166D01*
Y1849831D01*
X2216150Y1840230D02*
Y1850227D01*
X2221148D01*
X2222814Y1848561D01*
Y1845228D01*
X2221148Y1843562D01*
X2216150D01*
X2219482D02*
X2222814Y1840230D01*
X2226147Y1848561D02*
X2227813Y1850227D01*
X2231145D01*
X2232811Y1848561D01*
Y1846895D01*
X2231145Y1845228D01*
X2229479D01*
X2231145D01*
X2232811Y1843562D01*
Y1841896D01*
X2231145Y1840230D01*
X2227813D01*
X2226147Y1841896D01*
X2236144Y1848561D02*
X2237810Y1850227D01*
X2241142D01*
X2242808Y1848561D01*
Y1846895D01*
X2241142Y1845228D01*
X2242808Y1843562D01*
Y1841896D01*
X2241142Y1840230D01*
X2237810D01*
X2236144Y1841896D01*
Y1843562D01*
X2237810Y1845228D01*
X2236144Y1846895D01*
Y1848561D01*
X2237810Y1845228D02*
X2241142D01*
X1824040Y1562910D02*
Y1569908D01*
X1827539D01*
X1828705Y1568741D01*
Y1566409D01*
X1827539Y1565243D01*
X1824040D01*
X1826373D02*
X1828705Y1562910D01*
X1831038Y1568741D02*
X1832204Y1569908D01*
X1834537D01*
X1835703Y1568741D01*
Y1567575D01*
X1834537Y1566409D01*
X1833370D01*
X1834537D01*
X1835703Y1565243D01*
Y1564076D01*
X1834537Y1562910D01*
X1832204D01*
X1831038Y1564076D01*
X1838035Y1569908D02*
X1842701D01*
Y1568741D01*
X1838035Y1564076D01*
Y1562910D01*
X1897380Y1666240D02*
Y1673238D01*
X1900879D01*
X1902045Y1672072D01*
Y1669739D01*
X1900879Y1668573D01*
X1897380D01*
X1899713D02*
X1902045Y1666240D01*
X1904378Y1672072D02*
X1905544Y1673238D01*
X1907877D01*
X1909043Y1672072D01*
Y1670905D01*
X1907877Y1669739D01*
X1906710D01*
X1907877D01*
X1909043Y1668573D01*
Y1667406D01*
X1907877Y1666240D01*
X1905544D01*
X1904378Y1667406D01*
X1916041Y1673238D02*
X1913708Y1672072D01*
X1911375Y1669739D01*
Y1667406D01*
X1912542Y1666240D01*
X1914874D01*
X1916041Y1667406D01*
Y1668573D01*
X1914874Y1669739D01*
X1911375D01*
X2072640Y1828800D02*
X2065642D01*
Y1832299D01*
X2066808Y1833465D01*
X2069141D01*
X2070307Y1832299D01*
Y1828800D01*
Y1831133D02*
X2072640Y1833465D01*
X2066808Y1835798D02*
X2065642Y1836964D01*
Y1839297D01*
X2066808Y1840463D01*
X2067975D01*
X2069141Y1839297D01*
Y1838130D01*
Y1839297D01*
X2070307Y1840463D01*
X2071474D01*
X2072640Y1839297D01*
Y1836964D01*
X2071474Y1835798D01*
X2065642Y1847461D02*
Y1842796D01*
X2069141D01*
X2067975Y1845128D01*
Y1846294D01*
X2069141Y1847461D01*
X2071474D01*
X2072640Y1846294D01*
Y1843962D01*
X2071474Y1842796D01*
X1936750Y1653540D02*
X1929752D01*
Y1657039D01*
X1930918Y1658205D01*
X1933251D01*
X1934417Y1657039D01*
Y1653540D01*
Y1655873D02*
X1936750Y1658205D01*
X1930918Y1660538D02*
X1929752Y1661704D01*
Y1664037D01*
X1930918Y1665203D01*
X1932085D01*
X1933251Y1664037D01*
Y1662870D01*
Y1664037D01*
X1934417Y1665203D01*
X1935584D01*
X1936750Y1664037D01*
Y1661704D01*
X1935584Y1660538D01*
X1936750Y1671034D02*
X1929752D01*
X1933251Y1667536D01*
Y1672201D01*
X2056130Y1828800D02*
X2049132D01*
Y1832299D01*
X2050298Y1833465D01*
X2052631D01*
X2053797Y1832299D01*
Y1828800D01*
Y1831133D02*
X2056130Y1833465D01*
X2050298Y1835798D02*
X2049132Y1836964D01*
Y1839297D01*
X2050298Y1840463D01*
X2051465D01*
X2052631Y1839297D01*
Y1838130D01*
Y1839297D01*
X2053797Y1840463D01*
X2054964D01*
X2056130Y1839297D01*
Y1836964D01*
X2054964Y1835798D01*
X2056130Y1847461D02*
Y1842796D01*
X2051465Y1847461D01*
X2050298D01*
X2049132Y1846294D01*
Y1843962D01*
X2050298Y1842796D01*
X1847850Y1493520D02*
Y1500518D01*
X1851349D01*
X1852515Y1499352D01*
Y1497019D01*
X1851349Y1495853D01*
X1847850D01*
X1850183D02*
X1852515Y1493520D01*
X1854848Y1499352D02*
X1856014Y1500518D01*
X1858347D01*
X1859513Y1499352D01*
Y1498185D01*
X1858347Y1497019D01*
X1857180D01*
X1858347D01*
X1859513Y1495853D01*
Y1494686D01*
X1858347Y1493520D01*
X1856014D01*
X1854848Y1494686D01*
X1861846Y1493520D02*
X1864178D01*
X1863012D01*
Y1500518D01*
X1861846Y1499352D01*
X1889760Y1709420D02*
Y1716418D01*
X1893259D01*
X1894425Y1715251D01*
Y1712919D01*
X1893259Y1711753D01*
X1889760D01*
X1892093D02*
X1894425Y1709420D01*
X1896758Y1715251D02*
X1897924Y1716418D01*
X1900257D01*
X1901423Y1715251D01*
Y1714085D01*
X1900257Y1712919D01*
X1899090D01*
X1900257D01*
X1901423Y1711753D01*
Y1710586D01*
X1900257Y1709420D01*
X1897924D01*
X1896758Y1710586D01*
X1903755Y1715251D02*
X1904922Y1716418D01*
X1907254D01*
X1908421Y1715251D01*
Y1710586D01*
X1907254Y1709420D01*
X1904922D01*
X1903755Y1710586D01*
Y1715251D01*
X2082800Y1512570D02*
Y1519568D01*
X2086299D01*
X2087465Y1518401D01*
Y1516069D01*
X2086299Y1514903D01*
X2082800D01*
X2085133D02*
X2087465Y1512570D01*
X2094463D02*
X2089798D01*
X2094463Y1517235D01*
Y1518401D01*
X2093297Y1519568D01*
X2090964D01*
X2089798Y1518401D01*
X2096796Y1513736D02*
X2097962Y1512570D01*
X2100294D01*
X2101461Y1513736D01*
Y1518401D01*
X2100294Y1519568D01*
X2097962D01*
X2096796Y1518401D01*
Y1517235D01*
X2097962Y1516069D01*
X2101461D01*
X1988820Y1708150D02*
Y1715148D01*
X1992319D01*
X1993485Y1713981D01*
Y1711649D01*
X1992319Y1710483D01*
X1988820D01*
X1991153D02*
X1993485Y1708150D01*
X2000483D02*
X1995818D01*
X2000483Y1712815D01*
Y1713981D01*
X1999317Y1715148D01*
X1996984D01*
X1995818Y1713981D01*
X2002816D02*
X2003982Y1715148D01*
X2006314D01*
X2007481Y1713981D01*
Y1712815D01*
X2006314Y1711649D01*
X2007481Y1710483D01*
Y1709316D01*
X2006314Y1708150D01*
X2003982D01*
X2002816Y1709316D01*
Y1710483D01*
X2003982Y1711649D01*
X2002816Y1712815D01*
Y1713981D01*
X2003982Y1711649D02*
X2006314D01*
X2020570Y1708150D02*
Y1715148D01*
X2024069D01*
X2025235Y1713981D01*
Y1711649D01*
X2024069Y1710483D01*
X2020570D01*
X2022903D02*
X2025235Y1708150D01*
X2032233D02*
X2027568D01*
X2032233Y1712815D01*
Y1713981D01*
X2031067Y1715148D01*
X2028734D01*
X2027568Y1713981D01*
X2034565Y1715148D02*
X2039231D01*
Y1713981D01*
X2034565Y1709316D01*
Y1708150D01*
X1999300Y1662200D02*
Y1669198D01*
X2002799D01*
X2003965Y1668031D01*
Y1665699D01*
X2002799Y1664533D01*
X1999300D01*
X2001633D02*
X2003965Y1662200D01*
X2010963D02*
X2006298D01*
X2010963Y1666865D01*
Y1668031D01*
X2009797Y1669198D01*
X2007464D01*
X2006298Y1668031D01*
X2017961Y1669198D02*
X2015628Y1668031D01*
X2013295Y1665699D01*
Y1663366D01*
X2014462Y1662200D01*
X2016794D01*
X2017961Y1663366D01*
Y1664533D01*
X2016794Y1665699D01*
X2013295D01*
X2020890Y1628140D02*
Y1635138D01*
X2024389D01*
X2025555Y1633972D01*
Y1631639D01*
X2024389Y1630473D01*
X2020890D01*
X2023223D02*
X2025555Y1628140D01*
X2032553D02*
X2027888D01*
X2032553Y1632805D01*
Y1633972D01*
X2031387Y1635138D01*
X2029054D01*
X2027888Y1633972D01*
X2039551Y1635138D02*
X2034886D01*
Y1631639D01*
X2037218Y1632805D01*
X2038384D01*
X2039551Y1631639D01*
Y1629306D01*
X2038384Y1628140D01*
X2036052D01*
X2034886Y1629306D01*
X2112330Y1551940D02*
Y1558938D01*
X2115829D01*
X2116995Y1557771D01*
Y1555439D01*
X2115829Y1554273D01*
X2112330D01*
X2114663D02*
X2116995Y1551940D01*
X2123993D02*
X2119328D01*
X2123993Y1556605D01*
Y1557771D01*
X2122827Y1558938D01*
X2120494D01*
X2119328Y1557771D01*
X2126326D02*
X2127492Y1558938D01*
X2129824D01*
X2130991Y1557771D01*
Y1556605D01*
X2129824Y1555439D01*
X2128658D01*
X2129824D01*
X2130991Y1554273D01*
Y1553106D01*
X2129824Y1551940D01*
X2127492D01*
X2126326Y1553106D01*
X2110420Y1574800D02*
Y1581798D01*
X2113919D01*
X2115085Y1580632D01*
Y1578299D01*
X2113919Y1577133D01*
X2110420D01*
X2112753D02*
X2115085Y1574800D01*
X2122083D02*
X2117418D01*
X2122083Y1579465D01*
Y1580632D01*
X2120917Y1581798D01*
X2118584D01*
X2117418Y1580632D01*
X2129081Y1574800D02*
X2124415D01*
X2129081Y1579465D01*
Y1580632D01*
X2127914Y1581798D01*
X2125582D01*
X2124415Y1580632D01*
X2111690Y1593850D02*
Y1600848D01*
X2115189D01*
X2116355Y1599682D01*
Y1597349D01*
X2115189Y1596183D01*
X2111690D01*
X2114023D02*
X2116355Y1593850D01*
X2123353D02*
X2118688D01*
X2123353Y1598515D01*
Y1599682D01*
X2122187Y1600848D01*
X2119854D01*
X2118688Y1599682D01*
X2125685Y1593850D02*
X2128018D01*
X2126852D01*
Y1600848D01*
X2125685Y1599682D01*
X2110420Y1615440D02*
Y1622438D01*
X2113919D01*
X2115085Y1621272D01*
Y1618939D01*
X2113919Y1617773D01*
X2110420D01*
X2112753D02*
X2115085Y1615440D01*
X2122083D02*
X2117418D01*
X2122083Y1620105D01*
Y1621272D01*
X2120917Y1622438D01*
X2118584D01*
X2117418Y1621272D01*
X2124415D02*
X2125582Y1622438D01*
X2127914D01*
X2129081Y1621272D01*
Y1616606D01*
X2127914Y1615440D01*
X2125582D01*
X2124415Y1616606D01*
Y1621272D01*
X2019300Y1543050D02*
Y1550048D01*
X2022799D01*
X2023965Y1548882D01*
Y1546549D01*
X2022799Y1545383D01*
X2019300D01*
X2021633D02*
X2023965Y1543050D01*
X2026298D02*
X2028630D01*
X2027464D01*
Y1550048D01*
X2026298Y1548882D01*
X2032129D02*
X2033295Y1550048D01*
X2035628D01*
X2036794Y1548882D01*
Y1547715D01*
X2035628Y1546549D01*
X2036794Y1545383D01*
Y1544216D01*
X2035628Y1543050D01*
X2033295D01*
X2032129Y1544216D01*
Y1545383D01*
X2033295Y1546549D01*
X2032129Y1547715D01*
Y1548882D01*
X2033295Y1546549D02*
X2035628D01*
X2022160Y1565910D02*
Y1572908D01*
X2025659D01*
X2026825Y1571741D01*
Y1569409D01*
X2025659Y1568243D01*
X2022160D01*
X2024493D02*
X2026825Y1565910D01*
X2029158D02*
X2031490D01*
X2030324D01*
Y1572908D01*
X2029158Y1571741D01*
X2034989Y1572908D02*
X2039654D01*
Y1571741D01*
X2034989Y1567076D01*
Y1565910D01*
X2020570Y1587500D02*
Y1594498D01*
X2024069D01*
X2025235Y1593331D01*
Y1590999D01*
X2024069Y1589833D01*
X2020570D01*
X2022903D02*
X2025235Y1587500D01*
X2027568D02*
X2029900D01*
X2028734D01*
Y1594498D01*
X2027568Y1593331D01*
X2038064Y1594498D02*
X2035732Y1593331D01*
X2033399Y1590999D01*
Y1588666D01*
X2034565Y1587500D01*
X2036898D01*
X2038064Y1588666D01*
Y1589833D01*
X2036898Y1590999D01*
X2033399D01*
X2020890Y1606550D02*
Y1613548D01*
X2024389D01*
X2025555Y1612381D01*
Y1610049D01*
X2024389Y1608883D01*
X2020890D01*
X2023223D02*
X2025555Y1606550D01*
X2027888D02*
X2030220D01*
X2029054D01*
Y1613548D01*
X2027888Y1612381D01*
X2038384Y1613548D02*
X2033719D01*
Y1610049D01*
X2036052Y1611215D01*
X2037218D01*
X2038384Y1610049D01*
Y1607716D01*
X2037218Y1606550D01*
X2034886D01*
X2033719Y1607716D01*
X2254250Y1528917D02*
Y1518920D01*
X2260914D01*
X2264247Y1527251D02*
X2265913Y1528917D01*
X2269245D01*
X2270911Y1527251D01*
Y1525585D01*
X2269245Y1523918D01*
X2270911Y1522252D01*
Y1520586D01*
X2269245Y1518920D01*
X2265913D01*
X2264247Y1520586D01*
Y1522252D01*
X2265913Y1523918D01*
X2264247Y1525585D01*
Y1527251D01*
X2265913Y1523918D02*
X2269245D01*
X1750060Y1360007D02*
Y1350010D01*
X1756725D01*
X1760057Y1360007D02*
X1766721D01*
Y1358341D01*
X1760057Y1351676D01*
Y1350010D01*
X1770252Y1220470D02*
X1777250D01*
Y1225135D01*
X1770252Y1232133D02*
X1771419Y1229800D01*
X1773751Y1227468D01*
X1776084D01*
X1777250Y1228634D01*
Y1230967D01*
X1776084Y1232133D01*
X1774917D01*
X1773751Y1230967D01*
Y1227468D01*
X1622412Y1192530D02*
X1629410D01*
Y1197195D01*
X1622412Y1204193D02*
Y1199528D01*
X1625911D01*
X1624745Y1201860D01*
Y1203027D01*
X1625911Y1204193D01*
X1628244D01*
X1629410Y1203027D01*
Y1200694D01*
X1628244Y1199528D01*
X2279002Y1408430D02*
X2286000D01*
Y1413095D01*
Y1420093D02*
Y1415428D01*
X2281335Y1420093D01*
X2280168D01*
X2279002Y1418927D01*
Y1416594D01*
X2280168Y1415428D01*
X2167179Y1567495D02*
X2165513Y1565828D01*
Y1562496D01*
X2167179Y1560830D01*
X2173844D01*
X2175510Y1562496D01*
Y1565828D01*
X2173844Y1567495D01*
X2170512D01*
Y1564162D01*
X2175510Y1577491D02*
Y1570827D01*
X2168846Y1577491D01*
X2167179D01*
X2165513Y1575825D01*
Y1572493D01*
X2167179Y1570827D01*
X1617269Y1562415D02*
X1615603Y1560748D01*
Y1557416D01*
X1617269Y1555750D01*
X1623934D01*
X1625600Y1557416D01*
Y1560748D01*
X1623934Y1562415D01*
X1620602D01*
Y1559082D01*
X1625600Y1565747D02*
Y1569079D01*
Y1567413D01*
X1615603D01*
X1617269Y1565747D01*
X1990090Y1424777D02*
Y1414780D01*
X1995088D01*
X1996754Y1416446D01*
Y1423111D01*
X1995088Y1424777D01*
X1990090D01*
X2000087D02*
Y1414780D01*
X2005085D01*
X2006751Y1416446D01*
Y1423111D01*
X2005085Y1424777D01*
X2000087D01*
X2010084Y1414780D02*
X2013416D01*
X2011750D01*
Y1424777D01*
X2010084Y1423111D01*
X2253602Y1682750D02*
X2260600D01*
Y1686249D01*
X2259434Y1687415D01*
X2254769D01*
X2253602Y1686249D01*
Y1682750D01*
Y1689748D02*
X2260600D01*
Y1693247D01*
X2259434Y1694413D01*
X2254769D01*
X2253602Y1693247D01*
Y1689748D01*
X2260600Y1700244D02*
X2253602D01*
X2257101Y1696745D01*
Y1701411D01*
X2136303Y1729740D02*
X2146300D01*
Y1734738D01*
X2144634Y1736405D01*
X2137969D01*
X2136303Y1734738D01*
Y1729740D01*
Y1739737D02*
X2146300D01*
Y1744735D01*
X2144634Y1746401D01*
X2137969D01*
X2136303Y1744735D01*
Y1739737D01*
X2137969Y1749734D02*
X2136303Y1751400D01*
Y1754732D01*
X2137969Y1756398D01*
X2139635D01*
X2141302Y1754732D01*
Y1753066D01*
Y1754732D01*
X2142968Y1756398D01*
X2144634D01*
X2146300Y1754732D01*
Y1751400D01*
X2144634Y1749734D01*
X2099310Y1730847D02*
Y1720850D01*
X2104308D01*
X2105974Y1722516D01*
Y1729181D01*
X2104308Y1730847D01*
X2099310D01*
X2109307D02*
Y1720850D01*
X2114305D01*
X2115971Y1722516D01*
Y1729181D01*
X2114305Y1730847D01*
X2109307D01*
X2125968Y1720850D02*
X2119304D01*
X2125968Y1727514D01*
Y1729181D01*
X2124302Y1730847D01*
X2120970D01*
X2119304Y1729181D01*
X1874520Y1620357D02*
Y1610360D01*
X1879518D01*
X1881185Y1612026D01*
Y1618691D01*
X1879518Y1620357D01*
X1874520D01*
X1884517D02*
Y1610360D01*
X1889515D01*
X1891181Y1612026D01*
Y1618691D01*
X1889515Y1620357D01*
X1884517D01*
X1901178D02*
X1894514D01*
Y1615358D01*
X1897846Y1617025D01*
X1899512D01*
X1901178Y1615358D01*
Y1612026D01*
X1899512Y1610360D01*
X1896180D01*
X1894514Y1612026D01*
X1816100Y1640677D02*
Y1630680D01*
X1821098D01*
X1822764Y1632346D01*
Y1639011D01*
X1821098Y1640677D01*
X1816100D01*
X1826097Y1630680D02*
Y1637345D01*
X1829429Y1640677D01*
X1832761Y1637345D01*
Y1630680D01*
Y1635678D01*
X1826097D01*
X1841092Y1630680D02*
Y1640677D01*
X1836094Y1635678D01*
X1842758D01*
X1733550Y1747357D02*
Y1737360D01*
X1738548D01*
X1740215Y1739026D01*
Y1745691D01*
X1738548Y1747357D01*
X1733550D01*
X1743547Y1737360D02*
Y1744025D01*
X1746879Y1747357D01*
X1750211Y1744025D01*
Y1737360D01*
Y1742358D01*
X1743547D01*
X1753544Y1745691D02*
X1755210Y1747357D01*
X1758542D01*
X1760208Y1745691D01*
Y1744025D01*
X1758542Y1742358D01*
X1756876D01*
X1758542D01*
X1760208Y1740692D01*
Y1739026D01*
X1758542Y1737360D01*
X1755210D01*
X1753544Y1739026D01*
X1878330Y1216278D02*
Y1209280D01*
X1881829D01*
X1882995Y1210446D01*
Y1215111D01*
X1881829Y1216278D01*
X1878330D01*
X1885328Y1209280D02*
Y1213945D01*
X1887660Y1216278D01*
X1889993Y1213945D01*
Y1209280D01*
Y1212779D01*
X1885328D01*
X1896991Y1209280D02*
X1892325D01*
X1896991Y1213945D01*
Y1215111D01*
X1895824Y1216278D01*
X1893492D01*
X1892325Y1215111D01*
X1802130Y1283807D02*
Y1273810D01*
X1807128D01*
X1808795Y1275476D01*
Y1282141D01*
X1807128Y1283807D01*
X1802130D01*
X1812127Y1273810D02*
Y1280475D01*
X1815459Y1283807D01*
X1818791Y1280475D01*
Y1273810D01*
Y1278808D01*
X1812127D01*
X1822124Y1273810D02*
X1825456D01*
X1823790D01*
Y1283807D01*
X1822124Y1282141D01*
X1864879Y1747105D02*
X1863712Y1745939D01*
Y1743606D01*
X1864879Y1742440D01*
X1869544D01*
X1870710Y1743606D01*
Y1745939D01*
X1869544Y1747105D01*
X1863712Y1754103D02*
X1864879Y1751770D01*
X1867211Y1749438D01*
X1869544D01*
X1870710Y1750604D01*
Y1752937D01*
X1869544Y1754103D01*
X1868377D01*
X1867211Y1752937D01*
Y1749438D01*
X1863712Y1756436D02*
Y1761101D01*
X1864879D01*
X1869544Y1756436D01*
X1870710D01*
X1858528Y1773775D02*
X1857362Y1772609D01*
Y1770276D01*
X1858528Y1769110D01*
X1863194D01*
X1864360Y1770276D01*
Y1772609D01*
X1863194Y1773775D01*
X1857362Y1780773D02*
X1858528Y1778440D01*
X1860861Y1776108D01*
X1863194D01*
X1864360Y1777274D01*
Y1779607D01*
X1863194Y1780773D01*
X1862027D01*
X1860861Y1779607D01*
Y1776108D01*
X1857362Y1787771D02*
X1858528Y1785438D01*
X1860861Y1783105D01*
X1863194D01*
X1864360Y1784272D01*
Y1786604D01*
X1863194Y1787771D01*
X1862027D01*
X1860861Y1786604D01*
Y1783105D01*
X1856325Y1640322D02*
X1855159Y1641488D01*
X1852826D01*
X1851660Y1640322D01*
Y1635656D01*
X1852826Y1634490D01*
X1855159D01*
X1856325Y1635656D01*
X1863323Y1641488D02*
X1860990Y1640322D01*
X1858658Y1637989D01*
Y1635656D01*
X1859824Y1634490D01*
X1862157D01*
X1863323Y1635656D01*
Y1636823D01*
X1862157Y1637989D01*
X1858658D01*
X1869154Y1634490D02*
Y1641488D01*
X1865656Y1637989D01*
X1870321D01*
X1786145Y1736841D02*
X1784979Y1738008D01*
X1782646D01*
X1781480Y1736841D01*
Y1732176D01*
X1782646Y1731010D01*
X1784979D01*
X1786145Y1732176D01*
X1793143Y1738008D02*
X1790810Y1736841D01*
X1788478Y1734509D01*
Y1732176D01*
X1789644Y1731010D01*
X1791977D01*
X1793143Y1732176D01*
Y1733342D01*
X1791977Y1734509D01*
X1788478D01*
X1795475Y1736841D02*
X1796642Y1738008D01*
X1798974D01*
X1800141Y1736841D01*
Y1735675D01*
X1798974Y1734509D01*
X1797808D01*
X1798974D01*
X1800141Y1733342D01*
Y1732176D01*
X1798974Y1731010D01*
X1796642D01*
X1795475Y1732176D01*
X2151898Y1536605D02*
X2150732Y1535439D01*
Y1533106D01*
X2151898Y1531940D01*
X2156564D01*
X2157730Y1533106D01*
Y1535439D01*
X2156564Y1536605D01*
X2150732Y1543603D02*
X2151898Y1541270D01*
X2154231Y1538938D01*
X2156564D01*
X2157730Y1540104D01*
Y1542437D01*
X2156564Y1543603D01*
X2155397D01*
X2154231Y1542437D01*
Y1538938D01*
X2157730Y1545936D02*
Y1548268D01*
Y1547102D01*
X2150732D01*
X2151898Y1545936D01*
X2252565Y1494272D02*
X2251399Y1495438D01*
X2249066D01*
X2247900Y1494272D01*
Y1489606D01*
X2249066Y1488440D01*
X2251399D01*
X2252565Y1489606D01*
X2259563Y1495438D02*
X2257230Y1494272D01*
X2254898Y1491939D01*
Y1489606D01*
X2256064Y1488440D01*
X2258397D01*
X2259563Y1489606D01*
Y1490773D01*
X2258397Y1491939D01*
X2254898D01*
X2261895Y1494272D02*
X2263062Y1495438D01*
X2265394D01*
X2266561Y1494272D01*
Y1489606D01*
X2265394Y1488440D01*
X2263062D01*
X2261895Y1489606D01*
Y1494272D01*
X1757995Y1556461D02*
X1756328Y1558127D01*
X1752996D01*
X1751330Y1556461D01*
Y1549796D01*
X1752996Y1548130D01*
X1756328D01*
X1757995Y1549796D01*
X1767991Y1558127D02*
X1761327D01*
Y1553128D01*
X1764659Y1554794D01*
X1766325D01*
X1767991Y1553128D01*
Y1549796D01*
X1766325Y1548130D01*
X1762993D01*
X1761327Y1549796D01*
X1771324D02*
X1772990Y1548130D01*
X1776322D01*
X1777988Y1549796D01*
Y1556461D01*
X1776322Y1558127D01*
X1772990D01*
X1771324Y1556461D01*
Y1554794D01*
X1772990Y1553128D01*
X1777988D01*
X1663285Y1675882D02*
X1662119Y1677048D01*
X1659786D01*
X1658620Y1675882D01*
Y1671216D01*
X1659786Y1670050D01*
X1662119D01*
X1663285Y1671216D01*
X1670283Y1677048D02*
X1665618D01*
Y1673549D01*
X1667950Y1674715D01*
X1669117D01*
X1670283Y1673549D01*
Y1671216D01*
X1669117Y1670050D01*
X1666784D01*
X1665618Y1671216D01*
X1672616Y1675882D02*
X1673782Y1677048D01*
X1676114D01*
X1677281Y1675882D01*
Y1674715D01*
X1676114Y1673549D01*
X1677281Y1672383D01*
Y1671216D01*
X1676114Y1670050D01*
X1673782D01*
X1672616Y1671216D01*
Y1672383D01*
X1673782Y1673549D01*
X1672616Y1674715D01*
Y1675882D01*
X1673782Y1673549D02*
X1676114D01*
X1763615Y1263131D02*
X1762449Y1264298D01*
X1760116D01*
X1758950Y1263131D01*
Y1258466D01*
X1760116Y1257300D01*
X1762449D01*
X1763615Y1258466D01*
X1770613Y1264298D02*
X1765948D01*
Y1260799D01*
X1768280Y1261965D01*
X1769447D01*
X1770613Y1260799D01*
Y1258466D01*
X1769447Y1257300D01*
X1767114D01*
X1765948Y1258466D01*
X1772946Y1264298D02*
X1777611D01*
Y1263131D01*
X1772946Y1258466D01*
Y1257300D01*
X1658525Y1263131D02*
X1657359Y1264298D01*
X1655026D01*
X1653860Y1263131D01*
Y1258466D01*
X1655026Y1257300D01*
X1657359D01*
X1658525Y1258466D01*
X1665523Y1264298D02*
X1660858D01*
Y1260799D01*
X1663190Y1261965D01*
X1664357D01*
X1665523Y1260799D01*
Y1258466D01*
X1664357Y1257300D01*
X1662024D01*
X1660858Y1258466D01*
X1672521Y1264298D02*
X1670188Y1263131D01*
X1667856Y1260799D01*
Y1258466D01*
X1669022Y1257300D01*
X1671354D01*
X1672521Y1258466D01*
Y1259633D01*
X1671354Y1260799D01*
X1667856D01*
X1621079Y1267775D02*
X1619413Y1266108D01*
Y1262776D01*
X1621079Y1261110D01*
X1627744D01*
X1629410Y1262776D01*
Y1266108D01*
X1627744Y1267775D01*
X1619413Y1277771D02*
Y1271107D01*
X1624412D01*
X1622746Y1274439D01*
Y1276105D01*
X1624412Y1277771D01*
X1627744D01*
X1629410Y1276105D01*
Y1272773D01*
X1627744Y1271107D01*
X1629410Y1286102D02*
X1619413D01*
X1624412Y1281104D01*
Y1287768D01*
X1952029Y1323725D02*
X1950862Y1322559D01*
Y1320226D01*
X1952029Y1319060D01*
X1956694D01*
X1957860Y1320226D01*
Y1322559D01*
X1956694Y1323725D01*
X1957860Y1329557D02*
X1950862D01*
X1954361Y1326058D01*
Y1330723D01*
X1950862Y1337721D02*
X1952029Y1335388D01*
X1954361Y1333056D01*
X1956694D01*
X1957860Y1334222D01*
Y1336555D01*
X1956694Y1337721D01*
X1955527D01*
X1954361Y1336555D01*
Y1333056D01*
X2211925Y1665721D02*
X2210759Y1666888D01*
X2208426D01*
X2207260Y1665721D01*
Y1661056D01*
X2208426Y1659890D01*
X2210759D01*
X2211925Y1661056D01*
X2217757Y1659890D02*
Y1666888D01*
X2214258Y1663389D01*
X2218923D01*
X2225921Y1659890D02*
X2221255D01*
X2225921Y1664555D01*
Y1665721D01*
X2224754Y1666888D01*
X2222422D01*
X2221255Y1665721D01*
X2266198Y1769965D02*
X2265032Y1768799D01*
Y1766466D01*
X2266198Y1765300D01*
X2270864D01*
X2272030Y1766466D01*
Y1768799D01*
X2270864Y1769965D01*
X2272030Y1775797D02*
X2265032D01*
X2268531Y1772298D01*
Y1776963D01*
X2272030Y1779296D02*
Y1781628D01*
Y1780462D01*
X2265032D01*
X2266198Y1779296D01*
X2121418Y1771555D02*
X2120252Y1770389D01*
Y1768056D01*
X2121418Y1766890D01*
X2126084D01*
X2127250Y1768056D01*
Y1770389D01*
X2126084Y1771555D01*
X2127250Y1777387D02*
X2120252D01*
X2123751Y1773888D01*
Y1778553D01*
X2121418Y1780885D02*
X2120252Y1782052D01*
Y1784384D01*
X2121418Y1785551D01*
X2126084D01*
X2127250Y1784384D01*
Y1782052D01*
X2126084Y1780885D01*
X2121418D01*
X2078239Y1687735D02*
X2077072Y1686569D01*
Y1684236D01*
X2078239Y1683070D01*
X2082904D01*
X2084070Y1684236D01*
Y1686569D01*
X2082904Y1687735D01*
X2078239Y1690068D02*
X2077072Y1691234D01*
Y1693567D01*
X2078239Y1694733D01*
X2079405D01*
X2080571Y1693567D01*
Y1692400D01*
Y1693567D01*
X2081737Y1694733D01*
X2082904D01*
X2084070Y1693567D01*
Y1691234D01*
X2082904Y1690068D01*
X2078239Y1697065D02*
X2077072Y1698232D01*
Y1700564D01*
X2078239Y1701731D01*
X2079405D01*
X2080571Y1700564D01*
X2081737Y1701731D01*
X2082904D01*
X2084070Y1700564D01*
Y1698232D01*
X2082904Y1697065D01*
X2081737D01*
X2080571Y1698232D01*
X2079405Y1697065D01*
X2078239D01*
X2080571Y1698232D02*
Y1700564D01*
X1827435Y1602222D02*
X1826269Y1603388D01*
X1823936D01*
X1822770Y1602222D01*
Y1597556D01*
X1823936Y1596390D01*
X1826269D01*
X1827435Y1597556D01*
X1829768Y1602222D02*
X1830934Y1603388D01*
X1833267D01*
X1834433Y1602222D01*
Y1601055D01*
X1833267Y1599889D01*
X1832100D01*
X1833267D01*
X1834433Y1598723D01*
Y1597556D01*
X1833267Y1596390D01*
X1830934D01*
X1829768Y1597556D01*
X1836765Y1603388D02*
X1841431D01*
Y1602222D01*
X1836765Y1597556D01*
Y1596390D01*
X1828705Y1585712D02*
X1827539Y1586878D01*
X1825206D01*
X1824040Y1585712D01*
Y1581046D01*
X1825206Y1579880D01*
X1827539D01*
X1828705Y1581046D01*
X1831038Y1585712D02*
X1832204Y1586878D01*
X1834537D01*
X1835703Y1585712D01*
Y1584545D01*
X1834537Y1583379D01*
X1833370D01*
X1834537D01*
X1835703Y1582213D01*
Y1581046D01*
X1834537Y1579880D01*
X1832204D01*
X1831038Y1581046D01*
X1842701Y1586878D02*
X1840368Y1585712D01*
X1838035Y1583379D01*
Y1581046D01*
X1839202Y1579880D01*
X1841534D01*
X1842701Y1581046D01*
Y1582213D01*
X1841534Y1583379D01*
X1838035D01*
X1949969Y1658205D02*
X1948802Y1657039D01*
Y1654706D01*
X1949969Y1653540D01*
X1954634D01*
X1955800Y1654706D01*
Y1657039D01*
X1954634Y1658205D01*
X1949969Y1660538D02*
X1948802Y1661704D01*
Y1664037D01*
X1949969Y1665203D01*
X1951135D01*
X1952301Y1664037D01*
Y1662870D01*
Y1664037D01*
X1953467Y1665203D01*
X1954634D01*
X1955800Y1664037D01*
Y1661704D01*
X1954634Y1660538D01*
X1948802Y1672201D02*
Y1667536D01*
X1952301D01*
X1951135Y1669868D01*
Y1671034D01*
X1952301Y1672201D01*
X1954634D01*
X1955800Y1671034D01*
Y1668702D01*
X1954634Y1667536D01*
X1918555Y1715251D02*
X1917389Y1716418D01*
X1915056D01*
X1913890Y1715251D01*
Y1710586D01*
X1915056Y1709420D01*
X1917389D01*
X1918555Y1710586D01*
X1920888Y1715251D02*
X1922054Y1716418D01*
X1924387D01*
X1925553Y1715251D01*
Y1714085D01*
X1924387Y1712919D01*
X1923220D01*
X1924387D01*
X1925553Y1711753D01*
Y1710586D01*
X1924387Y1709420D01*
X1922054D01*
X1920888Y1710586D01*
X1932551Y1709420D02*
X1927885D01*
X1932551Y1714085D01*
Y1715251D01*
X1931384Y1716418D01*
X1929052D01*
X1927885Y1715251D01*
X1868689Y1686745D02*
X1867522Y1685579D01*
Y1683246D01*
X1868689Y1682080D01*
X1873354D01*
X1874520Y1683246D01*
Y1685579D01*
X1873354Y1686745D01*
X1868689Y1689078D02*
X1867522Y1690244D01*
Y1692577D01*
X1868689Y1693743D01*
X1869855D01*
X1871021Y1692577D01*
Y1691410D01*
Y1692577D01*
X1872187Y1693743D01*
X1873354D01*
X1874520Y1692577D01*
Y1690244D01*
X1873354Y1689078D01*
X1868689Y1696075D02*
X1867522Y1697242D01*
Y1699574D01*
X1868689Y1700741D01*
X1873354D01*
X1874520Y1699574D01*
Y1697242D01*
X1873354Y1696075D01*
X1868689D01*
X1966478Y1658435D02*
X1965312Y1657269D01*
Y1654936D01*
X1966478Y1653770D01*
X1971144D01*
X1972310Y1654936D01*
Y1657269D01*
X1971144Y1658435D01*
X1972310Y1665433D02*
Y1660768D01*
X1967645Y1665433D01*
X1966478D01*
X1965312Y1664267D01*
Y1661934D01*
X1966478Y1660768D01*
X1971144Y1667766D02*
X1972310Y1668932D01*
Y1671264D01*
X1971144Y1672431D01*
X1966478D01*
X1965312Y1671264D01*
Y1668932D01*
X1966478Y1667766D01*
X1967645D01*
X1968811Y1668932D01*
Y1672431D01*
X1841022Y1239875D02*
X1840189Y1240708D01*
X1838523D01*
X1837690Y1239875D01*
Y1236543D01*
X1838523Y1235710D01*
X1840189D01*
X1841022Y1236543D01*
X1842688Y1235710D02*
X1844355D01*
X1843521D01*
Y1240708D01*
X1842688Y1239875D01*
X1926753Y1477010D02*
X1936750D01*
Y1482008D01*
X1935084Y1483674D01*
X1933418D01*
X1931752Y1482008D01*
Y1477010D01*
Y1482008D01*
X1930085Y1483674D01*
X1928419D01*
X1926753Y1482008D01*
Y1477010D01*
X1935084Y1493671D02*
X1928419D01*
X1926753Y1492005D01*
Y1488673D01*
X1928419Y1487007D01*
X1935084D01*
X1936750Y1488673D01*
Y1492005D01*
X1933418Y1490339D02*
X1936750Y1493671D01*
Y1492005D02*
X1935084Y1493671D01*
X1936750Y1503668D02*
Y1497004D01*
X1930085Y1503668D01*
X1928419D01*
X1926753Y1502002D01*
Y1498670D01*
X1928419Y1497004D01*
X1877223Y1477010D02*
X1887220D01*
Y1482008D01*
X1885554Y1483674D01*
X1883888D01*
X1882222Y1482008D01*
Y1477010D01*
Y1482008D01*
X1880556Y1483674D01*
X1878889D01*
X1877223Y1482008D01*
Y1477010D01*
X1885554Y1493671D02*
X1878889D01*
X1877223Y1492005D01*
Y1488673D01*
X1878889Y1487007D01*
X1885554D01*
X1887220Y1488673D01*
Y1492005D01*
X1883888Y1490339D02*
X1887220Y1493671D01*
Y1492005D02*
X1885554Y1493671D01*
X1887220Y1497004D02*
Y1500336D01*
Y1498670D01*
X1877223D01*
X1878889Y1497004D01*
D11*
X2223410Y1319860D02*
G03*
X2223410Y1319860I-1250J0D01*
G01*
X2179470Y1367240D02*
G03*
X2179470Y1367240I-1250J0D01*
G01*
X2139353Y1324229D02*
G03*
X2139353Y1324229I-1250J0D01*
G01*
X2100072Y1286187D02*
G03*
X2100072Y1286187I-1250J0D01*
G01*
X1930720Y1271050D02*
G03*
X1930720Y1271050I-1250J0D01*
G01*
X1855284Y1205401D02*
G03*
X1855284Y1205401I-1250J0D01*
G01*
X1821484Y1205291D02*
G03*
X1821484Y1205291I-1250J0D01*
G01*
X1964520Y1251110D02*
G03*
X1964520Y1251110I-1250J0D01*
G01*
X1861821Y1715770D02*
G03*
X1861821Y1715770I-1271J0D01*
G01*
X1755980Y1719720D02*
G03*
X1755980Y1719720I-1250J0D01*
G01*
X1710670Y1664590D02*
G03*
X1710670Y1664590I-1250J0D01*
G01*
X2190730Y1832950D02*
G03*
X2190730Y1832950I-1250J0D01*
G01*
X2239130Y1682500D02*
G03*
X2239130Y1682500I-1250J0D01*
G01*
X2020590Y1331350D02*
G03*
X2020590Y1331350I-1250J0D01*
G01*
X2201880Y1488600D02*
G03*
X2201880Y1488600I-1250J0D01*
G01*
X2204320Y1427480D02*
G03*
X2204320Y1427480I-1250J0D01*
G01*
X1890870Y1248850D02*
G03*
X1890870Y1248850I-1250J0D01*
G01*
X1807050Y1258770D02*
G03*
X1807050Y1258770I-1250J0D01*
G01*
X1976060Y1612510D02*
G03*
X1976060Y1612510I-1250J0D01*
G01*
D12*
X1666700Y1371600D02*
G03*
X1666700Y1371600I-3000J0D01*
G01*
X2234390Y1537970D02*
G03*
X2234390Y1537970I-3000J0D01*
G01*
X2038090Y1353100D02*
G03*
X2038090Y1353100I-3000J0D01*
G01*
X2107390Y1710690D02*
G03*
X2107390Y1710690I-3000J0D01*
G01*
X1962060Y1590760D02*
G03*
X1962060Y1590760I-3000J0D01*
G01*
X1687020Y1807450D02*
G03*
X1687020Y1807450I-3000J0D01*
G01*
X2162400Y1749510D02*
G03*
X2162400Y1749510I-3000J0D01*
G01*
D13*
X2256890Y1555368D02*
G03*
X2260890Y1555368I2000J0D01*
G01*
X2260890D02*
G03*
X2264890Y1555368I2000J0D01*
G01*
D02*
G03*
X2268890Y1555368I2000J0D01*
G01*
X2241341Y1351245D02*
X2242508Y1352411D01*
Y1354744D01*
X2241341Y1355910D01*
X2236676D01*
X2235510Y1354744D01*
Y1352411D01*
X2236676Y1351245D01*
X2236679Y1322105D02*
X2235512Y1320939D01*
Y1318606D01*
X2236679Y1317440D01*
X2241344D01*
X2242510Y1318606D01*
Y1320939D01*
X2241344Y1322105D01*
X2053590Y1289050D02*
Y1292382D01*
X2055256Y1294048D01*
X2056922Y1292382D01*
Y1289050D01*
Y1291549D01*
X2053590D01*
X2058588Y1288217D02*
X2061921D01*
X2066919Y1293215D02*
X2066086Y1294048D01*
X2064420D01*
X2063587Y1293215D01*
Y1289883D01*
X2064420Y1289050D01*
X2066086D01*
X2066919Y1289883D01*
Y1291549D01*
X2065253D01*
X2068585Y1289050D02*
Y1294048D01*
X2071917Y1289050D01*
Y1294048D01*
X2073584D02*
Y1289050D01*
X2076083D01*
X2076916Y1289883D01*
Y1293215D01*
X2076083Y1294048D01*
X2073584D01*
X1986280Y1526499D02*
X1989612D01*
X1987946Y1528165D02*
Y1524833D01*
X1991278Y1528165D02*
X1992111Y1528998D01*
X1993777D01*
X1994611Y1528165D01*
Y1527332D01*
X1993777Y1526499D01*
X1992944D01*
X1993777D01*
X1994611Y1525666D01*
Y1524833D01*
X1993777Y1524000D01*
X1992111D01*
X1991278Y1524833D01*
X1996277Y1524000D02*
Y1524833D01*
X1997110D01*
Y1524000D01*
X1996277D01*
X2000442Y1528165D02*
X2001275Y1528998D01*
X2002941D01*
X2003774Y1528165D01*
Y1527332D01*
X2002941Y1526499D01*
X2002108D01*
X2002941D01*
X2003774Y1525666D01*
Y1524833D01*
X2002941Y1524000D01*
X2001275D01*
X2000442Y1524833D01*
X2005440Y1528998D02*
Y1525666D01*
X2007106Y1524000D01*
X2008773Y1525666D01*
Y1528998D01*
X2010439Y1523167D02*
X2013771D01*
X2015437Y1528998D02*
Y1524000D01*
X2017936D01*
X2018769Y1524833D01*
Y1528165D01*
X2017936Y1528998D01*
X2015437D01*
X2120900Y1407078D02*
Y1402080D01*
X2123399D01*
X2124232Y1402913D01*
Y1406245D01*
X2123399Y1407078D01*
X2120900D01*
X2125898Y1401247D02*
X2129231D01*
X2134229Y1406245D02*
X2133396Y1407078D01*
X2131730D01*
X2130897Y1406245D01*
Y1402913D01*
X2131730Y1402080D01*
X2133396D01*
X2134229Y1402913D01*
Y1404579D01*
X2132563D01*
X2135895Y1402080D02*
Y1407078D01*
X2139227Y1402080D01*
Y1407078D01*
X2140894D02*
Y1402080D01*
X2143393D01*
X2144226Y1402913D01*
Y1406245D01*
X2143393Y1407078D01*
X2140894D01*
X1985010Y1649648D02*
Y1644650D01*
X1987509D01*
X1988342Y1645483D01*
Y1648815D01*
X1987509Y1649648D01*
X1985010D01*
X1990008Y1643817D02*
X1993341D01*
X1998339Y1648815D02*
X1997506Y1649648D01*
X1995840D01*
X1995007Y1648815D01*
Y1645483D01*
X1995840Y1644650D01*
X1997506D01*
X1998339Y1645483D01*
Y1647149D01*
X1996673D01*
X2000005Y1644650D02*
Y1649648D01*
X2003337Y1644650D01*
Y1649648D01*
X2005004D02*
Y1644650D01*
X2007503D01*
X2008336Y1645483D01*
Y1648815D01*
X2007503Y1649648D01*
X2005004D01*
X2259045Y1509821D02*
X2257879Y1510988D01*
X2255546D01*
X2254380Y1509821D01*
Y1505156D01*
X2255546Y1503990D01*
X2257879D01*
X2259045Y1505156D01*
X1859245Y1649939D02*
X1860411Y1648772D01*
X1862744D01*
X1863910Y1649939D01*
Y1654604D01*
X1862744Y1655770D01*
X1860411D01*
X1859245Y1654604D01*
X1793895Y1751121D02*
X1792729Y1752288D01*
X1790396D01*
X1789230Y1751121D01*
Y1746456D01*
X1790396Y1745290D01*
X1792729D01*
X1793895Y1746456D01*
X1666449Y1656115D02*
X1665282Y1654949D01*
Y1652616D01*
X1666449Y1651450D01*
X1671114D01*
X1672280Y1652616D01*
Y1654949D01*
X1671114Y1656115D01*
X1887011Y1689065D02*
X1888178Y1690231D01*
Y1692564D01*
X1887011Y1693730D01*
X1882346D01*
X1881180Y1692564D01*
Y1690231D01*
X1882346Y1689065D01*
X1915369Y1693895D02*
X1914202Y1692729D01*
Y1690396D01*
X1915369Y1689230D01*
X1920034D01*
X1921200Y1690396D01*
Y1692729D01*
X1920034Y1693895D01*
X1954321Y1689065D02*
X1955488Y1690231D01*
Y1692564D01*
X1954321Y1693730D01*
X1949656D01*
X1948490Y1692564D01*
Y1690231D01*
X1949656Y1689065D01*
X1967439Y1694125D02*
X1966272Y1692959D01*
Y1690626D01*
X1967439Y1689460D01*
X1972104D01*
X1973270Y1690626D01*
Y1692959D01*
X1972104Y1694125D01*
X2257851Y1772885D02*
X2259018Y1774051D01*
Y1776384D01*
X2257851Y1777550D01*
X2253186D01*
X2252020Y1776384D01*
Y1774051D01*
X2253186Y1772885D01*
X2240565Y1661369D02*
X2241731Y1660202D01*
X2244064D01*
X2245230Y1661369D01*
Y1666034D01*
X2244064Y1667200D01*
X2241731D01*
X2240565Y1666034D01*
X1951719Y1302265D02*
X1950552Y1301099D01*
Y1298766D01*
X1951719Y1297600D01*
X1956384D01*
X1957550Y1298766D01*
Y1301099D01*
X1956384Y1302265D01*
X2165559Y1541815D02*
X2164392Y1540649D01*
Y1538316D01*
X2165559Y1537150D01*
X2170224D01*
X2171390Y1538316D01*
Y1540649D01*
X2170224Y1541815D01*
X2093169Y1695485D02*
X2092002Y1694319D01*
Y1691986D01*
X2093169Y1690820D01*
X2097834D01*
X2099000Y1691986D01*
Y1694319D01*
X2097834Y1695485D01*
X1686845Y1260049D02*
X1688011Y1258882D01*
X1690344D01*
X1691510Y1260049D01*
Y1264714D01*
X1690344Y1265880D01*
X1688011D01*
X1686845Y1264714D01*
X1736055Y1260049D02*
X1737221Y1258882D01*
X1739554D01*
X1740720Y1260049D01*
Y1264714D01*
X1739554Y1265880D01*
X1737221D01*
X1736055Y1264714D01*
X1850675Y1247349D02*
X1851841Y1246182D01*
X1854174D01*
X1855340Y1247349D01*
Y1252014D01*
X1854174Y1253180D01*
X1851841D01*
X1850675Y1252014D01*
X1870501Y1224565D02*
X1871668Y1225731D01*
Y1228064D01*
X1870501Y1229230D01*
X1865836D01*
X1864670Y1228064D01*
Y1225731D01*
X1865836Y1224565D01*
X1846295Y1220261D02*
X1845129Y1221428D01*
X1842796D01*
X1841630Y1220261D01*
Y1215596D01*
X1842796Y1214430D01*
X1845129D01*
X1846295Y1215596D01*
X1797291Y1184992D02*
X1798457Y1183826D01*
X1800790D01*
X1801956Y1184992D01*
Y1189657D01*
X1800790Y1190824D01*
X1798457D01*
X1797291Y1189657D01*
Y1168710D02*
X1798457Y1167543D01*
X1800790D01*
X1801956Y1168710D01*
Y1173375D01*
X1800790Y1174541D01*
X1798457D01*
X1797291Y1173375D01*
X1807245Y1601261D02*
X1806079Y1602428D01*
X1803746D01*
X1802580Y1601261D01*
Y1596596D01*
X1803746Y1595430D01*
X1806079D01*
X1807245Y1596596D01*
Y1584751D02*
X1806079Y1585918D01*
X1803746D01*
X1802580Y1584751D01*
Y1580086D01*
X1803746Y1578920D01*
X1806079D01*
X1807245Y1580086D01*
X2135079Y1779305D02*
X2133912Y1778139D01*
Y1775806D01*
X2135079Y1774640D01*
X2139744D01*
X2140910Y1775806D01*
Y1778139D01*
X2139744Y1779305D01*
D14*
X1702430Y1312900D02*
G03*
X1702430Y1312900I-40000J0D01*
G01*
X1761975Y1604735D02*
X1767225Y1609985D01*
X1762475Y1616735D02*
X1767225Y1609985D01*
X2210830Y1712990D02*
X2245330D01*
X2234990Y1743109D02*
X2244909Y1769220D01*
X2210244Y1770873D02*
X2222200Y1743672D01*
X1652030Y1683780D02*
X1686530D01*
X1676190Y1713899D02*
X1686109Y1740010D01*
X1651444Y1741663D02*
X1663401Y1714462D01*
X1620550Y1672110D02*
X1655050D01*
X1620971Y1615880D02*
X1630890Y1641991D01*
X1643680Y1641428D02*
X1655636Y1614227D01*
X1736330Y1592340D02*
Y1626840D01*
X1680100Y1626419D02*
X1706211Y1616500D01*
X1678447Y1591754D02*
X1705648Y1603710D01*
X2246659Y1656871D02*
X2281159D01*
X2247080Y1600641D02*
X2256999Y1626751D01*
X2269789Y1626189D02*
X2281745Y1598988D01*
X2115820Y1871980D02*
Y1896110D01*
X2245010Y1343660D02*
Y1363660D01*
X2233010Y1343660D02*
X2245010D01*
X2233010D02*
Y1363660D01*
X2245010D01*
X2233010Y1359660D02*
X2245010D01*
X2233010Y1347660D02*
X2245010D01*
X2233010Y1309690D02*
Y1329690D01*
X2245010D01*
Y1309690D02*
Y1329690D01*
X2233010Y1309690D02*
X2245010D01*
X2233010Y1313690D02*
X2245010D01*
X2233010Y1325690D02*
X2245010D01*
X1769730Y1098250D02*
Y1104250D01*
X1783730Y1098250D02*
Y1104250D01*
X2244610Y1050620D02*
Y1124370D01*
X2129360Y1050620D02*
X2244610D01*
X2129360D02*
Y1124870D01*
X2147860Y1125120D02*
Y1214120D01*
X2264860Y1124870D02*
Y1214120D01*
X2147860D02*
X2264860D01*
X2129360Y1124870D02*
X2264860D01*
X2130610Y1050620D02*
Y1124370D01*
X2015360Y1050620D02*
X2130610D01*
X2015360D02*
Y1124870D01*
X2033860Y1125120D02*
Y1214120D01*
X2150860Y1124870D02*
Y1214120D01*
X2033860D02*
X2150860D01*
X2015360Y1124870D02*
X2150860D01*
X2016560Y1050670D02*
Y1124420D01*
X1901310Y1050670D02*
X2016560D01*
X1901310D02*
Y1124920D01*
X1919810Y1125170D02*
Y1214170D01*
X2036810Y1124920D02*
Y1214170D01*
X1919810D02*
X2036810D01*
X1901310Y1124920D02*
X2036810D01*
X2081530Y1883410D02*
X2131060D01*
X2098040Y1871980D02*
Y1896110D01*
X1715840Y1282700D02*
Y1290320D01*
Y1336040D02*
Y1343660D01*
X1792040Y1336040D02*
Y1343660D01*
Y1282700D02*
Y1290320D01*
X1799660D01*
Y1282700D02*
Y1290320D01*
X1715840Y1282700D02*
X1799660D01*
X1715840Y1343660D02*
X1792040D01*
X2246630Y1513490D02*
X2266630D01*
Y1501490D02*
Y1513490D01*
X2246630Y1501490D02*
X2266630D01*
X2246630D02*
Y1513490D01*
X2250630Y1501490D02*
Y1513490D01*
X2262630Y1501490D02*
Y1513490D01*
X1640300Y1047130D02*
X1763050D01*
X1640300Y964380D02*
Y1148130D01*
Y964380D02*
X1763050D01*
Y1148130D01*
X1640300D02*
X1763050D01*
X2139760Y1962770D02*
X2262510D01*
Y1861770D02*
Y2045520D01*
X2139760D02*
X2262510D01*
X2139760Y1861770D02*
Y2045520D01*
Y1861770D02*
X2262510D01*
X1851660Y1646270D02*
X1871660D01*
X1851660D02*
Y1658270D01*
X1871660D01*
Y1646270D02*
Y1658270D01*
X1867660Y1646270D02*
Y1658270D01*
X1855660Y1646270D02*
Y1658270D01*
X1809350Y1649040D02*
Y1667040D01*
Y1649040D02*
X1840350D01*
Y1667040D01*
X1791850D02*
X1857850D01*
X1791850D02*
Y1704040D01*
X1857850D01*
Y1667040D02*
Y1704040D01*
X1828850D02*
Y1722040D01*
X1820850D02*
X1828850D01*
X1820850Y1704040D02*
Y1722040D01*
X1805850Y1704040D02*
Y1722040D01*
X1797850D02*
X1805850D01*
X1797850Y1704040D02*
Y1722040D01*
X1843850Y1704040D02*
Y1722040D01*
X1851850D01*
Y1704040D02*
Y1722040D01*
X1781480Y1754790D02*
X1801480D01*
Y1742790D02*
Y1754790D01*
X1781480Y1742790D02*
X1801480D01*
X1781480D02*
Y1754790D01*
X1785480Y1742790D02*
Y1754790D01*
X1797480Y1742790D02*
Y1754790D01*
X1812720Y1738330D02*
Y1764330D01*
Y1738330D02*
X1860720D01*
Y1764330D01*
X1812720D02*
X1860720D01*
X1806370Y1768810D02*
Y1794810D01*
Y1768810D02*
X1854370D01*
Y1794810D01*
X1806370D02*
X1854370D01*
X1737190Y1589070D02*
X1785190D01*
Y1563070D02*
Y1589070D01*
X1737190Y1563070D02*
X1785190D01*
X1737190D02*
Y1589070D01*
X1662780Y1659700D02*
X1674780D01*
X1662780Y1647700D02*
X1674780D01*
X1662780Y1643700D02*
X1674780D01*
Y1663700D01*
X1662780D02*
X1674780D01*
X1662780Y1643700D02*
Y1663700D01*
X1840480Y1818170D02*
Y1824670D01*
X1837190Y1818170D02*
Y1824670D01*
X1840710Y1821410D02*
X1848210D01*
X1829460D02*
X1836960D01*
X1890680Y1681480D02*
Y1701480D01*
X1878680Y1681480D02*
X1890680D01*
X1878680D02*
Y1701480D01*
X1890680D01*
X1878680Y1697480D02*
X1890680D01*
X1878680Y1685480D02*
X1890680D01*
X1911700Y1681480D02*
Y1701480D01*
X1923700D01*
Y1681480D02*
Y1701480D01*
X1911700Y1681480D02*
X1923700D01*
X1911700Y1685480D02*
X1923700D01*
X1911700Y1697480D02*
X1923700D01*
X1957990Y1681480D02*
Y1701480D01*
X1945990Y1681480D02*
X1957990D01*
X1945990D02*
Y1701480D01*
X1957990D01*
X1945990Y1697480D02*
X1957990D01*
X1945990Y1685480D02*
X1957990D01*
X1963770Y1681710D02*
Y1701710D01*
X1975770D01*
Y1681710D02*
Y1701710D01*
X1963770Y1681710D02*
X1975770D01*
X1963770Y1685710D02*
X1975770D01*
X1963770Y1697710D02*
X1975770D01*
X2051300Y1751900D02*
Y1758400D01*
X2048010Y1751900D02*
Y1758400D01*
X2051530Y1755140D02*
X2059030D01*
X2040280D02*
X2047780D01*
X2261520Y1765300D02*
Y1785300D01*
X2249520Y1765300D02*
X2261520D01*
X2249520D02*
Y1785300D01*
X2261520D01*
X2249520Y1781300D02*
X2261520D01*
X2249520Y1769300D02*
X2261520D01*
X2232980Y1657700D02*
X2252980D01*
X2232980D02*
Y1669700D01*
X2252980D01*
Y1657700D02*
Y1669700D01*
X2248980Y1657700D02*
Y1669700D01*
X2236980Y1657700D02*
Y1669700D01*
X1948050Y1289850D02*
Y1309850D01*
X1960050D01*
Y1289850D02*
Y1309850D01*
X1948050Y1289850D02*
X1960050D01*
X1948050Y1293850D02*
X1960050D01*
X1948050Y1305850D02*
X1960050D01*
X2161890Y1529400D02*
Y1549400D01*
X2173890D01*
Y1529400D02*
Y1549400D01*
X2161890Y1529400D02*
X2173890D01*
X2161890Y1533400D02*
X2173890D01*
X2161890Y1545400D02*
X2173890D01*
X2246640Y1533180D02*
X2279640D01*
Y1575680D01*
X2246640D02*
X2279640D01*
X2246640Y1533180D02*
Y1575680D01*
X1876350Y1326670D02*
Y1329170D01*
Y1326670D02*
X1886350Y1316670D01*
X1876350Y1329170D02*
Y1331670D01*
Y1341670D01*
X1846350D02*
X1911350D01*
X1846350Y1296670D02*
X1911350D01*
X1831350Y1281670D02*
X1926350D01*
X1831350D02*
Y1356670D01*
X1926350D01*
Y1281670D02*
Y1356670D01*
X1876350Y1296670D02*
Y1311670D01*
X1888890Y1356920D02*
X1938890D01*
Y1471920D01*
X1888890D02*
X1938890D01*
X1888890Y1356920D02*
Y1471920D01*
X1649979Y1239159D02*
X1669979D01*
Y1251659D01*
X1649979Y1194159D02*
X1669979D01*
Y1181659D02*
Y1194159D01*
X1768710Y1207260D02*
X1780710D01*
X1768710Y1195260D02*
X1780710D01*
X1768710Y1191260D02*
X1780710D01*
Y1211260D01*
X1768710D02*
X1780710D01*
X1768710Y1191260D02*
Y1211260D01*
X1632300Y1206310D02*
X1644300D01*
X1632300Y1194310D02*
X1644300D01*
X1632300Y1190310D02*
X1644300D01*
Y1210310D01*
X1632300D02*
X1644300D01*
X1632300Y1190310D02*
Y1210310D01*
X2025090Y1343100D02*
X2082090D01*
X2025090Y1400100D02*
X2082090D01*
X2025090Y1343100D02*
Y1400100D01*
X2082090Y1343100D02*
Y1400100D01*
X1955180Y1385270D02*
Y1391270D01*
X1941180Y1385270D02*
Y1391270D01*
X2112010Y1717040D02*
X2202180D01*
Y1661160D02*
Y1717040D01*
X2112010Y1661160D02*
X2202180D01*
X2112010D02*
Y1717040D01*
X2089500Y1683070D02*
Y1703070D01*
X2101500D01*
Y1683070D02*
Y1703070D01*
X2089500Y1683070D02*
X2101500D01*
X2089500Y1687070D02*
X2101500D01*
X2089500Y1699070D02*
X2101500D01*
X1679260Y1256380D02*
X1699260D01*
X1679260D02*
Y1268380D01*
X1699260D01*
Y1256380D02*
Y1268380D01*
X1695260Y1256380D02*
Y1268380D01*
X1683260Y1256380D02*
Y1268380D01*
X1728470Y1256380D02*
X1748470D01*
X1728470D02*
Y1268380D01*
X1748470D01*
Y1256380D02*
Y1268380D01*
X1744470Y1256380D02*
Y1268380D01*
X1732470Y1256380D02*
Y1268380D01*
X1817180Y1211930D02*
Y1223930D01*
X1805180Y1211930D02*
Y1223930D01*
X1801180Y1211930D02*
Y1223930D01*
Y1211930D02*
X1821180D01*
Y1223930D01*
X1801180D02*
X1821180D01*
X1843090Y1243680D02*
X1863090D01*
X1843090D02*
Y1255680D01*
X1863090D01*
Y1243680D02*
Y1255680D01*
X1859090Y1243680D02*
Y1255680D01*
X1847090Y1243680D02*
Y1255680D01*
X1874170Y1216980D02*
Y1236980D01*
X1862170Y1216980D02*
X1874170D01*
X1862170D02*
Y1236980D01*
X1874170D01*
X1862170Y1232980D02*
X1874170D01*
X1862170Y1220980D02*
X1874170D01*
X1833880Y1223930D02*
X1853880D01*
Y1211930D02*
Y1223930D01*
X1833880Y1211930D02*
X1853880D01*
X1833880D02*
Y1223930D01*
X1837880Y1211930D02*
Y1223930D01*
X1849880Y1211930D02*
Y1223930D01*
X2262220Y1408620D02*
X2274220D01*
X2262220Y1420620D02*
X2274220D01*
X2262220Y1424620D02*
X2274220D01*
X2262220Y1404620D02*
Y1424620D01*
Y1404620D02*
X2274220D01*
Y1424620D01*
X1789706Y1181324D02*
X1809706D01*
X1789706D02*
Y1193324D01*
X1809706D01*
Y1181324D02*
Y1193324D01*
X1805706Y1181324D02*
Y1193324D01*
X1793706Y1181324D02*
Y1193324D01*
X1789706Y1165041D02*
X1809706D01*
X1789706D02*
Y1177041D01*
X1809706D01*
Y1165041D02*
Y1177041D01*
X1805706Y1165041D02*
Y1177041D01*
X1793706Y1165041D02*
Y1177041D01*
X1642430Y1295400D02*
X1652430D01*
X1647430Y1290400D02*
Y1300400D01*
X1834280Y1356920D02*
X1884280D01*
Y1471920D01*
X1834280D02*
X1884280D01*
X1834280Y1356920D02*
Y1471920D01*
X1794830Y1604930D02*
X1814830D01*
Y1592930D02*
Y1604930D01*
X1794830Y1592930D02*
X1814830D01*
X1794830D02*
Y1604930D01*
X1798830Y1592930D02*
Y1604930D01*
X1810830Y1592930D02*
Y1604930D01*
X1794830Y1588420D02*
X1814830D01*
Y1576420D02*
Y1588420D01*
X1794830Y1576420D02*
X1814830D01*
X1794830D02*
Y1588420D01*
X1798830Y1576420D02*
Y1588420D01*
X1810830Y1576420D02*
Y1588420D01*
X1912060Y1600760D02*
X1969060D01*
X1912060Y1543760D02*
X1969060D01*
Y1600760D01*
X1912060Y1543760D02*
Y1600760D01*
X1798320Y1791970D02*
Y1962150D01*
X1639570D02*
X1798320D01*
X1639570Y1789430D02*
Y1962150D01*
Y1789430D02*
X1798320Y1788160D01*
Y1791970D01*
X1811661Y1520190D02*
X1811675Y1386248D01*
X1756650Y1400810D02*
Y1520190D01*
X1811661D01*
X1756650Y1385810D02*
Y1400810D01*
Y1385810D02*
X1811650D01*
X1811675Y1386248D01*
X2131410Y1766890D02*
Y1786890D01*
X2143410D01*
Y1766890D02*
Y1786890D01*
X2131410Y1766890D02*
X2143410D01*
X2131410Y1770890D02*
X2143410D01*
X2131410Y1782890D02*
X2143410D01*
X2130330Y1878870D02*
Y1874205D01*
X2127997Y1871872D01*
X2125665Y1874205D01*
Y1878870D01*
Y1875371D01*
X2130330D01*
X1636490Y1158888D02*
X1643154D01*
X1639822Y1162221D02*
Y1155556D01*
X1653151Y1153890D02*
X1646487D01*
X1653151Y1160555D01*
Y1162221D01*
X1651485Y1163887D01*
X1648153D01*
X1646487Y1162221D01*
X1661482Y1153890D02*
Y1163887D01*
X1656484Y1158888D01*
X1663148D01*
X1666480Y1163887D02*
Y1157222D01*
X1669813Y1153890D01*
X1673145Y1157222D01*
Y1163887D01*
X2088835Y1873038D02*
X2090001Y1871872D01*
X2092334D01*
X2093500Y1873038D01*
Y1877704D01*
X2092334Y1878870D01*
X2090001D01*
X2088835Y1877704D01*
Y1875371D01*
X2091167D01*
X2086502Y1878870D02*
Y1871872D01*
X2081837Y1878870D01*
Y1871872D01*
X2079505D02*
Y1878870D01*
X2076006D01*
X2074839Y1877704D01*
Y1873038D01*
X2076006Y1871872D01*
X2079505D01*
X2129060Y1892840D02*
X2126727D01*
X2127894D01*
Y1885842D01*
X2129060Y1887009D01*
X2104568Y1892840D02*
X2109233D01*
X2104568Y1888175D01*
Y1887009D01*
X2105734Y1885842D01*
X2108067D01*
X2109233Y1887009D01*
X2088240D02*
X2087074Y1885842D01*
X2084741D01*
X2083575Y1887009D01*
Y1888175D01*
X2084741Y1889341D01*
X2085907D01*
X2084741D01*
X2083575Y1890507D01*
Y1891674D01*
X2084741Y1892840D01*
X2087074D01*
X2088240Y1891674D01*
X2108740Y1871872D02*
Y1878870D01*
X2105241D01*
X2104075Y1877704D01*
Y1876537D01*
X2105241Y1875371D01*
X2108740D01*
X2105241D01*
X2104075Y1874205D01*
Y1873038D01*
X2105241Y1871872D01*
X2108740D01*
X1680940Y1158888D02*
X1687605D01*
X1697601Y1153890D02*
X1690937D01*
X1697601Y1160555D01*
Y1162221D01*
X1695935Y1163887D01*
X1692603D01*
X1690937Y1162221D01*
X1705932Y1153890D02*
Y1163887D01*
X1700934Y1158888D01*
X1707598D01*
X1710930Y1163887D02*
Y1157222D01*
X1714263Y1153890D01*
X1717595Y1157222D01*
Y1163887D01*
X1809368Y1151188D02*
Y1141190D01*
X1809844Y1151188D02*
Y1141190D01*
X1807940Y1151188D02*
X1811273D01*
X1807940Y1141190D02*
X1811273D01*
X1819747Y1149760D02*
X1820223Y1148331D01*
Y1151188D01*
X1819747Y1149760D01*
X1818795Y1150712D01*
X1817366Y1151188D01*
X1816414D01*
X1814986Y1150712D01*
X1814034Y1149760D01*
X1813558Y1148807D01*
X1813082Y1147379D01*
Y1144999D01*
X1813558Y1143570D01*
X1814034Y1142618D01*
X1814986Y1141666D01*
X1816414Y1141190D01*
X1817366D01*
X1818795Y1141666D01*
X1819747Y1142618D01*
X1820223Y1143570D01*
X1816414Y1151188D02*
X1815462Y1150712D01*
X1814510Y1149760D01*
X1814034Y1148807D01*
X1813558Y1147379D01*
Y1144999D01*
X1814034Y1143570D01*
X1814510Y1142618D01*
X1815462Y1141666D01*
X1816414Y1141190D01*
X1825936Y1151188D02*
X1822603Y1141190D01*
X1825936Y1151188D02*
X1829269Y1141190D01*
X1825936Y1149760D02*
X1828793Y1141190D01*
X1823556Y1144046D02*
X1827841D01*
X1821651Y1141190D02*
X1824508D01*
X1827364D02*
X1830221D01*
X1831983Y1149284D02*
X1832459Y1148807D01*
X1831983Y1148331D01*
X1831506Y1148807D01*
Y1149284D01*
X1831983Y1150236D01*
X1832459Y1150712D01*
X1833887Y1151188D01*
X1835791D01*
X1837220Y1150712D01*
X1837695Y1150236D01*
X1838172Y1149284D01*
Y1148331D01*
X1837695Y1147379D01*
X1836267Y1146427D01*
X1833887Y1145475D01*
X1832935Y1144999D01*
X1831983Y1144046D01*
X1831506Y1142618D01*
Y1141190D01*
X1835791Y1151188D02*
X1836743Y1150712D01*
X1837220Y1150236D01*
X1837695Y1149284D01*
Y1148331D01*
X1837220Y1147379D01*
X1835791Y1146427D01*
X1833887Y1145475D01*
X1831506Y1142142D02*
X1831983Y1142618D01*
X1832935D01*
X1835315Y1141666D01*
X1836743D01*
X1837695Y1142142D01*
X1838172Y1142618D01*
Y1143570D01*
X1832935Y1142618D02*
X1835315Y1141190D01*
X1837220D01*
X1837695Y1141666D01*
X1838172Y1142618D01*
X1841076Y1151188D02*
Y1141190D01*
X1841552Y1151188D02*
Y1141190D01*
X1839648Y1151188D02*
X1844408D01*
X1845837Y1150712D01*
X1846789Y1149760D01*
X1847265Y1148807D01*
X1847741Y1147379D01*
Y1144999D01*
X1847265Y1143570D01*
X1846789Y1142618D01*
X1845837Y1141666D01*
X1844408Y1141190D01*
X1839648D01*
X1844408Y1151188D02*
X1845361Y1150712D01*
X1846313Y1149760D01*
X1846789Y1148807D01*
X1847265Y1147379D01*
Y1144999D01*
X1846789Y1143570D01*
X1846313Y1142618D01*
X1845361Y1141666D01*
X1844408Y1141190D01*
X1849074Y1149284D02*
X1850026Y1149760D01*
X1851454Y1151188D01*
Y1141190D01*
X1850978Y1150712D02*
Y1141190D01*
X1849074D02*
X1853359D01*
X1855549Y1149284D02*
X1856025Y1148807D01*
X1855549Y1148331D01*
X1855073Y1148807D01*
Y1149284D01*
X1855549Y1150236D01*
X1856025Y1150712D01*
X1857453Y1151188D01*
X1859358D01*
X1860786Y1150712D01*
X1861262Y1149760D01*
Y1148331D01*
X1860786Y1147379D01*
X1859358Y1146903D01*
X1857929D01*
X1859358Y1151188D02*
X1860310Y1150712D01*
X1860786Y1149760D01*
Y1148331D01*
X1860310Y1147379D01*
X1859358Y1146903D01*
X1860310Y1146427D01*
X1861262Y1145475D01*
X1861738Y1144523D01*
Y1143094D01*
X1861262Y1142142D01*
X1860786Y1141666D01*
X1859358Y1141190D01*
X1857453D01*
X1856025Y1141666D01*
X1855549Y1142142D01*
X1855073Y1143094D01*
Y1143570D01*
X1855549Y1144046D01*
X1856025Y1143570D01*
X1855549Y1143094D01*
X1860786Y1145951D02*
X1861262Y1144523D01*
Y1143094D01*
X1860786Y1142142D01*
X1860310Y1141666D01*
X1859358Y1141190D01*
X2128520Y1911350D02*
Y1901353D01*
X2123522D01*
X2121855Y1903019D01*
Y1906352D01*
X2123522Y1908018D01*
X2128520D01*
X2125188D02*
X2121855Y1911350D01*
X2111859Y1903019D02*
X2113525Y1901353D01*
X2116857D01*
X2118523Y1903019D01*
Y1904686D01*
X2116857Y1906352D01*
X2113525D01*
X2111859Y1908018D01*
Y1909684D01*
X2113525Y1911350D01*
X2116857D01*
X2118523Y1909684D01*
X2103528Y1911350D02*
Y1901353D01*
X2108526Y1906352D01*
X2101862D01*
X2098530Y1903019D02*
X2096864Y1901353D01*
X2093531D01*
X2091865Y1903019D01*
Y1904686D01*
X2093531Y1906352D01*
X2091865Y1908018D01*
Y1909684D01*
X2093531Y1911350D01*
X2096864D01*
X2098530Y1909684D01*
Y1908018D01*
X2096864Y1906352D01*
X2098530Y1904686D01*
Y1903019D01*
X2096864Y1906352D02*
X2093531D01*
X2081868Y1901353D02*
X2088533D01*
Y1906352D01*
X2085201Y1904686D01*
X2083535D01*
X2081868Y1906352D01*
Y1909684D01*
X2083535Y1911350D01*
X2086867D01*
X2088533Y1909684D01*
X2200420Y1363200D02*
Y1370198D01*
X2203919D01*
X2205085Y1369032D01*
Y1366699D01*
X2203919Y1365533D01*
X2200420D01*
X2202753D02*
X2205085Y1363200D01*
X2207418D02*
X2209750D01*
X2208584D01*
Y1370198D01*
X2207418Y1369032D01*
X2216748Y1363200D02*
Y1370198D01*
X2213249Y1366699D01*
X2217914D01*
X2186189Y1378615D02*
X2185022Y1377449D01*
Y1375116D01*
X2186189Y1373950D01*
X2190854D01*
X2192020Y1375116D01*
Y1377449D01*
X2190854Y1378615D01*
X2192020Y1380948D02*
Y1383280D01*
Y1382114D01*
X2185022D01*
X2186189Y1380948D01*
X2192020Y1390278D02*
X2185022D01*
X2188521Y1386779D01*
Y1391444D01*
X2154359Y1327173D02*
X2152710D01*
X2151060Y1325524D01*
Y1323875D01*
X2154359Y1320576D01*
X2156008D01*
X2157658Y1322225D01*
Y1323875D01*
X2156008Y1328823D02*
Y1330472D01*
X2157658Y1332121D01*
X2159307D01*
X2160132Y1331297D01*
Y1329647D01*
X2161781D01*
X2162606Y1328823D01*
Y1327173D01*
X2160957Y1325524D01*
X2159307D01*
X2158483Y1326349D01*
Y1327998D01*
X2156833D01*
X2156008Y1328823D01*
X2158483Y1327998D02*
X2160132Y1329647D01*
X2113725Y1291392D02*
X2112076D01*
X2110426Y1289743D01*
Y1288094D01*
X2113725Y1284795D01*
X2115375D01*
X2117024Y1286444D01*
Y1288094D01*
X2115375Y1293042D02*
Y1294691D01*
X2117024Y1296340D01*
X2118674D01*
X2119498Y1295516D01*
Y1293866D01*
X2118674Y1293042D01*
X2119498Y1293866D01*
X2121147D01*
X2121972Y1293042D01*
Y1291392D01*
X2120323Y1289743D01*
X2118674D01*
X2251355Y1357152D02*
X2250522Y1356319D01*
Y1354653D01*
X2251355Y1353820D01*
X2254687D01*
X2255520Y1354653D01*
Y1356319D01*
X2254687Y1357152D01*
X2255520Y1362151D02*
Y1358818D01*
X2252188Y1362151D01*
X2251355D01*
X2250522Y1361317D01*
Y1359651D01*
X2251355Y1358818D01*
X2255520Y1363817D02*
Y1365483D01*
Y1364650D01*
X2250522D01*
X2251355Y1363817D01*
X2250085Y1307942D02*
X2249252Y1307109D01*
Y1305443D01*
X2250085Y1304610D01*
X2253417D01*
X2254250Y1305443D01*
Y1307109D01*
X2253417Y1307942D01*
X2254250Y1309608D02*
Y1311275D01*
Y1310441D01*
X2249252D01*
X2250085Y1309608D01*
X2249252Y1313774D02*
Y1317106D01*
X2250085D01*
X2253417Y1313774D01*
X2254250D01*
X1979282Y1280190D02*
X1983947D01*
X1986280Y1282523D01*
X1983947Y1284855D01*
X1979282D01*
Y1287188D02*
X1986280D01*
Y1290687D01*
X1985114Y1291853D01*
X1980448D01*
X1979282Y1290687D01*
Y1287188D01*
X1986280Y1294185D02*
Y1296518D01*
Y1295352D01*
X1979282D01*
X1980448Y1294185D01*
X1986280Y1303516D02*
X1979282D01*
X1982781Y1300017D01*
Y1304682D01*
X1910080Y1268730D02*
Y1273728D01*
X1912579D01*
X1913412Y1272895D01*
Y1271229D01*
X1912579Y1270396D01*
X1910080D01*
X1911746D02*
X1913412Y1268730D01*
X1918411Y1273728D02*
X1915078D01*
Y1271229D01*
X1916745Y1272062D01*
X1917578D01*
X1918411Y1271229D01*
Y1269563D01*
X1917578Y1268730D01*
X1915911D01*
X1915078Y1269563D01*
X1833880Y1274040D02*
Y1279038D01*
X1836379D01*
X1837212Y1278205D01*
Y1276539D01*
X1836379Y1275706D01*
X1833880D01*
X1835546D02*
X1837212Y1274040D01*
X1842211Y1279038D02*
X1840544Y1278205D01*
X1838878Y1276539D01*
Y1274873D01*
X1839711Y1274040D01*
X1841378D01*
X1842211Y1274873D01*
Y1275706D01*
X1841378Y1276539D01*
X1838878D01*
X1802086Y1201294D02*
Y1208291D01*
X1805585D01*
X1806751Y1207125D01*
Y1204792D01*
X1805585Y1203626D01*
X1802086D01*
X1804419D02*
X1806751Y1201294D01*
X1809084Y1207125D02*
X1810250Y1208291D01*
X1812583D01*
X1813749Y1207125D01*
Y1205959D01*
X1812583Y1204792D01*
X1811416D01*
X1812583D01*
X1813749Y1203626D01*
Y1202460D01*
X1812583Y1201294D01*
X1810250D01*
X1809084Y1202460D01*
X2002300Y1243330D02*
X1995302D01*
Y1246829D01*
X1996469Y1247995D01*
X1998801D01*
X1999967Y1246829D01*
Y1243330D01*
Y1245663D02*
X2002300Y1247995D01*
Y1253827D02*
X1995302D01*
X1998801Y1250328D01*
Y1254993D01*
X1786890Y1221658D02*
Y1216660D01*
X1790222D01*
X1791888D02*
X1793555D01*
X1792721D01*
Y1221658D01*
X1791888Y1220825D01*
X1855115Y1231422D02*
X1854282Y1230589D01*
Y1228923D01*
X1855115Y1228090D01*
X1858447D01*
X1859280Y1228923D01*
Y1230589D01*
X1858447Y1231422D01*
X1859280Y1233088D02*
Y1234754D01*
Y1233921D01*
X1854282D01*
X1855115Y1233088D01*
Y1237254D02*
X1854282Y1238087D01*
Y1239753D01*
X1855115Y1240586D01*
X1858447D01*
X1859280Y1239753D01*
Y1238087D01*
X1858447Y1237254D01*
X1855115D01*
X1790222Y1200505D02*
X1789389Y1201338D01*
X1787723D01*
X1786890Y1200505D01*
Y1197173D01*
X1787723Y1196340D01*
X1789389D01*
X1790222Y1197173D01*
X1795221Y1201338D02*
X1793555Y1200505D01*
X1791888Y1198839D01*
Y1197173D01*
X1792721Y1196340D01*
X1794388D01*
X1795221Y1197173D01*
Y1198006D01*
X1794388Y1198839D01*
X1791888D01*
X1839752Y1230985D02*
X1838919Y1231818D01*
X1837253D01*
X1836420Y1230985D01*
Y1227653D01*
X1837253Y1226820D01*
X1838919D01*
X1839752Y1227653D01*
X1844751Y1231818D02*
X1841418D01*
Y1229319D01*
X1843085Y1230152D01*
X1843918D01*
X1844751Y1229319D01*
Y1227653D01*
X1843918Y1226820D01*
X1842251D01*
X1841418Y1227653D01*
X1777478Y1172439D02*
X1776645Y1173272D01*
X1774979D01*
X1774146Y1172439D01*
Y1169107D01*
X1774979Y1168274D01*
X1776645D01*
X1777478Y1169107D01*
X1782477Y1168274D02*
X1779144D01*
X1782477Y1171606D01*
Y1172439D01*
X1781644Y1173272D01*
X1779978D01*
X1779144Y1172439D01*
D15*
X2275840Y1924050D02*
Y1925050D01*
D16*
X1783842Y1130300D02*
Y1138174D01*
X1769618Y1130300D02*
Y1138174D01*
X1783842D01*
X1769618Y1130300D02*
X1783842D01*
X1772172Y1098000D02*
X1781172D01*
X1772172D02*
X1776672Y1104500D01*
X1772172D02*
X1781172D01*
X1776672D02*
X1781172Y1098000D01*
X2038858Y1862770D02*
X2053082D01*
X2038858Y1870644D02*
X2053082D01*
X2038858Y1862770D02*
Y1870644D01*
X2053082Y1862770D02*
Y1870644D01*
X1726758Y1642110D02*
X1740982D01*
X1726758Y1649984D02*
X1740982D01*
X1726758Y1642110D02*
Y1649984D01*
X1740982Y1642110D02*
Y1649984D01*
X1697228Y1714500D02*
X1711452D01*
X1697228Y1706626D02*
X1711452D01*
Y1714500D01*
X1697228Y1706626D02*
Y1714500D01*
X1751838Y1649730D02*
X1766062D01*
X1751838Y1641856D02*
X1766062D01*
Y1649730D01*
X1751838Y1641856D02*
Y1649730D01*
X1772158Y1710370D02*
X1786382D01*
X1772158Y1718244D02*
X1786382D01*
X1772158Y1710370D02*
Y1718244D01*
X1786382Y1710370D02*
Y1718244D01*
X2057388Y1863090D02*
X2071612D01*
X2057388Y1870964D02*
X2071612D01*
X2057388Y1863090D02*
Y1870964D01*
X2071612Y1863090D02*
Y1870964D01*
X1848960Y1813920D02*
Y1828920D01*
X1828960Y1813920D02*
X1848960D01*
X1828960D02*
Y1828920D01*
X1848960D01*
X1894078Y1687510D02*
X1908302D01*
X1894078Y1695384D02*
X1908302D01*
X1894078Y1687510D02*
Y1695384D01*
X1908302Y1687510D02*
Y1695384D01*
X1927098Y1695450D02*
X1941322D01*
X1927098Y1687576D02*
X1941322D01*
Y1695450D01*
X1927098Y1687576D02*
Y1695450D01*
X1998980Y1690878D02*
Y1705102D01*
X1991106Y1690878D02*
Y1705102D01*
Y1690878D02*
X1998980D01*
X1991106Y1705102D02*
X1998980D01*
X2248408Y1737106D02*
Y1744980D01*
X2262632Y1737106D02*
Y1744980D01*
X2248408Y1737106D02*
X2262632D01*
X2248408Y1744980D02*
X2262632D01*
X2059780Y1747650D02*
Y1762650D01*
X2039780Y1747650D02*
X2059780D01*
X2039780D02*
Y1762650D01*
X2059780D01*
X1941068Y1447480D02*
X1955292D01*
X1941068Y1455354D02*
X1955292D01*
X1941068Y1447480D02*
Y1455354D01*
X1955292Y1447480D02*
Y1455354D01*
X2083750Y1472438D02*
Y1486662D01*
X2091624Y1472438D02*
Y1486662D01*
X2083750D02*
X2091624D01*
X2083750Y1472438D02*
X2091624D01*
X2087560Y1455928D02*
Y1470152D01*
X2095434Y1455928D02*
Y1470152D01*
X2087560D02*
X2095434D01*
X2087560Y1455928D02*
X2095434D01*
X2091370Y1439418D02*
Y1453642D01*
X2099244Y1439418D02*
Y1453642D01*
X2091370D02*
X2099244D01*
X2091370Y1439418D02*
X2099244D01*
X2078990Y1488948D02*
Y1503172D01*
X2086864Y1488948D02*
Y1503172D01*
X2078990D02*
X2086864D01*
X2078990Y1488948D02*
X2086864D01*
X2048498Y1494790D02*
X2062722D01*
X2048498Y1486916D02*
X2062722D01*
Y1494790D01*
X2048498Y1486916D02*
Y1494790D01*
X2031238Y1504950D02*
X2045462D01*
X2031238Y1497076D02*
X2045462D01*
Y1504950D01*
X2031238Y1497076D02*
Y1504950D01*
X2024060Y1690878D02*
Y1705102D01*
X2031934Y1690878D02*
Y1705102D01*
X2024060D02*
X2031934D01*
X2024060Y1690878D02*
X2031934D01*
X2010730Y1672348D02*
Y1686572D01*
X2002856Y1672348D02*
Y1686572D01*
Y1672348D02*
X2010730D01*
X2002856Y1686572D02*
X2010730D01*
X2067880Y1509268D02*
Y1523492D01*
X2060006Y1509268D02*
Y1523492D01*
Y1509268D02*
X2067880D01*
X2060006Y1523492D02*
X2067880D01*
X1861820Y1476248D02*
Y1490472D01*
X1853946Y1476248D02*
Y1490472D01*
Y1476248D02*
X1861820D01*
X1853946Y1490472D02*
X1861820D01*
X1800860Y1613408D02*
Y1627632D01*
X1808734Y1613408D02*
Y1627632D01*
X1800860D02*
X1808734D01*
X1800860Y1613408D02*
X1808734D01*
X1952940Y1356868D02*
Y1371092D01*
X1960814Y1356868D02*
Y1371092D01*
X1952940D02*
X1960814D01*
X1952940Y1356868D02*
X1960814D01*
X1941068Y1415730D02*
X1955292D01*
X1941068Y1423604D02*
X1955292D01*
X1941068Y1415730D02*
Y1423604D01*
X1955292Y1415730D02*
Y1423604D01*
X1948122Y1391520D02*
X1952622Y1385020D01*
X1943622Y1391520D02*
X1952622D01*
X1943622Y1385020D02*
X1948122Y1391520D01*
X1943622Y1385020D02*
X1952622D01*
X1930908Y1318260D02*
X1945132D01*
X1930908Y1310386D02*
X1945132D01*
Y1318260D01*
X1930908Y1310386D02*
Y1318260D01*
X2217740Y1461008D02*
Y1475232D01*
X2209866Y1461008D02*
Y1475232D01*
Y1461008D02*
X2217740D01*
X2209866Y1475232D02*
X2217740D01*
X2180590Y1461008D02*
Y1475232D01*
X2172716Y1461008D02*
Y1475232D01*
Y1461008D02*
X2180590D01*
X2172716Y1475232D02*
X2180590D01*
X2160270Y1478788D02*
Y1493012D01*
X2152396Y1478788D02*
Y1493012D01*
Y1478788D02*
X2160270D01*
X2152396Y1493012D02*
X2160270D01*
X2223008Y1421450D02*
X2237232D01*
X2223008Y1413576D02*
X2237232D01*
Y1421450D01*
X2223008Y1413576D02*
Y1421450D01*
X1888490Y1261618D02*
Y1275842D01*
X1896364Y1261618D02*
Y1275842D01*
X1888490D02*
X1896364D01*
X1888490Y1261618D02*
X1896364D01*
X1848800Y1259308D02*
Y1273532D01*
X1856674Y1259308D02*
Y1273532D01*
X1848800D02*
X1856674D01*
X1848800Y1259308D02*
X1856674D01*
X1910400Y1648968D02*
Y1663192D01*
X1902526Y1648968D02*
Y1663192D01*
Y1648968D02*
X1910400D01*
X1902526Y1663192D02*
X1910400D01*
X1808800Y1558338D02*
Y1572562D01*
X1800926Y1558338D02*
Y1572562D01*
Y1558338D02*
X1808800D01*
X1800926Y1572562D02*
X1808800D01*
X2061530Y1623568D02*
Y1637792D01*
X2053656Y1623568D02*
Y1637792D01*
Y1623568D02*
X2061530D01*
X2053656Y1637792D02*
X2061530D01*
Y1601978D02*
Y1616202D01*
X2053656Y1601978D02*
Y1616202D01*
Y1601978D02*
X2061530D01*
X2053656Y1616202D02*
X2061530D01*
X2095500Y1613408D02*
Y1627632D01*
X2087626Y1613408D02*
Y1627632D01*
Y1613408D02*
X2095500D01*
X2087626Y1627632D02*
X2095500D01*
X2061530Y1561338D02*
Y1575562D01*
X2053656Y1561338D02*
Y1575562D01*
Y1561338D02*
X2061530D01*
X2053656Y1575562D02*
X2061530D01*
X2095500Y1591818D02*
Y1606042D01*
X2087626Y1591818D02*
Y1606042D01*
Y1591818D02*
X2095500D01*
X2087626Y1606042D02*
X2095500D01*
X2061530Y1581658D02*
Y1595882D01*
X2053656Y1581658D02*
Y1595882D01*
Y1581658D02*
X2061530D01*
X2053656Y1595882D02*
X2061530D01*
X2095500Y1571498D02*
Y1585722D01*
X2087626Y1571498D02*
Y1585722D01*
Y1571498D02*
X2095500D01*
X2087626Y1585722D02*
X2095500D01*
X2095820Y1549908D02*
Y1564132D01*
X2087946Y1549908D02*
Y1564132D01*
Y1549908D02*
X2095820D01*
X2087946Y1564132D02*
X2095820D01*
X2061530Y1538478D02*
Y1552702D01*
X2053656Y1538478D02*
Y1552702D01*
Y1538478D02*
X2061530D01*
X2053656Y1552702D02*
X2061530D01*
X2158238Y1639250D02*
X2172462D01*
X2158238Y1647124D02*
X2172462D01*
X2158238Y1639250D02*
Y1647124D01*
X2172462Y1639250D02*
Y1647124D01*
X2134108Y1640840D02*
X2148332D01*
X2134108Y1648714D02*
X2148332D01*
X2134108Y1640840D02*
Y1648714D01*
X2148332Y1640840D02*
Y1648714D01*
X2155470Y1615340D02*
Y1620338D01*
Y1617006D02*
X2157969Y1618672D01*
X2155470Y1617006D02*
X2157969Y1615340D01*
X2163801D02*
X2160468D01*
X2163801Y1618672D01*
Y1619505D01*
X2162968Y1620338D01*
X2161301D01*
X2160468Y1619505D01*
X2145220Y1615090D02*
Y1620088D01*
Y1616756D02*
X2147719Y1618422D01*
X2145220Y1616756D02*
X2147719Y1615090D01*
X2150218D02*
X2151884D01*
X2151051D01*
Y1620088D01*
X2150218Y1619255D01*
X2155670Y1447440D02*
Y1452438D01*
Y1449106D02*
X2158169Y1450772D01*
X2155670Y1449106D02*
X2158169Y1447440D01*
X2164001D02*
X2160668D01*
X2164001Y1450772D01*
Y1451605D01*
X2163168Y1452438D01*
X2161501D01*
X2160668Y1451605D01*
X2145420Y1447190D02*
Y1452188D01*
Y1448856D02*
X2147919Y1450522D01*
X2145420Y1448856D02*
X2147919Y1447190D01*
X2150418D02*
X2152085D01*
X2151251D01*
Y1452188D01*
X2150418Y1451355D01*
X1774190Y1135888D02*
X1779188D01*
Y1133389D01*
X1778355Y1132556D01*
X1776689D01*
X1775856Y1133389D01*
Y1135888D01*
Y1134222D02*
X1774190Y1132556D01*
X2043430Y1868358D02*
X2048428D01*
Y1865859D01*
X2047595Y1865026D01*
X2045929D01*
X2045096Y1865859D01*
Y1868358D01*
Y1866692D02*
X2043430Y1865026D01*
X1731330Y1647698D02*
X1736328D01*
Y1645199D01*
X1735495Y1644366D01*
X1733829D01*
X1732996Y1645199D01*
Y1647698D01*
Y1646032D02*
X1731330Y1644366D01*
X1706880Y1708912D02*
X1701882D01*
Y1711411D01*
X1702715Y1712244D01*
X1704381D01*
X1705214Y1711411D01*
Y1708912D01*
Y1710578D02*
X1706880Y1712244D01*
X1761490Y1644142D02*
X1756492D01*
Y1646641D01*
X1757325Y1647474D01*
X1758991D01*
X1759824Y1646641D01*
Y1644142D01*
Y1645808D02*
X1761490Y1647474D01*
X1776730Y1715958D02*
X1781728D01*
Y1713459D01*
X1780895Y1712626D01*
X1779229D01*
X1778396Y1713459D01*
Y1715958D01*
Y1714292D02*
X1776730Y1712626D01*
X2061960Y1868678D02*
X2066958D01*
Y1866179D01*
X2066125Y1865346D01*
X2064459D01*
X2063626Y1866179D01*
Y1868678D01*
Y1867012D02*
X2061960Y1865346D01*
X1898650Y1693098D02*
X1903648D01*
Y1690599D01*
X1902815Y1689766D01*
X1901149D01*
X1900316Y1690599D01*
Y1693098D01*
Y1691432D02*
X1898650Y1689766D01*
X1936750Y1689862D02*
X1931752D01*
Y1692361D01*
X1932585Y1693194D01*
X1934251D01*
X1935084Y1692361D01*
Y1689862D01*
Y1691528D02*
X1936750Y1693194D01*
X1993392Y1695450D02*
Y1700448D01*
X1995891D01*
X1996724Y1699615D01*
Y1697949D01*
X1995891Y1697116D01*
X1993392D01*
X1995058D02*
X1996724Y1695450D01*
X2258060Y1739392D02*
X2253062D01*
Y1741891D01*
X2253895Y1742724D01*
X2255561D01*
X2256394Y1741891D01*
Y1739392D01*
Y1741058D02*
X2258060Y1742724D01*
X1945640Y1453068D02*
X1950638D01*
Y1450569D01*
X1949805Y1449736D01*
X1948139D01*
X1947306Y1450569D01*
Y1453068D01*
Y1451402D02*
X1945640Y1449736D01*
X2089338Y1482090D02*
Y1477092D01*
X2086839D01*
X2086006Y1477925D01*
Y1479591D01*
X2086839Y1480424D01*
X2089338D01*
X2087672D02*
X2086006Y1482090D01*
X2093148Y1465580D02*
Y1460582D01*
X2090649D01*
X2089816Y1461415D01*
Y1463081D01*
X2090649Y1463914D01*
X2093148D01*
X2091482D02*
X2089816Y1465580D01*
X2096958Y1449070D02*
Y1444072D01*
X2094459D01*
X2093626Y1444905D01*
Y1446571D01*
X2094459Y1447404D01*
X2096958D01*
X2095292D02*
X2093626Y1449070D01*
X2084578Y1498600D02*
Y1493602D01*
X2082079D01*
X2081246Y1494435D01*
Y1496101D01*
X2082079Y1496934D01*
X2084578D01*
X2082912D02*
X2081246Y1498600D01*
X2058150Y1489202D02*
X2053152D01*
Y1491701D01*
X2053985Y1492534D01*
X2055651D01*
X2056484Y1491701D01*
Y1489202D01*
Y1490868D02*
X2058150Y1492534D01*
X2040890Y1499362D02*
X2035892D01*
Y1501861D01*
X2036725Y1502694D01*
X2038391D01*
X2039224Y1501861D01*
Y1499362D01*
Y1501028D02*
X2040890Y1502694D01*
X2029648Y1700530D02*
Y1695532D01*
X2027149D01*
X2026316Y1696365D01*
Y1698031D01*
X2027149Y1698864D01*
X2029648D01*
X2027982D02*
X2026316Y1700530D01*
X2005142Y1676920D02*
Y1681918D01*
X2007641D01*
X2008474Y1681085D01*
Y1679419D01*
X2007641Y1678586D01*
X2005142D01*
X2006808D02*
X2008474Y1676920D01*
X2062292Y1513840D02*
Y1518838D01*
X2064791D01*
X2065624Y1518005D01*
Y1516339D01*
X2064791Y1515506D01*
X2062292D01*
X2063958D02*
X2065624Y1513840D01*
X1856232Y1480820D02*
Y1485818D01*
X1858731D01*
X1859564Y1484985D01*
Y1483319D01*
X1858731Y1482486D01*
X1856232D01*
X1857898D02*
X1859564Y1480820D01*
X1806448Y1623060D02*
Y1618062D01*
X1803949D01*
X1803116Y1618895D01*
Y1620561D01*
X1803949Y1621394D01*
X1806448D01*
X1804782D02*
X1803116Y1623060D01*
X1958528Y1366520D02*
Y1361522D01*
X1956029D01*
X1955196Y1362355D01*
Y1364021D01*
X1956029Y1364854D01*
X1958528D01*
X1956862D02*
X1955196Y1366520D01*
X1945640Y1421318D02*
X1950638D01*
Y1418819D01*
X1949805Y1417986D01*
X1948139D01*
X1947306Y1418819D01*
Y1421318D01*
Y1419652D02*
X1945640Y1417986D01*
X1940560Y1312672D02*
X1935562D01*
Y1315171D01*
X1936395Y1316004D01*
X1938061D01*
X1938894Y1315171D01*
Y1312672D01*
Y1314338D02*
X1940560Y1316004D01*
X2212152Y1465580D02*
Y1470578D01*
X2214651D01*
X2215484Y1469745D01*
Y1468079D01*
X2214651Y1467246D01*
X2212152D01*
X2213818D02*
X2215484Y1465580D01*
X2175002D02*
Y1470578D01*
X2177501D01*
X2178334Y1469745D01*
Y1468079D01*
X2177501Y1467246D01*
X2175002D01*
X2176668D02*
X2178334Y1465580D01*
X2154682Y1483360D02*
Y1488358D01*
X2157181D01*
X2158014Y1487525D01*
Y1485859D01*
X2157181Y1485026D01*
X2154682D01*
X2156348D02*
X2158014Y1483360D01*
X2232660Y1415862D02*
X2227662D01*
Y1418361D01*
X2228495Y1419194D01*
X2230161D01*
X2230994Y1418361D01*
Y1415862D01*
Y1417528D02*
X2232660Y1419194D01*
X1894078Y1271270D02*
Y1266272D01*
X1891579D01*
X1890746Y1267105D01*
Y1268771D01*
X1891579Y1269604D01*
X1894078D01*
X1892412D02*
X1890746Y1271270D01*
X1854388Y1268960D02*
Y1263962D01*
X1851889D01*
X1851056Y1264795D01*
Y1266461D01*
X1851889Y1267294D01*
X1854388D01*
X1852722D02*
X1851056Y1268960D01*
X1904812Y1653540D02*
Y1658538D01*
X1907311D01*
X1908144Y1657705D01*
Y1656039D01*
X1907311Y1655206D01*
X1904812D01*
X1906478D02*
X1908144Y1653540D01*
X1803212Y1562910D02*
Y1567908D01*
X1805711D01*
X1806544Y1567075D01*
Y1565409D01*
X1805711Y1564576D01*
X1803212D01*
X1804878D02*
X1806544Y1562910D01*
X2055942Y1628140D02*
Y1633138D01*
X2058441D01*
X2059274Y1632305D01*
Y1630639D01*
X2058441Y1629806D01*
X2055942D01*
X2057608D02*
X2059274Y1628140D01*
X2055942Y1606550D02*
Y1611548D01*
X2058441D01*
X2059274Y1610715D01*
Y1609049D01*
X2058441Y1608216D01*
X2055942D01*
X2057608D02*
X2059274Y1606550D01*
X2089912Y1617980D02*
Y1622978D01*
X2092411D01*
X2093244Y1622145D01*
Y1620479D01*
X2092411Y1619646D01*
X2089912D01*
X2091578D02*
X2093244Y1617980D01*
X2055942Y1565910D02*
Y1570908D01*
X2058441D01*
X2059274Y1570075D01*
Y1568409D01*
X2058441Y1567576D01*
X2055942D01*
X2057608D02*
X2059274Y1565910D01*
X2089912Y1596390D02*
Y1601388D01*
X2092411D01*
X2093244Y1600555D01*
Y1598889D01*
X2092411Y1598056D01*
X2089912D01*
X2091578D02*
X2093244Y1596390D01*
X2055942Y1586230D02*
Y1591228D01*
X2058441D01*
X2059274Y1590395D01*
Y1588729D01*
X2058441Y1587896D01*
X2055942D01*
X2057608D02*
X2059274Y1586230D01*
X2089912Y1576070D02*
Y1581068D01*
X2092411D01*
X2093244Y1580235D01*
Y1578569D01*
X2092411Y1577736D01*
X2089912D01*
X2091578D02*
X2093244Y1576070D01*
X2090232Y1554480D02*
Y1559478D01*
X2092731D01*
X2093564Y1558645D01*
Y1556979D01*
X2092731Y1556146D01*
X2090232D01*
X2091898D02*
X2093564Y1554480D01*
X2055942Y1543050D02*
Y1548048D01*
X2058441D01*
X2059274Y1547215D01*
Y1545549D01*
X2058441Y1544716D01*
X2055942D01*
X2057608D02*
X2059274Y1543050D01*
X2162810Y1644838D02*
X2167808D01*
Y1642339D01*
X2166975Y1641506D01*
X2165309D01*
X2164476Y1642339D01*
Y1644838D01*
Y1643172D02*
X2162810Y1641506D01*
X2138680Y1646428D02*
X2143678D01*
Y1643929D01*
X2142845Y1643096D01*
X2141179D01*
X2140346Y1643929D01*
Y1646428D01*
Y1644762D02*
X2138680Y1643096D01*
D17*
X1818720Y1760330D02*
X1822720D01*
X1820720Y1758330D02*
Y1762330D01*
X1834610Y1752600D02*
X1837150D01*
X1834610Y1750060D02*
X1837150D01*
X1835880Y1752600D02*
Y1755140D01*
Y1747520D02*
Y1750060D01*
X1812370Y1790810D02*
X1816370D01*
X1814370Y1788810D02*
Y1792810D01*
X1828260Y1783080D02*
X1830800D01*
X1828260Y1780540D02*
X1830800D01*
X1829530Y1783080D02*
Y1785620D01*
Y1778000D02*
Y1780540D01*
X1760350Y1572260D02*
Y1574800D01*
Y1577340D02*
Y1579880D01*
X1759080Y1574800D02*
X1761620D01*
X1759080Y1577340D02*
X1761620D01*
X1745190Y1583070D02*
Y1587070D01*
X1743190Y1585070D02*
X1747190D01*
X2226070Y1823930D02*
X2227320D01*
X2226070Y1817930D02*
Y1823930D01*
Y1817930D02*
X2228570D01*
Y1823930D01*
X2227320D02*
X2228570D01*
X2227320D02*
Y1825930D01*
Y1815930D02*
Y1817930D01*
X2121160Y1818430D02*
X2122410D01*
Y1824430D01*
X2119910D02*
X2122410D01*
X2119910Y1818430D02*
Y1824430D01*
Y1818430D02*
X2121160D01*
Y1816430D02*
Y1818430D01*
Y1824430D02*
Y1826430D01*
D18*
X1764979Y1181659D02*
Y1251659D01*
X1649979D02*
X1764979D01*
X1649979Y1181659D02*
Y1251659D01*
Y1181659D02*
X1764979D01*
X1812050Y1424770D02*
X1822050D01*
Y1474770D01*
X1812050D02*
X1822050D01*
D19*
X1848485Y1106915D02*
D03*
M02*
