G04*
G04 #@! TF.GenerationSoftware,Altium Limited,Altium Designer,19.1.5 (86)*
G04*
G04 Layer_Color=32896*
%FSLAX44Y44*%
%MOMM*%
G71*
G01*
G75*
%ADD10C,0.2540*%
%ADD11C,0.2500*%
%ADD13C,0.1000*%
%ADD14C,0.2000*%
%ADD16C,0.1500*%
%ADD17C,0.0500*%
%ADD18C,0.3000*%
D10*
X1719862Y1492010D02*
X1754862D01*
Y1411010D02*
Y1492010D01*
X1719862Y1411010D02*
X1754862D01*
X1719862D02*
Y1492010D01*
X1793001Y1517929D02*
Y1552929D01*
X1712001Y1517929D02*
X1793001D01*
X1712001D02*
Y1552929D01*
X1793001D01*
X2117378Y1333616D02*
X2125864Y1342102D01*
X2106772Y1344223D02*
X2115257Y1352708D01*
X2132935Y1335031D01*
X2124449Y1326545D02*
X2132935Y1335031D01*
X2106772Y1344223D02*
X2124449Y1326545D01*
X2107218Y1323456D02*
X2115704Y1331942D01*
X2096612Y1334063D02*
X2105097Y1342548D01*
X2122775Y1324870D01*
X2114290Y1316385D02*
X2122775Y1324870D01*
X2096612Y1334063D02*
X2114290Y1316385D01*
X2079023Y1303864D02*
X2100412Y1325254D01*
X2079023Y1303864D02*
X2103064Y1279823D01*
X2124454Y1301213D01*
X2100412Y1325254D02*
X2124454Y1301213D01*
X2152080Y1396140D02*
X2186080D01*
Y1365890D02*
Y1396140D01*
X2152080Y1365890D02*
X2186080D01*
X2152080D02*
Y1396140D01*
X2123763Y1347549D02*
X2145153Y1368939D01*
X2123763Y1347549D02*
X2147805Y1323507D01*
X2169195Y1344897D01*
X2145153Y1368939D02*
X2169195Y1344897D01*
X2264030Y1315440D02*
Y1357440D01*
X2233280D02*
X2264030D01*
X2233280Y1315440D02*
Y1357440D01*
Y1315440D02*
X2264030D01*
X2198254Y1315620D02*
X2229004D01*
X2198254D02*
Y1357620D01*
X2229004D01*
Y1315620D02*
Y1357620D01*
X2058837Y1275394D02*
X2078636Y1295193D01*
X2105330Y1268500D01*
X2085531Y1248701D02*
X2105330Y1268500D01*
X2058837Y1275394D02*
X2085531Y1248701D01*
X2109680Y1270410D02*
X2143680D01*
Y1240160D02*
Y1270410D01*
X2109680Y1240160D02*
X2143680D01*
X2109680D02*
Y1270410D01*
X2147660Y1237100D02*
Y1279100D01*
Y1237100D02*
X2178410D01*
Y1279100D01*
X2147660D02*
X2178410D01*
X2217490Y1230800D02*
Y1261550D01*
X2259490D01*
Y1230800D02*
Y1261550D01*
X2217490Y1230800D02*
X2259490D01*
X2217700Y1265010D02*
Y1295760D01*
X2259700D01*
Y1265010D02*
Y1295760D01*
X2217700Y1265010D02*
X2259700D01*
X1916030Y1257510D02*
X1946780D01*
Y1215510D02*
Y1257510D01*
X1916030Y1215510D02*
X1946780D01*
X1916030D02*
Y1257510D01*
X1959700Y1270210D02*
X1990450D01*
Y1228210D02*
Y1270210D01*
X1959700Y1228210D02*
X1990450D01*
X1959700D02*
Y1270210D01*
X1715420Y1451660D02*
Y1476660D01*
X1703420D02*
X1715420D01*
X1703420Y1451660D02*
Y1476660D01*
Y1451660D02*
X1715420D01*
X1703420Y1466660D02*
X1715420D01*
X1703420Y1430370D02*
Y1455370D01*
Y1430370D02*
X1715420D01*
Y1455370D01*
X1703420D02*
X1715420D01*
X1703420Y1440370D02*
X1715420D01*
X2173780Y1820500D02*
X2255780D01*
Y1862500D01*
X2173780D02*
X2255780D01*
X2173780Y1820500D02*
Y1862500D01*
X2249170Y1153309D02*
Y1143312D01*
X2244172D01*
X2242505Y1144978D01*
Y1151643D01*
X2244172Y1153309D01*
X2249170D01*
X2239173Y1143312D02*
Y1149977D01*
X2237507D01*
X2235841Y1148310D01*
Y1143312D01*
Y1148310D01*
X2234175Y1149977D01*
X2232509Y1148310D01*
Y1143312D01*
X2229176D02*
Y1144978D01*
X2227510D01*
Y1143312D01*
X2229176D01*
X2220846D02*
Y1153309D01*
X2215847D01*
X2214181Y1151643D01*
Y1148310D01*
X2215847Y1146644D01*
X2220846D01*
X2209183Y1149977D02*
X2205851D01*
X2204185Y1148310D01*
Y1143312D01*
X2209183D01*
X2210849Y1144978D01*
X2209183Y1146644D01*
X2204185D01*
X2200852Y1143312D02*
Y1153309D01*
Y1146644D02*
X2195854Y1149977D01*
X2200852Y1146644D02*
X2195854Y1143312D01*
X2190856D02*
X2187523D01*
X2189189D01*
Y1149977D01*
X2190856D01*
X2182525Y1143312D02*
X2177526D01*
X2175860Y1144978D01*
X2177526Y1146644D01*
X2180859D01*
X2182525Y1148310D01*
X2180859Y1149977D01*
X2175860D01*
X2170862Y1151643D02*
Y1149977D01*
X2172528D01*
X2169196D01*
X2170862D01*
Y1144978D01*
X2169196Y1143312D01*
X2162531Y1149977D02*
X2159199D01*
X2157533Y1148310D01*
Y1143312D01*
X2162531D01*
X2164197Y1144978D01*
X2162531Y1146644D01*
X2157533D01*
X2154201Y1143312D02*
Y1149977D01*
X2149202D01*
X2147536Y1148310D01*
Y1143312D01*
X2249170Y1125220D02*
X2245838D01*
X2247504D01*
Y1135217D01*
X2249170Y1133551D01*
X2234175Y1135217D02*
X2240839D01*
Y1130218D01*
X2237507Y1131885D01*
X2235841D01*
X2234175Y1130218D01*
Y1126886D01*
X2235841Y1125220D01*
X2239173D01*
X2240839Y1126886D01*
X2230843Y1125220D02*
Y1126886D01*
X2229176D01*
Y1125220D01*
X2230843D01*
X2222512Y1133551D02*
X2220846Y1135217D01*
X2217513D01*
X2215847Y1133551D01*
Y1126886D01*
X2217513Y1125220D01*
X2220846D01*
X2222512Y1126886D01*
Y1133551D01*
X2212515Y1125220D02*
X2209183D01*
X2210849D01*
Y1135217D01*
X2212515Y1133551D01*
X2204185Y1125220D02*
Y1126886D01*
X2202518D01*
Y1125220D01*
X2204185D01*
X2189189D02*
X2195854D01*
X2189189Y1131885D01*
Y1133551D01*
X2190856Y1135217D01*
X2194188D01*
X2195854Y1133551D01*
X2180859Y1125220D02*
Y1135217D01*
X2185857Y1130218D01*
X2179193D01*
X1976202Y1595628D02*
X1981200D01*
Y1592296D01*
X1848957Y1407160D02*
X1838960D01*
Y1412158D01*
X1840626Y1413824D01*
X1842292D01*
X1843958Y1412158D01*
Y1407160D01*
Y1412158D01*
X1845625Y1413824D01*
X1847291D01*
X1848957Y1412158D01*
Y1407160D01*
X1840626Y1423821D02*
X1847291D01*
X1848957Y1422155D01*
Y1418823D01*
X1847291Y1417157D01*
X1840626D01*
X1838960Y1418823D01*
Y1422155D01*
X1842292Y1420489D02*
X1838960Y1423821D01*
Y1422155D02*
X1840626Y1423821D01*
X1838960Y1427154D02*
Y1430486D01*
Y1428820D01*
X1848957D01*
X1847291Y1427154D01*
X1931507Y1404620D02*
X1921510D01*
Y1409618D01*
X1923176Y1411284D01*
X1924842D01*
X1926508Y1409618D01*
Y1404620D01*
Y1409618D01*
X1928174Y1411284D01*
X1929841D01*
X1931507Y1409618D01*
Y1404620D01*
X1923176Y1421281D02*
X1929841D01*
X1931507Y1419615D01*
Y1416283D01*
X1929841Y1414617D01*
X1923176D01*
X1921510Y1416283D01*
Y1419615D01*
X1924842Y1417949D02*
X1921510Y1421281D01*
Y1419615D02*
X1923176Y1421281D01*
X1921510Y1431278D02*
Y1424614D01*
X1928174Y1431278D01*
X1929841D01*
X1931507Y1429612D01*
Y1426280D01*
X1929841Y1424614D01*
X2002411Y1330055D02*
X1998877Y1326521D01*
X1996521Y1328877D01*
X1653540Y1706880D02*
X1661537D01*
Y1710879D01*
X1660204Y1712212D01*
X1657539D01*
X1656206Y1710879D01*
Y1706880D01*
Y1709546D02*
X1653540Y1712212D01*
X1661537Y1720209D02*
X1660204Y1717543D01*
X1657539Y1714877D01*
X1654873D01*
X1653540Y1716210D01*
Y1718876D01*
X1654873Y1720209D01*
X1656206D01*
X1657539Y1718876D01*
Y1714877D01*
X1653540Y1726874D02*
X1661537D01*
X1657539Y1722875D01*
Y1728206D01*
X1713738Y1235293D02*
Y1228628D01*
X1710406Y1225296D01*
X1707074Y1228628D01*
Y1235293D01*
X1703741D02*
Y1225296D01*
X1698743D01*
X1697077Y1226962D01*
Y1233627D01*
X1698743Y1235293D01*
X1703741D01*
X1693744Y1225296D02*
X1690412D01*
X1692078D01*
Y1235293D01*
X1693744Y1233627D01*
X1678749Y1235293D02*
X1685414D01*
Y1230294D01*
X1682081Y1231961D01*
X1680415D01*
X1678749Y1230294D01*
Y1226962D01*
X1680415Y1225296D01*
X1683748D01*
X1685414Y1226962D01*
X1696098Y1423670D02*
X1691433D01*
X1689100Y1426003D01*
X1691433Y1428335D01*
X1696098D01*
Y1430668D02*
X1689100D01*
Y1434167D01*
X1690266Y1435333D01*
X1694931D01*
X1696098Y1434167D01*
Y1430668D01*
X1690266Y1437666D02*
X1689100Y1438832D01*
Y1441164D01*
X1690266Y1442331D01*
X1694931D01*
X1696098Y1441164D01*
Y1438832D01*
X1694931Y1437666D01*
X1693765D01*
X1692599Y1438832D01*
Y1442331D01*
X1696098Y1461770D02*
X1691433D01*
X1689100Y1464103D01*
X1691433Y1466435D01*
X1696098D01*
Y1468768D02*
X1689100D01*
Y1472267D01*
X1690266Y1473433D01*
X1694931D01*
X1696098Y1472267D01*
Y1468768D01*
X1689100Y1475766D02*
Y1478098D01*
Y1476932D01*
X1696098D01*
X1694931Y1475766D01*
Y1481597D02*
X1696098Y1482763D01*
Y1485096D01*
X1694931Y1486262D01*
X1690266D01*
X1689100Y1485096D01*
Y1482763D01*
X1690266Y1481597D01*
X1694931D01*
X2230120Y1802130D02*
Y1812127D01*
X2225122D01*
X2223456Y1810461D01*
Y1807128D01*
X2225122Y1805462D01*
X2230120D01*
X2226788D02*
X2223456Y1802130D01*
X2220123Y1810461D02*
X2218457Y1812127D01*
X2215125D01*
X2213459Y1810461D01*
Y1808795D01*
X2215125Y1807128D01*
X2216791D01*
X2215125D01*
X2213459Y1805462D01*
Y1803796D01*
X2215125Y1802130D01*
X2218457D01*
X2220123Y1803796D01*
X2210126D02*
X2208460Y1802130D01*
X2205128D01*
X2203462Y1803796D01*
Y1810461D01*
X2205128Y1812127D01*
X2208460D01*
X2210126Y1810461D01*
Y1808795D01*
X2208460Y1807128D01*
X2203462D01*
X1939290Y1485900D02*
X1946288D01*
Y1489399D01*
X1945121Y1490565D01*
X1942789D01*
X1941623Y1489399D01*
Y1485900D01*
Y1488233D02*
X1939290Y1490565D01*
X1945121Y1492898D02*
X1946288Y1494064D01*
Y1496397D01*
X1945121Y1497563D01*
X1943955D01*
X1942789Y1496397D01*
Y1495230D01*
Y1496397D01*
X1941623Y1497563D01*
X1940456D01*
X1939290Y1496397D01*
Y1494064D01*
X1940456Y1492898D01*
X1945121Y1499895D02*
X1946288Y1501062D01*
Y1503394D01*
X1945121Y1504561D01*
X1943955D01*
X1942789Y1503394D01*
Y1502228D01*
Y1503394D01*
X1941623Y1504561D01*
X1940456D01*
X1939290Y1503394D01*
Y1501062D01*
X1940456Y1499895D01*
X2034860Y1633220D02*
Y1640218D01*
X2031361D01*
X2030195Y1639052D01*
Y1636719D01*
X2031361Y1635553D01*
X2034860D01*
X2032527D02*
X2030195Y1633220D01*
X2023197D02*
X2027862D01*
X2023197Y1637885D01*
Y1639052D01*
X2024363Y1640218D01*
X2026696D01*
X2027862Y1639052D01*
X2017366Y1633220D02*
Y1640218D01*
X2020865Y1636719D01*
X2016199D01*
X2049780Y1615440D02*
Y1622438D01*
X2046281D01*
X2045115Y1621272D01*
Y1618939D01*
X2046281Y1617773D01*
X2049780D01*
X2047447D02*
X2045115Y1615440D01*
X2042782D02*
X2040450D01*
X2041616D01*
Y1622438D01*
X2042782Y1621272D01*
X2036951Y1616606D02*
X2035784Y1615440D01*
X2033452D01*
X2032286Y1616606D01*
Y1621272D01*
X2033452Y1622438D01*
X2035784D01*
X2036951Y1621272D01*
Y1620105D01*
X2035784Y1618939D01*
X2032286D01*
X2034860Y1600200D02*
Y1607198D01*
X2031361D01*
X2030195Y1606031D01*
Y1603699D01*
X2031361Y1602533D01*
X2034860D01*
X2032527D02*
X2030195Y1600200D01*
X2023197Y1607198D02*
X2025530Y1606031D01*
X2027862Y1603699D01*
Y1601366D01*
X2026696Y1600200D01*
X2024363D01*
X2023197Y1601366D01*
Y1602533D01*
X2024363Y1603699D01*
X2027862D01*
X2016199Y1607198D02*
X2018532Y1606031D01*
X2020865Y1603699D01*
Y1601366D01*
X2019698Y1600200D01*
X2017366D01*
X2016199Y1601366D01*
Y1602533D01*
X2017366Y1603699D01*
X2020865D01*
X1995384Y1316562D02*
X1990435Y1311614D01*
X1987137Y1314913D01*
X1983013Y1319036D02*
X1987961Y1323984D01*
Y1319036D01*
X1984663Y1322335D01*
X1997088Y1587820D02*
X1990090D01*
Y1592485D01*
X1995921Y1594818D02*
X1997088Y1595984D01*
Y1598317D01*
X1995921Y1599483D01*
X1994755D01*
X1993589Y1598317D01*
Y1597150D01*
Y1598317D01*
X1992423Y1599483D01*
X1991256D01*
X1990090Y1598317D01*
Y1595984D01*
X1991256Y1594818D01*
X2254961Y1653855D02*
X2256627Y1652188D01*
Y1648856D01*
X2254961Y1647190D01*
X2248296D01*
X2246630Y1648856D01*
Y1652188D01*
X2248296Y1653855D01*
X2256627Y1663851D02*
X2254961Y1660519D01*
X2251628Y1657187D01*
X2248296D01*
X2246630Y1658853D01*
Y1662185D01*
X2248296Y1663851D01*
X2249962D01*
X2251628Y1662185D01*
Y1657187D01*
X2256627Y1673848D02*
Y1667184D01*
X2251628D01*
X2253295Y1670516D01*
Y1672182D01*
X2251628Y1673848D01*
X2248296D01*
X2246630Y1672182D01*
Y1668850D01*
X2248296Y1667184D01*
X2213091Y1580735D02*
X2214258Y1579569D01*
Y1577236D01*
X2213091Y1576070D01*
X2208426D01*
X2207260Y1577236D01*
Y1579569D01*
X2208426Y1580735D01*
X2214258Y1587733D02*
X2213091Y1585400D01*
X2210759Y1583068D01*
X2208426D01*
X2207260Y1584234D01*
Y1586567D01*
X2208426Y1587733D01*
X2209593D01*
X2210759Y1586567D01*
Y1583068D01*
X2207260Y1594731D02*
Y1590065D01*
X2211925Y1594731D01*
X2213091D01*
X2214258Y1593564D01*
Y1591232D01*
X2213091Y1590065D01*
X2104075Y1421841D02*
X2105742Y1423507D01*
X2109074D01*
X2110740Y1421841D01*
Y1415176D01*
X2109074Y1413510D01*
X2105742D01*
X2104075Y1415176D01*
X2094079Y1423507D02*
X2100743D01*
Y1418508D01*
X2097411Y1420175D01*
X2095745D01*
X2094079Y1418508D01*
Y1415176D01*
X2095745Y1413510D01*
X2099077D01*
X2100743Y1415176D01*
X2090746Y1421841D02*
X2089080Y1423507D01*
X2085748D01*
X2084082Y1421841D01*
Y1420175D01*
X2085748Y1418508D01*
X2087414D01*
X2085748D01*
X2084082Y1416842D01*
Y1415176D01*
X2085748Y1413510D01*
X2089080D01*
X2090746Y1415176D01*
X2013365Y1383781D02*
X2014531Y1384948D01*
X2016864D01*
X2018030Y1383781D01*
Y1379116D01*
X2016864Y1377950D01*
X2014531D01*
X2013365Y1379116D01*
X2006367Y1384948D02*
X2011032D01*
Y1381449D01*
X2008700Y1382615D01*
X2007533D01*
X2006367Y1381449D01*
Y1379116D01*
X2007533Y1377950D01*
X2009866D01*
X2011032Y1379116D01*
X2004034Y1377950D02*
X2001702D01*
X2002868D01*
Y1384948D01*
X2004034Y1383781D01*
X2013365Y1366001D02*
X2014531Y1367168D01*
X2016864D01*
X2018030Y1366001D01*
Y1361336D01*
X2016864Y1360170D01*
X2014531D01*
X2013365Y1361336D01*
X2006367Y1367168D02*
X2011032D01*
Y1363669D01*
X2008700Y1364835D01*
X2007533D01*
X2006367Y1363669D01*
Y1361336D01*
X2007533Y1360170D01*
X2009866D01*
X2011032Y1361336D01*
X2004034Y1366001D02*
X2002868Y1367168D01*
X2000536D01*
X1999369Y1366001D01*
Y1361336D01*
X2000536Y1360170D01*
X2002868D01*
X2004034Y1361336D01*
Y1366001D01*
X1993045Y1405372D02*
X1994211Y1406538D01*
X1996544D01*
X1997710Y1405372D01*
Y1400706D01*
X1996544Y1399540D01*
X1994211D01*
X1993045Y1400706D01*
X1987213Y1399540D02*
Y1406538D01*
X1990712Y1403039D01*
X1986047D01*
X1983714Y1400706D02*
X1982548Y1399540D01*
X1980216D01*
X1979049Y1400706D01*
Y1405372D01*
X1980216Y1406538D01*
X1982548D01*
X1983714Y1405372D01*
Y1404205D01*
X1982548Y1403039D01*
X1979049D01*
X1896862Y1363565D02*
X1898028Y1362399D01*
Y1360066D01*
X1896862Y1358900D01*
X1892196D01*
X1891030Y1360066D01*
Y1362399D01*
X1892196Y1363565D01*
X1891030Y1369397D02*
X1898028D01*
X1894529Y1365898D01*
Y1370563D01*
X1891030Y1376394D02*
X1898028D01*
X1894529Y1372896D01*
Y1377561D01*
X1896862Y1456275D02*
X1898028Y1455109D01*
Y1452776D01*
X1896862Y1451610D01*
X1892196D01*
X1891030Y1452776D01*
Y1455109D01*
X1892196Y1456275D01*
X1891030Y1462107D02*
X1898028D01*
X1894529Y1458608D01*
Y1463273D01*
X1896862Y1465605D02*
X1898028Y1466772D01*
Y1469104D01*
X1896862Y1470271D01*
X1895695D01*
X1894529Y1469104D01*
Y1467938D01*
Y1469104D01*
X1893363Y1470271D01*
X1892196D01*
X1891030Y1469104D01*
Y1466772D01*
X1892196Y1465605D01*
X2193705Y1647941D02*
X2194871Y1649108D01*
X2197204D01*
X2198370Y1647941D01*
Y1643276D01*
X2197204Y1642110D01*
X2194871D01*
X2193705Y1643276D01*
X2191372Y1647941D02*
X2190206Y1649108D01*
X2187873D01*
X2186707Y1647941D01*
Y1646775D01*
X2187873Y1645609D01*
X2189040D01*
X2187873D01*
X2186707Y1644443D01*
Y1643276D01*
X2187873Y1642110D01*
X2190206D01*
X2191372Y1643276D01*
X2184375D02*
X2183208Y1642110D01*
X2180876D01*
X2179709Y1643276D01*
Y1647941D01*
X2180876Y1649108D01*
X2183208D01*
X2184375Y1647941D01*
Y1646775D01*
X2183208Y1645609D01*
X2179709D01*
X1879082Y1363565D02*
X1880248Y1362399D01*
Y1360066D01*
X1879082Y1358900D01*
X1874416D01*
X1873250Y1360066D01*
Y1362399D01*
X1874416Y1363565D01*
X1879082Y1365898D02*
X1880248Y1367064D01*
Y1369397D01*
X1879082Y1370563D01*
X1877915D01*
X1876749Y1369397D01*
Y1368230D01*
Y1369397D01*
X1875583Y1370563D01*
X1874416D01*
X1873250Y1369397D01*
Y1367064D01*
X1874416Y1365898D01*
X1879082Y1372896D02*
X1880248Y1374062D01*
Y1376394D01*
X1879082Y1377561D01*
X1877915D01*
X1876749Y1376394D01*
Y1375228D01*
Y1376394D01*
X1875583Y1377561D01*
X1874416D01*
X1873250Y1376394D01*
Y1374062D01*
X1874416Y1372896D01*
X1880352Y1458815D02*
X1881518Y1457649D01*
Y1455316D01*
X1880352Y1454150D01*
X1875686D01*
X1874520Y1455316D01*
Y1457649D01*
X1875686Y1458815D01*
X1880352Y1461148D02*
X1881518Y1462314D01*
Y1464647D01*
X1880352Y1465813D01*
X1879185D01*
X1878019Y1464647D01*
Y1463480D01*
Y1464647D01*
X1876853Y1465813D01*
X1875686D01*
X1874520Y1464647D01*
Y1462314D01*
X1875686Y1461148D01*
X1874520Y1468145D02*
Y1470478D01*
Y1469312D01*
X1881518D01*
X1880352Y1468145D01*
X1884366Y1514551D02*
X1886032Y1516217D01*
X1889364D01*
X1891030Y1514551D01*
Y1507886D01*
X1889364Y1506220D01*
X1886032D01*
X1884366Y1507886D01*
X1874369Y1506220D02*
X1881033D01*
X1874369Y1512885D01*
Y1514551D01*
X1876035Y1516217D01*
X1879367D01*
X1881033Y1514551D01*
X1871036D02*
X1869370Y1516217D01*
X1866038D01*
X1864372Y1514551D01*
Y1512885D01*
X1866038Y1511218D01*
X1864372Y1509552D01*
Y1507886D01*
X1866038Y1506220D01*
X1869370D01*
X1871036Y1507886D01*
Y1509552D01*
X1869370Y1511218D01*
X1871036Y1512885D01*
Y1514551D01*
X1869370Y1511218D02*
X1866038D01*
X1934921Y1652585D02*
X1936587Y1650918D01*
Y1647586D01*
X1934921Y1645920D01*
X1928256D01*
X1926590Y1647586D01*
Y1650918D01*
X1928256Y1652585D01*
X1926590Y1662581D02*
Y1655917D01*
X1933255Y1662581D01*
X1934921D01*
X1936587Y1660915D01*
Y1657583D01*
X1934921Y1655917D01*
X1936587Y1665914D02*
Y1672578D01*
X1934921D01*
X1928256Y1665914D01*
X1926590D01*
X1877475Y1555231D02*
X1878641Y1556398D01*
X1880974D01*
X1882140Y1555231D01*
Y1550566D01*
X1880974Y1549400D01*
X1878641D01*
X1877475Y1550566D01*
X1870477Y1549400D02*
X1875142D01*
X1870477Y1554065D01*
Y1555231D01*
X1871643Y1556398D01*
X1873976D01*
X1875142Y1555231D01*
X1863479Y1556398D02*
X1865812Y1555231D01*
X1868145Y1552899D01*
Y1550566D01*
X1866978Y1549400D01*
X1864646D01*
X1863479Y1550566D01*
Y1551733D01*
X1864646Y1552899D01*
X1868145D01*
X1957485Y1548882D02*
X1958651Y1550048D01*
X1960984D01*
X1962150Y1548882D01*
Y1544216D01*
X1960984Y1543050D01*
X1958651D01*
X1957485Y1544216D01*
X1950487Y1543050D02*
X1955152D01*
X1950487Y1547715D01*
Y1548882D01*
X1951653Y1550048D01*
X1953986D01*
X1955152Y1548882D01*
X1943489Y1550048D02*
X1948154D01*
Y1546549D01*
X1945822Y1547715D01*
X1944656D01*
X1943489Y1546549D01*
Y1544216D01*
X1944656Y1543050D01*
X1946988D01*
X1948154Y1544216D01*
X1984155Y1573011D02*
X1985321Y1574178D01*
X1987654D01*
X1988820Y1573011D01*
Y1568346D01*
X1987654Y1567180D01*
X1985321D01*
X1984155Y1568346D01*
X1977157Y1567180D02*
X1981822D01*
X1977157Y1571845D01*
Y1573011D01*
X1978323Y1574178D01*
X1980656D01*
X1981822Y1573011D01*
X1971326Y1567180D02*
Y1574178D01*
X1974825Y1570679D01*
X1970159D01*
X1869855Y1581902D02*
X1871021Y1583068D01*
X1873354D01*
X1874520Y1581902D01*
Y1577236D01*
X1873354Y1576070D01*
X1871021D01*
X1869855Y1577236D01*
X1862857Y1576070D02*
X1867522D01*
X1862857Y1580735D01*
Y1581902D01*
X1864023Y1583068D01*
X1866356D01*
X1867522Y1581902D01*
X1860524D02*
X1859358Y1583068D01*
X1857026D01*
X1855859Y1581902D01*
Y1580735D01*
X1857026Y1579569D01*
X1858192D01*
X1857026D01*
X1855859Y1578403D01*
Y1577236D01*
X1857026Y1576070D01*
X1859358D01*
X1860524Y1577236D01*
X1871125Y1600952D02*
X1872291Y1602118D01*
X1874624D01*
X1875790Y1600952D01*
Y1596286D01*
X1874624Y1595120D01*
X1872291D01*
X1871125Y1596286D01*
X1864127Y1595120D02*
X1868792D01*
X1864127Y1599785D01*
Y1600952D01*
X1865293Y1602118D01*
X1867626D01*
X1868792Y1600952D01*
X1857129Y1595120D02*
X1861794D01*
X1857129Y1599785D01*
Y1600952D01*
X1858296Y1602118D01*
X1860628D01*
X1861794Y1600952D01*
D11*
X2120401Y1301213D02*
G03*
X2120401Y1301213I-1250J0D01*
G01*
X2183580Y1392390D02*
G03*
X2183580Y1392390I-1250J0D01*
G01*
X2165141Y1344897D02*
G03*
X2165141Y1344897I-1250J0D01*
G01*
X2237280Y1319190D02*
G03*
X2237280Y1319190I-1250J0D01*
G01*
X2202254Y1319370D02*
G03*
X2202254Y1319370I-1250J0D01*
G01*
X2080240Y1292011D02*
G03*
X2080240Y1292011I-1250J0D01*
G01*
X2141180Y1266660D02*
G03*
X2141180Y1266660I-1250J0D01*
G01*
X2176910Y1275350D02*
G03*
X2176910Y1275350I-1250J0D01*
G01*
X2222490Y1258800D02*
G03*
X2222490Y1258800I-1250J0D01*
G01*
X2222700Y1293010D02*
G03*
X2222700Y1293010I-1250J0D01*
G01*
X1945280Y1253760D02*
G03*
X1945280Y1253760I-1250J0D01*
G01*
X1988950Y1266460D02*
G03*
X1988950Y1266460I-1250J0D01*
G01*
D13*
X2214530Y1835500D02*
Y1837500D01*
Y1843500D02*
Y1845500D01*
X2213280Y1843500D02*
X2214530D01*
X2213280Y1837500D02*
Y1843500D01*
Y1837500D02*
X2215780D01*
Y1843500D01*
X2214530D02*
X2215780D01*
X2243105Y1307891D02*
X2244271Y1309058D01*
X2246604D01*
X2247770Y1307891D01*
Y1303226D01*
X2246604Y1302060D01*
X2244271D01*
X2243105Y1303226D01*
X2190541Y1291305D02*
X2191708Y1290139D01*
Y1287806D01*
X2190541Y1286640D01*
X2185876D01*
X2184710Y1287806D01*
Y1290139D01*
X2185876Y1291305D01*
X2191811Y1240825D02*
X2192978Y1239659D01*
Y1237326D01*
X2191811Y1236160D01*
X2187146D01*
X2185980Y1237326D01*
Y1239659D01*
X2187146Y1240825D01*
X2203659Y1286475D02*
X2202492Y1287641D01*
Y1289974D01*
X2203659Y1291140D01*
X2208324D01*
X2209490Y1289974D01*
Y1287641D01*
X2208324Y1286475D01*
X2208321Y1248445D02*
X2209488Y1247279D01*
Y1244946D01*
X2208321Y1243780D01*
X2203656D01*
X2202490Y1244946D01*
Y1247279D01*
X2203656Y1248445D01*
X1857801Y1217645D02*
X1858968Y1216479D01*
Y1214146D01*
X1857801Y1212980D01*
X1853136D01*
X1851970Y1214146D01*
Y1216479D01*
X1853136Y1217645D01*
X2034331Y1235425D02*
X2035498Y1234259D01*
Y1231926D01*
X2034331Y1230760D01*
X2029666D01*
X2028500Y1231926D01*
Y1234259D01*
X2029666Y1235425D01*
X2005295Y1226611D02*
X2006461Y1227778D01*
X2008794D01*
X2009960Y1226611D01*
Y1221946D01*
X2008794Y1220780D01*
X2006461D01*
X2005295Y1221946D01*
X2005615Y1243121D02*
X2006781Y1244288D01*
X2009114D01*
X2010280Y1243121D01*
Y1238456D01*
X2009114Y1237290D01*
X2006781D01*
X2005615Y1238456D01*
X1895591Y1250535D02*
X1896758Y1249369D01*
Y1247036D01*
X1895591Y1245870D01*
X1890926D01*
X1889760Y1247036D01*
Y1249369D01*
X1890926Y1250535D01*
X1953295Y1560249D02*
X1952129Y1559082D01*
X1949796D01*
X1948630Y1560249D01*
Y1564914D01*
X1949796Y1566080D01*
X1952129D01*
X1953295Y1564914D01*
Y1577549D02*
X1952129Y1576382D01*
X1949796D01*
X1948630Y1577549D01*
Y1582214D01*
X1949796Y1583380D01*
X1952129D01*
X1953295Y1582214D01*
X1898685Y1576279D02*
X1897519Y1575112D01*
X1895186D01*
X1894020Y1576279D01*
Y1580944D01*
X1895186Y1582110D01*
X1897519D01*
X1898685Y1580944D01*
X1906405Y1550779D02*
X1905239Y1549612D01*
X1902906D01*
X1901740Y1550779D01*
Y1555444D01*
X1902906Y1556610D01*
X1905239D01*
X1906405Y1555444D01*
X1898685Y1594059D02*
X1897519Y1592892D01*
X1895186D01*
X1894020Y1594059D01*
Y1598724D01*
X1895186Y1599890D01*
X1897519D01*
X1898685Y1598724D01*
X2221265Y1643589D02*
X2220099Y1642422D01*
X2217766D01*
X2216600Y1643589D01*
Y1648254D01*
X2217766Y1649420D01*
X2220099D01*
X2221265Y1648254D01*
X2213401Y1618965D02*
X2214568Y1617799D01*
Y1615466D01*
X2213401Y1614300D01*
X2208736D01*
X2207570Y1615466D01*
Y1617799D01*
X2208736Y1618965D01*
X2037045Y1366832D02*
X2038211Y1367998D01*
X2040544D01*
X2041710Y1366832D01*
Y1362166D01*
X2040544Y1361000D01*
X2038211D01*
X2037045Y1362166D01*
X2020285Y1397209D02*
X2019119Y1396042D01*
X2016786D01*
X2015620Y1397209D01*
Y1401874D01*
X2016786Y1403040D01*
X2019119D01*
X2020285Y1401874D01*
X2037045Y1384091D02*
X2038211Y1385258D01*
X2040544D01*
X2041710Y1384091D01*
Y1379426D01*
X2040544Y1378260D01*
X2038211D01*
X2037045Y1379426D01*
X2063541Y1330995D02*
X2064708Y1329829D01*
Y1327496D01*
X2063541Y1326330D01*
X2058876D01*
X2057710Y1327496D01*
Y1329829D01*
X2058876Y1330995D01*
X2045761D02*
X2046928Y1329829D01*
Y1327496D01*
X2045761Y1326330D01*
X2041096D01*
X2039930Y1327496D01*
Y1329829D01*
X2041096Y1330995D01*
X1874729Y1396015D02*
X1873562Y1397181D01*
Y1399514D01*
X1874729Y1400680D01*
X1879394D01*
X1880560Y1399514D01*
Y1397181D01*
X1879394Y1396015D01*
X1879391Y1432595D02*
X1880558Y1431429D01*
Y1429096D01*
X1879391Y1427930D01*
X1874726D01*
X1873560Y1429096D01*
Y1431429D01*
X1874726Y1432595D01*
X1897171D02*
X1898338Y1431429D01*
Y1429096D01*
X1897171Y1427930D01*
X1892506D01*
X1891340Y1429096D01*
Y1431429D01*
X1892506Y1432595D01*
X1897171Y1400845D02*
X1898338Y1399679D01*
Y1397346D01*
X1897171Y1396180D01*
X1892506D01*
X1891340Y1397346D01*
Y1399679D01*
X1892506Y1400845D01*
D14*
X1719612Y1415260D02*
X1754112D01*
X1720033Y1471490D02*
X1729952Y1445379D01*
X1742741Y1445942D02*
X1754697Y1473143D01*
X1716251Y1518679D02*
Y1553179D01*
X1746370Y1542839D02*
X1772481Y1552758D01*
X1746933Y1530050D02*
X1774133Y1518093D01*
X2235520Y1311560D02*
X2255520D01*
X2235520Y1299560D02*
Y1311560D01*
Y1299560D02*
X2255520D01*
Y1311560D01*
X2251520Y1299560D02*
Y1311560D01*
X2239520Y1299560D02*
Y1311560D01*
X2194210Y1278890D02*
Y1298890D01*
X2182210D02*
X2194210D01*
X2182210Y1278890D02*
Y1298890D01*
Y1278890D02*
X2194210D01*
X2182210Y1282890D02*
X2194210D01*
X2182210Y1294890D02*
X2194210D01*
X2195480Y1228410D02*
Y1248410D01*
X2183480D02*
X2195480D01*
X2183480Y1228410D02*
Y1248410D01*
Y1228410D02*
X2195480D01*
X2183480Y1232410D02*
X2195480D01*
X2183480Y1244410D02*
X2195480D01*
X2199990Y1278890D02*
Y1298890D01*
Y1278890D02*
X2211990D01*
Y1298890D01*
X2199990D02*
X2211990D01*
X2199990Y1294890D02*
X2211990D01*
X2199990Y1282890D02*
X2211990D01*
X2199990Y1252030D02*
X2211990D01*
X2199990Y1240030D02*
X2211990D01*
X2199990Y1236030D02*
X2211990D01*
X2199990D02*
Y1256030D01*
X2211990D01*
Y1236030D02*
Y1256030D01*
X1849470Y1221230D02*
X1861470D01*
X1849470Y1209230D02*
X1861470D01*
X1849470Y1205230D02*
X1861470D01*
X1849470D02*
Y1225230D01*
X1861470D01*
Y1205230D02*
Y1225230D01*
X2026000Y1239010D02*
X2038000D01*
X2026000Y1227010D02*
X2038000D01*
X2026000Y1223010D02*
X2038000D01*
X2026000D02*
Y1243010D01*
X2038000D01*
Y1223010D02*
Y1243010D01*
X2001710Y1218280D02*
Y1230280D01*
X2013710Y1218280D02*
Y1230280D01*
X2017710Y1218280D02*
Y1230280D01*
X1997710Y1218280D02*
X2017710D01*
X1997710D02*
Y1230280D01*
X2017710D01*
X2002030Y1234790D02*
Y1246790D01*
X2014030Y1234790D02*
Y1246790D01*
X2018030Y1234790D02*
Y1246790D01*
X1998030Y1234790D02*
X2018030D01*
X1998030D02*
Y1246790D01*
X2018030D01*
X1887570Y1254250D02*
X1899570D01*
X1887570Y1242250D02*
X1899570D01*
X1887570Y1238250D02*
X1899570D01*
X1887570D02*
Y1258250D01*
X1899570D01*
Y1238250D02*
Y1258250D01*
X1757450Y1189450D02*
Y1196950D01*
Y1178200D02*
Y1185700D01*
X1754190Y1189220D02*
X1760690D01*
X1754190Y1185930D02*
X1760690D01*
X1945940Y1591425D02*
Y1639425D01*
X1919940D02*
X1945940D01*
X1919940Y1591425D02*
Y1639425D01*
Y1591425D02*
X1945940D01*
X1972660Y1584010D02*
Y1604010D01*
Y1584010D02*
X1984660D01*
Y1604010D01*
X1972660D02*
X1984660D01*
X1972660Y1600010D02*
X1984660D01*
X1972660Y1588010D02*
X1984660D01*
X1956880Y1556580D02*
Y1568580D01*
X1944880Y1556580D02*
Y1568580D01*
X1940880Y1556580D02*
Y1568580D01*
X1960880D01*
Y1556580D02*
Y1568580D01*
X1940880Y1556580D02*
X1960880D01*
X1956880Y1573880D02*
Y1585880D01*
X1944880Y1573880D02*
Y1585880D01*
X1940880Y1573880D02*
Y1585880D01*
X1960880D01*
Y1573880D02*
Y1585880D01*
X1940880Y1573880D02*
X1960880D01*
X1902270Y1572610D02*
Y1584610D01*
X1890270Y1572610D02*
Y1584610D01*
X1886270Y1572610D02*
Y1584610D01*
X1906270D01*
Y1572610D02*
Y1584610D01*
X1886270Y1572610D02*
X1906270D01*
X1876220Y1545890D02*
X1924220D01*
X1876220Y1519890D02*
Y1545890D01*
Y1519890D02*
X1924220D01*
Y1545890D01*
X1909990Y1547110D02*
Y1559110D01*
X1897990Y1547110D02*
Y1559110D01*
X1893990Y1547110D02*
Y1559110D01*
X1913990D01*
Y1547110D02*
Y1559110D01*
X1893990Y1547110D02*
X1913990D01*
X1902270Y1590390D02*
Y1602390D01*
X1890270Y1590390D02*
Y1602390D01*
X1886270Y1590390D02*
Y1602390D01*
X1906270D01*
Y1590390D02*
Y1602390D01*
X1886270Y1590390D02*
X1906270D01*
X2224850Y1639920D02*
Y1651920D01*
X2212850Y1639920D02*
Y1651920D01*
X2208850Y1639920D02*
Y1651920D01*
X2228850D01*
Y1639920D02*
Y1651920D01*
X2208850Y1639920D02*
X2228850D01*
X2205070Y1622550D02*
X2217070D01*
X2205070Y1610550D02*
X2217070D01*
X2205070Y1606550D02*
X2217070D01*
X2205070D02*
Y1626550D01*
X2217070D01*
Y1606550D02*
Y1626550D01*
X2238710Y1594280D02*
Y1642280D01*
Y1594280D02*
X2264710D01*
Y1642280D01*
X2238710D02*
X2264710D01*
X2069800Y1323770D02*
Y1371770D01*
Y1323770D02*
X2095800D01*
Y1371770D01*
X2069800D02*
X2095800D01*
X2033460Y1358500D02*
Y1370500D01*
X2045460Y1358500D02*
Y1370500D01*
X2049460Y1358500D02*
Y1370500D01*
X2029460Y1358500D02*
X2049460D01*
X2029460D02*
Y1370500D01*
X2049460D01*
X2023870Y1393540D02*
Y1405540D01*
X2011870Y1393540D02*
Y1405540D01*
X2007870Y1393540D02*
Y1405540D01*
X2027870D01*
Y1393540D02*
Y1405540D01*
X2007870Y1393540D02*
X2027870D01*
X2074340Y1384000D02*
X2122340D01*
Y1410000D01*
X2074340D02*
X2122340D01*
X2074340Y1384000D02*
Y1410000D01*
X2033460Y1375760D02*
Y1387760D01*
X2045460Y1375760D02*
Y1387760D01*
X2049460Y1375760D02*
Y1387760D01*
X2029460Y1375760D02*
X2049460D01*
X2029460D02*
Y1387760D01*
X2049460D01*
X1996700Y1340775D02*
X2010843Y1326633D01*
X1988215Y1332289D02*
X1996700Y1340775D01*
X1988215Y1332289D02*
X2002357Y1318147D01*
X2010843Y1326633D01*
X1999529Y1320976D02*
X2008014Y1329461D01*
X1991044D02*
X1999529Y1337946D01*
X2055210Y1334580D02*
X2067210D01*
X2055210Y1322580D02*
X2067210D01*
X2055210Y1318580D02*
X2067210D01*
X2055210D02*
Y1338580D01*
X2067210D01*
Y1318580D02*
Y1338580D01*
X2037430Y1334580D02*
X2049430D01*
X2037430Y1322580D02*
X2049430D01*
X2037430Y1318580D02*
X2049430D01*
X2037430D02*
Y1338580D01*
X2049430D01*
Y1318580D02*
Y1338580D01*
X1871060Y1392430D02*
X1883060D01*
X1871060Y1404430D02*
X1883060D01*
X1871060Y1408430D02*
X1883060D01*
Y1388430D02*
Y1408430D01*
X1871060Y1388430D02*
X1883060D01*
X1871060D02*
Y1408430D01*
X1871060Y1436180D02*
X1883060D01*
X1871060Y1424180D02*
X1883060D01*
X1871060Y1420180D02*
X1883060D01*
X1871060D02*
Y1440180D01*
X1883060D01*
Y1420180D02*
Y1440180D01*
X1900840Y1420180D02*
Y1440180D01*
X1888840D02*
X1900840D01*
X1888840Y1420180D02*
Y1440180D01*
Y1420180D02*
X1900840D01*
X1888840Y1424180D02*
X1900840D01*
X1888840Y1436180D02*
X1900840D01*
Y1388430D02*
Y1408430D01*
X1888840D02*
X1900840D01*
X1888840Y1388430D02*
Y1408430D01*
Y1388430D02*
X1900840D01*
X1888840Y1392430D02*
X1900840D01*
X1888840Y1404430D02*
X1900840D01*
X1733550Y1565288D02*
Y1560623D01*
X1731217Y1558290D01*
X1728885Y1560623D01*
Y1565288D01*
X1726552D02*
Y1558290D01*
X1723053D01*
X1721887Y1559456D01*
Y1564122D01*
X1723053Y1565288D01*
X1726552D01*
X1719554Y1564122D02*
X1718388Y1565288D01*
X1716056D01*
X1714889Y1564122D01*
Y1562955D01*
X1716056Y1561789D01*
X1714889Y1560623D01*
Y1559456D01*
X1716056Y1558290D01*
X1718388D01*
X1719554Y1559456D01*
Y1560623D01*
X1718388Y1561789D01*
X1719554Y1562955D01*
Y1564122D01*
X1718388Y1561789D02*
X1716056D01*
X1747520Y1403998D02*
Y1399333D01*
X1745187Y1397000D01*
X1742855Y1399333D01*
Y1403998D01*
X1740522D02*
Y1397000D01*
X1737023D01*
X1735857Y1398166D01*
Y1402832D01*
X1737023Y1403998D01*
X1740522D01*
X1733524D02*
X1728859D01*
Y1402832D01*
X1733524Y1398166D01*
Y1397000D01*
X2147294Y1315444D02*
X2144938Y1313088D01*
X2142582D01*
Y1315444D01*
X2144938Y1317801D01*
X2143760Y1318979D02*
X2140226Y1315444D01*
X2138458Y1317212D01*
Y1318390D01*
X2140815Y1320746D01*
X2141993D01*
X2143760Y1318979D01*
X2134335Y1321335D02*
X2136691Y1318979D01*
Y1323691D01*
X2137280Y1324280D01*
X2138458D01*
X2139637Y1323102D01*
Y1321924D01*
X2131390Y1324280D02*
X2134924Y1327815D01*
Y1324280D01*
X2132568Y1326637D01*
X2137134Y1305284D02*
X2134778Y1302928D01*
X2132422D01*
Y1305284D01*
X2134778Y1307641D01*
X2133600Y1308819D02*
X2130066Y1305284D01*
X2128298Y1307052D01*
Y1308230D01*
X2130655Y1310586D01*
X2131833D01*
X2133600Y1308819D01*
X2124175Y1311175D02*
X2126531Y1308819D01*
Y1313531D01*
X2127120Y1314120D01*
X2128298D01*
X2129477Y1312942D01*
Y1311764D01*
X2125942Y1315298D02*
X2125942Y1316477D01*
X2124764Y1317655D01*
X2123586Y1317655D01*
X2122997Y1317066D01*
Y1315887D01*
X2123586Y1315298D01*
X2122997Y1315887D01*
X2121819D01*
X2121230Y1315298D01*
Y1314120D01*
X2122408Y1312942D01*
X2123586D01*
X2256790Y1361440D02*
Y1368438D01*
X2253291D01*
X2252125Y1367272D01*
Y1364939D01*
X2253291Y1363773D01*
X2256790D01*
X2254457D02*
X2252125Y1361440D01*
X2249792D02*
X2247460D01*
X2248626D01*
Y1368438D01*
X2249792Y1367272D01*
X2239296Y1361440D02*
X2243961D01*
X2239296Y1366105D01*
Y1367272D01*
X2240462Y1368438D01*
X2242794D01*
X2243961Y1367272D01*
X2183130Y1409078D02*
Y1404413D01*
X2180797Y1402080D01*
X2178465Y1404413D01*
Y1409078D01*
X2176132D02*
Y1402080D01*
X2172633D01*
X2171467Y1403246D01*
Y1407912D01*
X2172633Y1409078D01*
X2176132D01*
X2164469Y1402080D02*
X2169135D01*
X2164469Y1406745D01*
Y1407912D01*
X2165636Y1409078D01*
X2167968D01*
X2169135Y1407912D01*
X2068385Y1255832D02*
X2070034D01*
X2071684Y1254183D01*
Y1252533D01*
X2068385Y1249235D01*
X2066735D01*
X2065086Y1250884D01*
Y1252533D01*
X2062612Y1253358D02*
X2060963Y1255007D01*
X2061787Y1254183D01*
X2066735Y1259131D01*
Y1257482D01*
X2059313Y1258306D02*
X2057664D01*
X2056014Y1259956D01*
Y1261605D01*
X2059313Y1264904D01*
X2060963D01*
X2062612Y1263254D01*
Y1261605D01*
X2061787Y1260780D01*
X2060138D01*
X2057664Y1263254D01*
X2160270Y1282810D02*
Y1289808D01*
X2156771D01*
X2155605Y1288642D01*
Y1286309D01*
X2156771Y1285143D01*
X2160270D01*
X2157937D02*
X2155605Y1282810D01*
X2153272D02*
X2150940D01*
X2152106D01*
Y1289808D01*
X2153272Y1288642D01*
X2147441Y1282810D02*
X2145108D01*
X2146275D01*
Y1289808D01*
X2147441Y1288642D01*
X2124842Y1295268D02*
X2128141Y1291969D01*
Y1288671D01*
X2124842D01*
X2121543Y1291969D01*
X2119894Y1290320D02*
X2124842Y1285372D01*
X2122368Y1282898D01*
X2120718D01*
X2117420Y1286196D01*
Y1287846D01*
X2119894Y1290320D01*
X2117420Y1277950D02*
X2112471Y1282898D01*
X2117420D01*
X2114121Y1279599D01*
X2136140Y1233818D02*
Y1229153D01*
X2133807Y1226820D01*
X2131475Y1229153D01*
Y1233818D01*
X2129142D02*
Y1226820D01*
X2125643D01*
X2124477Y1227986D01*
Y1232652D01*
X2125643Y1233818D01*
X2129142D01*
X2122144Y1232652D02*
X2120978Y1233818D01*
X2118646D01*
X2117479Y1232652D01*
Y1231485D01*
X2118646Y1230319D01*
X2119812D01*
X2118646D01*
X2117479Y1229153D01*
Y1227986D01*
X2118646Y1226820D01*
X2120978D01*
X2122144Y1227986D01*
X2171832Y1338448D02*
X2175131Y1335149D01*
Y1331851D01*
X2171832D01*
X2168533Y1335149D01*
X2166884Y1333500D02*
X2171832Y1328552D01*
X2169358Y1326078D01*
X2167708D01*
X2164410Y1329377D01*
Y1331026D01*
X2166884Y1333500D01*
Y1323604D02*
X2165234Y1321954D01*
X2166059Y1322779D01*
X2161111Y1327727D01*
X2162760D01*
X2283460Y1278890D02*
Y1285888D01*
X2279961D01*
X2278795Y1284722D01*
Y1282389D01*
X2279961Y1281223D01*
X2283460D01*
X2281127D02*
X2278795Y1278890D01*
X2276462D02*
X2274130D01*
X2275296D01*
Y1285888D01*
X2276462Y1284722D01*
X2270631D02*
X2269465Y1285888D01*
X2267132D01*
X2265966Y1284722D01*
Y1283555D01*
X2267132Y1282389D01*
X2268298D01*
X2267132D01*
X2265966Y1281223D01*
Y1280056D01*
X2267132Y1278890D01*
X2269465D01*
X2270631Y1280056D01*
X1983740Y1275080D02*
Y1282078D01*
X1980241D01*
X1979075Y1280912D01*
Y1278579D01*
X1980241Y1277413D01*
X1983740D01*
X1981407D02*
X1979075Y1275080D01*
X1976742Y1280912D02*
X1975576Y1282078D01*
X1973243D01*
X1972077Y1280912D01*
Y1279745D01*
X1973243Y1278579D01*
X1972077Y1277413D01*
Y1276246D01*
X1973243Y1275080D01*
X1975576D01*
X1976742Y1276246D01*
Y1277413D01*
X1975576Y1278579D01*
X1976742Y1279745D01*
Y1280912D01*
X1975576Y1278579D02*
X1973243D01*
X2187855Y1266668D02*
X2187022Y1267501D01*
Y1269167D01*
X2187855Y1270000D01*
X2191187D01*
X2192020Y1269167D01*
Y1267501D01*
X2191187Y1266668D01*
X2192020Y1261669D02*
Y1265002D01*
X2188688Y1261669D01*
X2187855D01*
X2187022Y1262503D01*
Y1264169D01*
X2187855Y1265002D01*
Y1260003D02*
X2187022Y1259170D01*
Y1257504D01*
X2187855Y1256671D01*
X2191187D01*
X2192020Y1257504D01*
Y1259170D01*
X2191187Y1260003D01*
X2187855D01*
X2178405Y1292382D02*
X2179238Y1291549D01*
Y1289883D01*
X2178405Y1289050D01*
X2175073D01*
X2174240Y1289883D01*
Y1291549D01*
X2175073Y1292382D01*
X2174240Y1294048D02*
Y1295715D01*
Y1294881D01*
X2179238D01*
X2178405Y1294048D01*
Y1298214D02*
X2179238Y1299047D01*
Y1300713D01*
X2178405Y1301546D01*
X2177572D01*
X2176739Y1300713D01*
X2175906Y1301546D01*
X2175073D01*
X2174240Y1300713D01*
Y1299047D01*
X2175073Y1298214D01*
X2175906D01*
X2176739Y1299047D01*
X2177572Y1298214D01*
X2178405D01*
X2176739Y1299047D02*
Y1300713D01*
X2209008Y1310995D02*
X2209841Y1311828D01*
X2211507D01*
X2212340Y1310995D01*
Y1307663D01*
X2211507Y1306830D01*
X2209841D01*
X2209008Y1307663D01*
X2207342Y1306830D02*
X2205676D01*
X2206509D01*
Y1311828D01*
X2207342Y1310995D01*
X2199844Y1311828D02*
X2201510Y1310995D01*
X2203176Y1309329D01*
Y1307663D01*
X2202343Y1306830D01*
X2200677D01*
X2199844Y1307663D01*
Y1308496D01*
X2200677Y1309329D01*
X2203176D01*
X2273778Y1307185D02*
X2274611Y1308018D01*
X2276277D01*
X2277110Y1307185D01*
Y1303853D01*
X2276277Y1303020D01*
X2274611D01*
X2273778Y1303853D01*
X2272112Y1303020D02*
X2270446D01*
X2271279D01*
Y1308018D01*
X2272112Y1307185D01*
X2267946D02*
X2267113Y1308018D01*
X2265447D01*
X2264614Y1307185D01*
Y1306352D01*
X2265447Y1305519D01*
X2266280D01*
X2265447D01*
X2264614Y1304686D01*
Y1303853D01*
X2265447Y1303020D01*
X2267113D01*
X2267946Y1303853D01*
X1761905Y1208521D02*
X1763071Y1209688D01*
X1765404D01*
X1766570Y1208521D01*
Y1203856D01*
X1765404Y1202690D01*
X1763071D01*
X1761905Y1203856D01*
X1754907Y1209688D02*
X1759572D01*
Y1206189D01*
X1757240Y1207355D01*
X1756073D01*
X1754907Y1206189D01*
Y1203856D01*
X1756073Y1202690D01*
X1758406D01*
X1759572Y1203856D01*
X1747909Y1209688D02*
X1752574D01*
Y1206189D01*
X1750242Y1207355D01*
X1749076D01*
X1747909Y1206189D01*
Y1203856D01*
X1749076Y1202690D01*
X1751408D01*
X1752574Y1203856D01*
X2143760Y1390650D02*
Y1395648D01*
X2141261D01*
X2140428Y1394815D01*
Y1393149D01*
X2141261Y1392316D01*
X2143760D01*
X2142094D02*
X2140428Y1390650D01*
X2136263D02*
Y1395648D01*
X2138762Y1393149D01*
X2135429D01*
X2131264Y1390650D02*
Y1395648D01*
X2133763Y1393149D01*
X2130431D01*
X2219960Y1361440D02*
Y1368438D01*
X2216461D01*
X2215295Y1367272D01*
Y1364939D01*
X2216461Y1363773D01*
X2219960D01*
X2217627D02*
X2215295Y1361440D01*
X2212962Y1362606D02*
X2211796Y1361440D01*
X2209463D01*
X2208297Y1362606D01*
Y1367272D01*
X2209463Y1368438D01*
X2211796D01*
X2212962Y1367272D01*
Y1366105D01*
X2211796Y1364939D01*
X2208297D01*
X2282190Y1235710D02*
Y1242708D01*
X2278691D01*
X2277525Y1241542D01*
Y1239209D01*
X2278691Y1238043D01*
X2282190D01*
X2279857D02*
X2277525Y1235710D01*
X2275192D02*
X2272860D01*
X2274026D01*
Y1242708D01*
X2275192Y1241542D01*
X2269361D02*
X2268194Y1242708D01*
X2265862D01*
X2264696Y1241542D01*
Y1236876D01*
X2265862Y1235710D01*
X2268194D01*
X2269361Y1236876D01*
Y1241542D01*
X1930400Y1262380D02*
Y1269378D01*
X1926901D01*
X1925735Y1268212D01*
Y1265879D01*
X1926901Y1264713D01*
X1930400D01*
X1928067D02*
X1925735Y1262380D01*
X1923402Y1269378D02*
X1918737D01*
Y1268212D01*
X1923402Y1263546D01*
Y1262380D01*
X2087025Y1379971D02*
X2088191Y1381138D01*
X2090524D01*
X2091690Y1379971D01*
Y1375306D01*
X2090524Y1374140D01*
X2088191D01*
X2087025Y1375306D01*
X2080027Y1381138D02*
X2084692D01*
Y1377639D01*
X2082360Y1378805D01*
X2081193D01*
X2080027Y1377639D01*
Y1375306D01*
X2081193Y1374140D01*
X2083526D01*
X2084692Y1375306D01*
X2073029Y1374140D02*
X2077695D01*
X2073029Y1378805D01*
Y1379971D01*
X2074196Y1381138D01*
X2076528D01*
X2077695Y1379971D01*
X2064105Y1351122D02*
X2064938Y1350289D01*
Y1348623D01*
X2064105Y1347790D01*
X2060773D01*
X2059940Y1348623D01*
Y1350289D01*
X2060773Y1351122D01*
X2059940Y1355287D02*
X2064938D01*
X2062439Y1352788D01*
Y1356121D01*
X2064105Y1357787D02*
X2064938Y1358620D01*
Y1360286D01*
X2064105Y1361119D01*
X2063272D01*
X2062439Y1360286D01*
X2061606Y1361119D01*
X2060773D01*
X2059940Y1360286D01*
Y1358620D01*
X2060773Y1357787D01*
X2061606D01*
X2062439Y1358620D01*
X2063272Y1357787D01*
X2064105D01*
X2062439Y1358620D02*
Y1360286D01*
X2032355Y1333022D02*
X2033188Y1332189D01*
Y1330523D01*
X2032355Y1329690D01*
X2029023D01*
X2028190Y1330523D01*
Y1332189D01*
X2029023Y1333022D01*
X2028190Y1337188D02*
X2033188D01*
X2030689Y1334688D01*
Y1338021D01*
X2033188Y1339687D02*
Y1343019D01*
X2032355D01*
X2029023Y1339687D01*
X2028190D01*
X2204365Y1226028D02*
X2203532Y1226861D01*
Y1228527D01*
X2204365Y1229360D01*
X2207697D01*
X2208530Y1228527D01*
Y1226861D01*
X2207697Y1226028D01*
X2208530Y1224362D02*
Y1222695D01*
Y1223529D01*
X2203532D01*
X2204365Y1224362D01*
X2203532Y1216864D02*
Y1220196D01*
X2206031D01*
X2205198Y1218530D01*
Y1217697D01*
X2206031Y1216864D01*
X2207697D01*
X2208530Y1217697D01*
Y1219363D01*
X2207697Y1220196D01*
X2000728Y1213205D02*
X2001561Y1214038D01*
X2003227D01*
X2004060Y1213205D01*
Y1209873D01*
X2003227Y1209040D01*
X2001561D01*
X2000728Y1209873D01*
X1999062Y1209040D02*
X1997395D01*
X1998229D01*
Y1214038D01*
X1999062Y1213205D01*
X1991564Y1209040D02*
X1994896D01*
X1991564Y1212372D01*
Y1213205D01*
X1992397Y1214038D01*
X1994063D01*
X1994896Y1213205D01*
X2046325Y1231422D02*
X2047158Y1230589D01*
Y1228923D01*
X2046325Y1228090D01*
X2042993D01*
X2042160Y1228923D01*
Y1230589D01*
X2042993Y1231422D01*
X2042160Y1233088D02*
Y1234754D01*
Y1233921D01*
X2047158D01*
X2046325Y1233088D01*
X2042160Y1237254D02*
Y1238920D01*
Y1238087D01*
X2047158D01*
X2046325Y1237254D01*
X1877415Y1245392D02*
X1878248Y1244559D01*
Y1242893D01*
X1877415Y1242060D01*
X1874083D01*
X1873250Y1242893D01*
Y1244559D01*
X1874083Y1245392D01*
Y1247058D02*
X1873250Y1247891D01*
Y1249557D01*
X1874083Y1250391D01*
X1877415D01*
X1878248Y1249557D01*
Y1247891D01*
X1877415Y1247058D01*
X1876582D01*
X1875749Y1247891D01*
Y1250391D01*
X2007078Y1255115D02*
X2007911Y1255948D01*
X2009577D01*
X2010410Y1255115D01*
Y1251783D01*
X2009577Y1250950D01*
X2007911D01*
X2007078Y1251783D01*
X2005412Y1255948D02*
X2002079D01*
Y1255115D01*
X2005412Y1251783D01*
Y1250950D01*
X1857095Y1190782D02*
X1857928Y1189949D01*
Y1188283D01*
X1857095Y1187450D01*
X1853763D01*
X1852930Y1188283D01*
Y1189949D01*
X1853763Y1190782D01*
X1852930Y1194948D02*
X1857928D01*
X1855429Y1192448D01*
Y1195781D01*
D16*
X2131126Y1370838D02*
X2139000D01*
X2131126Y1385062D02*
X2139000D01*
X2131126Y1370838D02*
Y1385062D01*
X2139000Y1370838D02*
Y1385062D01*
X1749940Y1177450D02*
Y1197450D01*
X1764940D01*
Y1177450D02*
Y1197450D01*
X1749940Y1177450D02*
X1764940D01*
X1649222Y1712976D02*
Y1720850D01*
X1634998Y1712976D02*
Y1720850D01*
Y1712976D02*
X1649222D01*
X1634998Y1720850D02*
X1649222D01*
X1965452Y1490726D02*
Y1498600D01*
X1951228Y1490726D02*
Y1498600D01*
Y1490726D02*
X1965452D01*
X1951228Y1498600D02*
X1965452D01*
X2051050Y1627378D02*
Y1641602D01*
X2058924Y1627378D02*
Y1641602D01*
X2051050Y1627378D02*
X2058924D01*
X2051050Y1641602D02*
X2058924D01*
X2078990Y1612138D02*
Y1626362D01*
X2071116Y1612138D02*
Y1626362D01*
X2078990D01*
X2071116Y1612138D02*
X2078990D01*
X2051050Y1596898D02*
Y1611122D01*
X2058924Y1596898D02*
Y1611122D01*
X2051050Y1596898D02*
X2058924D01*
X2051050Y1611122D02*
X2058924D01*
X2133412Y1380490D02*
Y1375492D01*
X2135911D01*
X2136744Y1376325D01*
Y1377991D01*
X2135911Y1378824D01*
X2133412D01*
X2135078D02*
X2136744Y1380490D01*
X1639570Y1715262D02*
X1644568D01*
Y1717761D01*
X1643735Y1718594D01*
X1642069D01*
X1641236Y1717761D01*
Y1715262D01*
Y1716928D02*
X1639570Y1718594D01*
X1955800Y1493012D02*
X1960798D01*
Y1495511D01*
X1959965Y1496344D01*
X1958299D01*
X1957466Y1495511D01*
Y1493012D01*
Y1494678D02*
X1955800Y1496344D01*
X2056638Y1631950D02*
Y1636948D01*
X2054139D01*
X2053306Y1636115D01*
Y1634449D01*
X2054139Y1633616D01*
X2056638D01*
X2054972D02*
X2053306Y1631950D01*
X2073402Y1621790D02*
Y1616792D01*
X2075901D01*
X2076734Y1617625D01*
Y1619291D01*
X2075901Y1620124D01*
X2073402D01*
X2075068D02*
X2076734Y1621790D01*
X2056638Y1601470D02*
Y1606468D01*
X2054139D01*
X2053306Y1605635D01*
Y1603969D01*
X2054139Y1603136D01*
X2056638D01*
X2054972D02*
X2053306Y1601470D01*
D17*
X1929130Y1614585D02*
X1931670D01*
X1934210D02*
X1936750D01*
X1931670Y1613315D02*
Y1615855D01*
X1934210Y1613315D02*
Y1615855D01*
X1939940Y1599425D02*
X1943940D01*
X1941940Y1597425D02*
Y1601425D01*
X1901060Y1529080D02*
Y1531620D01*
Y1534160D02*
Y1536700D01*
X1899790Y1531620D02*
X1902330D01*
X1899790Y1534160D02*
X1902330D01*
X1916220Y1539890D02*
Y1543890D01*
X1914220Y1541890D02*
X1918220D01*
X2252980Y1619120D02*
X2255520D01*
X2247900D02*
X2250440D01*
X2252980Y1617850D02*
Y1620390D01*
X2250440Y1617850D02*
Y1620390D01*
X2240710Y1634280D02*
X2244710D01*
X2242710Y1632280D02*
Y1636280D01*
X2084070Y1348610D02*
X2086610D01*
X2078990D02*
X2081530D01*
X2084070Y1347340D02*
Y1349880D01*
X2081530Y1347340D02*
Y1349880D01*
X2071800Y1363770D02*
X2075800D01*
X2073800Y1361770D02*
Y1365770D01*
X2097500Y1398270D02*
Y1400810D01*
Y1393190D02*
Y1395730D01*
X2096230Y1398270D02*
X2098770D01*
X2096230Y1395730D02*
X2098770D01*
X2082340Y1386000D02*
Y1390000D01*
X2080340Y1388000D02*
X2084340D01*
D18*
X1639811Y1173759D02*
X1654811D01*
Y1166259D02*
Y1173759D01*
X1639811Y1208759D02*
X1654811D01*
Y1216259D01*
X1639810Y1216260D02*
X1714810D01*
X1639810Y1166260D02*
Y1216260D01*
Y1166260D02*
X1714810D01*
Y1216260D01*
M02*
