G04*
G04 #@! TF.GenerationSoftware,Altium Limited,Altium Designer,19.1.5 (86)*
G04*
G04 Layer_Color=16711935*
%FSLAX44Y44*%
%MOMM*%
G71*
G01*
G75*
%ADD51R,2.0032X2.6032*%
G04:AMPARAMS|DCode=52|XSize=2.0032mm|YSize=2.6032mm|CornerRadius=0.5516mm|HoleSize=0mm|Usage=FLASHONLY|Rotation=0.000|XOffset=0mm|YOffset=0mm|HoleType=Round|Shape=RoundedRectangle|*
%AMROUNDEDRECTD52*
21,1,2.0032,1.5000,0,0,0.0*
21,1,0.9000,2.6032,0,0,0.0*
1,1,1.1032,0.4500,-0.7500*
1,1,1.1032,-0.4500,-0.7500*
1,1,1.1032,-0.4500,0.7500*
1,1,1.1032,0.4500,0.7500*
%
%ADD52ROUNDEDRECTD52*%
%ADD53R,2.6032X2.0032*%
G04:AMPARAMS|DCode=54|XSize=2.0032mm|YSize=2.6032mm|CornerRadius=0.5516mm|HoleSize=0mm|Usage=FLASHONLY|Rotation=90.000|XOffset=0mm|YOffset=0mm|HoleType=Round|Shape=RoundedRectangle|*
%AMROUNDEDRECTD54*
21,1,2.0032,1.5000,0,0,90.0*
21,1,0.9000,2.6032,0,0,90.0*
1,1,1.1032,0.7500,0.4500*
1,1,1.1032,0.7500,-0.4500*
1,1,1.1032,-0.7500,-0.4500*
1,1,1.1032,-0.7500,0.4500*
%
%ADD54ROUNDEDRECTD54*%
%ADD55R,0.8032X0.7532*%
%ADD56R,0.8032X0.8532*%
%ADD57R,1.5032X1.2032*%
%ADD60R,1.2032X1.5032*%
%ADD63R,1.8032X1.4032*%
G04:AMPARAMS|DCode=64|XSize=1.8032mm|YSize=1.4032mm|CornerRadius=0.4016mm|HoleSize=0mm|Usage=FLASHONLY|Rotation=0.000|XOffset=0mm|YOffset=0mm|HoleType=Round|Shape=RoundedRectangle|*
%AMROUNDEDRECTD64*
21,1,1.8032,0.6000,0,0,0.0*
21,1,1.0000,1.4032,0,0,0.0*
1,1,0.8032,0.5000,-0.3000*
1,1,0.8032,-0.5000,-0.3000*
1,1,0.8032,-0.5000,0.3000*
1,1,0.8032,0.5000,0.3000*
%
%ADD64ROUNDEDRECTD64*%
%ADD73R,2.2032X2.2032*%
%ADD77R,0.7032X0.7032*%
%ADD79R,1.2032X1.2032*%
%ADD84C,1.6032*%
%ADD85C,2.2032*%
%ADD86O,1.7780X2.2352*%
%ADD87R,1.7780X2.2352*%
%ADD88C,2.0320*%
%ADD89C,2.4892*%
%ADD90C,1.7272*%
%ADD91C,1.7032*%
%ADD92R,1.7032X1.7032*%
G04:AMPARAMS|DCode=93|XSize=1.9032mm|YSize=3.2032mm|CornerRadius=0.5266mm|HoleSize=0mm|Usage=FLASHONLY|Rotation=180.000|XOffset=0mm|YOffset=0mm|HoleType=Round|Shape=RoundedRectangle|*
%AMROUNDEDRECTD93*
21,1,1.9032,2.1500,0,0,180.0*
21,1,0.8500,3.2032,0,0,180.0*
1,1,1.0532,-0.4250,1.0750*
1,1,1.0532,0.4250,1.0750*
1,1,1.0532,0.4250,-1.0750*
1,1,1.0532,-0.4250,-1.0750*
%
%ADD93ROUNDEDRECTD93*%
%ADD94C,1.8032*%
%ADD95R,1.8032X1.8032*%
%ADD96C,0.7032*%
%ADD97C,3.7592*%
%ADD128P,0.9945X4X90.0*%
G04:AMPARAMS|DCode=129|XSize=0.8032mm|YSize=0.5532mm|CornerRadius=0mm|HoleSize=0mm|Usage=FLASHONLY|Rotation=135.000|XOffset=0mm|YOffset=0mm|HoleType=Round|Shape=Rectangle|*
%AMROTATEDRECTD129*
4,1,4,0.4796,-0.0884,0.0884,-0.4796,-0.4796,0.0884,-0.0884,0.4796,0.4796,-0.0884,0.0*
%
%ADD129ROTATEDRECTD129*%

%ADD130R,0.8032X0.5532*%
G04:AMPARAMS|DCode=131|XSize=0.8032mm|YSize=0.7532mm|CornerRadius=0mm|HoleSize=0mm|Usage=FLASHONLY|Rotation=225.000|XOffset=0mm|YOffset=0mm|HoleType=Round|Shape=Rectangle|*
%AMROTATEDRECTD131*
4,1,4,0.0177,0.5503,0.5503,0.0177,-0.0177,-0.5503,-0.5503,-0.0177,0.0177,0.5503,0.0*
%
%ADD131ROTATEDRECTD131*%

%ADD132R,0.7532X0.8032*%
%ADD133R,0.8532X0.8032*%
%ADD134R,1.5032X2.0032*%
G04:AMPARAMS|DCode=135|XSize=1.8032mm|YSize=1.4032mm|CornerRadius=0.4016mm|HoleSize=0mm|Usage=FLASHONLY|Rotation=90.000|XOffset=0mm|YOffset=0mm|HoleType=Round|Shape=RoundedRectangle|*
%AMROUNDEDRECTD135*
21,1,1.8032,0.6000,0,0,90.0*
21,1,1.0000,1.4032,0,0,90.0*
1,1,0.8032,0.3000,0.5000*
1,1,0.8032,0.3000,-0.5000*
1,1,0.8032,-0.3000,-0.5000*
1,1,0.8032,-0.3000,0.5000*
%
%ADD135ROUNDEDRECTD135*%
%ADD136R,1.4032X1.8032*%
G04:AMPARAMS|DCode=137|XSize=1.5032mm|YSize=1.2032mm|CornerRadius=0mm|HoleSize=0mm|Usage=FLASHONLY|Rotation=45.000|XOffset=0mm|YOffset=0mm|HoleType=Round|Shape=Rectangle|*
%AMROTATEDRECTD137*
4,1,4,-0.1061,-0.9569,-0.9569,-0.1061,0.1061,0.9569,0.9569,0.1061,-0.1061,-0.9569,0.0*
%
%ADD137ROTATEDRECTD137*%

%ADD138R,2.6532X3.9032*%
%ADD139R,2.6032X3.2032*%
D51*
X1737362Y1477011D02*
D03*
D52*
X1737362Y1432010D02*
D03*
D53*
X1778002Y1535428D02*
D03*
D54*
X1733001Y1535429D02*
D03*
D55*
X2257280Y1340940D02*
D03*
X2242530Y1332940D02*
D03*
Y1340940D02*
D03*
X2257280Y1332940D02*
D03*
X2222254Y1333120D02*
D03*
X2207504Y1341120D02*
D03*
Y1333120D02*
D03*
X2222254Y1341120D02*
D03*
X2154410Y1253600D02*
D03*
X2169160Y1261600D02*
D03*
Y1253600D02*
D03*
X2154410Y1261600D02*
D03*
X1922780Y1240010D02*
D03*
X1937530Y1232010D02*
D03*
Y1240010D02*
D03*
X1922780Y1232010D02*
D03*
X1966450Y1252710D02*
D03*
X1981200Y1244710D02*
D03*
Y1252710D02*
D03*
X1966450Y1244710D02*
D03*
D56*
X2257280Y1349940D02*
D03*
X2242530Y1323940D02*
D03*
Y1349940D02*
D03*
X2257280Y1323940D02*
D03*
X2222254Y1324120D02*
D03*
X2207504Y1350120D02*
D03*
Y1324120D02*
D03*
X2222254Y1350120D02*
D03*
X2154410Y1244600D02*
D03*
X2169160Y1270600D02*
D03*
Y1244600D02*
D03*
X2154410Y1270600D02*
D03*
X1922780Y1249010D02*
D03*
X1937530Y1223010D02*
D03*
Y1249010D02*
D03*
X1922780Y1223010D02*
D03*
X1966450Y1261710D02*
D03*
X1981200Y1235710D02*
D03*
Y1261710D02*
D03*
X1966450Y1235710D02*
D03*
D57*
X2188210Y1298890D02*
D03*
Y1278890D02*
D03*
X2189480Y1248410D02*
D03*
Y1228410D02*
D03*
X2205990Y1278890D02*
D03*
Y1298890D02*
D03*
Y1236030D02*
D03*
Y1256030D02*
D03*
X1855470Y1205230D02*
D03*
Y1225230D02*
D03*
X2032000Y1223010D02*
D03*
Y1243010D02*
D03*
X1893570Y1238250D02*
D03*
Y1258250D02*
D03*
X1642110Y1726880D02*
D03*
Y1706880D02*
D03*
X1978660Y1584010D02*
D03*
Y1604010D02*
D03*
X2211070Y1606550D02*
D03*
Y1626550D02*
D03*
X2061210Y1318580D02*
D03*
Y1338580D02*
D03*
X2043430Y1318580D02*
D03*
Y1338580D02*
D03*
X1958340Y1504630D02*
D03*
Y1484630D02*
D03*
X1877060Y1408430D02*
D03*
Y1388430D02*
D03*
Y1420180D02*
D03*
Y1440180D02*
D03*
X1894840D02*
D03*
Y1420180D02*
D03*
Y1408430D02*
D03*
Y1388430D02*
D03*
D60*
X2235520Y1305560D02*
D03*
X2255520D02*
D03*
X2145030Y1377950D02*
D03*
X2125030D02*
D03*
X2017710Y1224280D02*
D03*
X1997710D02*
D03*
X2018030Y1240790D02*
D03*
X1998030D02*
D03*
X1940880Y1562580D02*
D03*
X1960880D02*
D03*
X1940880Y1579880D02*
D03*
X1960880D02*
D03*
X1886270Y1578610D02*
D03*
X1906270D02*
D03*
X1893990Y1553110D02*
D03*
X1913990D02*
D03*
X1886270Y1596390D02*
D03*
X1906270D02*
D03*
X2208850Y1645920D02*
D03*
X2228850D02*
D03*
X2049460Y1364500D02*
D03*
X2029460D02*
D03*
X2007870Y1399540D02*
D03*
X2027870D02*
D03*
X2049460Y1381760D02*
D03*
X2029460D02*
D03*
X2065020Y1634490D02*
D03*
X2045020D02*
D03*
X2065020Y1619250D02*
D03*
X2085020D02*
D03*
X2065020Y1604010D02*
D03*
X2045020D02*
D03*
D63*
X1887220Y1532890D02*
D03*
X2111340Y1397000D02*
D03*
D64*
X1913220Y1532890D02*
D03*
X2085340Y1397000D02*
D03*
D73*
X2149360Y1087120D02*
D03*
X2168610Y1201370D02*
D03*
X2035360Y1087120D02*
D03*
X2054610Y1201370D02*
D03*
X1921310Y1087170D02*
D03*
X1940560Y1201420D02*
D03*
X1663800Y1135380D02*
D03*
X2239010Y1874520D02*
D03*
D77*
X1709420Y1470660D02*
D03*
Y1456660D02*
D03*
Y1436370D02*
D03*
Y1450370D02*
D03*
D79*
X2064385Y1300480D02*
D03*
X2001520Y1516380D02*
D03*
X2134870Y1414780D02*
D03*
X1993900Y1637030D02*
D03*
D84*
X2166460Y1612120D02*
D03*
X2156460Y1595120D02*
D03*
X2146460Y1612120D02*
D03*
X2166460Y1443210D02*
D03*
X2156460Y1426210D02*
D03*
X2146460Y1443210D02*
D03*
X1663700Y1412240D02*
D03*
Y1386840D02*
D03*
Y1488440D02*
D03*
Y1513840D02*
D03*
Y1437640D02*
D03*
Y1539240D02*
D03*
Y1564640D02*
D03*
X1765300Y1610360D02*
D03*
X1745300D02*
D03*
X2231390Y1578610D02*
D03*
Y1553210D02*
D03*
Y1604010D02*
D03*
Y1629410D02*
D03*
D85*
X2225360Y1087120D02*
D03*
X2187360D02*
D03*
X2244610Y1201370D02*
D03*
X2206610D02*
D03*
X2111360Y1087120D02*
D03*
X2073360D02*
D03*
X2130610Y1201370D02*
D03*
X2092610D02*
D03*
X1997310Y1087170D02*
D03*
X1959310D02*
D03*
X2016560Y1201420D02*
D03*
X1978560D02*
D03*
X1701800Y1135380D02*
D03*
X1739800D02*
D03*
X2201010Y1874520D02*
D03*
X2163010D02*
D03*
D86*
X1986280Y1762760D02*
D03*
X1910080D02*
D03*
X1922780Y1788160D02*
D03*
X1935480Y1762760D02*
D03*
X1973580Y1788160D02*
D03*
X1948180D02*
D03*
X1960880Y1762760D02*
D03*
D87*
X1998980Y1788160D02*
D03*
D88*
X1995424Y1900660D02*
D03*
X1913670D02*
D03*
X1888236D02*
D03*
X2020730D02*
D03*
D89*
X1874480Y1821160D02*
D03*
X2034480D02*
D03*
D90*
X1913890Y1439920D02*
D03*
Y1391920D02*
D03*
X1859280Y1439920D02*
D03*
Y1391920D02*
D03*
D91*
X1662430Y1330400D02*
D03*
D92*
Y1295400D02*
D03*
D93*
X1780540Y1854200D02*
D03*
X1654810D02*
D03*
D94*
X1729740Y1828800D02*
D03*
X1704340D02*
D03*
X1729740Y1808480D02*
D03*
X1771650Y1451610D02*
D03*
X1797050D02*
D03*
X1771650Y1426210D02*
D03*
X1797050D02*
D03*
X1771650Y1400810D02*
D03*
X1797050D02*
D03*
Y1477010D02*
D03*
X1771650D02*
D03*
X1797050Y1502410D02*
D03*
X1771650D02*
D03*
D95*
X1704340Y1808480D02*
D03*
D96*
X2242990Y1237550D02*
D03*
X2138103Y1331653D02*
D03*
X2124710Y1333500D02*
D03*
X2117503Y1325023D02*
D03*
X1937530Y1240600D02*
D03*
X1938020Y1249680D02*
D03*
X2105806Y1297940D02*
D03*
X2148840Y1381760D02*
D03*
X2149417Y1342967D02*
D03*
X1884680Y1240790D02*
D03*
X2198370Y1324610D02*
D03*
Y1333500D02*
D03*
X2218690Y1341120D02*
D03*
Y1324610D02*
D03*
Y1333500D02*
D03*
X2198370Y1341120D02*
D03*
X1892300Y1258570D02*
D03*
X2078990Y1284586D02*
D03*
X2225040Y1412240D02*
D03*
X2242995Y1332475D02*
D03*
X2242475Y1340995D02*
D03*
X2184205Y1275080D02*
D03*
X2153920Y1253490D02*
D03*
X2158220Y1372490D02*
D03*
X2173460Y1380490D02*
D03*
X2158220Y1396490D02*
D03*
Y1380490D02*
D03*
Y1388490D02*
D03*
X2138987Y1353397D02*
D03*
X2087122Y1305311D02*
D03*
X2044700Y1346200D02*
D03*
X2133330Y1347740D02*
D03*
X2099705Y1315355D02*
D03*
X2094048Y1309698D02*
D03*
X2144644Y1359054D02*
D03*
X2019300Y1308100D02*
D03*
X2025650Y1311910D02*
D03*
X2029820Y1318260D02*
D03*
X2183940Y1231440D02*
D03*
X2145180Y1237130D02*
D03*
X2032000Y1360690D02*
D03*
X1932940Y1313180D02*
D03*
X1828800Y1250950D02*
D03*
X1836420Y1221740D02*
D03*
X1967458Y1245232D02*
D03*
X1920240Y1207770D02*
D03*
X1821180Y1214651D02*
D03*
X1875284Y1200651D02*
D03*
X1809750Y1187450D02*
D03*
X1967230Y1236980D02*
D03*
X1875284Y1183651D02*
D03*
Y1191651D02*
D03*
Y1174651D02*
D03*
X2043430Y1606550D02*
D03*
X1643380Y1189990D02*
D03*
X2080260Y1708150D02*
D03*
X2076450Y1394460D02*
D03*
X2062480Y1550670D02*
D03*
X1879600Y1572260D02*
D03*
X1989990Y1381660D02*
D03*
X1977390Y1371600D02*
D03*
X1973580Y1459230D02*
D03*
X1972310Y1379220D02*
D03*
X1983740Y1385570D02*
D03*
X1959610Y1389380D02*
D03*
X1973580Y1451610D02*
D03*
Y1466850D02*
D03*
X1946910Y1595120D02*
D03*
X1918970Y1577340D02*
D03*
Y1595120D02*
D03*
X1822330Y1778790D02*
D03*
X1823720Y1651000D02*
D03*
X2272030Y1536700D02*
D03*
X1916430Y1512570D02*
D03*
X1908810Y1517650D02*
D03*
X1850390Y1527810D02*
D03*
X2016760Y1687830D02*
D03*
X1928060Y1550570D02*
D03*
X1973580Y1490980D02*
D03*
Y1475740D02*
D03*
Y1483360D02*
D03*
Y1498600D02*
D03*
X1929800Y1631470D02*
D03*
X1955800Y1633220D02*
D03*
X2181860Y1854200D02*
D03*
X2239010Y1852620D02*
D03*
X2150110Y1789430D02*
D03*
X2200910Y1508760D02*
D03*
X2032000Y1395730D02*
D03*
X1941195Y1426210D02*
D03*
X1744980Y1529080D02*
D03*
X1755140Y1691640D02*
D03*
X1797050Y1637030D02*
D03*
X2134870Y1657670D02*
D03*
X1733550Y1691640D02*
D03*
X2006600Y1405890D02*
D03*
X1944370Y1356360D02*
D03*
X2085340Y1620520D02*
D03*
X2042160Y1629410D02*
D03*
X2157730Y1656080D02*
D03*
X2227580Y1463040D02*
D03*
X2101850Y1483360D02*
D03*
X2110740Y1451610D02*
D03*
X2106930Y1465580D02*
D03*
X2098040Y1496060D02*
D03*
D97*
X1897380Y1854200D02*
D03*
X2011680D02*
D03*
D128*
X2125980Y1334770D02*
D03*
X2116080Y1344669D02*
D03*
X2115400Y1323403D02*
D03*
X2105500Y1333303D02*
D03*
D129*
X2109958Y1293788D02*
D03*
X2114555Y1298384D02*
D03*
X2105362Y1289192D02*
D03*
X2089452Y1305102D02*
D03*
X2098645Y1314294D02*
D03*
X2094048Y1309698D02*
D03*
X2154699Y1337473D02*
D03*
X2159295Y1342069D02*
D03*
X2150103Y1332876D02*
D03*
X2134193Y1348786D02*
D03*
X2143385Y1357979D02*
D03*
X2138789Y1353383D02*
D03*
D130*
X2158580Y1380640D02*
D03*
X2158580Y1387140D02*
D03*
X2158580Y1374140D02*
D03*
X2181080D02*
D03*
X2181080Y1387140D02*
D03*
X2181080Y1380640D02*
D03*
X2116180Y1254910D02*
D03*
X2116180Y1261410D02*
D03*
X2116180Y1248410D02*
D03*
X2138680D02*
D03*
X2138680Y1261410D02*
D03*
X2138680Y1254910D02*
D03*
D131*
X2074217Y1268500D02*
D03*
X2068560Y1274156D02*
D03*
X2095961Y1267616D02*
D03*
X2090304Y1273273D02*
D03*
X2078990Y1284586D02*
D03*
X2084647Y1278930D02*
D03*
X2079874Y1262843D02*
D03*
X2085531Y1257186D02*
D03*
D132*
X2234990Y1237550D02*
D03*
X2242990Y1252300D02*
D03*
X2234990D02*
D03*
X2242990Y1237550D02*
D03*
X2235200Y1271760D02*
D03*
X2243200Y1286510D02*
D03*
X2235200D02*
D03*
X2243200Y1271760D02*
D03*
D133*
X2225990Y1237550D02*
D03*
X2251990Y1252300D02*
D03*
X2225990D02*
D03*
X2251990Y1237550D02*
D03*
X2226200Y1271760D02*
D03*
X2252200Y1286510D02*
D03*
X2226200D02*
D03*
X2252200Y1271760D02*
D03*
D134*
X1740940Y1187450D02*
D03*
X1774190D02*
D03*
D135*
X1932940Y1602425D02*
D03*
X2251710Y1631280D02*
D03*
X2082800Y1360770D02*
D03*
D136*
X1932940Y1628425D02*
D03*
X2251710Y1605280D02*
D03*
X2082800Y1334770D02*
D03*
D137*
X1992458Y1336532D02*
D03*
X2006600Y1322390D02*
D03*
D138*
X2240280Y1841500D02*
D03*
X2188780D02*
D03*
D139*
X1654810Y1191260D02*
D03*
X1699811Y1191259D02*
D03*
M02*
